<?xml version="1.0" encoding="UTF-8" standalone="no"?>
<!DOCTYPE svg PUBLIC "-//W3C//DTD SVG 1.1//EN"
 "http://www.w3.org/Graphics/SVG/1.1/DTD/svg11.dtd">
<!-- Generated by graphviz version 2.43.0 (0)
 -->
<!-- Title: include/AttributeInfo.h Pages: 1 -->
<svg width="457pt" height="252pt"
 viewBox="0.00 0.00 456.50 252.00" xmlns="http://www.w3.org/2000/svg" xmlns:xlink="http://www.w3.org/1999/xlink">
<g id="graph0" class="graph" transform="scale(1 1) rotate(0) translate(4 248)">
<title>include/AttributeInfo.h</title>
<!-- Node1 -->
<g id="node1" class="node">
<title>Node1</title>
<g id="a_node1"><a xlink:title=" ">
<polygon fill="#bfbfbf" stroke="black" points="148,-224.5 148,-243.5 273,-243.5 273,-224.5 148,-224.5"/>
<text text-anchor="middle" x="210.5" y="-231.5" font-family="Helvetica,sans-Serif" font-size="10.00">include/AttributeInfo.h</text>
</a>
</g>
</g>
<!-- Node2 -->
<g id="node2" class="node">
<title>Node2</title>
<g id="a_node2"><a xlink:href="_class_file_8h.xhtml" target="_top" xlink:title=" ">
<polygon fill="none" stroke="black" points="113,-112.5 113,-131.5 220,-131.5 220,-112.5 113,-112.5"/>
<text text-anchor="middle" x="166.5" y="-119.5" font-family="Helvetica,sans-Serif" font-size="10.00">include/ClassFile.h</text>
</a>
</g>
</g>
<!-- Node1&#45;&gt;Node2 -->
<g id="edge1" class="edge">
<title>Node1&#45;&gt;Node2</title>
<path fill="none" stroke="midnightblue" d="M199.71,-215.71C194.91,-207.53 189.46,-197.48 185.5,-188 177.34,-168.47 171.26,-144.27 168.37,-131.62"/>
<polygon fill="midnightblue" stroke="midnightblue" points="196.75,-217.58 204.92,-224.33 202.74,-213.96 196.75,-217.58"/>
</g>
<!-- Node7 -->
<g id="node7" class="node">
<title>Node7</title>
<g id="a_node7"><a xlink:href="_field_info_8h.xhtml" target="_top" xlink:title=" ">
<polygon fill="none" stroke="black" points="33,-168.5 33,-187.5 138,-187.5 138,-168.5 33,-168.5"/>
<text text-anchor="middle" x="85.5" y="-175.5" font-family="Helvetica,sans-Serif" font-size="10.00">include/FieldInfo.h</text>
</a>
</g>
</g>
<!-- Node1&#45;&gt;Node7 -->
<g id="edge7" class="edge">
<title>Node1&#45;&gt;Node7</title>
<path fill="none" stroke="midnightblue" d="M181.26,-220.37C157.85,-210.26 125.66,-196.35 105.21,-187.52"/>
<polygon fill="midnightblue" stroke="midnightblue" points="180.13,-223.69 190.69,-224.44 182.9,-217.26 180.13,-223.69"/>
</g>
<!-- Node9 -->
<g id="node9" class="node">
<title>Node9</title>
<g id="a_node9"><a xlink:href="_method_info_8h.xhtml" target="_top" xlink:title=" ">
<polygon fill="none" stroke="black" points="195,-168.5 195,-187.5 314,-187.5 314,-168.5 195,-168.5"/>
<text text-anchor="middle" x="254.5" y="-175.5" font-family="Helvetica,sans-Serif" font-size="10.00">include/MethodInfo.h</text>
</a>
</g>
</g>
<!-- Node1&#45;&gt;Node9 -->
<g id="edge10" class="edge">
<title>Node1&#45;&gt;Node9</title>
<path fill="none" stroke="midnightblue" d="M224.23,-216.14C231.9,-206.74 241.13,-195.4 247.37,-187.75"/>
<polygon fill="midnightblue" stroke="midnightblue" points="221.37,-214.12 217.77,-224.08 226.8,-218.54 221.37,-214.12"/>
</g>
<!-- Node11 -->
<g id="node11" class="node">
<title>Node11</title>
<g id="a_node11"><a xlink:href="_attribute_info_8cpp.xhtml" target="_top" xlink:title=" ">
<polygon fill="none" stroke="black" points="332.5,-168.5 332.5,-187.5 448.5,-187.5 448.5,-168.5 332.5,-168.5"/>
<text text-anchor="middle" x="390.5" y="-175.5" font-family="Helvetica,sans-Serif" font-size="10.00">src/AttributeInfo.cpp</text>
</a>
</g>
</g>
<!-- Node1&#45;&gt;Node11 -->
<g id="edge13" class="edge">
<title>Node1&#45;&gt;Node11</title>
<path fill="none" stroke="midnightblue" d="M248.61,-221.57C282.56,-211.38 331.49,-196.7 362.11,-187.52"/>
<polygon fill="midnightblue" stroke="midnightblue" points="247.59,-218.22 239.02,-224.44 249.61,-224.92 247.59,-218.22"/>
</g>
<!-- Node3 -->
<g id="node3" class="node">
<title>Node3</title>
<g id="a_node3"><a xlink:href="_display_8h.xhtml" target="_top" xlink:title=" ">
<polygon fill="none" stroke="black" points="0,-56.5 0,-75.5 99,-75.5 99,-56.5 0,-56.5"/>
<text text-anchor="middle" x="49.5" y="-63.5" font-family="Helvetica,sans-Serif" font-size="10.00">include/Display.h</text>
</a>
</g>
</g>
<!-- Node2&#45;&gt;Node3 -->
<g id="edge2" class="edge">
<title>Node2&#45;&gt;Node3</title>
<path fill="none" stroke="midnightblue" d="M138.84,-108.23C116.95,-98.13 87,-84.31 67.95,-75.52"/>
<polygon fill="midnightblue" stroke="midnightblue" points="137.41,-111.43 147.96,-112.44 140.35,-105.08 137.41,-111.43"/>
</g>
<!-- Node4 -->
<g id="node4" class="node">
<title>Node4</title>
<g id="a_node4"><a xlink:href="_display_8cpp.xhtml" target="_top" xlink:title=" ">
<polygon fill="none" stroke="black" points="44,-0.5 44,-19.5 133,-19.5 133,-0.5 44,-0.5"/>
<text text-anchor="middle" x="88.5" y="-7.5" font-family="Helvetica,sans-Serif" font-size="10.00">src/Display.cpp</text>
</a>
</g>
</g>
<!-- Node2&#45;&gt;Node4 -->
<g id="edge5" class="edge">
<title>Node2&#45;&gt;Node4</title>
<path fill="none" stroke="midnightblue" d="M154.42,-103.96C137.51,-80.12 107.44,-37.71 94.59,-19.59"/>
<polygon fill="midnightblue" stroke="midnightblue" points="151.74,-106.24 160.38,-112.37 157.45,-102.19 151.74,-106.24"/>
</g>
<!-- Node5 -->
<g id="node5" class="node">
<title>Node5</title>
<g id="a_node5"><a xlink:href="_class_file_8cpp.xhtml" target="_top" xlink:title=" ">
<polygon fill="none" stroke="black" points="156,-56.5 156,-75.5 253,-75.5 253,-56.5 156,-56.5"/>
<text text-anchor="middle" x="204.5" y="-63.5" font-family="Helvetica,sans-Serif" font-size="10.00">src/ClassFile.cpp</text>
</a>
</g>
</g>
<!-- Node2&#45;&gt;Node5 -->
<g id="edge4" class="edge">
<title>Node2&#45;&gt;Node5</title>
<path fill="none" stroke="midnightblue" d="M178.56,-103.86C185.14,-94.5 193.01,-83.33 198.34,-75.75"/>
<polygon fill="midnightblue" stroke="midnightblue" points="175.67,-101.89 172.77,-112.08 181.39,-105.92 175.67,-101.89"/>
</g>
<!-- Node6 -->
<g id="node6" class="node">
<title>Node6</title>
<g id="a_node6"><a xlink:href="main_8cpp.xhtml" target="_top" xlink:title=" ">
<polygon fill="none" stroke="black" points="271,-56.5 271,-75.5 350,-75.5 350,-56.5 271,-56.5"/>
<text text-anchor="middle" x="310.5" y="-63.5" font-family="Helvetica,sans-Serif" font-size="10.00">src/main.cpp</text>
</a>
</g>
</g>
<!-- Node2&#45;&gt;Node6 -->
<g id="edge6" class="edge">
<title>Node2&#45;&gt;Node6</title>
<path fill="none" stroke="midnightblue" d="M198.75,-108.91C225.82,-98.75 263.82,-84.51 287.79,-75.52"/>
<polygon fill="midnightblue" stroke="midnightblue" points="197.45,-105.66 189.32,-112.44 199.91,-112.21 197.45,-105.66"/>
</g>
<!-- Node3&#45;&gt;Node4 -->
<g id="edge3" class="edge">
<title>Node3&#45;&gt;Node4</title>
<path fill="none" stroke="midnightblue" d="M61.88,-47.86C68.64,-38.5 76.71,-27.33 82.18,-19.75"/>
<polygon fill="midnightblue" stroke="midnightblue" points="58.96,-45.93 55.94,-56.08 64.63,-50.03 58.96,-45.93"/>
</g>
<!-- Node7&#45;&gt;Node2 -->
<g id="edge8" class="edge">
<title>Node7&#45;&gt;Node2</title>
<path fill="none" stroke="midnightblue" d="M107.07,-162.62C121.86,-152.76 141.01,-139.99 153.52,-131.65"/>
<polygon fill="midnightblue" stroke="midnightblue" points="104.89,-159.86 98.51,-168.32 108.78,-165.69 104.89,-159.86"/>
</g>
<!-- Node8 -->
<g id="node8" class="node">
<title>Node8</title>
<g id="a_node8"><a xlink:href="_field_info_8cpp.xhtml" target="_top" xlink:title=" ">
<polygon fill="none" stroke="black" points="0,-112.5 0,-131.5 95,-131.5 95,-112.5 0,-112.5"/>
<text text-anchor="middle" x="47.5" y="-119.5" font-family="Helvetica,sans-Serif" font-size="10.00">src/FieldInfo.cpp</text>
</a>
</g>
</g>
<!-- Node7&#45;&gt;Node8 -->
<g id="edge9" class="edge">
<title>Node7&#45;&gt;Node8</title>
<path fill="none" stroke="midnightblue" d="M73.44,-159.86C66.86,-150.5 58.99,-139.33 53.66,-131.75"/>
<polygon fill="midnightblue" stroke="midnightblue" points="70.61,-161.92 79.23,-168.08 76.33,-157.89 70.61,-161.92"/>
</g>
<!-- Node9&#45;&gt;Node2 -->
<g id="edge11" class="edge">
<title>Node9&#45;&gt;Node2</title>
<path fill="none" stroke="midnightblue" d="M231.52,-162.9C215.39,-153 194.32,-140.07 180.6,-131.65"/>
<polygon fill="midnightblue" stroke="midnightblue" points="230.01,-166.08 240.36,-168.32 233.67,-160.11 230.01,-166.08"/>
</g>
<!-- Node10 -->
<g id="node10" class="node">
<title>Node10</title>
<g id="a_node10"><a xlink:href="_method_info_8cpp.xhtml" target="_top" xlink:title=" ">
<polygon fill="none" stroke="black" points="238.5,-112.5 238.5,-131.5 348.5,-131.5 348.5,-112.5 238.5,-112.5"/>
<text text-anchor="middle" x="293.5" y="-119.5" font-family="Helvetica,sans-Serif" font-size="10.00">src/MethodInfo.cpp</text>
</a>
</g>
</g>
<!-- Node9&#45;&gt;Node10 -->
<g id="edge12" class="edge">
<title>Node9&#45;&gt;Node10</title>
<path fill="none" stroke="midnightblue" d="M266.88,-159.86C273.64,-150.5 281.71,-139.33 287.18,-131.75"/>
<polygon fill="midnightblue" stroke="midnightblue" points="263.96,-157.93 260.94,-168.08 269.63,-162.03 263.96,-157.93"/>
</g>
</g>
</svg>
