<?xml version="1.0" encoding="UTF-8" standalone="no"?>
<!DOCTYPE svg PUBLIC "-//W3C//DTD SVG 1.1//EN"
 "http://www.w3.org/Graphics/SVG/1.1/DTD/svg11.dtd">
<!-- Generated by graphviz version 2.43.0 (0)
 -->
<!-- Title: include/AttributeInfo.h Pages: 1 -->
<svg width="509pt" height="252pt"
 viewBox="0.00 0.00 508.50 252.00" xmlns="http://www.w3.org/2000/svg" xmlns:xlink="http://www.w3.org/1999/xlink">
<g id="graph0" class="graph" transform="scale(1 1) rotate(0) translate(4 248)">
<title>include/AttributeInfo.h</title>
<!-- Node1 -->
<g id="node1" class="node">
<title>Node1</title>
<g id="a_node1"><a xlink:title=" ">
<polygon fill="#bfbfbf" stroke="black" points="206,-224.5 206,-243.5 331,-243.5 331,-224.5 206,-224.5"/>
<text text-anchor="middle" x="268.5" y="-231.5" font-family="Helvetica,sans-Serif" font-size="10.00">include/AttributeInfo.h</text>
</a>
</g>
</g>
<!-- Node2 -->
<g id="node2" class="node">
<title>Node2</title>
<g id="a_node2"><a xlink:href="_class_file_8h.xhtml" target="_top" xlink:title=" ">
<polygon fill="none" stroke="black" points="113,-112.5 113,-131.5 220,-131.5 220,-112.5 113,-112.5"/>
<text text-anchor="middle" x="166.5" y="-119.5" font-family="Helvetica,sans-Serif" font-size="10.00">include/ClassFile.h</text>
</a>
</g>
</g>
<!-- Node1&#45;&gt;Node2 -->
<g id="edge1" class="edge">
<title>Node1&#45;&gt;Node2</title>
<path fill="none" stroke="midnightblue" d="M241.11,-219.57C227.34,-211.79 211.14,-200.97 199.5,-188 184.12,-170.86 173.93,-145.24 169.32,-131.86"/>
<polygon fill="midnightblue" stroke="midnightblue" points="239.71,-222.79 250.18,-224.46 243.03,-216.63 239.71,-222.79"/>
</g>
<!-- Node7 -->
<g id="node7" class="node">
<title>Node7</title>
<g id="a_node7"><a xlink:href="_field_info_8h.xhtml" target="_top" xlink:title=" ">
<polygon fill="none" stroke="black" points="47,-168.5 47,-187.5 152,-187.5 152,-168.5 47,-168.5"/>
<text text-anchor="middle" x="99.5" y="-175.5" font-family="Helvetica,sans-Serif" font-size="10.00">include/FieldInfo.h</text>
</a>
</g>
</g>
<!-- Node1&#45;&gt;Node7 -->
<g id="edge7" class="edge">
<title>Node1&#45;&gt;Node7</title>
<path fill="none" stroke="midnightblue" d="M231.9,-221.3C200.05,-211.13 154.66,-196.62 126.15,-187.52"/>
<polygon fill="midnightblue" stroke="midnightblue" points="231.13,-224.73 241.72,-224.44 233.26,-218.07 231.13,-224.73"/>
</g>
<!-- Node9 -->
<g id="node9" class="node">
<title>Node9</title>
<g id="a_node9"><a xlink:href="_opcode_8cpp.xhtml" target="_top" xlink:title=" ">
<polygon fill="none" stroke="black" points="238,-112.5 238,-131.5 329,-131.5 329,-112.5 238,-112.5"/>
<text text-anchor="middle" x="283.5" y="-119.5" font-family="Helvetica,sans-Serif" font-size="10.00">src/Opcode.cpp</text>
</a>
</g>
</g>
<!-- Node1&#45;&gt;Node9 -->
<g id="edge16" class="edge">
<title>Node1&#45;&gt;Node9</title>
<path fill="none" stroke="midnightblue" d="M301.56,-220.01C315.27,-212.78 329.75,-202.3 337.5,-188 349.73,-165.43 320,-143.34 299.97,-131.62"/>
<polygon fill="midnightblue" stroke="midnightblue" points="299.76,-216.99 292.29,-224.5 302.81,-223.29 299.76,-216.99"/>
</g>
<!-- Node10 -->
<g id="node10" class="node">
<title>Node10</title>
<g id="a_node10"><a xlink:href="_method_info_8h.xhtml" target="_top" xlink:title=" ">
<polygon fill="none" stroke="black" points="209,-168.5 209,-187.5 328,-187.5 328,-168.5 209,-168.5"/>
<text text-anchor="middle" x="268.5" y="-175.5" font-family="Helvetica,sans-Serif" font-size="10.00">include/MethodInfo.h</text>
</a>
</g>
</g>
<!-- Node1&#45;&gt;Node10 -->
<g id="edge11" class="edge">
<title>Node1&#45;&gt;Node10</title>
<path fill="none" stroke="midnightblue" d="M268.5,-213.8C268.5,-204.91 268.5,-194.78 268.5,-187.75"/>
<polygon fill="midnightblue" stroke="midnightblue" points="265,-214.08 268.5,-224.08 272,-214.08 265,-214.08"/>
</g>
<!-- Node12 -->
<g id="node12" class="node">
<title>Node12</title>
<g id="a_node12"><a xlink:href="_attribute_info_8cpp.xhtml" target="_top" xlink:title=" ">
<polygon fill="none" stroke="black" points="384.5,-168.5 384.5,-187.5 500.5,-187.5 500.5,-168.5 384.5,-168.5"/>
<text text-anchor="middle" x="442.5" y="-175.5" font-family="Helvetica,sans-Serif" font-size="10.00">src/AttributeInfo.cpp</text>
</a>
</g>
</g>
<!-- Node1&#45;&gt;Node12 -->
<g id="edge15" class="edge">
<title>Node1&#45;&gt;Node12</title>
<path fill="none" stroke="midnightblue" d="M305.76,-221.44C338.57,-211.26 385.58,-196.66 415.06,-187.52"/>
<polygon fill="midnightblue" stroke="midnightblue" points="304.58,-218.14 296.07,-224.44 306.66,-224.82 304.58,-218.14"/>
</g>
<!-- Node3 -->
<g id="node3" class="node">
<title>Node3</title>
<g id="a_node3"><a xlink:href="_display_8h.xhtml" target="_top" xlink:title=" ">
<polygon fill="none" stroke="black" points="59,-56.5 59,-75.5 158,-75.5 158,-56.5 59,-56.5"/>
<text text-anchor="middle" x="108.5" y="-63.5" font-family="Helvetica,sans-Serif" font-size="10.00">include/Display.h</text>
</a>
</g>
</g>
<!-- Node2&#45;&gt;Node3 -->
<g id="edge2" class="edge">
<title>Node2&#45;&gt;Node3</title>
<path fill="none" stroke="midnightblue" d="M149.59,-105.25C139.3,-95.67 126.53,-83.79 117.99,-75.83"/>
<polygon fill="midnightblue" stroke="midnightblue" points="147.48,-108.07 157.18,-112.32 152.25,-102.95 147.48,-108.07"/>
</g>
<!-- Node4 -->
<g id="node4" class="node">
<title>Node4</title>
<g id="a_node4"><a xlink:href="_display_8cpp.xhtml" target="_top" xlink:title=" ">
<polygon fill="none" stroke="black" points="25,-0.5 25,-19.5 114,-19.5 114,-0.5 25,-0.5"/>
<text text-anchor="middle" x="69.5" y="-7.5" font-family="Helvetica,sans-Serif" font-size="10.00">src/Display.cpp</text>
</a>
</g>
</g>
<!-- Node2&#45;&gt;Node4 -->
<g id="edge5" class="edge">
<title>Node2&#45;&gt;Node4</title>
<path fill="none" stroke="midnightblue" d="M103.19,-111.33C82.6,-104.85 61.89,-94.04 49.5,-76 37.33,-58.29 52.58,-32.91 62.4,-19.71"/>
<polygon fill="midnightblue" stroke="midnightblue" points="102.35,-114.73 112.92,-114.09 104.26,-108 102.35,-114.73"/>
</g>
<!-- Node5 -->
<g id="node5" class="node">
<title>Node5</title>
<g id="a_node5"><a xlink:href="_class_file_8cpp.xhtml" target="_top" xlink:title=" ">
<polygon fill="none" stroke="black" points="176,-56.5 176,-75.5 273,-75.5 273,-56.5 176,-56.5"/>
<text text-anchor="middle" x="224.5" y="-63.5" font-family="Helvetica,sans-Serif" font-size="10.00">src/ClassFile.cpp</text>
</a>
</g>
</g>
<!-- Node2&#45;&gt;Node5 -->
<g id="edge4" class="edge">
<title>Node2&#45;&gt;Node5</title>
<path fill="none" stroke="midnightblue" d="M183.41,-105.25C193.7,-95.67 206.47,-83.79 215.01,-75.83"/>
<polygon fill="midnightblue" stroke="midnightblue" points="180.75,-102.95 175.82,-112.32 185.52,-108.07 180.75,-102.95"/>
</g>
<!-- Node6 -->
<g id="node6" class="node">
<title>Node6</title>
<g id="a_node6"><a xlink:href="main_8cpp.xhtml" target="_top" xlink:title=" ">
<polygon fill="none" stroke="black" points="291,-56.5 291,-75.5 370,-75.5 370,-56.5 291,-56.5"/>
<text text-anchor="middle" x="330.5" y="-63.5" font-family="Helvetica,sans-Serif" font-size="10.00">src/main.cpp</text>
</a>
</g>
</g>
<!-- Node2&#45;&gt;Node6 -->
<g id="edge6" class="edge">
<title>Node2&#45;&gt;Node6</title>
<path fill="none" stroke="midnightblue" d="M202.02,-109.3C232.92,-99.13 276.97,-84.62 304.64,-75.52"/>
<polygon fill="midnightblue" stroke="midnightblue" points="200.89,-105.99 192.49,-112.44 203.08,-112.64 200.89,-105.99"/>
</g>
<!-- Node3&#45;&gt;Node4 -->
<g id="edge3" class="edge">
<title>Node3&#45;&gt;Node4</title>
<path fill="none" stroke="midnightblue" d="M96.12,-47.86C89.36,-38.5 81.29,-27.33 75.82,-19.75"/>
<polygon fill="midnightblue" stroke="midnightblue" points="93.37,-50.03 102.06,-56.08 99.04,-45.93 93.37,-50.03"/>
</g>
<!-- Node7&#45;&gt;Node2 -->
<g id="edge8" class="edge">
<title>Node7&#45;&gt;Node2</title>
<path fill="none" stroke="midnightblue" d="M118.33,-161.82C130.34,-152.15 145.47,-139.95 155.54,-131.83"/>
<polygon fill="midnightblue" stroke="midnightblue" points="115.85,-159.32 110.26,-168.32 120.25,-164.77 115.85,-159.32"/>
</g>
<!-- Node8 -->
<g id="node8" class="node">
<title>Node8</title>
<g id="a_node8"><a xlink:href="_field_info_8cpp.xhtml" target="_top" xlink:title=" ">
<polygon fill="none" stroke="black" points="0,-112.5 0,-131.5 95,-131.5 95,-112.5 0,-112.5"/>
<text text-anchor="middle" x="47.5" y="-119.5" font-family="Helvetica,sans-Serif" font-size="10.00">src/FieldInfo.cpp</text>
</a>
</g>
</g>
<!-- Node7&#45;&gt;Node8 -->
<g id="edge9" class="edge">
<title>Node7&#45;&gt;Node8</title>
<path fill="none" stroke="midnightblue" d="M83.82,-160.72C74.66,-151.2 63.45,-139.56 55.93,-131.75"/>
<polygon fill="midnightblue" stroke="midnightblue" points="81.46,-163.31 90.91,-168.08 86.5,-158.45 81.46,-163.31"/>
</g>
<!-- Node7&#45;&gt;Node9 -->
<g id="edge10" class="edge">
<title>Node7&#45;&gt;Node9</title>
<path fill="none" stroke="midnightblue" d="M138.45,-165.57C173.16,-155.38 223.18,-140.7 254.48,-131.52"/>
<polygon fill="midnightblue" stroke="midnightblue" points="137.27,-162.27 128.66,-168.44 139.24,-168.99 137.27,-162.27"/>
</g>
<!-- Node10&#45;&gt;Node2 -->
<g id="edge12" class="edge">
<title>Node10&#45;&gt;Node2</title>
<path fill="none" stroke="midnightblue" d="M243.17,-163.59C224.31,-153.61 199.12,-140.27 182.85,-131.65"/>
<polygon fill="midnightblue" stroke="midnightblue" points="241.64,-166.74 252.11,-168.32 244.91,-160.55 241.64,-166.74"/>
</g>
<!-- Node10&#45;&gt;Node9 -->
<g id="edge14" class="edge">
<title>Node10&#45;&gt;Node9</title>
<path fill="none" stroke="midnightblue" d="M273.67,-158.4C276.18,-149.36 279.07,-138.94 281.07,-131.75"/>
<polygon fill="midnightblue" stroke="midnightblue" points="270.28,-157.51 270.98,-168.08 277.03,-159.38 270.28,-157.51"/>
</g>
<!-- Node11 -->
<g id="node11" class="node">
<title>Node11</title>
<g id="a_node11"><a xlink:href="_method_info_8cpp.xhtml" target="_top" xlink:title=" ">
<polygon fill="none" stroke="black" points="347.5,-112.5 347.5,-131.5 457.5,-131.5 457.5,-112.5 347.5,-112.5"/>
<text text-anchor="middle" x="402.5" y="-119.5" font-family="Helvetica,sans-Serif" font-size="10.00">src/MethodInfo.cpp</text>
</a>
</g>
</g>
<!-- Node10&#45;&gt;Node11 -->
<g id="edge13" class="edge">
<title>Node10&#45;&gt;Node11</title>
<path fill="none" stroke="midnightblue" d="M299.18,-164.64C324.32,-154.5 359.25,-140.43 381.37,-131.52"/>
<polygon fill="midnightblue" stroke="midnightblue" points="297.7,-161.46 289.73,-168.44 300.32,-167.95 297.7,-161.46"/>
</g>
</g>
</svg>
