<?xml version="1.0" encoding="UTF-8" standalone="no"?>
<!DOCTYPE svg PUBLIC "-//W3C//DTD SVG 1.1//EN"
 "http://www.w3.org/Graphics/SVG/1.1/DTD/svg11.dtd">
<!-- Generated by graphviz version 2.43.0 (0)
 -->
<!-- Title: include/ClassFile.h Pages: 1 -->
<svg width="608pt" height="364pt"
 viewBox="0.00 0.00 607.50 364.00" xmlns="http://www.w3.org/2000/svg" xmlns:xlink="http://www.w3.org/1999/xlink">
<g id="graph0" class="graph" transform="scale(1 1) rotate(0) translate(4 360)">
<title>include/ClassFile.h</title>
<!-- Node1 -->
<g id="node1" class="node">
<title>Node1</title>
<g id="a_node1"><a xlink:title=" ">
<polygon fill="#bfbfbf" stroke="black" points="373.5,-336.5 373.5,-355.5 480.5,-355.5 480.5,-336.5 373.5,-336.5"/>
<text text-anchor="middle" x="427" y="-343.5" font-family="Helvetica,sans-Serif" font-size="10.00">include/ClassFile.h</text>
</a>
</g>
</g>
<!-- Node2 -->
<g id="node2" class="node">
<title>Node2</title>
<g id="a_node2"><a xlink:href="_definitions_8h.xhtml" target="_top" xlink:title=" ">
<polygon fill="none" stroke="black" points="286.5,-56.5 286.5,-75.5 365.5,-75.5 365.5,-56.5 286.5,-56.5"/>
<text text-anchor="middle" x="326" y="-63.5" font-family="Helvetica,sans-Serif" font-size="10.00">Definitions.h</text>
</a>
</g>
</g>
<!-- Node1&#45;&gt;Node2 -->
<g id="edge1" class="edge">
<title>Node1&#45;&gt;Node2</title>
<path fill="none" stroke="midnightblue" d="M373.4,-338.86C313.86,-328.71 226,-302.33 226,-235 226,-235 226,-235 226,-177 226,-132.98 270.38,-98.8 300.01,-80.87"/>
<polygon fill="midnightblue" stroke="midnightblue" points="302.14,-83.68 309.04,-75.64 298.63,-77.63 302.14,-83.68"/>
</g>
<!-- Node12 -->
<g id="node12" class="node">
<title>Node12</title>
<g id="a_node12"><a xlink:href="_cp_info_8h.xhtml" target="_top" xlink:title=" ">
<polygon fill="none" stroke="black" points="410.5,-112.5 410.5,-131.5 467.5,-131.5 467.5,-112.5 410.5,-112.5"/>
<text text-anchor="middle" x="439" y="-119.5" font-family="Helvetica,sans-Serif" font-size="10.00">CpInfo.h</text>
</a>
</g>
</g>
<!-- Node1&#45;&gt;Node12 -->
<g id="edge11" class="edge">
<title>Node1&#45;&gt;Node12</title>
<path fill="none" stroke="midnightblue" d="M480.54,-338.56C504.74,-332.68 531.18,-321.44 546,-300 586.22,-241.79 501.14,-168.33 459.81,-137.58"/>
<polygon fill="midnightblue" stroke="midnightblue" points="461.63,-134.58 451.49,-131.52 457.52,-140.24 461.63,-134.58"/>
</g>
<!-- Node13 -->
<g id="node13" class="node">
<title>Node13</title>
<g id="a_node13"><a xlink:href="_attribute_info_8h.xhtml" target="_top" xlink:title=" ">
<polygon fill="none" stroke="black" points="331.5,-224.5 331.5,-243.5 418.5,-243.5 418.5,-224.5 331.5,-224.5"/>
<text text-anchor="middle" x="375" y="-231.5" font-family="Helvetica,sans-Serif" font-size="10.00">AttributeInfo.h</text>
</a>
</g>
</g>
<!-- Node1&#45;&gt;Node13 -->
<g id="edge13" class="edge">
<title>Node1&#45;&gt;Node13</title>
<path fill="none" stroke="midnightblue" d="M425.24,-336.25C422.47,-323.45 416.4,-299.06 407,-280 402.08,-270.02 395.04,-259.85 388.82,-251.7"/>
<polygon fill="midnightblue" stroke="midnightblue" points="391.49,-249.43 382.53,-243.76 386,-253.77 391.49,-249.43"/>
</g>
<!-- Node15 -->
<g id="node15" class="node">
<title>Node15</title>
<g id="a_node15"><a xlink:href="_field_info_8h.xhtml" target="_top" xlink:title=" ">
<polygon fill="none" stroke="black" points="331.5,-280.5 331.5,-299.5 398.5,-299.5 398.5,-280.5 331.5,-280.5"/>
<text text-anchor="middle" x="365" y="-287.5" font-family="Helvetica,sans-Serif" font-size="10.00">FieldInfo.h</text>
</a>
</g>
</g>
<!-- Node1&#45;&gt;Node15 -->
<g id="edge19" class="edge">
<title>Node1&#45;&gt;Node15</title>
<path fill="none" stroke="midnightblue" d="M417.04,-336.32C407.87,-328.34 394.06,-316.31 382.97,-306.65"/>
<polygon fill="midnightblue" stroke="midnightblue" points="384.98,-303.76 375.14,-299.83 380.38,-309.04 384.98,-303.76"/>
</g>
<!-- Node16 -->
<g id="node16" class="node">
<title>Node16</title>
<g id="a_node16"><a xlink:href="_method_info_8h.xhtml" target="_top" xlink:title=" ">
<polygon fill="none" stroke="black" points="455.5,-280.5 455.5,-299.5 536.5,-299.5 536.5,-280.5 455.5,-280.5"/>
<text text-anchor="middle" x="496" y="-287.5" font-family="Helvetica,sans-Serif" font-size="10.00">MethodInfo.h</text>
</a>
</g>
</g>
<!-- Node1&#45;&gt;Node16 -->
<g id="edge23" class="edge">
<title>Node1&#45;&gt;Node16</title>
<path fill="none" stroke="midnightblue" d="M438.09,-336.32C448.49,-328.18 464.26,-315.84 476.72,-306.09"/>
<polygon fill="midnightblue" stroke="midnightblue" points="478.99,-308.75 484.71,-299.83 474.68,-303.24 478.99,-308.75"/>
</g>
<!-- Node3 -->
<g id="node3" class="node">
<title>Node3</title>
<g id="a_node3"><a xlink:title=" ">
<polygon fill="none" stroke="#bfbfbf" points="0,-0.5 0,-19.5 64,-19.5 64,-0.5 0,-0.5"/>
<text text-anchor="middle" x="32" y="-7.5" font-family="Helvetica,sans-Serif" font-size="10.00">sys/stat.h</text>
</a>
</g>
</g>
<!-- Node2&#45;&gt;Node3 -->
<g id="edge2" class="edge">
<title>Node2&#45;&gt;Node3</title>
<path fill="none" stroke="midnightblue" d="M286.47,-58.47C238.55,-50.45 155.11,-36.12 74.07,-20.15"/>
<polygon fill="midnightblue" stroke="midnightblue" points="74.69,-16.71 64.2,-18.2 73.33,-23.57 74.69,-16.71"/>
</g>
<!-- Node4 -->
<g id="node4" class="node">
<title>Node4</title>
<g id="a_node4"><a xlink:title=" ">
<polygon fill="none" stroke="#bfbfbf" points="82.5,-0.5 82.5,-19.5 137.5,-19.5 137.5,-0.5 82.5,-0.5"/>
<text text-anchor="middle" x="110" y="-7.5" font-family="Helvetica,sans-Serif" font-size="10.00">fstream</text>
</a>
</g>
</g>
<!-- Node2&#45;&gt;Node4 -->
<g id="edge3" class="edge">
<title>Node2&#45;&gt;Node4</title>
<path fill="none" stroke="midnightblue" d="M291.77,-56.44C252.4,-46.6 187.98,-30.5 147.34,-20.34"/>
<polygon fill="midnightblue" stroke="midnightblue" points="148.1,-16.92 137.55,-17.89 146.41,-23.71 148.1,-16.92"/>
</g>
<!-- Node5 -->
<g id="node5" class="node">
<title>Node5</title>
<g id="a_node5"><a xlink:title=" ">
<polygon fill="none" stroke="#bfbfbf" points="156,-0.5 156,-19.5 216,-19.5 216,-0.5 156,-0.5"/>
<text text-anchor="middle" x="186" y="-7.5" font-family="Helvetica,sans-Serif" font-size="10.00">iostream</text>
</a>
</g>
</g>
<!-- Node2&#45;&gt;Node5 -->
<g id="edge4" class="edge">
<title>Node2&#45;&gt;Node5</title>
<path fill="none" stroke="midnightblue" d="M303.82,-56.44C280.57,-47.48 243.85,-33.31 217.58,-23.18"/>
<polygon fill="midnightblue" stroke="midnightblue" points="218.67,-19.85 208.08,-19.52 216.15,-26.38 218.67,-19.85"/>
</g>
<!-- Node6 -->
<g id="node6" class="node">
<title>Node6</title>
<g id="a_node6"><a xlink:title=" ">
<polygon fill="none" stroke="#bfbfbf" points="234,-0.5 234,-19.5 284,-19.5 284,-0.5 234,-0.5"/>
<text text-anchor="middle" x="259" y="-7.5" font-family="Helvetica,sans-Serif" font-size="10.00">cstdint</text>
</a>
</g>
</g>
<!-- Node2&#45;&gt;Node6 -->
<g id="edge5" class="edge">
<title>Node2&#45;&gt;Node6</title>
<path fill="none" stroke="midnightblue" d="M315.24,-56.32C305.23,-48.26 290.11,-36.08 278.07,-26.37"/>
<polygon fill="midnightblue" stroke="midnightblue" points="279.94,-23.38 269.96,-19.83 275.55,-28.83 279.94,-23.38"/>
</g>
<!-- Node7 -->
<g id="node7" class="node">
<title>Node7</title>
<g id="a_node7"><a xlink:title=" ">
<polygon fill="none" stroke="#bfbfbf" points="302.5,-0.5 302.5,-19.5 349.5,-19.5 349.5,-0.5 302.5,-0.5"/>
<text text-anchor="middle" x="326" y="-7.5" font-family="Helvetica,sans-Serif" font-size="10.00">vector</text>
</a>
</g>
</g>
<!-- Node2&#45;&gt;Node7 -->
<g id="edge6" class="edge">
<title>Node2&#45;&gt;Node7</title>
<path fill="none" stroke="midnightblue" d="M326,-56.08C326,-49.01 326,-38.86 326,-29.99"/>
<polygon fill="midnightblue" stroke="midnightblue" points="329.5,-29.75 326,-19.75 322.5,-29.75 329.5,-29.75"/>
</g>
<!-- Node8 -->
<g id="node8" class="node">
<title>Node8</title>
<g id="a_node8"><a xlink:title=" ">
<polygon fill="none" stroke="#bfbfbf" points="368,-0.5 368,-19.5 412,-19.5 412,-0.5 368,-0.5"/>
<text text-anchor="middle" x="390" y="-7.5" font-family="Helvetica,sans-Serif" font-size="10.00">string</text>
</a>
</g>
</g>
<!-- Node2&#45;&gt;Node8 -->
<g id="edge7" class="edge">
<title>Node2&#45;&gt;Node8</title>
<path fill="none" stroke="midnightblue" d="M336.28,-56.32C345.84,-48.26 360.28,-36.08 371.78,-26.37"/>
<polygon fill="midnightblue" stroke="midnightblue" points="374.14,-28.96 379.53,-19.83 369.63,-23.61 374.14,-28.96"/>
</g>
<!-- Node9 -->
<g id="node9" class="node">
<title>Node9</title>
<g id="a_node9"><a xlink:title=" ">
<polygon fill="none" stroke="#bfbfbf" points="430,-0.5 430,-19.5 468,-19.5 468,-0.5 430,-0.5"/>
<text text-anchor="middle" x="449" y="-7.5" font-family="Helvetica,sans-Serif" font-size="10.00">map</text>
</a>
</g>
</g>
<!-- Node2&#45;&gt;Node9 -->
<g id="edge8" class="edge">
<title>Node2&#45;&gt;Node9</title>
<path fill="none" stroke="midnightblue" d="M345.49,-56.44C365.64,-47.6 397.32,-33.69 420.33,-23.59"/>
<polygon fill="midnightblue" stroke="midnightblue" points="421.85,-26.74 429.6,-19.52 419.04,-20.33 421.85,-26.74"/>
</g>
<!-- Node10 -->
<g id="node10" class="node">
<title>Node10</title>
<g id="a_node10"><a xlink:title=" ">
<polygon fill="none" stroke="#bfbfbf" points="486,-0.5 486,-19.5 530,-19.5 530,-0.5 486,-0.5"/>
<text text-anchor="middle" x="508" y="-7.5" font-family="Helvetica,sans-Serif" font-size="10.00">limits</text>
</a>
</g>
</g>
<!-- Node2&#45;&gt;Node10 -->
<g id="edge9" class="edge">
<title>Node2&#45;&gt;Node10</title>
<path fill="none" stroke="midnightblue" d="M354.84,-56.44C387.81,-46.66 441.64,-30.69 475.92,-20.52"/>
<polygon fill="midnightblue" stroke="midnightblue" points="477.29,-23.76 485.88,-17.56 475.3,-17.05 477.29,-23.76"/>
</g>
<!-- Node11 -->
<g id="node11" class="node">
<title>Node11</title>
<g id="a_node11"><a xlink:title=" ">
<polygon fill="none" stroke="#bfbfbf" points="548.5,-0.5 548.5,-19.5 599.5,-19.5 599.5,-0.5 548.5,-0.5"/>
<text text-anchor="middle" x="574" y="-7.5" font-family="Helvetica,sans-Serif" font-size="10.00">math.h</text>
</a>
</g>
</g>
<!-- Node2&#45;&gt;Node11 -->
<g id="edge10" class="edge">
<title>Node2&#45;&gt;Node11</title>
<path fill="none" stroke="midnightblue" d="M365.76,-57.14C406.63,-48.94 472.31,-35.43 538.63,-20"/>
<polygon fill="midnightblue" stroke="midnightblue" points="539.48,-23.4 548.42,-17.72 537.88,-16.58 539.48,-23.4"/>
</g>
<!-- Node12&#45;&gt;Node2 -->
<g id="edge12" class="edge">
<title>Node12&#45;&gt;Node2</title>
<path fill="none" stroke="midnightblue" d="M421.09,-112.44C402.75,-103.68 373.99,-89.94 352.91,-79.86"/>
<polygon fill="midnightblue" stroke="midnightblue" points="354.35,-76.67 343.82,-75.52 351.33,-82.99 354.35,-76.67"/>
</g>
<!-- Node13&#45;&gt;Node2 -->
<g id="edge14" class="edge">
<title>Node13&#45;&gt;Node2</title>
<path fill="none" stroke="midnightblue" d="M358.37,-224.46C345.51,-216.84 328.66,-204.36 321,-188 305.38,-154.65 313.48,-110.28 320.15,-85.6"/>
<polygon fill="midnightblue" stroke="midnightblue" points="323.58,-86.33 323.02,-75.75 316.86,-84.37 323.58,-86.33"/>
</g>
<!-- Node13&#45;&gt;Node12 -->
<g id="edge15" class="edge">
<title>Node13&#45;&gt;Node12</title>
<path fill="none" stroke="midnightblue" d="M380.02,-224.37C390.54,-206.3 415.04,-164.18 428.93,-140.31"/>
<polygon fill="midnightblue" stroke="midnightblue" points="432,-142 434,-131.59 425.95,-138.47 432,-142"/>
</g>
<!-- Node14 -->
<g id="node14" class="node">
<title>Node14</title>
<g id="a_node14"><a xlink:href="_opcode_8h.xhtml" target="_top" xlink:title=" ">
<polygon fill="none" stroke="black" points="330,-168.5 330,-187.5 392,-187.5 392,-168.5 330,-168.5"/>
<text text-anchor="middle" x="361" y="-175.5" font-family="Helvetica,sans-Serif" font-size="10.00">Opcode.h</text>
</a>
</g>
</g>
<!-- Node13&#45;&gt;Node14 -->
<g id="edge16" class="edge">
<title>Node13&#45;&gt;Node14</title>
<path fill="none" stroke="midnightblue" d="M372.69,-224.08C370.83,-216.93 368.16,-206.64 365.85,-197.69"/>
<polygon fill="midnightblue" stroke="midnightblue" points="369.17,-196.55 363.27,-187.75 362.39,-198.31 369.17,-196.55"/>
</g>
<!-- Node14&#45;&gt;Node2 -->
<g id="edge17" class="edge">
<title>Node14&#45;&gt;Node2</title>
<path fill="none" stroke="midnightblue" d="M358.25,-168.37C352.58,-150.54 339.46,-109.3 331.81,-85.27"/>
<polygon fill="midnightblue" stroke="midnightblue" points="335.1,-84.06 328.73,-75.59 328.43,-86.18 335.1,-84.06"/>
</g>
<!-- Node14&#45;&gt;Node12 -->
<g id="edge18" class="edge">
<title>Node14&#45;&gt;Node12</title>
<path fill="none" stroke="midnightblue" d="M373.53,-168.32C385.59,-159.98 404.03,-147.21 418.27,-137.35"/>
<polygon fill="midnightblue" stroke="midnightblue" points="420.27,-140.22 426.5,-131.65 416.28,-134.47 420.27,-140.22"/>
</g>
<!-- Node15&#45;&gt;Node2 -->
<g id="edge21" class="edge">
<title>Node15&#45;&gt;Node2</title>
<path fill="none" stroke="midnightblue" d="M353.61,-280.3C343.66,-272.06 329.66,-258.77 322,-244 294.87,-191.67 298.41,-169.99 309,-112 310.69,-102.76 314.17,-92.95 317.55,-84.85"/>
<polygon fill="midnightblue" stroke="midnightblue" points="320.76,-86.25 321.63,-75.69 314.37,-83.4 320.76,-86.25"/>
</g>
<!-- Node15&#45;&gt;Node12 -->
<g id="edge20" class="edge">
<title>Node15&#45;&gt;Node12</title>
<path fill="none" stroke="midnightblue" d="M384.45,-280.39C398.79,-272.94 417.4,-260.73 427,-244 445.49,-211.77 444.23,-166.65 441.63,-141.61"/>
<polygon fill="midnightblue" stroke="midnightblue" points="445.1,-141.13 440.41,-131.63 438.15,-141.98 445.1,-141.13"/>
</g>
<!-- Node15&#45;&gt;Node13 -->
<g id="edge22" class="edge">
<title>Node15&#45;&gt;Node13</title>
<path fill="none" stroke="midnightblue" d="M366.65,-280.08C367.98,-272.93 369.88,-262.64 371.54,-253.69"/>
<polygon fill="midnightblue" stroke="midnightblue" points="375,-254.22 373.38,-243.75 368.12,-252.95 375,-254.22"/>
</g>
<!-- Node16&#45;&gt;Node2 -->
<g id="edge24" class="edge">
<title>Node16&#45;&gt;Node2</title>
<path fill="none" stroke="midnightblue" d="M498.25,-280.14C504.97,-251.39 521.7,-159.87 476,-112 450.17,-84.94 408.77,-73.97 376,-69.61"/>
<polygon fill="midnightblue" stroke="midnightblue" points="376.03,-66.09 365.69,-68.41 375.22,-73.04 376.03,-66.09"/>
</g>
<!-- Node16&#45;&gt;Node12 -->
<g id="edge26" class="edge">
<title>Node16&#45;&gt;Node12</title>
<path fill="none" stroke="midnightblue" d="M495.57,-280.41C494.29,-260.04 489.41,-207.6 472,-168 467.48,-157.71 460.27,-147.5 453.75,-139.42"/>
<polygon fill="midnightblue" stroke="midnightblue" points="456.23,-136.94 447.1,-131.57 450.9,-141.46 456.23,-136.94"/>
</g>
<!-- Node16&#45;&gt;Node13 -->
<g id="edge25" class="edge">
<title>Node16&#45;&gt;Node13</title>
<path fill="none" stroke="midnightblue" d="M476.83,-280.44C457.09,-271.64 426.11,-257.81 403.51,-247.72"/>
<polygon fill="midnightblue" stroke="midnightblue" points="404.64,-244.4 394.08,-243.52 401.79,-250.79 404.64,-244.4"/>
</g>
</g>
</svg>
