<?xml version="1.0" encoding="UTF-8" standalone="no"?>
<!DOCTYPE svg PUBLIC "-//W3C//DTD SVG 1.1//EN"
 "http://www.w3.org/Graphics/SVG/1.1/DTD/svg11.dtd">
<!-- Generated by graphviz version 2.43.0 (0)
 -->
<!-- Title: src/ClassFile.cpp Pages: 1 -->
<svg width="643pt" height="420pt"
 viewBox="0.00 0.00 642.50 420.00" xmlns="http://www.w3.org/2000/svg" xmlns:xlink="http://www.w3.org/1999/xlink">
<g id="graph0" class="graph" transform="scale(1 1) rotate(0) translate(4 416)">
<title>src/ClassFile.cpp</title>
<!-- Node1 -->
<g id="node1" class="node">
<title>Node1</title>
<g id="a_node1"><a xlink:title=" ">
<polygon fill="#bfbfbf" stroke="black" points="388.5,-392.5 388.5,-411.5 485.5,-411.5 485.5,-392.5 388.5,-392.5"/>
<text text-anchor="middle" x="437" y="-399.5" font-family="Helvetica,sans-Serif" font-size="10.00">src/ClassFile.cpp</text>
</a>
</g>
</g>
<!-- Node2 -->
<g id="node2" class="node">
<title>Node2</title>
<g id="a_node2"><a xlink:href="_class_file_8h.xhtml" target="_top" xlink:title=" ">
<polygon fill="none" stroke="black" points="403,-336.5 403,-355.5 471,-355.5 471,-336.5 403,-336.5"/>
<text text-anchor="middle" x="437" y="-343.5" font-family="Helvetica,sans-Serif" font-size="10.00">ClassFile.h</text>
</a>
</g>
</g>
<!-- Node1&#45;&gt;Node2 -->
<g id="edge1" class="edge">
<title>Node1&#45;&gt;Node2</title>
<path fill="none" stroke="midnightblue" d="M437,-392.08C437,-385.01 437,-374.86 437,-365.99"/>
<polygon fill="midnightblue" stroke="midnightblue" points="440.5,-365.75 437,-355.75 433.5,-365.75 440.5,-365.75"/>
</g>
<!-- Node3 -->
<g id="node3" class="node">
<title>Node3</title>
<g id="a_node3"><a xlink:href="_definitions_8h.xhtml" target="_top" xlink:title=" ">
<polygon fill="none" stroke="black" points="286.5,-56.5 286.5,-75.5 365.5,-75.5 365.5,-56.5 286.5,-56.5"/>
<text text-anchor="middle" x="326" y="-63.5" font-family="Helvetica,sans-Serif" font-size="10.00">Definitions.h</text>
</a>
</g>
</g>
<!-- Node2&#45;&gt;Node3 -->
<g id="edge2" class="edge">
<title>Node2&#45;&gt;Node3</title>
<path fill="none" stroke="midnightblue" d="M402.79,-344.82C335.2,-342.46 191,-326.7 191,-235 191,-235 191,-235 191,-177 191,-126.31 248.91,-94.83 288.88,-79.14"/>
<polygon fill="midnightblue" stroke="midnightblue" points="290.22,-82.38 298.35,-75.58 287.76,-75.82 290.22,-82.38"/>
</g>
<!-- Node13 -->
<g id="node13" class="node">
<title>Node13</title>
<g id="a_node13"><a xlink:href="_cp_info_8h.xhtml" target="_top" xlink:title=" ">
<polygon fill="none" stroke="black" points="394.5,-112.5 394.5,-131.5 451.5,-131.5 451.5,-112.5 394.5,-112.5"/>
<text text-anchor="middle" x="423" y="-119.5" font-family="Helvetica,sans-Serif" font-size="10.00">CpInfo.h</text>
</a>
</g>
</g>
<!-- Node2&#45;&gt;Node13 -->
<g id="edge12" class="edge">
<title>Node2&#45;&gt;Node13</title>
<path fill="none" stroke="midnightblue" d="M437.78,-336.46C439.94,-310.8 445.27,-232.17 436,-168 434.71,-159.05 432.08,-149.38 429.53,-141.3"/>
<polygon fill="midnightblue" stroke="midnightblue" points="432.84,-140.16 426.33,-131.81 426.2,-142.4 432.84,-140.16"/>
</g>
<!-- Node14 -->
<g id="node14" class="node">
<title>Node14</title>
<g id="a_node14"><a xlink:href="_attribute_info_8h.xhtml" target="_top" xlink:title=" ">
<polygon fill="none" stroke="black" points="307.5,-224.5 307.5,-243.5 394.5,-243.5 394.5,-224.5 307.5,-224.5"/>
<text text-anchor="middle" x="351" y="-231.5" font-family="Helvetica,sans-Serif" font-size="10.00">AttributeInfo.h</text>
</a>
</g>
</g>
<!-- Node2&#45;&gt;Node14 -->
<g id="edge14" class="edge">
<title>Node2&#45;&gt;Node14</title>
<path fill="none" stroke="midnightblue" d="M432.08,-336.21C424.73,-323.36 410.09,-298.9 395,-280 386.75,-269.67 376.47,-259.06 367.93,-250.73"/>
<polygon fill="midnightblue" stroke="midnightblue" points="370.32,-248.18 360.67,-243.8 365.49,-253.24 370.32,-248.18"/>
</g>
<!-- Node16 -->
<g id="node16" class="node">
<title>Node16</title>
<g id="a_node16"><a xlink:href="_field_info_8h.xhtml" target="_top" xlink:title=" ">
<polygon fill="none" stroke="black" points="319.5,-280.5 319.5,-299.5 386.5,-299.5 386.5,-280.5 319.5,-280.5"/>
<text text-anchor="middle" x="353" y="-287.5" font-family="Helvetica,sans-Serif" font-size="10.00">FieldInfo.h</text>
</a>
</g>
</g>
<!-- Node2&#45;&gt;Node16 -->
<g id="edge20" class="edge">
<title>Node2&#45;&gt;Node16</title>
<path fill="none" stroke="midnightblue" d="M423.5,-336.32C410.4,-327.9 390.29,-314.97 374.89,-305.07"/>
<polygon fill="midnightblue" stroke="midnightblue" points="376.77,-302.12 366.46,-299.65 372.98,-308.01 376.77,-302.12"/>
</g>
<!-- Node17 -->
<g id="node17" class="node">
<title>Node17</title>
<g id="a_node17"><a xlink:href="_method_info_8h.xhtml" target="_top" xlink:title=" ">
<polygon fill="none" stroke="black" points="489.5,-280.5 489.5,-299.5 570.5,-299.5 570.5,-280.5 489.5,-280.5"/>
<text text-anchor="middle" x="530" y="-287.5" font-family="Helvetica,sans-Serif" font-size="10.00">MethodInfo.h</text>
</a>
</g>
</g>
<!-- Node2&#45;&gt;Node17 -->
<g id="edge24" class="edge">
<title>Node2&#45;&gt;Node17</title>
<path fill="none" stroke="midnightblue" d="M451.94,-336.32C466.59,-327.82 489.13,-314.73 506.24,-304.8"/>
<polygon fill="midnightblue" stroke="midnightblue" points="508.2,-307.7 515.1,-299.65 504.69,-301.65 508.2,-307.7"/>
</g>
<!-- Node18 -->
<g id="node18" class="node">
<title>Node18</title>
<g id="a_node18"><a xlink:href="_interface_8h.xhtml" target="_top" xlink:title=" ">
<polygon fill="none" stroke="black" points="565.5,-168.5 565.5,-187.5 634.5,-187.5 634.5,-168.5 565.5,-168.5"/>
<text text-anchor="middle" x="600" y="-175.5" font-family="Helvetica,sans-Serif" font-size="10.00">Interface.h</text>
</a>
</g>
</g>
<!-- Node2&#45;&gt;Node18 -->
<g id="edge28" class="edge">
<title>Node2&#45;&gt;Node18</title>
<path fill="none" stroke="midnightblue" d="M471.06,-343.85C503.73,-340.83 551.95,-330.97 579,-300 604.04,-271.32 604.37,-223.78 602.27,-197.64"/>
<polygon fill="midnightblue" stroke="midnightblue" points="605.74,-197.17 601.25,-187.57 598.78,-197.87 605.74,-197.17"/>
</g>
<!-- Node4 -->
<g id="node4" class="node">
<title>Node4</title>
<g id="a_node4"><a xlink:title=" ">
<polygon fill="none" stroke="#bfbfbf" points="0,-0.5 0,-19.5 64,-19.5 64,-0.5 0,-0.5"/>
<text text-anchor="middle" x="32" y="-7.5" font-family="Helvetica,sans-Serif" font-size="10.00">sys/stat.h</text>
</a>
</g>
</g>
<!-- Node3&#45;&gt;Node4 -->
<g id="edge3" class="edge">
<title>Node3&#45;&gt;Node4</title>
<path fill="none" stroke="midnightblue" d="M286.47,-58.47C238.55,-50.45 155.11,-36.12 74.07,-20.15"/>
<polygon fill="midnightblue" stroke="midnightblue" points="74.69,-16.71 64.2,-18.2 73.33,-23.57 74.69,-16.71"/>
</g>
<!-- Node5 -->
<g id="node5" class="node">
<title>Node5</title>
<g id="a_node5"><a xlink:title=" ">
<polygon fill="none" stroke="#bfbfbf" points="82.5,-0.5 82.5,-19.5 137.5,-19.5 137.5,-0.5 82.5,-0.5"/>
<text text-anchor="middle" x="110" y="-7.5" font-family="Helvetica,sans-Serif" font-size="10.00">fstream</text>
</a>
</g>
</g>
<!-- Node3&#45;&gt;Node5 -->
<g id="edge4" class="edge">
<title>Node3&#45;&gt;Node5</title>
<path fill="none" stroke="midnightblue" d="M291.77,-56.44C252.4,-46.6 187.98,-30.5 147.34,-20.34"/>
<polygon fill="midnightblue" stroke="midnightblue" points="148.1,-16.92 137.55,-17.89 146.41,-23.71 148.1,-16.92"/>
</g>
<!-- Node6 -->
<g id="node6" class="node">
<title>Node6</title>
<g id="a_node6"><a xlink:title=" ">
<polygon fill="none" stroke="#bfbfbf" points="156,-0.5 156,-19.5 216,-19.5 216,-0.5 156,-0.5"/>
<text text-anchor="middle" x="186" y="-7.5" font-family="Helvetica,sans-Serif" font-size="10.00">iostream</text>
</a>
</g>
</g>
<!-- Node3&#45;&gt;Node6 -->
<g id="edge5" class="edge">
<title>Node3&#45;&gt;Node6</title>
<path fill="none" stroke="midnightblue" d="M303.82,-56.44C280.57,-47.48 243.85,-33.31 217.58,-23.18"/>
<polygon fill="midnightblue" stroke="midnightblue" points="218.67,-19.85 208.08,-19.52 216.15,-26.38 218.67,-19.85"/>
</g>
<!-- Node7 -->
<g id="node7" class="node">
<title>Node7</title>
<g id="a_node7"><a xlink:title=" ">
<polygon fill="none" stroke="#bfbfbf" points="234,-0.5 234,-19.5 284,-19.5 284,-0.5 234,-0.5"/>
<text text-anchor="middle" x="259" y="-7.5" font-family="Helvetica,sans-Serif" font-size="10.00">cstdint</text>
</a>
</g>
</g>
<!-- Node3&#45;&gt;Node7 -->
<g id="edge6" class="edge">
<title>Node3&#45;&gt;Node7</title>
<path fill="none" stroke="midnightblue" d="M315.24,-56.32C305.23,-48.26 290.11,-36.08 278.07,-26.37"/>
<polygon fill="midnightblue" stroke="midnightblue" points="279.94,-23.38 269.96,-19.83 275.55,-28.83 279.94,-23.38"/>
</g>
<!-- Node8 -->
<g id="node8" class="node">
<title>Node8</title>
<g id="a_node8"><a xlink:title=" ">
<polygon fill="none" stroke="#bfbfbf" points="302.5,-0.5 302.5,-19.5 349.5,-19.5 349.5,-0.5 302.5,-0.5"/>
<text text-anchor="middle" x="326" y="-7.5" font-family="Helvetica,sans-Serif" font-size="10.00">vector</text>
</a>
</g>
</g>
<!-- Node3&#45;&gt;Node8 -->
<g id="edge7" class="edge">
<title>Node3&#45;&gt;Node8</title>
<path fill="none" stroke="midnightblue" d="M326,-56.08C326,-49.01 326,-38.86 326,-29.99"/>
<polygon fill="midnightblue" stroke="midnightblue" points="329.5,-29.75 326,-19.75 322.5,-29.75 329.5,-29.75"/>
</g>
<!-- Node9 -->
<g id="node9" class="node">
<title>Node9</title>
<g id="a_node9"><a xlink:title=" ">
<polygon fill="none" stroke="#bfbfbf" points="368,-0.5 368,-19.5 412,-19.5 412,-0.5 368,-0.5"/>
<text text-anchor="middle" x="390" y="-7.5" font-family="Helvetica,sans-Serif" font-size="10.00">string</text>
</a>
</g>
</g>
<!-- Node3&#45;&gt;Node9 -->
<g id="edge8" class="edge">
<title>Node3&#45;&gt;Node9</title>
<path fill="none" stroke="midnightblue" d="M336.28,-56.32C345.84,-48.26 360.28,-36.08 371.78,-26.37"/>
<polygon fill="midnightblue" stroke="midnightblue" points="374.14,-28.96 379.53,-19.83 369.63,-23.61 374.14,-28.96"/>
</g>
<!-- Node10 -->
<g id="node10" class="node">
<title>Node10</title>
<g id="a_node10"><a xlink:title=" ">
<polygon fill="none" stroke="#bfbfbf" points="430,-0.5 430,-19.5 468,-19.5 468,-0.5 430,-0.5"/>
<text text-anchor="middle" x="449" y="-7.5" font-family="Helvetica,sans-Serif" font-size="10.00">map</text>
</a>
</g>
</g>
<!-- Node3&#45;&gt;Node10 -->
<g id="edge9" class="edge">
<title>Node3&#45;&gt;Node10</title>
<path fill="none" stroke="midnightblue" d="M345.49,-56.44C365.64,-47.6 397.32,-33.69 420.33,-23.59"/>
<polygon fill="midnightblue" stroke="midnightblue" points="421.85,-26.74 429.6,-19.52 419.04,-20.33 421.85,-26.74"/>
</g>
<!-- Node11 -->
<g id="node11" class="node">
<title>Node11</title>
<g id="a_node11"><a xlink:title=" ">
<polygon fill="none" stroke="#bfbfbf" points="486,-0.5 486,-19.5 530,-19.5 530,-0.5 486,-0.5"/>
<text text-anchor="middle" x="508" y="-7.5" font-family="Helvetica,sans-Serif" font-size="10.00">limits</text>
</a>
</g>
</g>
<!-- Node3&#45;&gt;Node11 -->
<g id="edge10" class="edge">
<title>Node3&#45;&gt;Node11</title>
<path fill="none" stroke="midnightblue" d="M354.84,-56.44C387.81,-46.66 441.64,-30.69 475.92,-20.52"/>
<polygon fill="midnightblue" stroke="midnightblue" points="477.29,-23.76 485.88,-17.56 475.3,-17.05 477.29,-23.76"/>
</g>
<!-- Node12 -->
<g id="node12" class="node">
<title>Node12</title>
<g id="a_node12"><a xlink:title=" ">
<polygon fill="none" stroke="#bfbfbf" points="548.5,-0.5 548.5,-19.5 599.5,-19.5 599.5,-0.5 548.5,-0.5"/>
<text text-anchor="middle" x="574" y="-7.5" font-family="Helvetica,sans-Serif" font-size="10.00">math.h</text>
</a>
</g>
</g>
<!-- Node3&#45;&gt;Node12 -->
<g id="edge11" class="edge">
<title>Node3&#45;&gt;Node12</title>
<path fill="none" stroke="midnightblue" d="M365.76,-57.14C406.63,-48.94 472.31,-35.43 538.63,-20"/>
<polygon fill="midnightblue" stroke="midnightblue" points="539.48,-23.4 548.42,-17.72 537.88,-16.58 539.48,-23.4"/>
</g>
<!-- Node13&#45;&gt;Node3 -->
<g id="edge13" class="edge">
<title>Node13&#45;&gt;Node3</title>
<path fill="none" stroke="midnightblue" d="M407.42,-112.32C392,-103.74 368.19,-90.49 350.29,-80.52"/>
<polygon fill="midnightblue" stroke="midnightblue" points="351.99,-77.46 341.55,-75.65 348.58,-83.58 351.99,-77.46"/>
</g>
<!-- Node14&#45;&gt;Node3 -->
<g id="edge15" class="edge">
<title>Node14&#45;&gt;Node3</title>
<path fill="none" stroke="midnightblue" d="M329.19,-224.45C314.06,-217.22 295.05,-205.26 286,-188 267.61,-152.9 294.53,-107.68 312.37,-83.69"/>
<polygon fill="midnightblue" stroke="midnightblue" points="315.28,-85.64 318.64,-75.6 309.75,-81.35 315.28,-85.64"/>
</g>
<!-- Node14&#45;&gt;Node13 -->
<g id="edge16" class="edge">
<title>Node14&#45;&gt;Node13</title>
<path fill="none" stroke="midnightblue" d="M356.65,-224.37C368.53,-206.22 396.29,-163.8 411.88,-139.99"/>
<polygon fill="midnightblue" stroke="midnightblue" points="414.83,-141.88 417.38,-131.59 408.97,-138.04 414.83,-141.88"/>
</g>
<!-- Node15 -->
<g id="node15" class="node">
<title>Node15</title>
<g id="a_node15"><a xlink:href="_opcode_8h.xhtml" target="_top" xlink:title=" ">
<polygon fill="none" stroke="black" points="295,-168.5 295,-187.5 357,-187.5 357,-168.5 295,-168.5"/>
<text text-anchor="middle" x="326" y="-175.5" font-family="Helvetica,sans-Serif" font-size="10.00">Opcode.h</text>
</a>
</g>
</g>
<!-- Node14&#45;&gt;Node15 -->
<g id="edge17" class="edge">
<title>Node14&#45;&gt;Node15</title>
<path fill="none" stroke="midnightblue" d="M346.87,-224.08C343.49,-216.77 338.58,-206.18 334.38,-197.1"/>
<polygon fill="midnightblue" stroke="midnightblue" points="337.43,-195.36 330.05,-187.75 331.08,-198.3 337.43,-195.36"/>
</g>
<!-- Node15&#45;&gt;Node3 -->
<g id="edge18" class="edge">
<title>Node15&#45;&gt;Node3</title>
<path fill="none" stroke="midnightblue" d="M326,-168.37C326,-150.62 326,-109.67 326,-85.6"/>
<polygon fill="midnightblue" stroke="midnightblue" points="329.5,-85.59 326,-75.59 322.5,-85.59 329.5,-85.59"/>
</g>
<!-- Node15&#45;&gt;Node13 -->
<g id="edge19" class="edge">
<title>Node15&#45;&gt;Node13</title>
<path fill="none" stroke="midnightblue" d="M341.58,-168.32C357,-159.74 380.81,-146.49 398.71,-136.52"/>
<polygon fill="midnightblue" stroke="midnightblue" points="400.42,-139.58 407.45,-131.65 397.01,-133.46 400.42,-139.58"/>
</g>
<!-- Node16&#45;&gt;Node3 -->
<g id="edge22" class="edge">
<title>Node16&#45;&gt;Node3</title>
<path fill="none" stroke="midnightblue" d="M338.55,-280.3C326.27,-272.25 308.93,-259.24 298,-244 282.51,-222.4 281.74,-214.15 277,-188 273.23,-167.23 281.34,-115.58 283,-112 288.37,-100.44 297.91,-89.99 306.65,-82.07"/>
<polygon fill="midnightblue" stroke="midnightblue" points="308.95,-84.7 314.3,-75.55 304.42,-79.37 308.95,-84.7"/>
</g>
<!-- Node16&#45;&gt;Node13 -->
<g id="edge21" class="edge">
<title>Node16&#45;&gt;Node13</title>
<path fill="none" stroke="midnightblue" d="M366.83,-280.46C378.45,-272.52 394.48,-259.57 403,-244 420.92,-211.27 423.68,-166.65 423.63,-141.75"/>
<polygon fill="midnightblue" stroke="midnightblue" points="427.13,-141.47 423.45,-131.54 420.13,-141.6 427.13,-141.47"/>
</g>
<!-- Node16&#45;&gt;Node14 -->
<g id="edge23" class="edge">
<title>Node16&#45;&gt;Node14</title>
<path fill="none" stroke="midnightblue" d="M352.67,-280.08C352.41,-273.01 352.03,-262.86 351.7,-253.99"/>
<polygon fill="midnightblue" stroke="midnightblue" points="355.19,-253.61 351.32,-243.75 348.2,-253.87 355.19,-253.61"/>
</g>
<!-- Node17&#45;&gt;Node3 -->
<g id="edge25" class="edge">
<title>Node17&#45;&gt;Node3</title>
<path fill="none" stroke="midnightblue" d="M530,-280.41C529.79,-267.8 528.61,-243.64 523,-224 507.31,-169.08 505.06,-147.09 460,-112 435.62,-93.01 402.81,-81.82 375.75,-75.34"/>
<polygon fill="midnightblue" stroke="midnightblue" points="376.22,-71.86 365.7,-73.08 374.69,-78.69 376.22,-71.86"/>
</g>
<!-- Node17&#45;&gt;Node13 -->
<g id="edge27" class="edge">
<title>Node17&#45;&gt;Node13</title>
<path fill="none" stroke="midnightblue" d="M527.51,-280.41C521.2,-259.62 503.05,-205.52 475,-168 466.4,-156.5 454.4,-145.87 444.09,-137.83"/>
<polygon fill="midnightblue" stroke="midnightblue" points="446.05,-134.92 435.94,-131.73 441.85,-140.52 446.05,-134.92"/>
</g>
<!-- Node17&#45;&gt;Node14 -->
<g id="edge26" class="edge">
<title>Node17&#45;&gt;Node14</title>
<path fill="none" stroke="midnightblue" d="M501.64,-280.44C471.26,-271.28 422.89,-256.69 389.18,-246.52"/>
<polygon fill="midnightblue" stroke="midnightblue" points="389.82,-243.05 379.23,-243.52 387.79,-249.76 389.82,-243.05"/>
</g>
<!-- Node18&#45;&gt;Node3 -->
<g id="edge29" class="edge">
<title>Node18&#45;&gt;Node3</title>
<path fill="none" stroke="midnightblue" d="M596,-168.22C589.04,-153.96 573.25,-125.99 551,-112 497.58,-78.43 424.14,-69.17 375.9,-66.99"/>
<polygon fill="midnightblue" stroke="midnightblue" points="375.82,-63.49 365.7,-66.62 375.57,-70.48 375.82,-63.49"/>
</g>
<!-- Node18&#45;&gt;Node13 -->
<g id="edge30" class="edge">
<title>Node18&#45;&gt;Node13</title>
<path fill="none" stroke="midnightblue" d="M571.95,-168.44C541.92,-159.28 494.09,-144.69 460.76,-134.52"/>
<polygon fill="midnightblue" stroke="midnightblue" points="461.5,-131.09 450.91,-131.52 459.46,-137.78 461.5,-131.09"/>
</g>
</g>
</svg>
