<?xml version="1.0" encoding="UTF-8" standalone="no"?>
<!DOCTYPE svg PUBLIC "-//W3C//DTD SVG 1.1//EN"
 "http://www.w3.org/Graphics/SVG/1.1/DTD/svg11.dtd">
<!-- Generated by graphviz version 2.43.0 (0)
 -->
<!-- Title: include/CpInfo.h Pages: 1 -->
<svg width="551pt" height="364pt"
 viewBox="0.00 0.00 551.06 364.00" xmlns="http://www.w3.org/2000/svg" xmlns:xlink="http://www.w3.org/1999/xlink">
<g id="graph0" class="graph" transform="scale(1 1) rotate(0) translate(4 360)">
<title>include/CpInfo.h</title>
<!-- Node1 -->
<g id="node1" class="node">
<title>Node1</title>
<g id="a_node1"><a xlink:title=" ">
<polygon fill="#bfbfbf" stroke="black" points="255.56,-336.5 255.56,-355.5 350.56,-355.5 350.56,-336.5 255.56,-336.5"/>
<text text-anchor="middle" x="303.06" y="-343.5" font-family="Helvetica,sans-Serif" font-size="10.00">include/CpInfo.h</text>
</a>
</g>
</g>
<!-- Node2 -->
<g id="node2" class="node">
<title>Node2</title>
<g id="a_node2"><a xlink:href="_attribute_info_8h.xhtml" target="_top" xlink:title=" ">
<polygon fill="none" stroke="black" points="40.56,-224.5 40.56,-243.5 165.56,-243.5 165.56,-224.5 40.56,-224.5"/>
<text text-anchor="middle" x="103.06" y="-231.5" font-family="Helvetica,sans-Serif" font-size="10.00">include/AttributeInfo.h</text>
</a>
</g>
</g>
<!-- Node1&#45;&gt;Node2 -->
<g id="edge1" class="edge">
<title>Node1&#45;&gt;Node2</title>
<path fill="none" stroke="midnightblue" d="M248.02,-333.99C221.28,-326.99 189.51,-316.14 164.06,-300 140.01,-284.75 119.02,-257.84 109.12,-243.91"/>
<polygon fill="midnightblue" stroke="midnightblue" points="247.45,-337.45 258,-336.48 249.15,-330.66 247.45,-337.45"/>
</g>
<!-- Node3 -->
<g id="node3" class="node">
<title>Node3</title>
<g id="a_node3"><a xlink:href="_class_file_8h.xhtml" target="_top" xlink:title=" ">
<polygon fill="none" stroke="black" points="42.56,-112.5 42.56,-131.5 149.56,-131.5 149.56,-112.5 42.56,-112.5"/>
<text text-anchor="middle" x="96.06" y="-119.5" font-family="Helvetica,sans-Serif" font-size="10.00">include/ClassFile.h</text>
</a>
</g>
</g>
<!-- Node1&#45;&gt;Node3 -->
<g id="edge15" class="edge">
<title>Node1&#45;&gt;Node3</title>
<path fill="none" stroke="midnightblue" d="M245.32,-339.12C183.49,-329.73 86.75,-305.58 31.06,-244 7.39,-217.83 -10.36,-198.1 8.06,-168 19.43,-149.41 41.18,-138.19 60.21,-131.6"/>
<polygon fill="midnightblue" stroke="midnightblue" points="244.92,-342.6 255.31,-340.56 245.91,-335.67 244.92,-342.6"/>
</g>
<!-- Node4 -->
<g id="node4" class="node">
<title>Node4</title>
<g id="a_node4"><a xlink:href="_display_8h.xhtml" target="_top" xlink:title=" ">
<polygon fill="none" stroke="black" points="259.56,-56.5 259.56,-75.5 358.56,-75.5 358.56,-56.5 259.56,-56.5"/>
<text text-anchor="middle" x="309.06" y="-63.5" font-family="Helvetica,sans-Serif" font-size="10.00">include/Display.h</text>
</a>
</g>
</g>
<!-- Node1&#45;&gt;Node4 -->
<g id="edge16" class="edge">
<title>Node1&#45;&gt;Node4</title>
<path fill="none" stroke="midnightblue" d="M336.89,-332.5C374.21,-316.26 429.06,-284.05 429.06,-235 429.06,-235 429.06,-235 429.06,-177 429.06,-146.2 425.9,-134.68 405.06,-112 388.37,-93.84 362.85,-82.36 342.32,-75.54"/>
<polygon fill="midnightblue" stroke="midnightblue" points="335.24,-329.39 327.36,-336.47 337.93,-335.86 335.24,-329.39"/>
</g>
<!-- Node8 -->
<g id="node8" class="node">
<title>Node8</title>
<g id="a_node8"><a xlink:href="_field_info_8h.xhtml" target="_top" xlink:title=" ">
<polygon fill="none" stroke="black" points="158.56,-168.5 158.56,-187.5 263.56,-187.5 263.56,-168.5 158.56,-168.5"/>
<text text-anchor="middle" x="211.06" y="-175.5" font-family="Helvetica,sans-Serif" font-size="10.00">include/FieldInfo.h</text>
</a>
</g>
</g>
<!-- Node1&#45;&gt;Node8 -->
<g id="edge17" class="edge">
<title>Node1&#45;&gt;Node8</title>
<path fill="none" stroke="midnightblue" d="M304.73,-326.08C306,-300.69 304.8,-255.17 284.06,-224 272.43,-206.52 251.47,-194.65 234.98,-187.5"/>
<polygon fill="midnightblue" stroke="midnightblue" points="301.23,-325.99 304.03,-336.21 308.21,-326.47 301.23,-325.99"/>
</g>
<!-- Node10 -->
<g id="node10" class="node">
<title>Node10</title>
<g id="a_node10"><a xlink:href="_method_info_8h.xhtml" target="_top" xlink:title=" ">
<polygon fill="none" stroke="black" points="281.56,-168.5 281.56,-187.5 400.56,-187.5 400.56,-168.5 281.56,-168.5"/>
<text text-anchor="middle" x="341.06" y="-175.5" font-family="Helvetica,sans-Serif" font-size="10.00">include/MethodInfo.h</text>
</a>
</g>
</g>
<!-- Node1&#45;&gt;Node10 -->
<g id="edge18" class="edge">
<title>Node1&#45;&gt;Node10</title>
<path fill="none" stroke="midnightblue" d="M309.18,-326.87C311.81,-318.72 314.79,-308.93 317.06,-300 327.66,-258.28 336.41,-207.48 339.68,-187.58"/>
<polygon fill="midnightblue" stroke="midnightblue" points="305.83,-325.86 306.02,-336.45 312.48,-328.05 305.83,-325.86"/>
</g>
<!-- Node13 -->
<g id="node13" class="node">
<title>Node13</title>
<g id="a_node13"><a xlink:href="_opcode_8h.xhtml" target="_top" xlink:title=" ">
<polygon fill="none" stroke="black" points="173.56,-280.5 173.56,-299.5 274.56,-299.5 274.56,-280.5 173.56,-280.5"/>
<text text-anchor="middle" x="224.06" y="-287.5" font-family="Helvetica,sans-Serif" font-size="10.00">include/Opcode.h</text>
</a>
</g>
</g>
<!-- Node1&#45;&gt;Node13 -->
<g id="edge19" class="edge">
<title>Node1&#45;&gt;Node13</title>
<path fill="none" stroke="midnightblue" d="M282.03,-330.62C267.6,-320.76 248.92,-307.99 236.72,-299.65"/>
<polygon fill="midnightblue" stroke="midnightblue" points="280.14,-333.57 290.37,-336.32 284.09,-327.79 280.14,-333.57"/>
</g>
<!-- Node15 -->
<g id="node15" class="node">
<title>Node15</title>
<g id="a_node15"><a xlink:href="_cp_info_8cpp.xhtml" target="_top" xlink:title=" ">
<polygon fill="none" stroke="black" points="457.06,-280.5 457.06,-299.5 543.06,-299.5 543.06,-280.5 457.06,-280.5"/>
<text text-anchor="middle" x="500.06" y="-287.5" font-family="Helvetica,sans-Serif" font-size="10.00">src/CpInfo.cpp</text>
</a>
</g>
</g>
<!-- Node1&#45;&gt;Node15 -->
<g id="edge22" class="edge">
<title>Node1&#45;&gt;Node15</title>
<path fill="none" stroke="midnightblue" d="M344.29,-333.7C381.47,-323.51 435.33,-308.74 468.99,-299.52"/>
<polygon fill="midnightblue" stroke="midnightblue" points="343,-330.42 334.28,-336.44 344.85,-337.18 343,-330.42"/>
</g>
<!-- Node2&#45;&gt;Node3 -->
<g id="edge2" class="edge">
<title>Node2&#45;&gt;Node3</title>
<path fill="none" stroke="midnightblue" d="M57.68,-220.77C41.32,-213.93 24.57,-203.54 15.06,-188 -0.79,-162.08 39.31,-142.12 68.58,-131.51"/>
<polygon fill="midnightblue" stroke="midnightblue" points="56.62,-224.11 67.21,-224.4 59.11,-217.57 56.62,-224.11"/>
</g>
<!-- Node2&#45;&gt;Node8 -->
<g id="edge8" class="edge">
<title>Node2&#45;&gt;Node8</title>
<path fill="none" stroke="midnightblue" d="M129.61,-219.73C149.61,-209.73 176.45,-196.31 193.75,-187.65"/>
<polygon fill="midnightblue" stroke="midnightblue" points="127.79,-216.72 120.41,-224.32 130.92,-222.98 127.79,-216.72"/>
</g>
<!-- Node2&#45;&gt;Node10 -->
<g id="edge11" class="edge">
<title>Node2&#45;&gt;Node10</title>
<path fill="none" stroke="midnightblue" d="M150.59,-222.22C195.56,-212.01 262.17,-196.9 303.53,-187.52"/>
<polygon fill="midnightblue" stroke="midnightblue" points="149.75,-218.82 140.77,-224.44 151.3,-225.64 149.75,-218.82"/>
</g>
<!-- Node12 -->
<g id="node12" class="node">
<title>Node12</title>
<g id="a_node12"><a xlink:href="_attribute_info_8cpp.xhtml" target="_top" xlink:title=" ">
<polygon fill="none" stroke="black" points="24.06,-168.5 24.06,-187.5 140.06,-187.5 140.06,-168.5 24.06,-168.5"/>
<text text-anchor="middle" x="82.06" y="-175.5" font-family="Helvetica,sans-Serif" font-size="10.00">src/AttributeInfo.cpp</text>
</a>
</g>
</g>
<!-- Node2&#45;&gt;Node12 -->
<g id="edge14" class="edge">
<title>Node2&#45;&gt;Node12</title>
<path fill="none" stroke="midnightblue" d="M95.94,-214.69C92.4,-205.59 88.29,-195.01 85.46,-187.75"/>
<polygon fill="midnightblue" stroke="midnightblue" points="92.71,-216.03 99.59,-224.08 99.23,-213.49 92.71,-216.03"/>
</g>
<!-- Node3&#45;&gt;Node4 -->
<g id="edge3" class="edge">
<title>Node3&#45;&gt;Node4</title>
<path fill="none" stroke="midnightblue" d="M139.61,-109.96C179.84,-99.76 238.76,-84.82 275.47,-75.52"/>
<polygon fill="midnightblue" stroke="midnightblue" points="138.65,-106.59 129.81,-112.44 140.37,-113.38 138.65,-106.59"/>
</g>
<!-- Node5 -->
<g id="node5" class="node">
<title>Node5</title>
<g id="a_node5"><a xlink:href="_display_8cpp.xhtml" target="_top" xlink:title=" ">
<polygon fill="none" stroke="black" points="119.56,-0.5 119.56,-19.5 208.56,-19.5 208.56,-0.5 119.56,-0.5"/>
<text text-anchor="middle" x="164.06" y="-7.5" font-family="Helvetica,sans-Serif" font-size="10.00">src/Display.cpp</text>
</a>
</g>
</g>
<!-- Node3&#45;&gt;Node5 -->
<g id="edge6" class="edge">
<title>Node3&#45;&gt;Node5</title>
<path fill="none" stroke="midnightblue" d="M69.39,-107.33C48.36,-94.69 24.64,-75.04 38.06,-56 56.33,-30.08 90.94,-19.01 119.27,-14.32"/>
<polygon fill="midnightblue" stroke="midnightblue" points="67.69,-110.4 78.12,-112.3 71.15,-104.31 67.69,-110.4"/>
</g>
<!-- Node6 -->
<g id="node6" class="node">
<title>Node6</title>
<g id="a_node6"><a xlink:href="_class_file_8cpp.xhtml" target="_top" xlink:title=" ">
<polygon fill="none" stroke="black" points="47.56,-56.5 47.56,-75.5 144.56,-75.5 144.56,-56.5 47.56,-56.5"/>
<text text-anchor="middle" x="96.06" y="-63.5" font-family="Helvetica,sans-Serif" font-size="10.00">src/ClassFile.cpp</text>
</a>
</g>
</g>
<!-- Node3&#45;&gt;Node6 -->
<g id="edge5" class="edge">
<title>Node3&#45;&gt;Node6</title>
<path fill="none" stroke="midnightblue" d="M96.06,-101.8C96.06,-92.91 96.06,-82.78 96.06,-75.75"/>
<polygon fill="midnightblue" stroke="midnightblue" points="92.56,-102.08 96.06,-112.08 99.56,-102.08 92.56,-102.08"/>
</g>
<!-- Node7 -->
<g id="node7" class="node">
<title>Node7</title>
<g id="a_node7"><a xlink:href="main_8cpp.xhtml" target="_top" xlink:title=" ">
<polygon fill="none" stroke="black" points="162.56,-56.5 162.56,-75.5 241.56,-75.5 241.56,-56.5 162.56,-56.5"/>
<text text-anchor="middle" x="202.06" y="-63.5" font-family="Helvetica,sans-Serif" font-size="10.00">src/main.cpp</text>
</a>
</g>
</g>
<!-- Node3&#45;&gt;Node7 -->
<g id="edge7" class="edge">
<title>Node3&#45;&gt;Node7</title>
<path fill="none" stroke="midnightblue" d="M122.12,-107.73C141.75,-97.73 168.09,-84.31 185.07,-75.65"/>
<polygon fill="midnightblue" stroke="midnightblue" points="120.41,-104.67 113.09,-112.32 123.59,-110.9 120.41,-104.67"/>
</g>
<!-- Node4&#45;&gt;Node5 -->
<g id="edge4" class="edge">
<title>Node4&#45;&gt;Node5</title>
<path fill="none" stroke="midnightblue" d="M276.59,-52.91C249.33,-42.75 211.07,-28.51 186.93,-19.52"/>
<polygon fill="midnightblue" stroke="midnightblue" points="275.49,-56.23 286.09,-56.44 277.94,-49.67 275.49,-56.23"/>
</g>
<!-- Node8&#45;&gt;Node3 -->
<g id="edge9" class="edge">
<title>Node8&#45;&gt;Node3</title>
<path fill="none" stroke="midnightblue" d="M183.58,-164.1C162.1,-154.01 132.84,-140.27 114.2,-131.52"/>
<polygon fill="midnightblue" stroke="midnightblue" points="182.3,-167.36 192.84,-168.44 185.28,-161.02 182.3,-167.36"/>
</g>
<!-- Node9 -->
<g id="node9" class="node">
<title>Node9</title>
<g id="a_node9"><a xlink:href="_field_info_8cpp.xhtml" target="_top" xlink:title=" ">
<polygon fill="none" stroke="black" points="167.56,-112.5 167.56,-131.5 262.56,-131.5 262.56,-112.5 167.56,-112.5"/>
<text text-anchor="middle" x="215.06" y="-119.5" font-family="Helvetica,sans-Serif" font-size="10.00">src/FieldInfo.cpp</text>
</a>
</g>
</g>
<!-- Node8&#45;&gt;Node9 -->
<g id="edge10" class="edge">
<title>Node8&#45;&gt;Node9</title>
<path fill="none" stroke="midnightblue" d="M212.46,-158.1C213.13,-149.14 213.89,-138.86 214.41,-131.75"/>
<polygon fill="midnightblue" stroke="midnightblue" points="208.97,-157.85 211.72,-168.08 215.95,-158.37 208.97,-157.85"/>
</g>
<!-- Node10&#45;&gt;Node3 -->
<g id="edge12" class="edge">
<title>Node10&#45;&gt;Node3</title>
<path fill="none" stroke="midnightblue" d="M292.43,-166.28C246.13,-156.08 177.37,-140.92 134.7,-131.52"/>
<polygon fill="midnightblue" stroke="midnightblue" points="291.72,-169.71 302.24,-168.44 293.23,-162.87 291.72,-169.71"/>
</g>
<!-- Node11 -->
<g id="node11" class="node">
<title>Node11</title>
<g id="a_node11"><a xlink:href="_method_info_8cpp.xhtml" target="_top" xlink:title=" ">
<polygon fill="none" stroke="black" points="286.06,-112.5 286.06,-131.5 396.06,-131.5 396.06,-112.5 286.06,-112.5"/>
<text text-anchor="middle" x="341.06" y="-119.5" font-family="Helvetica,sans-Serif" font-size="10.00">src/MethodInfo.cpp</text>
</a>
</g>
</g>
<!-- Node10&#45;&gt;Node11 -->
<g id="edge13" class="edge">
<title>Node10&#45;&gt;Node11</title>
<path fill="none" stroke="midnightblue" d="M341.06,-157.8C341.06,-148.91 341.06,-138.78 341.06,-131.75"/>
<polygon fill="midnightblue" stroke="midnightblue" points="337.56,-158.08 341.06,-168.08 344.56,-158.08 337.56,-158.08"/>
</g>
<!-- Node13&#45;&gt;Node2 -->
<g id="edge20" class="edge">
<title>Node13&#45;&gt;Node2</title>
<path fill="none" stroke="midnightblue" d="M195.76,-276.37C173.1,-266.26 141.94,-252.35 122.14,-243.52"/>
<polygon fill="midnightblue" stroke="midnightblue" points="194.33,-279.56 204.89,-280.44 197.18,-273.17 194.33,-279.56"/>
</g>
<!-- Node14 -->
<g id="node14" class="node">
<title>Node14</title>
<g id="a_node14"><a xlink:href="_opcode_8cpp.xhtml" target="_top" xlink:title=" ">
<polygon fill="none" stroke="black" points="183.56,-224.5 183.56,-243.5 274.56,-243.5 274.56,-224.5 183.56,-224.5"/>
<text text-anchor="middle" x="229.06" y="-231.5" font-family="Helvetica,sans-Serif" font-size="10.00">src/Opcode.cpp</text>
</a>
</g>
</g>
<!-- Node13&#45;&gt;Node14 -->
<g id="edge21" class="edge">
<title>Node13&#45;&gt;Node14</title>
<path fill="none" stroke="midnightblue" d="M225.81,-270.1C226.64,-261.14 227.59,-250.86 228.25,-243.75"/>
<polygon fill="midnightblue" stroke="midnightblue" points="222.32,-269.8 224.89,-280.08 229.29,-270.45 222.32,-269.8"/>
</g>
</g>
</svg>
