<?xml version="1.0" encoding="UTF-8" standalone="no"?>
<!DOCTYPE svg PUBLIC "-//W3C//DTD SVG 1.1//EN"
 "http://www.w3.org/Graphics/SVG/1.1/DTD/svg11.dtd">
<!-- Generated by graphviz version 2.43.0 (0)
 -->
<!-- Title: include/CpInfo.h Pages: 1 -->
<svg width="872pt" height="364pt"
 viewBox="0.00 0.00 872.00 364.00" xmlns="http://www.w3.org/2000/svg" xmlns:xlink="http://www.w3.org/1999/xlink">
<g id="graph0" class="graph" transform="scale(1 1) rotate(0) translate(4 360)">
<title>include/CpInfo.h</title>
<!-- Node1 -->
<g id="node1" class="node">
<title>Node1</title>
<g id="a_node1"><a xlink:title=" ">
<polygon fill="#bfbfbf" stroke="black" points="432.5,-336.5 432.5,-355.5 527.5,-355.5 527.5,-336.5 432.5,-336.5"/>
<text text-anchor="middle" x="480" y="-343.5" font-family="Helvetica,sans-Serif" font-size="10.00">include/CpInfo.h</text>
</a>
</g>
</g>
<!-- Node2 -->
<g id="node2" class="node">
<title>Node2</title>
<g id="a_node2"><a xlink:href="_attribute_info_8h.xhtml" target="_top" xlink:title=" ">
<polygon fill="none" stroke="black" points="349.5,-224.5 349.5,-243.5 474.5,-243.5 474.5,-224.5 349.5,-224.5"/>
<text text-anchor="middle" x="412" y="-231.5" font-family="Helvetica,sans-Serif" font-size="10.00">include/AttributeInfo.h</text>
</a>
</g>
</g>
<!-- Node1&#45;&gt;Node2 -->
<g id="edge1" class="edge">
<title>Node1&#45;&gt;Node2</title>
<path fill="none" stroke="midnightblue" d="M453.47,-331.15C441.61,-323.56 428.61,-313.03 421,-300 410.55,-282.09 410.41,-256.79 411.2,-243.67"/>
<polygon fill="midnightblue" stroke="midnightblue" points="451.83,-334.25 462.21,-336.37 455.42,-328.24 451.83,-334.25"/>
</g>
<!-- Node3 -->
<g id="node3" class="node">
<title>Node3</title>
<g id="a_node3"><a xlink:href="_class_file_8h.xhtml" target="_top" xlink:title=" ">
<polygon fill="none" stroke="black" points="148.5,-112.5 148.5,-131.5 255.5,-131.5 255.5,-112.5 148.5,-112.5"/>
<text text-anchor="middle" x="202" y="-119.5" font-family="Helvetica,sans-Serif" font-size="10.00">include/ClassFile.h</text>
</a>
</g>
</g>
<!-- Node1&#45;&gt;Node3 -->
<g id="edge18" class="edge">
<title>Node1&#45;&gt;Node3</title>
<path fill="none" stroke="midnightblue" d="M432.51,-333.79C367.61,-315.61 253.72,-272.85 205,-188 194.76,-170.17 197.57,-144.84 200.04,-131.68"/>
<polygon fill="midnightblue" stroke="midnightblue" points="431.92,-337.25 442.49,-336.49 433.76,-330.5 431.92,-337.25"/>
</g>
<!-- Node4 -->
<g id="node4" class="node">
<title>Node4</title>
<g id="a_node4"><a xlink:href="_display_8h.xhtml" target="_top" xlink:title=" ">
<polygon fill="none" stroke="black" points="298.5,-56.5 298.5,-75.5 397.5,-75.5 397.5,-56.5 298.5,-56.5"/>
<text text-anchor="middle" x="348" y="-63.5" font-family="Helvetica,sans-Serif" font-size="10.00">include/Display.h</text>
</a>
</g>
</g>
<!-- Node1&#45;&gt;Node4 -->
<g id="edge19" class="edge">
<title>Node1&#45;&gt;Node4</title>
<path fill="none" stroke="midnightblue" d="M534.54,-334.31C613.42,-317.26 750,-281.08 750,-235 750,-235 750,-235 750,-177 750,-142.11 735.73,-130.25 706,-112 655.41,-80.96 483.55,-71.21 397.68,-68.25"/>
<polygon fill="midnightblue" stroke="midnightblue" points="533.34,-330.98 524.28,-336.49 534.79,-337.83 533.34,-330.98"/>
</g>
<!-- Node8 -->
<g id="node8" class="node">
<title>Node8</title>
<g id="a_node8"><a xlink:href="_field_info_8h.xhtml" target="_top" xlink:title=" ">
<polygon fill="none" stroke="black" points="230.5,-168.5 230.5,-187.5 335.5,-187.5 335.5,-168.5 230.5,-168.5"/>
<text text-anchor="middle" x="283" y="-175.5" font-family="Helvetica,sans-Serif" font-size="10.00">include/FieldInfo.h</text>
</a>
</g>
</g>
<!-- Node1&#45;&gt;Node8 -->
<g id="edge20" class="edge">
<title>Node1&#45;&gt;Node8</title>
<path fill="none" stroke="midnightblue" d="M456.64,-331.2C442.55,-322.64 424.41,-311.17 409,-300 377.29,-277.03 369.23,-271.13 341,-244 321.37,-225.14 300.67,-200.66 290.11,-187.8"/>
<polygon fill="midnightblue" stroke="midnightblue" points="454.87,-334.22 465.24,-336.38 458.47,-328.22 454.87,-334.22"/>
</g>
<!-- Node10 -->
<g id="node10" class="node">
<title>Node10</title>
<g id="a_node10"><a xlink:href="_opcode_8cpp.xhtml" target="_top" xlink:title=" ">
<polygon fill="none" stroke="black" points="605.5,-112.5 605.5,-131.5 696.5,-131.5 696.5,-112.5 605.5,-112.5"/>
<text text-anchor="middle" x="651" y="-119.5" font-family="Helvetica,sans-Serif" font-size="10.00">src/Opcode.cpp</text>
</a>
</g>
</g>
<!-- Node1&#45;&gt;Node10 -->
<g id="edge29" class="edge">
<title>Node1&#45;&gt;Node10</title>
<path fill="none" stroke="midnightblue" d="M507.04,-331.86C549.53,-309.38 629.91,-259 657,-188 664.27,-168.94 658.35,-144.55 654.19,-131.75"/>
<polygon fill="midnightblue" stroke="midnightblue" points="505.37,-328.78 498.08,-336.47 508.58,-335 505.37,-328.78"/>
</g>
<!-- Node11 -->
<g id="node11" class="node">
<title>Node11</title>
<g id="a_node11"><a xlink:href="_method_info_8h.xhtml" target="_top" xlink:title=" ">
<polygon fill="none" stroke="black" points="488.5,-168.5 488.5,-187.5 607.5,-187.5 607.5,-168.5 488.5,-168.5"/>
<text text-anchor="middle" x="548" y="-175.5" font-family="Helvetica,sans-Serif" font-size="10.00">include/MethodInfo.h</text>
</a>
</g>
</g>
<!-- Node1&#45;&gt;Node11 -->
<g id="edge24" class="edge">
<title>Node1&#45;&gt;Node11</title>
<path fill="none" stroke="midnightblue" d="M507.64,-331.33C519.73,-323.83 532.78,-313.32 540,-300 560.36,-262.43 553.46,-208.36 549.73,-187.58"/>
<polygon fill="midnightblue" stroke="midnightblue" points="505.62,-328.45 498.7,-336.47 509.11,-334.52 505.62,-328.45"/>
</g>
<!-- Node14 -->
<g id="node14" class="node">
<title>Node14</title>
<g id="a_node14"><a xlink:href="_interface_8h.xhtml" target="_top" xlink:title=" ">
<polygon fill="none" stroke="black" points="28.5,-280.5 28.5,-299.5 135.5,-299.5 135.5,-280.5 28.5,-280.5"/>
<text text-anchor="middle" x="82" y="-287.5" font-family="Helvetica,sans-Serif" font-size="10.00">include/Interface.h</text>
</a>
</g>
</g>
<!-- Node1&#45;&gt;Node14 -->
<g id="edge21" class="edge">
<title>Node1&#45;&gt;Node14</title>
<path fill="none" stroke="midnightblue" d="M422.4,-337.18C345.55,-326.76 210.51,-308.44 135.69,-298.28"/>
<polygon fill="midnightblue" stroke="midnightblue" points="422.01,-340.66 432.39,-338.54 422.95,-333.73 422.01,-340.66"/>
</g>
<!-- Node16 -->
<g id="node16" class="node">
<title>Node16</title>
<g id="a_node16"><a xlink:href="_opcode_8h.xhtml" target="_top" xlink:title=" ">
<polygon fill="none" stroke="black" points="429.5,-280.5 429.5,-299.5 530.5,-299.5 530.5,-280.5 429.5,-280.5"/>
<text text-anchor="middle" x="480" y="-287.5" font-family="Helvetica,sans-Serif" font-size="10.00">include/Opcode.h</text>
</a>
</g>
</g>
<!-- Node1&#45;&gt;Node16 -->
<g id="edge25" class="edge">
<title>Node1&#45;&gt;Node16</title>
<path fill="none" stroke="midnightblue" d="M480,-325.8C480,-316.91 480,-306.78 480,-299.75"/>
<polygon fill="midnightblue" stroke="midnightblue" points="476.5,-326.08 480,-336.08 483.5,-326.08 476.5,-326.08"/>
</g>
<!-- Node17 -->
<g id="node17" class="node">
<title>Node17</title>
<g id="a_node17"><a xlink:href="_cp_info_8cpp.xhtml" target="_top" xlink:title=" ">
<polygon fill="none" stroke="black" points="778,-280.5 778,-299.5 864,-299.5 864,-280.5 778,-280.5"/>
<text text-anchor="middle" x="821" y="-287.5" font-family="Helvetica,sans-Serif" font-size="10.00">src/CpInfo.cpp</text>
</a>
</g>
</g>
<!-- Node1&#45;&gt;Node17 -->
<g id="edge28" class="edge">
<title>Node1&#45;&gt;Node17</title>
<path fill="none" stroke="midnightblue" d="M537.89,-335.83C605.86,-325.07 717.02,-307.47 777.86,-297.83"/>
<polygon fill="midnightblue" stroke="midnightblue" points="537.1,-332.41 527.77,-337.43 538.2,-339.33 537.1,-332.41"/>
</g>
<!-- Node2&#45;&gt;Node3 -->
<g id="edge2" class="edge">
<title>Node2&#45;&gt;Node3</title>
<path fill="none" stroke="midnightblue" d="M339.34,-223.38C293.23,-215.87 239.12,-204.03 222,-188 205.97,-172.99 202.67,-145.48 202.07,-131.56"/>
<polygon fill="midnightblue" stroke="midnightblue" points="338.92,-226.85 349.35,-224.96 340.02,-219.94 338.92,-226.85"/>
</g>
<!-- Node2&#45;&gt;Node8 -->
<g id="edge8" class="edge">
<title>Node2&#45;&gt;Node8</title>
<path fill="none" stroke="midnightblue" d="M382.15,-220.5C357.96,-210.38 324.54,-196.39 303.34,-187.52"/>
<polygon fill="midnightblue" stroke="midnightblue" points="380.98,-223.81 391.56,-224.44 383.69,-217.35 380.98,-223.81"/>
</g>
<!-- Node2&#45;&gt;Node10 -->
<g id="edge17" class="edge">
<title>Node2&#45;&gt;Node10</title>
<path fill="none" stroke="midnightblue" d="M484.67,-231.94C527.03,-227.93 579.34,-216.78 617,-188 635.82,-173.62 645.24,-145.82 648.99,-131.7"/>
<polygon fill="midnightblue" stroke="midnightblue" points="484.37,-228.45 474.69,-232.77 484.95,-235.42 484.37,-228.45"/>
</g>
<!-- Node2&#45;&gt;Node11 -->
<g id="edge12" class="edge">
<title>Node2&#45;&gt;Node11</title>
<path fill="none" stroke="midnightblue" d="M443.13,-220.64C468.66,-210.5 504.11,-196.43 526.55,-187.52"/>
<polygon fill="midnightblue" stroke="midnightblue" points="441.55,-217.5 433.55,-224.44 444.14,-224.01 441.55,-217.5"/>
</g>
<!-- Node13 -->
<g id="node13" class="node">
<title>Node13</title>
<g id="a_node13"><a xlink:href="_attribute_info_8cpp.xhtml" target="_top" xlink:title=" ">
<polygon fill="none" stroke="black" points="354,-168.5 354,-187.5 470,-187.5 470,-168.5 354,-168.5"/>
<text text-anchor="middle" x="412" y="-175.5" font-family="Helvetica,sans-Serif" font-size="10.00">src/AttributeInfo.cpp</text>
</a>
</g>
</g>
<!-- Node2&#45;&gt;Node13 -->
<g id="edge16" class="edge">
<title>Node2&#45;&gt;Node13</title>
<path fill="none" stroke="midnightblue" d="M412,-213.8C412,-204.91 412,-194.78 412,-187.75"/>
<polygon fill="midnightblue" stroke="midnightblue" points="408.5,-214.08 412,-224.08 415.5,-214.08 408.5,-214.08"/>
</g>
<!-- Node3&#45;&gt;Node4 -->
<g id="edge3" class="edge">
<title>Node3&#45;&gt;Node4</title>
<path fill="none" stroke="midnightblue" d="M234.7,-108.91C262.15,-98.75 300.67,-84.51 324.97,-75.52"/>
<polygon fill="midnightblue" stroke="midnightblue" points="233.3,-105.69 225.13,-112.44 235.73,-112.26 233.3,-105.69"/>
</g>
<!-- Node5 -->
<g id="node5" class="node">
<title>Node5</title>
<g id="a_node5"><a xlink:href="_display_8cpp.xhtml" target="_top" xlink:title=" ">
<polygon fill="none" stroke="black" points="264.5,-0.5 264.5,-19.5 353.5,-19.5 353.5,-0.5 264.5,-0.5"/>
<text text-anchor="middle" x="309" y="-7.5" font-family="Helvetica,sans-Serif" font-size="10.00">src/Display.cpp</text>
</a>
</g>
</g>
<!-- Node3&#45;&gt;Node5 -->
<g id="edge6" class="edge">
<title>Node3&#45;&gt;Node5</title>
<path fill="none" stroke="midnightblue" d="M219.69,-105.53C229.18,-97.03 240.97,-86.18 251,-76 270.11,-56.61 291.02,-32.35 301.75,-19.66"/>
<polygon fill="midnightblue" stroke="midnightblue" points="217.19,-103.06 212.03,-112.31 221.84,-108.3 217.19,-103.06"/>
</g>
<!-- Node6 -->
<g id="node6" class="node">
<title>Node6</title>
<g id="a_node6"><a xlink:href="_class_file_8cpp.xhtml" target="_top" xlink:title=" ">
<polygon fill="none" stroke="black" points="47.5,-56.5 47.5,-75.5 144.5,-75.5 144.5,-56.5 47.5,-56.5"/>
<text text-anchor="middle" x="96" y="-63.5" font-family="Helvetica,sans-Serif" font-size="10.00">src/ClassFile.cpp</text>
</a>
</g>
</g>
<!-- Node3&#45;&gt;Node6 -->
<g id="edge5" class="edge">
<title>Node3&#45;&gt;Node6</title>
<path fill="none" stroke="midnightblue" d="M175.94,-107.73C156.32,-97.73 129.97,-84.31 112.99,-75.65"/>
<polygon fill="midnightblue" stroke="midnightblue" points="174.47,-110.9 184.97,-112.32 177.65,-104.67 174.47,-110.9"/>
</g>
<!-- Node7 -->
<g id="node7" class="node">
<title>Node7</title>
<g id="a_node7"><a xlink:href="main_8cpp.xhtml" target="_top" xlink:title=" ">
<polygon fill="none" stroke="black" points="162.5,-56.5 162.5,-75.5 241.5,-75.5 241.5,-56.5 162.5,-56.5"/>
<text text-anchor="middle" x="202" y="-63.5" font-family="Helvetica,sans-Serif" font-size="10.00">src/main.cpp</text>
</a>
</g>
</g>
<!-- Node3&#45;&gt;Node7 -->
<g id="edge7" class="edge">
<title>Node3&#45;&gt;Node7</title>
<path fill="none" stroke="midnightblue" d="M202,-101.8C202,-92.91 202,-82.78 202,-75.75"/>
<polygon fill="midnightblue" stroke="midnightblue" points="198.5,-102.08 202,-112.08 205.5,-102.08 198.5,-102.08"/>
</g>
<!-- Node4&#45;&gt;Node5 -->
<g id="edge4" class="edge">
<title>Node4&#45;&gt;Node5</title>
<path fill="none" stroke="midnightblue" d="M335.62,-47.86C328.86,-38.5 320.79,-27.33 315.32,-19.75"/>
<polygon fill="midnightblue" stroke="midnightblue" points="332.87,-50.03 341.56,-56.08 338.54,-45.93 332.87,-50.03"/>
</g>
<!-- Node8&#45;&gt;Node3 -->
<g id="edge9" class="edge">
<title>Node8&#45;&gt;Node3</title>
<path fill="none" stroke="midnightblue" d="M261.43,-162.62C246.64,-152.76 227.49,-139.99 214.98,-131.65"/>
<polygon fill="midnightblue" stroke="midnightblue" points="259.72,-165.69 269.99,-168.32 263.61,-159.86 259.72,-165.69"/>
</g>
<!-- Node9 -->
<g id="node9" class="node">
<title>Node9</title>
<g id="a_node9"><a xlink:href="_field_info_8cpp.xhtml" target="_top" xlink:title=" ">
<polygon fill="none" stroke="black" points="273.5,-112.5 273.5,-131.5 368.5,-131.5 368.5,-112.5 273.5,-112.5"/>
<text text-anchor="middle" x="321" y="-119.5" font-family="Helvetica,sans-Serif" font-size="10.00">src/FieldInfo.cpp</text>
</a>
</g>
</g>
<!-- Node8&#45;&gt;Node9 -->
<g id="edge10" class="edge">
<title>Node8&#45;&gt;Node9</title>
<path fill="none" stroke="midnightblue" d="M295.06,-159.86C301.64,-150.5 309.51,-139.33 314.84,-131.75"/>
<polygon fill="midnightblue" stroke="midnightblue" points="292.17,-157.89 289.27,-168.08 297.89,-161.92 292.17,-157.89"/>
</g>
<!-- Node8&#45;&gt;Node10 -->
<g id="edge11" class="edge">
<title>Node8&#45;&gt;Node10</title>
<path fill="none" stroke="midnightblue" d="M345.81,-167.89C458.2,-151.73 487.76,-148.62 596,-132 599.06,-131.53 602.21,-131.04 605.39,-130.53"/>
<polygon fill="midnightblue" stroke="midnightblue" points="345.16,-164.44 335.76,-169.33 346.16,-171.37 345.16,-164.44"/>
</g>
<!-- Node11&#45;&gt;Node3 -->
<g id="edge13" class="edge">
<title>Node11&#45;&gt;Node3</title>
<path fill="none" stroke="midnightblue" d="M482.94,-166.85C417.26,-156.6 317.02,-140.95 255.71,-131.38"/>
<polygon fill="midnightblue" stroke="midnightblue" points="482.76,-170.36 493.18,-168.44 483.83,-163.44 482.76,-170.36"/>
</g>
<!-- Node11&#45;&gt;Node10 -->
<g id="edge15" class="edge">
<title>Node11&#45;&gt;Node10</title>
<path fill="none" stroke="midnightblue" d="M573.58,-163.59C592.62,-153.61 618.06,-140.27 634.49,-131.65"/>
<polygon fill="midnightblue" stroke="midnightblue" points="571.78,-160.58 564.55,-168.32 575.03,-166.78 571.78,-160.58"/>
</g>
<!-- Node12 -->
<g id="node12" class="node">
<title>Node12</title>
<g id="a_node12"><a xlink:href="_method_info_8cpp.xhtml" target="_top" xlink:title=" ">
<polygon fill="none" stroke="black" points="477,-112.5 477,-131.5 587,-131.5 587,-112.5 477,-112.5"/>
<text text-anchor="middle" x="532" y="-119.5" font-family="Helvetica,sans-Serif" font-size="10.00">src/MethodInfo.cpp</text>
</a>
</g>
</g>
<!-- Node11&#45;&gt;Node12 -->
<g id="edge14" class="edge">
<title>Node11&#45;&gt;Node12</title>
<path fill="none" stroke="midnightblue" d="M542.49,-158.4C539.81,-149.36 536.72,-138.94 534.59,-131.75"/>
<polygon fill="midnightblue" stroke="midnightblue" points="539.16,-159.49 545.36,-168.08 545.87,-157.5 539.16,-159.49"/>
</g>
<!-- Node14&#45;&gt;Node3 -->
<g id="edge22" class="edge">
<title>Node14&#45;&gt;Node3</title>
<path fill="none" stroke="midnightblue" d="M91.73,-271.51C110.08,-238.54 148.15,-170.26 150,-168 161.78,-153.57 178.51,-140.02 189.79,-131.63"/>
<polygon fill="midnightblue" stroke="midnightblue" points="88.53,-270.06 86.73,-280.5 94.65,-273.46 88.53,-270.06"/>
</g>
<!-- Node15 -->
<g id="node15" class="node">
<title>Node15</title>
<g id="a_node15"><a xlink:href="_interface_8cpp.xhtml" target="_top" xlink:title=" ">
<polygon fill="none" stroke="black" points="0,-224.5 0,-243.5 98,-243.5 98,-224.5 0,-224.5"/>
<text text-anchor="middle" x="49" y="-231.5" font-family="Helvetica,sans-Serif" font-size="10.00">src/Interface.cpp</text>
</a>
</g>
</g>
<!-- Node14&#45;&gt;Node15 -->
<g id="edge23" class="edge">
<title>Node14&#45;&gt;Node15</title>
<path fill="none" stroke="midnightblue" d="M71.17,-271.27C65.53,-262.05 58.88,-251.17 54.35,-243.75"/>
<polygon fill="midnightblue" stroke="midnightblue" points="68.35,-273.38 76.55,-280.08 74.32,-269.73 68.35,-273.38"/>
</g>
<!-- Node16&#45;&gt;Node2 -->
<g id="edge26" class="edge">
<title>Node16&#45;&gt;Node2</title>
<path fill="none" stroke="midnightblue" d="M461.24,-274.1C449,-264.38 433.44,-252.03 423.12,-243.83"/>
<polygon fill="midnightblue" stroke="midnightblue" points="459.07,-276.85 469.07,-280.32 463.42,-271.36 459.07,-276.85"/>
</g>
<!-- Node16&#45;&gt;Node10 -->
<g id="edge27" class="edge">
<title>Node16&#45;&gt;Node10</title>
<path fill="none" stroke="midnightblue" d="M514.39,-276.8C551.32,-261.84 608.77,-232.79 639,-188 650.68,-170.69 651.82,-145.14 651.5,-131.81"/>
<polygon fill="midnightblue" stroke="midnightblue" points="513.04,-273.57 505.01,-280.48 515.6,-280.09 513.04,-273.57"/>
</g>
</g>
</svg>
