<?xml version="1.0" encoding="UTF-8" standalone="no"?>
<!DOCTYPE svg PUBLIC "-//W3C//DTD SVG 1.1//EN"
 "http://www.w3.org/Graphics/SVG/1.1/DTD/svg11.dtd">
<!-- Generated by graphviz version 2.43.0 (0)
 -->
<!-- Title: include/Definitions.h Pages: 1 -->
<svg width="805pt" height="420pt"
 viewBox="0.00 0.00 805.00 420.00" xmlns="http://www.w3.org/2000/svg" xmlns:xlink="http://www.w3.org/1999/xlink">
<g id="graph0" class="graph" transform="scale(1 1) rotate(0) translate(4 416)">
<title>include/Definitions.h</title>
<!-- Node1 -->
<g id="node1" class="node">
<title>Node1</title>
<g id="a_node1"><a xlink:title=" ">
<polygon fill="#bfbfbf" stroke="black" points="322.5,-392.5 322.5,-411.5 439.5,-411.5 439.5,-392.5 322.5,-392.5"/>
<text text-anchor="middle" x="381" y="-399.5" font-family="Helvetica,sans-Serif" font-size="10.00">include/Definitions.h</text>
</a>
</g>
</g>
<!-- Node2 -->
<g id="node2" class="node">
<title>Node2</title>
<g id="a_node2"><a xlink:href="_attribute_info_8h.xhtml" target="_top" xlink:title=" ">
<polygon fill="none" stroke="black" points="375.5,-224.5 375.5,-243.5 500.5,-243.5 500.5,-224.5 375.5,-224.5"/>
<text text-anchor="middle" x="438" y="-231.5" font-family="Helvetica,sans-Serif" font-size="10.00">include/AttributeInfo.h</text>
</a>
</g>
</g>
<!-- Node1&#45;&gt;Node2 -->
<g id="edge1" class="edge">
<title>Node1&#45;&gt;Node2</title>
<path fill="none" stroke="midnightblue" d="M405.35,-386.8C416.58,-379.06 429.15,-368.5 437,-356 455.23,-326.98 454.45,-313.98 450,-280 448.32,-267.17 444.05,-252.8 441.09,-243.83"/>
<polygon fill="midnightblue" stroke="midnightblue" points="403.22,-384.01 396.73,-392.39 407.03,-389.88 403.22,-384.01"/>
</g>
<!-- Node3 -->
<g id="node3" class="node">
<title>Node3</title>
<g id="a_node3"><a xlink:href="_class_file_8h.xhtml" target="_top" xlink:title=" ">
<polygon fill="none" stroke="black" points="608.5,-112.5 608.5,-131.5 715.5,-131.5 715.5,-112.5 608.5,-112.5"/>
<text text-anchor="middle" x="662" y="-119.5" font-family="Helvetica,sans-Serif" font-size="10.00">include/ClassFile.h</text>
</a>
</g>
</g>
<!-- Node1&#45;&gt;Node3 -->
<g id="edge18" class="edge">
<title>Node1&#45;&gt;Node3</title>
<path fill="none" stroke="midnightblue" d="M449.76,-396.98C567.94,-388.18 797,-361.96 797,-291 797,-291 797,-291 797,-233 797,-178.13 729.14,-145.77 689.65,-131.58"/>
<polygon fill="midnightblue" stroke="midnightblue" points="449.44,-393.5 439.72,-397.71 449.95,-400.48 449.44,-393.5"/>
</g>
<!-- Node4 -->
<g id="node4" class="node">
<title>Node4</title>
<g id="a_node4"><a xlink:href="_display_8h.xhtml" target="_top" xlink:title=" ">
<polygon fill="none" stroke="black" points="208.5,-56.5 208.5,-75.5 307.5,-75.5 307.5,-56.5 208.5,-56.5"/>
<text text-anchor="middle" x="258" y="-63.5" font-family="Helvetica,sans-Serif" font-size="10.00">include/Display.h</text>
</a>
</g>
</g>
<!-- Node1&#45;&gt;Node4 -->
<g id="edge33" class="edge">
<title>Node1&#45;&gt;Node4</title>
<path fill="none" stroke="midnightblue" d="M312.31,-395.31C202.58,-384.29 0,-355.26 0,-291 0,-291 0,-291 0,-177 0,-87.41 133.28,-69.78 208.26,-66.95"/>
<polygon fill="midnightblue" stroke="midnightblue" points="312.01,-398.79 322.3,-396.29 312.69,-391.83 312.01,-398.79"/>
</g>
<!-- Node8 -->
<g id="node8" class="node">
<title>Node8</title>
<g id="a_node8"><a xlink:href="_field_info_8h.xhtml" target="_top" xlink:title=" ">
<polygon fill="none" stroke="black" points="256.5,-168.5 256.5,-187.5 361.5,-187.5 361.5,-168.5 256.5,-168.5"/>
<text text-anchor="middle" x="309" y="-175.5" font-family="Helvetica,sans-Serif" font-size="10.00">include/FieldInfo.h</text>
</a>
</g>
</g>
<!-- Node1&#45;&gt;Node8 -->
<g id="edge34" class="edge">
<title>Node1&#45;&gt;Node8</title>
<path fill="none" stroke="midnightblue" d="M312.45,-393.93C253.71,-383.84 172.52,-359.35 133,-300 94.16,-241.67 208.6,-203.51 271.16,-187.54"/>
<polygon fill="midnightblue" stroke="midnightblue" points="311.97,-397.4 322.4,-395.54 313.09,-390.49 311.97,-397.4"/>
</g>
<!-- Node10 -->
<g id="node10" class="node">
<title>Node10</title>
<g id="a_node10"><a xlink:href="_opcode_8cpp.xhtml" target="_top" xlink:title=" ">
<polygon fill="none" stroke="black" points="148.5,-112.5 148.5,-131.5 239.5,-131.5 239.5,-112.5 148.5,-112.5"/>
<text text-anchor="middle" x="194" y="-119.5" font-family="Helvetica,sans-Serif" font-size="10.00">src/Opcode.cpp</text>
</a>
</g>
</g>
<!-- Node1&#45;&gt;Node10 -->
<g id="edge38" class="edge">
<title>Node1&#45;&gt;Node10</title>
<path fill="none" stroke="midnightblue" d="M312.43,-399.16C267.22,-395.11 208.38,-384.19 164,-356 137.74,-339.32 131.84,-329.51 122,-300 99.97,-233.91 162.53,-157.14 185.73,-131.69"/>
<polygon fill="midnightblue" stroke="midnightblue" points="312.2,-402.65 322.45,-399.97 312.76,-395.67 312.2,-402.65"/>
</g>
<!-- Node11 -->
<g id="node11" class="node">
<title>Node11</title>
<g id="a_node11"><a xlink:href="_method_info_8h.xhtml" target="_top" xlink:title=" ">
<polygon fill="none" stroke="black" points="514.5,-168.5 514.5,-187.5 633.5,-187.5 633.5,-168.5 514.5,-168.5"/>
<text text-anchor="middle" x="574" y="-175.5" font-family="Helvetica,sans-Serif" font-size="10.00">include/MethodInfo.h</text>
</a>
</g>
</g>
<!-- Node1&#45;&gt;Node11 -->
<g id="edge36" class="edge">
<title>Node1&#45;&gt;Node11</title>
<path fill="none" stroke="midnightblue" d="M409.26,-387.93C424.45,-380.04 442.91,-369.01 457,-356 514.65,-302.78 557.36,-215.59 570.09,-187.8"/>
<polygon fill="midnightblue" stroke="midnightblue" points="407.66,-384.82 400.28,-392.43 410.79,-391.08 407.66,-384.82"/>
</g>
<!-- Node14 -->
<g id="node14" class="node">
<title>Node14</title>
<g id="a_node14"><a xlink:href="_cp_info_8h.xhtml" target="_top" xlink:title=" ">
<polygon fill="none" stroke="black" points="333.5,-336.5 333.5,-355.5 428.5,-355.5 428.5,-336.5 333.5,-336.5"/>
<text text-anchor="middle" x="381" y="-343.5" font-family="Helvetica,sans-Serif" font-size="10.00">include/CpInfo.h</text>
</a>
</g>
</g>
<!-- Node1&#45;&gt;Node14 -->
<g id="edge19" class="edge">
<title>Node1&#45;&gt;Node14</title>
<path fill="none" stroke="midnightblue" d="M381,-381.8C381,-372.91 381,-362.78 381,-355.75"/>
<polygon fill="midnightblue" stroke="midnightblue" points="377.5,-382.08 381,-392.08 384.5,-382.08 377.5,-382.08"/>
</g>
<!-- Node15 -->
<g id="node15" class="node">
<title>Node15</title>
<g id="a_node15"><a xlink:href="_interface_8h.xhtml" target="_top" xlink:title=" ">
<polygon fill="none" stroke="black" points="633.5,-280.5 633.5,-299.5 740.5,-299.5 740.5,-280.5 633.5,-280.5"/>
<text text-anchor="middle" x="687" y="-287.5" font-family="Helvetica,sans-Serif" font-size="10.00">include/Interface.h</text>
</a>
</g>
</g>
<!-- Node1&#45;&gt;Node15 -->
<g id="edge35" class="edge">
<title>Node1&#45;&gt;Node15</title>
<path fill="none" stroke="midnightblue" d="M449.89,-391.26C489.25,-384.28 538.99,-373.06 581,-356 618.2,-340.89 657.3,-313.43 675.9,-299.53"/>
<polygon fill="midnightblue" stroke="midnightblue" points="449.12,-387.84 439.86,-392.98 450.31,-394.74 449.12,-387.84"/>
</g>
<!-- Node17 -->
<g id="node17" class="node">
<title>Node17</title>
<g id="a_node17"><a xlink:href="_opcode_8h.xhtml" target="_top" xlink:title=" ">
<polygon fill="none" stroke="black" points="142.5,-280.5 142.5,-299.5 243.5,-299.5 243.5,-280.5 142.5,-280.5"/>
<text text-anchor="middle" x="193" y="-287.5" font-family="Helvetica,sans-Serif" font-size="10.00">include/Opcode.h</text>
</a>
</g>
</g>
<!-- Node1&#45;&gt;Node17 -->
<g id="edge37" class="edge">
<title>Node1&#45;&gt;Node17</title>
<path fill="none" stroke="midnightblue" d="M357.59,-387.3C318.28,-364.3 240.15,-318.59 207.68,-299.59"/>
<polygon fill="midnightblue" stroke="midnightblue" points="355.85,-390.34 366.25,-392.37 359.38,-384.3 355.85,-390.34"/>
</g>
<!-- Node2&#45;&gt;Node3 -->
<g id="edge2" class="edge">
<title>Node2&#45;&gt;Node3</title>
<path fill="none" stroke="midnightblue" d="M510.54,-224.78C561.14,-217.63 622.87,-205.63 642,-188 658.15,-173.12 661.39,-145.55 661.95,-131.58"/>
<polygon fill="midnightblue" stroke="midnightblue" points="510.02,-221.31 500.59,-226.14 510.97,-228.25 510.02,-221.31"/>
</g>
<!-- Node2&#45;&gt;Node8 -->
<g id="edge8" class="edge">
<title>Node2&#45;&gt;Node8</title>
<path fill="none" stroke="midnightblue" d="M408.15,-220.5C383.96,-210.38 350.54,-196.39 329.34,-187.52"/>
<polygon fill="midnightblue" stroke="midnightblue" points="406.98,-223.81 417.56,-224.44 409.69,-217.35 406.98,-223.81"/>
</g>
<!-- Node2&#45;&gt;Node10 -->
<g id="edge17" class="edge">
<title>Node2&#45;&gt;Node10</title>
<path fill="none" stroke="midnightblue" d="M364.78,-227.04C327.28,-221.3 282.24,-210.05 247,-188 224.04,-173.64 206.47,-145.83 198.57,-131.7"/>
<polygon fill="midnightblue" stroke="midnightblue" points="364.74,-230.57 375.14,-228.52 365.73,-223.64 364.74,-230.57"/>
</g>
<!-- Node2&#45;&gt;Node11 -->
<g id="edge12" class="edge">
<title>Node2&#45;&gt;Node11</title>
<path fill="none" stroke="midnightblue" d="M469.13,-220.64C494.66,-210.5 530.11,-196.43 552.55,-187.52"/>
<polygon fill="midnightblue" stroke="midnightblue" points="467.55,-217.5 459.55,-224.44 470.14,-224.01 467.55,-217.5"/>
</g>
<!-- Node13 -->
<g id="node13" class="node">
<title>Node13</title>
<g id="a_node13"><a xlink:href="_attribute_info_8cpp.xhtml" target="_top" xlink:title=" ">
<polygon fill="none" stroke="black" points="380,-168.5 380,-187.5 496,-187.5 496,-168.5 380,-168.5"/>
<text text-anchor="middle" x="438" y="-175.5" font-family="Helvetica,sans-Serif" font-size="10.00">src/AttributeInfo.cpp</text>
</a>
</g>
</g>
<!-- Node2&#45;&gt;Node13 -->
<g id="edge16" class="edge">
<title>Node2&#45;&gt;Node13</title>
<path fill="none" stroke="midnightblue" d="M438,-213.8C438,-204.91 438,-194.78 438,-187.75"/>
<polygon fill="midnightblue" stroke="midnightblue" points="434.5,-214.08 438,-224.08 441.5,-214.08 434.5,-214.08"/>
</g>
<!-- Node3&#45;&gt;Node4 -->
<g id="edge3" class="edge">
<title>Node3&#45;&gt;Node4</title>
<path fill="none" stroke="midnightblue" d="M598.44,-111.94C488.41,-96.85 372.19,-81.72 307.72,-73.39"/>
<polygon fill="midnightblue" stroke="midnightblue" points="598.01,-115.41 608.39,-113.3 598.96,-108.47 598.01,-115.41"/>
</g>
<!-- Node5 -->
<g id="node5" class="node">
<title>Node5</title>
<g id="a_node5"><a xlink:href="_display_8cpp.xhtml" target="_top" xlink:title=" ">
<polygon fill="none" stroke="black" points="358.5,-0.5 358.5,-19.5 447.5,-19.5 447.5,-0.5 358.5,-0.5"/>
<text text-anchor="middle" x="403" y="-7.5" font-family="Helvetica,sans-Serif" font-size="10.00">src/Display.cpp</text>
</a>
</g>
</g>
<!-- Node3&#45;&gt;Node5 -->
<g id="edge6" class="edge">
<title>Node3&#45;&gt;Node5</title>
<path fill="none" stroke="midnightblue" d="M673.05,-103.44C680.52,-89.12 687.17,-69.16 676,-56 647.25,-22.12 517.48,-13.71 447.71,-11.65"/>
<polygon fill="midnightblue" stroke="midnightblue" points="669.9,-101.9 667.96,-112.31 675.97,-105.38 669.9,-101.9"/>
</g>
<!-- Node6 -->
<g id="node6" class="node">
<title>Node6</title>
<g id="a_node6"><a xlink:href="_class_file_8cpp.xhtml" target="_top" xlink:title=" ">
<polygon fill="none" stroke="black" points="473.5,-56.5 473.5,-75.5 570.5,-75.5 570.5,-56.5 473.5,-56.5"/>
<text text-anchor="middle" x="522" y="-63.5" font-family="Helvetica,sans-Serif" font-size="10.00">src/ClassFile.cpp</text>
</a>
</g>
</g>
<!-- Node3&#45;&gt;Node6 -->
<g id="edge5" class="edge">
<title>Node3&#45;&gt;Node6</title>
<path fill="none" stroke="midnightblue" d="M630.3,-108.77C604,-98.63 567.28,-84.47 544.08,-75.52"/>
<polygon fill="midnightblue" stroke="midnightblue" points="629.23,-112.11 639.82,-112.44 631.75,-105.58 629.23,-112.11"/>
</g>
<!-- Node7 -->
<g id="node7" class="node">
<title>Node7</title>
<g id="a_node7"><a xlink:href="main_8cpp.xhtml" target="_top" xlink:title=" ">
<polygon fill="none" stroke="black" points="588.5,-56.5 588.5,-75.5 667.5,-75.5 667.5,-56.5 588.5,-56.5"/>
<text text-anchor="middle" x="628" y="-63.5" font-family="Helvetica,sans-Serif" font-size="10.00">src/main.cpp</text>
</a>
</g>
</g>
<!-- Node3&#45;&gt;Node7 -->
<g id="edge7" class="edge">
<title>Node3&#45;&gt;Node7</title>
<path fill="none" stroke="midnightblue" d="M651.02,-103.57C645.17,-94.27 638.23,-83.25 633.51,-75.75"/>
<polygon fill="midnightblue" stroke="midnightblue" points="648.1,-105.49 656.39,-112.08 654.02,-101.76 648.1,-105.49"/>
</g>
<!-- Node4&#45;&gt;Node5 -->
<g id="edge4" class="edge">
<title>Node4&#45;&gt;Node5</title>
<path fill="none" stroke="midnightblue" d="M290.48,-52.91C317.74,-42.75 355.99,-28.51 380.13,-19.52"/>
<polygon fill="midnightblue" stroke="midnightblue" points="289.13,-49.67 280.98,-56.44 291.57,-56.23 289.13,-49.67"/>
</g>
<!-- Node8&#45;&gt;Node3 -->
<g id="edge9" class="edge">
<title>Node8&#45;&gt;Node3</title>
<path fill="none" stroke="midnightblue" d="M371.89,-167.38C439.15,-157.09 544.68,-140.95 608.21,-131.23"/>
<polygon fill="midnightblue" stroke="midnightblue" points="371.2,-163.94 361.85,-168.92 372.26,-170.86 371.2,-163.94"/>
</g>
<!-- Node9 -->
<g id="node9" class="node">
<title>Node9</title>
<g id="a_node9"><a xlink:href="_field_info_8cpp.xhtml" target="_top" xlink:title=" ">
<polygon fill="none" stroke="black" points="261.5,-112.5 261.5,-131.5 356.5,-131.5 356.5,-112.5 261.5,-112.5"/>
<text text-anchor="middle" x="309" y="-119.5" font-family="Helvetica,sans-Serif" font-size="10.00">src/FieldInfo.cpp</text>
</a>
</g>
</g>
<!-- Node8&#45;&gt;Node9 -->
<g id="edge10" class="edge">
<title>Node8&#45;&gt;Node9</title>
<path fill="none" stroke="midnightblue" d="M309,-157.8C309,-148.91 309,-138.78 309,-131.75"/>
<polygon fill="midnightblue" stroke="midnightblue" points="305.5,-158.08 309,-168.08 312.5,-158.08 305.5,-158.08"/>
</g>
<!-- Node8&#45;&gt;Node10 -->
<g id="edge11" class="edge">
<title>Node8&#45;&gt;Node10</title>
<path fill="none" stroke="midnightblue" d="M281.52,-164.1C260.03,-154.01 230.78,-140.27 212.14,-131.52"/>
<polygon fill="midnightblue" stroke="midnightblue" points="280.24,-167.36 290.78,-168.44 283.21,-161.02 280.24,-167.36"/>
</g>
<!-- Node11&#45;&gt;Node3 -->
<g id="edge13" class="edge">
<title>Node11&#45;&gt;Node3</title>
<path fill="none" stroke="midnightblue" d="M596.98,-162.9C613.11,-153 634.18,-140.07 647.9,-131.65"/>
<polygon fill="midnightblue" stroke="midnightblue" points="594.83,-160.11 588.14,-168.32 598.49,-166.08 594.83,-160.11"/>
</g>
<!-- Node11&#45;&gt;Node10 -->
<g id="edge15" class="edge">
<title>Node11&#45;&gt;Node10</title>
<path fill="none" stroke="midnightblue" d="M504.15,-167.55C438.9,-158.64 338.8,-144.8 252,-132 247.97,-131.41 243.78,-130.78 239.58,-130.14"/>
<polygon fill="midnightblue" stroke="midnightblue" points="503.94,-171.05 514.32,-168.93 504.88,-164.12 503.94,-171.05"/>
</g>
<!-- Node12 -->
<g id="node12" class="node">
<title>Node12</title>
<g id="a_node12"><a xlink:href="_method_info_8cpp.xhtml" target="_top" xlink:title=" ">
<polygon fill="none" stroke="black" points="480,-112.5 480,-131.5 590,-131.5 590,-112.5 480,-112.5"/>
<text text-anchor="middle" x="535" y="-119.5" font-family="Helvetica,sans-Serif" font-size="10.00">src/MethodInfo.cpp</text>
</a>
</g>
</g>
<!-- Node11&#45;&gt;Node12 -->
<g id="edge14" class="edge">
<title>Node11&#45;&gt;Node12</title>
<path fill="none" stroke="midnightblue" d="M561.62,-159.86C554.86,-150.5 546.79,-139.33 541.32,-131.75"/>
<polygon fill="midnightblue" stroke="midnightblue" points="558.87,-162.03 567.56,-168.08 564.54,-157.93 558.87,-162.03"/>
</g>
<!-- Node14&#45;&gt;Node2 -->
<g id="edge20" class="edge">
<title>Node14&#45;&gt;Node2</title>
<path fill="none" stroke="midnightblue" d="M404.73,-330.67C415.27,-322.98 426.7,-312.49 433,-300 442.28,-281.61 440.89,-256.51 439.31,-243.54"/>
<polygon fill="midnightblue" stroke="midnightblue" points="402.51,-327.95 396.22,-336.47 406.45,-333.74 402.51,-327.95"/>
</g>
<!-- Node14&#45;&gt;Node3 -->
<g id="edge21" class="edge">
<title>Node14&#45;&gt;Node3</title>
<path fill="none" stroke="midnightblue" d="M409.88,-332.21C428.89,-323.57 454.21,-311.65 476,-300 518.72,-277.16 639.12,-230.14 663,-188 673.13,-170.13 668.35,-144.82 664.74,-131.67"/>
<polygon fill="midnightblue" stroke="midnightblue" points="408.24,-329.11 400.56,-336.41 411.11,-335.49 408.24,-329.11"/>
</g>
<!-- Node14&#45;&gt;Node4 -->
<g id="edge22" class="edge">
<title>Node14&#45;&gt;Node4</title>
<path fill="none" stroke="midnightblue" d="M323.26,-342.81C257.71,-338.96 156.76,-328.46 133,-300 104.04,-265.31 -96.14,-439.65 139,-112 154.97,-89.75 183.39,-78.5 208.45,-72.81"/>
<polygon fill="midnightblue" stroke="midnightblue" points="323.28,-346.31 333.46,-343.37 323.66,-339.32 323.28,-346.31"/>
</g>
<!-- Node14&#45;&gt;Node8 -->
<g id="edge23" class="edge">
<title>Node14&#45;&gt;Node8</title>
<path fill="none" stroke="midnightblue" d="M357.74,-330.42C347.31,-322.67 335.84,-312.21 329,-300 307.88,-262.29 307.68,-208.3 308.5,-187.56"/>
<polygon fill="midnightblue" stroke="midnightblue" points="355.93,-333.43 366.14,-336.28 359.94,-327.69 355.93,-333.43"/>
</g>
<!-- Node14&#45;&gt;Node10 -->
<g id="edge32" class="edge">
<title>Node14&#45;&gt;Node10</title>
<path fill="none" stroke="midnightblue" d="M358.15,-330.94C345.45,-322.65 329.7,-311.54 317,-300 268.47,-255.91 255.33,-243.85 221,-188 209.48,-169.26 200.81,-144.74 196.68,-131.83"/>
<polygon fill="midnightblue" stroke="midnightblue" points="356.46,-334.01 366.77,-336.45 360.23,-328.12 356.46,-334.01"/>
</g>
<!-- Node14&#45;&gt;Node11 -->
<g id="edge27" class="edge">
<title>Node14&#45;&gt;Node11</title>
<path fill="none" stroke="midnightblue" d="M404.61,-331.08C418.28,-322.66 435.59,-311.38 450,-300 497.91,-262.15 547.81,-208.24 566.42,-187.54"/>
<polygon fill="midnightblue" stroke="midnightblue" points="402.54,-328.25 395.8,-336.42 406.16,-334.23 402.54,-328.25"/>
</g>
<!-- Node14&#45;&gt;Node15 -->
<g id="edge24" class="edge">
<title>Node14&#45;&gt;Node15</title>
<path fill="none" stroke="midnightblue" d="M438.89,-334.78C496.72,-324.58 584.6,-309.07 638.77,-299.51"/>
<polygon fill="midnightblue" stroke="midnightblue" points="438.05,-331.38 428.81,-336.56 439.27,-338.27 438.05,-331.38"/>
</g>
<!-- Node14&#45;&gt;Node17 -->
<g id="edge28" class="edge">
<title>Node14&#45;&gt;Node17</title>
<path fill="none" stroke="midnightblue" d="M341.2,-333.57C305.73,-323.38 254.63,-308.7 222.65,-299.52"/>
<polygon fill="midnightblue" stroke="midnightblue" points="340.63,-337.05 351.21,-336.44 342.57,-330.32 340.63,-337.05"/>
</g>
<!-- Node18 -->
<g id="node18" class="node">
<title>Node18</title>
<g id="a_node18"><a xlink:href="_cp_info_8cpp.xhtml" target="_top" xlink:title=" ">
<polygon fill="none" stroke="black" points="338,-280.5 338,-299.5 424,-299.5 424,-280.5 338,-280.5"/>
<text text-anchor="middle" x="381" y="-287.5" font-family="Helvetica,sans-Serif" font-size="10.00">src/CpInfo.cpp</text>
</a>
</g>
</g>
<!-- Node14&#45;&gt;Node18 -->
<g id="edge31" class="edge">
<title>Node14&#45;&gt;Node18</title>
<path fill="none" stroke="midnightblue" d="M381,-325.8C381,-316.91 381,-306.78 381,-299.75"/>
<polygon fill="midnightblue" stroke="midnightblue" points="377.5,-326.08 381,-336.08 384.5,-326.08 377.5,-326.08"/>
</g>
<!-- Node15&#45;&gt;Node3 -->
<g id="edge25" class="edge">
<title>Node15&#45;&gt;Node3</title>
<path fill="none" stroke="midnightblue" d="M711.72,-274.9C722.53,-267.28 734.08,-256.79 740,-244 743.73,-235.93 741.92,-232.68 740,-224 734.08,-197.2 730.52,-189.91 714,-168 702.93,-153.32 686.36,-140.02 674.92,-131.75"/>
<polygon fill="midnightblue" stroke="midnightblue" points="709.79,-271.98 703.33,-280.39 713.62,-277.84 709.79,-271.98"/>
</g>
<!-- Node16 -->
<g id="node16" class="node">
<title>Node16</title>
<g id="a_node16"><a xlink:href="_interface_8cpp.xhtml" target="_top" xlink:title=" ">
<polygon fill="none" stroke="black" points="633,-224.5 633,-243.5 731,-243.5 731,-224.5 633,-224.5"/>
<text text-anchor="middle" x="682" y="-231.5" font-family="Helvetica,sans-Serif" font-size="10.00">src/Interface.cpp</text>
</a>
</g>
</g>
<!-- Node15&#45;&gt;Node16 -->
<g id="edge26" class="edge">
<title>Node15&#45;&gt;Node16</title>
<path fill="none" stroke="midnightblue" d="M685.25,-270.1C684.42,-261.14 683.47,-250.86 682.81,-243.75"/>
<polygon fill="midnightblue" stroke="midnightblue" points="681.77,-270.45 686.17,-280.08 688.74,-269.8 681.77,-270.45"/>
</g>
<!-- Node17&#45;&gt;Node2 -->
<g id="edge29" class="edge">
<title>Node17&#45;&gt;Node2</title>
<path fill="none" stroke="midnightblue" d="M241.63,-278.28C287.93,-268.08 356.69,-252.92 399.36,-243.52"/>
<polygon fill="midnightblue" stroke="midnightblue" points="240.83,-274.87 231.82,-280.44 242.34,-281.71 240.83,-274.87"/>
</g>
<!-- Node17&#45;&gt;Node10 -->
<g id="edge30" class="edge">
<title>Node17&#45;&gt;Node10</title>
<path fill="none" stroke="midnightblue" d="M186.68,-270.67C179.32,-246.88 169.04,-204.14 176,-168 178.55,-154.78 184.94,-140.51 189.38,-131.66"/>
<polygon fill="midnightblue" stroke="midnightblue" points="183.44,-272.02 189.87,-280.44 190.09,-269.85 183.44,-272.02"/>
</g>
</g>
</svg>
