<?xml version="1.0" encoding="UTF-8" standalone="no"?>
<!DOCTYPE svg PUBLIC "-//W3C//DTD SVG 1.1//EN"
 "http://www.w3.org/Graphics/SVG/1.1/DTD/svg11.dtd">
<!-- Generated by graphviz version 2.43.0 (0)
 -->
<!-- Title: include/Definitions.h Pages: 1 -->
<svg width="655pt" height="420pt"
 viewBox="0.00 0.00 654.50 420.00" xmlns="http://www.w3.org/2000/svg" xmlns:xlink="http://www.w3.org/1999/xlink">
<g id="graph0" class="graph" transform="scale(1 1) rotate(0) translate(4 416)">
<title>include/Definitions.h</title>
<!-- Node1 -->
<g id="node1" class="node">
<title>Node1</title>
<g id="a_node1"><a xlink:title=" ">
<polygon fill="#bfbfbf" stroke="black" points="299,-392.5 299,-411.5 416,-411.5 416,-392.5 299,-392.5"/>
<text text-anchor="middle" x="357.5" y="-399.5" font-family="Helvetica,sans-Serif" font-size="10.00">include/Definitions.h</text>
</a>
</g>
</g>
<!-- Node2 -->
<g id="node2" class="node">
<title>Node2</title>
<g id="a_node2"><a xlink:href="_attribute_info_8h.xhtml" target="_top" xlink:title=" ">
<polygon fill="none" stroke="black" points="322,-224.5 322,-243.5 447,-243.5 447,-224.5 322,-224.5"/>
<text text-anchor="middle" x="384.5" y="-231.5" font-family="Helvetica,sans-Serif" font-size="10.00">include/AttributeInfo.h</text>
</a>
</g>
</g>
<!-- Node1&#45;&gt;Node2 -->
<g id="edge1" class="edge">
<title>Node1&#45;&gt;Node2</title>
<path fill="none" stroke="midnightblue" d="M382.79,-386.91C394.24,-379.24 406.88,-368.72 414.5,-356 427.49,-334.31 422.27,-325.18 424.5,-300 425.28,-291.15 427.66,-288.31 424.5,-280 418.78,-264.95 405.47,-251.73 395.77,-243.57"/>
<polygon fill="midnightblue" stroke="midnightblue" points="380.6,-384.16 373.99,-392.43 384.32,-390.09 380.6,-384.16"/>
</g>
<!-- Node3 -->
<g id="node3" class="node">
<title>Node3</title>
<g id="a_node3"><a xlink:href="_class_file_8h.xhtml" target="_top" xlink:title=" ">
<polygon fill="none" stroke="black" points="245,-112.5 245,-131.5 352,-131.5 352,-112.5 245,-112.5"/>
<text text-anchor="middle" x="298.5" y="-119.5" font-family="Helvetica,sans-Serif" font-size="10.00">include/ClassFile.h</text>
</a>
</g>
</g>
<!-- Node1&#45;&gt;Node3 -->
<g id="edge15" class="edge">
<title>Node1&#45;&gt;Node3</title>
<path fill="none" stroke="midnightblue" d="M297,-390.09C247.31,-377.59 180.03,-351.75 147.5,-300 139.49,-287.26 137.44,-249.87 152.5,-224 180.57,-175.79 241.93,-145.26 275.48,-131.51"/>
<polygon fill="midnightblue" stroke="midnightblue" points="296.46,-393.56 307,-392.48 298.09,-386.75 296.46,-393.56"/>
</g>
<!-- Node4 -->
<g id="node4" class="node">
<title>Node4</title>
<g id="a_node4"><a xlink:href="_display_8h.xhtml" target="_top" xlink:title=" ">
<polygon fill="none" stroke="black" points="538,-56.5 538,-75.5 637,-75.5 637,-56.5 538,-56.5"/>
<text text-anchor="middle" x="587.5" y="-63.5" font-family="Helvetica,sans-Serif" font-size="10.00">include/Display.h</text>
</a>
</g>
</g>
<!-- Node1&#45;&gt;Node4 -->
<g id="edge26" class="edge">
<title>Node1&#45;&gt;Node4</title>
<path fill="none" stroke="midnightblue" d="M418.2,-390.56C502.96,-374.23 646.5,-339.43 646.5,-291 646.5,-291 646.5,-291 646.5,-177 646.5,-134.74 612.27,-93.04 595.95,-75.56"/>
<polygon fill="midnightblue" stroke="midnightblue" points="417.34,-387.16 408.17,-392.46 418.65,-394.04 417.34,-387.16"/>
</g>
<!-- Node8 -->
<g id="node8" class="node">
<title>Node8</title>
<g id="a_node8"><a xlink:href="_field_info_8h.xhtml" target="_top" xlink:title=" ">
<polygon fill="none" stroke="black" points="0,-168.5 0,-187.5 105,-187.5 105,-168.5 0,-168.5"/>
<text text-anchor="middle" x="52.5" y="-175.5" font-family="Helvetica,sans-Serif" font-size="10.00">include/FieldInfo.h</text>
</a>
</g>
</g>
<!-- Node1&#45;&gt;Node8 -->
<g id="edge27" class="edge">
<title>Node1&#45;&gt;Node8</title>
<path fill="none" stroke="midnightblue" d="M288.66,-395.87C226.25,-389.89 140.22,-377.9 114.5,-356 61.2,-310.61 53.7,-216.62 52.66,-187.67"/>
<polygon fill="midnightblue" stroke="midnightblue" points="288.57,-399.37 298.85,-396.81 289.22,-392.4 288.57,-399.37"/>
</g>
<!-- Node10 -->
<g id="node10" class="node">
<title>Node10</title>
<g id="a_node10"><a xlink:href="_method_info_8h.xhtml" target="_top" xlink:title=" ">
<polygon fill="none" stroke="black" points="461,-168.5 461,-187.5 580,-187.5 580,-168.5 461,-168.5"/>
<text text-anchor="middle" x="520.5" y="-175.5" font-family="Helvetica,sans-Serif" font-size="10.00">include/MethodInfo.h</text>
</a>
</g>
</g>
<!-- Node1&#45;&gt;Node10 -->
<g id="edge28" class="edge">
<title>Node1&#45;&gt;Node10</title>
<path fill="none" stroke="midnightblue" d="M386.9,-387.84C401.83,-380.12 419.52,-369.26 432.5,-356 483.63,-303.77 510.6,-215.92 518.21,-187.88"/>
<polygon fill="midnightblue" stroke="midnightblue" points="384.97,-384.89 377.56,-392.46 388.07,-391.17 384.97,-384.89"/>
</g>
<!-- Node13 -->
<g id="node13" class="node">
<title>Node13</title>
<g id="a_node13"><a xlink:href="_cp_info_8h.xhtml" target="_top" xlink:title=" ">
<polygon fill="none" stroke="black" points="310,-336.5 310,-355.5 405,-355.5 405,-336.5 310,-336.5"/>
<text text-anchor="middle" x="357.5" y="-343.5" font-family="Helvetica,sans-Serif" font-size="10.00">include/CpInfo.h</text>
</a>
</g>
</g>
<!-- Node1&#45;&gt;Node13 -->
<g id="edge16" class="edge">
<title>Node1&#45;&gt;Node13</title>
<path fill="none" stroke="midnightblue" d="M357.5,-381.8C357.5,-372.91 357.5,-362.78 357.5,-355.75"/>
<polygon fill="midnightblue" stroke="midnightblue" points="354,-382.08 357.5,-392.08 361,-382.08 354,-382.08"/>
</g>
<!-- Node14 -->
<g id="node14" class="node">
<title>Node14</title>
<g id="a_node14"><a xlink:href="_opcode_8h.xhtml" target="_top" xlink:title=" ">
<polygon fill="none" stroke="black" points="157,-280.5 157,-299.5 258,-299.5 258,-280.5 157,-280.5"/>
<text text-anchor="middle" x="207.5" y="-287.5" font-family="Helvetica,sans-Serif" font-size="10.00">include/Opcode.h</text>
</a>
</g>
</g>
<!-- Node1&#45;&gt;Node14 -->
<g id="edge29" class="edge">
<title>Node1&#45;&gt;Node14</title>
<path fill="none" stroke="midnightblue" d="M337.61,-386.42C305.89,-363.15 244.8,-318.35 219.22,-299.59"/>
<polygon fill="midnightblue" stroke="midnightblue" points="335.6,-389.28 345.73,-392.37 339.74,-383.63 335.6,-389.28"/>
</g>
<!-- Node2&#45;&gt;Node3 -->
<g id="edge2" class="edge">
<title>Node2&#45;&gt;Node3</title>
<path fill="none" stroke="midnightblue" d="M355.81,-219.62C342.42,-212.06 327.32,-201.41 317.5,-188 304.86,-170.73 300.59,-145.16 299.18,-131.83"/>
<polygon fill="midnightblue" stroke="midnightblue" points="354.24,-222.75 364.71,-224.36 357.53,-216.57 354.24,-222.75"/>
</g>
<!-- Node2&#45;&gt;Node8 -->
<g id="edge8" class="edge">
<title>Node2&#45;&gt;Node8</title>
<path fill="none" stroke="midnightblue" d="M321.73,-222.79C259,-212.59 163.65,-197.08 104.86,-187.52"/>
<polygon fill="midnightblue" stroke="midnightblue" points="321.46,-226.29 331.89,-224.44 322.59,-219.38 321.46,-226.29"/>
</g>
<!-- Node2&#45;&gt;Node10 -->
<g id="edge11" class="edge">
<title>Node2&#45;&gt;Node10</title>
<path fill="none" stroke="midnightblue" d="M415.63,-220.64C441.16,-210.5 476.61,-196.43 499.05,-187.52"/>
<polygon fill="midnightblue" stroke="midnightblue" points="414.05,-217.5 406.05,-224.44 416.64,-224.01 414.05,-217.5"/>
</g>
<!-- Node12 -->
<g id="node12" class="node">
<title>Node12</title>
<g id="a_node12"><a xlink:href="_attribute_info_8cpp.xhtml" target="_top" xlink:title=" ">
<polygon fill="none" stroke="black" points="326.5,-168.5 326.5,-187.5 442.5,-187.5 442.5,-168.5 326.5,-168.5"/>
<text text-anchor="middle" x="384.5" y="-175.5" font-family="Helvetica,sans-Serif" font-size="10.00">src/AttributeInfo.cpp</text>
</a>
</g>
</g>
<!-- Node2&#45;&gt;Node12 -->
<g id="edge14" class="edge">
<title>Node2&#45;&gt;Node12</title>
<path fill="none" stroke="midnightblue" d="M384.5,-213.8C384.5,-204.91 384.5,-194.78 384.5,-187.75"/>
<polygon fill="midnightblue" stroke="midnightblue" points="381,-214.08 384.5,-224.08 388,-214.08 381,-214.08"/>
</g>
<!-- Node3&#45;&gt;Node4 -->
<g id="edge3" class="edge">
<title>Node3&#45;&gt;Node4</title>
<path fill="none" stroke="midnightblue" d="M354.16,-110.6C408.77,-100.4 491.07,-85.02 541.92,-75.52"/>
<polygon fill="midnightblue" stroke="midnightblue" points="353.48,-107.17 344.29,-112.44 354.77,-114.05 353.48,-107.17"/>
</g>
<!-- Node5 -->
<g id="node5" class="node">
<title>Node5</title>
<g id="a_node5"><a xlink:href="_display_8cpp.xhtml" target="_top" xlink:title=" ">
<polygon fill="none" stroke="black" points="463,-0.5 463,-19.5 552,-19.5 552,-0.5 463,-0.5"/>
<text text-anchor="middle" x="507.5" y="-7.5" font-family="Helvetica,sans-Serif" font-size="10.00">src/Display.cpp</text>
</a>
</g>
</g>
<!-- Node3&#45;&gt;Node5 -->
<g id="edge6" class="edge">
<title>Node3&#45;&gt;Node5</title>
<path fill="none" stroke="midnightblue" d="M323.98,-107.59C367.49,-84.69 454.93,-38.67 491.18,-19.59"/>
<polygon fill="midnightblue" stroke="midnightblue" points="322.12,-104.61 314.9,-112.37 325.38,-110.81 322.12,-104.61"/>
</g>
<!-- Node6 -->
<g id="node6" class="node">
<title>Node6</title>
<g id="a_node6"><a xlink:href="_class_file_8cpp.xhtml" target="_top" xlink:title=" ">
<polygon fill="none" stroke="black" points="164,-56.5 164,-75.5 261,-75.5 261,-56.5 164,-56.5"/>
<text text-anchor="middle" x="212.5" y="-63.5" font-family="Helvetica,sans-Serif" font-size="10.00">src/ClassFile.cpp</text>
</a>
</g>
</g>
<!-- Node3&#45;&gt;Node6 -->
<g id="edge5" class="edge">
<title>Node3&#45;&gt;Node6</title>
<path fill="none" stroke="midnightblue" d="M276.05,-106.9C260.28,-97 239.69,-84.07 226.28,-75.65"/>
<polygon fill="midnightblue" stroke="midnightblue" points="274.35,-109.97 284.68,-112.32 278.07,-104.04 274.35,-109.97"/>
</g>
<!-- Node7 -->
<g id="node7" class="node">
<title>Node7</title>
<g id="a_node7"><a xlink:href="main_8cpp.xhtml" target="_top" xlink:title=" ">
<polygon fill="none" stroke="black" points="279,-56.5 279,-75.5 358,-75.5 358,-56.5 279,-56.5"/>
<text text-anchor="middle" x="318.5" y="-63.5" font-family="Helvetica,sans-Serif" font-size="10.00">src/main.cpp</text>
</a>
</g>
</g>
<!-- Node3&#45;&gt;Node7 -->
<g id="edge7" class="edge">
<title>Node3&#45;&gt;Node7</title>
<path fill="none" stroke="midnightblue" d="M305.28,-102.69C308.65,-93.59 312.57,-83.01 315.26,-75.75"/>
<polygon fill="midnightblue" stroke="midnightblue" points="301.99,-101.49 301.8,-112.08 308.56,-103.92 301.99,-101.49"/>
</g>
<!-- Node4&#45;&gt;Node5 -->
<g id="edge4" class="edge">
<title>Node4&#45;&gt;Node5</title>
<path fill="none" stroke="midnightblue" d="M566.2,-50.62C551.58,-40.76 532.67,-27.99 520.32,-19.65"/>
<polygon fill="midnightblue" stroke="midnightblue" points="564.4,-53.63 574.65,-56.32 568.32,-47.83 564.4,-53.63"/>
</g>
<!-- Node8&#45;&gt;Node3 -->
<g id="edge9" class="edge">
<title>Node8&#45;&gt;Node3</title>
<path fill="none" stroke="midnightblue" d="M101.33,-166.28C147.82,-156.08 216.86,-140.92 259.7,-131.52"/>
<polygon fill="midnightblue" stroke="midnightblue" points="100.5,-162.88 91.48,-168.44 102,-169.72 100.5,-162.88"/>
</g>
<!-- Node9 -->
<g id="node9" class="node">
<title>Node9</title>
<g id="a_node9"><a xlink:href="_field_info_8cpp.xhtml" target="_top" xlink:title=" ">
<polygon fill="none" stroke="black" points="5,-112.5 5,-131.5 100,-131.5 100,-112.5 5,-112.5"/>
<text text-anchor="middle" x="52.5" y="-119.5" font-family="Helvetica,sans-Serif" font-size="10.00">src/FieldInfo.cpp</text>
</a>
</g>
</g>
<!-- Node8&#45;&gt;Node9 -->
<g id="edge10" class="edge">
<title>Node8&#45;&gt;Node9</title>
<path fill="none" stroke="midnightblue" d="M52.5,-157.8C52.5,-148.91 52.5,-138.78 52.5,-131.75"/>
<polygon fill="midnightblue" stroke="midnightblue" points="49,-158.08 52.5,-168.08 56,-158.08 49,-158.08"/>
</g>
<!-- Node10&#45;&gt;Node3 -->
<g id="edge12" class="edge">
<title>Node10&#45;&gt;Node3</title>
<path fill="none" stroke="midnightblue" d="M475.38,-166.02C433.44,-155.82 371.85,-140.84 333.51,-131.52"/>
<polygon fill="midnightblue" stroke="midnightblue" points="474.78,-169.48 485.32,-168.44 476.43,-162.68 474.78,-169.48"/>
</g>
<!-- Node11 -->
<g id="node11" class="node">
<title>Node11</title>
<g id="a_node11"><a xlink:href="_method_info_8cpp.xhtml" target="_top" xlink:title=" ">
<polygon fill="none" stroke="black" points="465.5,-112.5 465.5,-131.5 575.5,-131.5 575.5,-112.5 465.5,-112.5"/>
<text text-anchor="middle" x="520.5" y="-119.5" font-family="Helvetica,sans-Serif" font-size="10.00">src/MethodInfo.cpp</text>
</a>
</g>
</g>
<!-- Node10&#45;&gt;Node11 -->
<g id="edge13" class="edge">
<title>Node10&#45;&gt;Node11</title>
<path fill="none" stroke="midnightblue" d="M520.5,-157.8C520.5,-148.91 520.5,-138.78 520.5,-131.75"/>
<polygon fill="midnightblue" stroke="midnightblue" points="517,-158.08 520.5,-168.08 524,-158.08 517,-158.08"/>
</g>
<!-- Node13&#45;&gt;Node2 -->
<g id="edge17" class="edge">
<title>Node13&#45;&gt;Node2</title>
<path fill="none" stroke="midnightblue" d="M381.87,-330.73C392.45,-323.09 403.72,-312.64 409.5,-300 418.55,-280.21 402.51,-256.11 392.19,-243.55"/>
<polygon fill="midnightblue" stroke="midnightblue" points="379.65,-328 373.28,-336.47 383.54,-333.82 379.65,-328"/>
</g>
<!-- Node13&#45;&gt;Node3 -->
<g id="edge18" class="edge">
<title>Node13&#45;&gt;Node3</title>
<path fill="none" stroke="midnightblue" d="M333.14,-330.47C322.67,-322.82 311.49,-312.44 305.5,-300 277.23,-241.25 290.98,-158.42 296.54,-131.68"/>
<polygon fill="midnightblue" stroke="midnightblue" points="331.39,-333.51 341.63,-336.23 335.33,-327.72 331.39,-333.51"/>
</g>
<!-- Node13&#45;&gt;Node4 -->
<g id="edge19" class="edge">
<title>Node13&#45;&gt;Node4</title>
<path fill="none" stroke="midnightblue" d="M395.05,-333.09C450.26,-313.24 550.95,-267.51 589.5,-188 608.02,-149.81 596.07,-96.55 590.2,-75.78"/>
<polygon fill="midnightblue" stroke="midnightblue" points="393.58,-329.9 385.3,-336.5 395.89,-336.51 393.58,-329.9"/>
</g>
<!-- Node13&#45;&gt;Node8 -->
<g id="edge20" class="edge">
<title>Node13&#45;&gt;Node8</title>
<path fill="none" stroke="midnightblue" d="M299.76,-343.16C255.19,-339.36 193.57,-328.76 147.5,-300 100.83,-270.86 67.76,-210.27 56.62,-187.71"/>
<polygon fill="midnightblue" stroke="midnightblue" points="299.61,-346.66 309.85,-343.93 300.15,-339.68 299.61,-346.66"/>
</g>
<!-- Node13&#45;&gt;Node10 -->
<g id="edge21" class="edge">
<title>Node13&#45;&gt;Node10</title>
<path fill="none" stroke="midnightblue" d="M381.77,-331.23C395.11,-323.06 411.54,-311.97 424.5,-300 464.49,-263.06 501.42,-208.62 515,-187.66"/>
<polygon fill="midnightblue" stroke="midnightblue" points="379.9,-328.27 373.11,-336.4 383.49,-334.28 379.9,-328.27"/>
</g>
<!-- Node13&#45;&gt;Node14 -->
<g id="edge22" class="edge">
<title>Node13&#45;&gt;Node14</title>
<path fill="none" stroke="midnightblue" d="M324.28,-333.04C296.05,-322.88 256.24,-308.55 231.16,-299.52"/>
<polygon fill="midnightblue" stroke="midnightblue" points="323.14,-336.35 333.73,-336.44 325.51,-329.76 323.14,-336.35"/>
</g>
<!-- Node16 -->
<g id="node16" class="node">
<title>Node16</title>
<g id="a_node16"><a xlink:href="_cp_info_8cpp.xhtml" target="_top" xlink:title=" ">
<polygon fill="none" stroke="black" points="314.5,-280.5 314.5,-299.5 400.5,-299.5 400.5,-280.5 314.5,-280.5"/>
<text text-anchor="middle" x="357.5" y="-287.5" font-family="Helvetica,sans-Serif" font-size="10.00">src/CpInfo.cpp</text>
</a>
</g>
</g>
<!-- Node13&#45;&gt;Node16 -->
<g id="edge25" class="edge">
<title>Node13&#45;&gt;Node16</title>
<path fill="none" stroke="midnightblue" d="M357.5,-325.8C357.5,-316.91 357.5,-306.78 357.5,-299.75"/>
<polygon fill="midnightblue" stroke="midnightblue" points="354,-326.08 357.5,-336.08 361,-326.08 354,-326.08"/>
</g>
<!-- Node14&#45;&gt;Node2 -->
<g id="edge23" class="edge">
<title>Node14&#45;&gt;Node2</title>
<path fill="none" stroke="midnightblue" d="M245.4,-277.44C278.78,-267.26 326.6,-252.66 356.59,-243.52"/>
<polygon fill="midnightblue" stroke="midnightblue" points="244.09,-274.18 235.55,-280.44 246.13,-280.87 244.09,-274.18"/>
</g>
<!-- Node15 -->
<g id="node15" class="node">
<title>Node15</title>
<g id="a_node15"><a xlink:href="_opcode_8cpp.xhtml" target="_top" xlink:title=" ">
<polygon fill="none" stroke="black" points="162,-224.5 162,-243.5 253,-243.5 253,-224.5 162,-224.5"/>
<text text-anchor="middle" x="207.5" y="-231.5" font-family="Helvetica,sans-Serif" font-size="10.00">src/Opcode.cpp</text>
</a>
</g>
</g>
<!-- Node14&#45;&gt;Node15 -->
<g id="edge24" class="edge">
<title>Node14&#45;&gt;Node15</title>
<path fill="none" stroke="midnightblue" d="M207.5,-269.8C207.5,-260.91 207.5,-250.78 207.5,-243.75"/>
<polygon fill="midnightblue" stroke="midnightblue" points="204,-270.08 207.5,-280.08 211,-270.08 204,-270.08"/>
</g>
</g>
</svg>
