<?xml version="1.0" encoding="UTF-8" standalone="no"?>
<!DOCTYPE svg PUBLIC "-//W3C//DTD SVG 1.1//EN"
 "http://www.w3.org/Graphics/SVG/1.1/DTD/svg11.dtd">
<!-- Generated by graphviz version 2.43.0 (0)
 -->
<!-- Title: src/Display.cpp Pages: 1 -->
<svg width="608pt" height="476pt"
 viewBox="0.00 0.00 607.50 476.00" xmlns="http://www.w3.org/2000/svg" xmlns:xlink="http://www.w3.org/1999/xlink">
<g id="graph0" class="graph" transform="scale(1 1) rotate(0) translate(4 472)">
<title>src/Display.cpp</title>
<!-- Node1 -->
<g id="node1" class="node">
<title>Node1</title>
<g id="a_node1"><a xlink:title=" ">
<polygon fill="#bfbfbf" stroke="black" points="61.5,-448.5 61.5,-467.5 150.5,-467.5 150.5,-448.5 61.5,-448.5"/>
<text text-anchor="middle" x="106" y="-455.5" font-family="Helvetica,sans-Serif" font-size="10.00">src/Display.cpp</text>
</a>
</g>
</g>
<!-- Node2 -->
<g id="node2" class="node">
<title>Node2</title>
<g id="a_node2"><a xlink:href="_display_8h.xhtml" target="_top" xlink:title=" ">
<polygon fill="none" stroke="black" points="46.5,-392.5 46.5,-411.5 107.5,-411.5 107.5,-392.5 46.5,-392.5"/>
<text text-anchor="middle" x="77" y="-399.5" font-family="Helvetica,sans-Serif" font-size="10.00">Display.h</text>
</a>
</g>
</g>
<!-- Node1&#45;&gt;Node2 -->
<g id="edge1" class="edge">
<title>Node1&#45;&gt;Node2</title>
<path fill="none" stroke="midnightblue" d="M101.21,-448.08C97.24,-440.69 91.47,-429.95 86.57,-420.81"/>
<polygon fill="midnightblue" stroke="midnightblue" points="89.51,-418.91 81.7,-411.75 83.35,-422.22 89.51,-418.91"/>
</g>
<!-- Node13 -->
<g id="node13" class="node">
<title>Node13</title>
<g id="a_node13"><a xlink:href="_class_file_8h.xhtml" target="_top" xlink:title=" ">
<polygon fill="none" stroke="black" points="161,-336.5 161,-355.5 229,-355.5 229,-336.5 161,-336.5"/>
<text text-anchor="middle" x="195" y="-343.5" font-family="Helvetica,sans-Serif" font-size="10.00">ClassFile.h</text>
</a>
</g>
</g>
<!-- Node1&#45;&gt;Node13 -->
<g id="edge34" class="edge">
<title>Node1&#45;&gt;Node13</title>
<path fill="none" stroke="midnightblue" d="M112.98,-448.37C127.74,-430.14 162.29,-387.43 181.51,-363.68"/>
<polygon fill="midnightblue" stroke="midnightblue" points="184.48,-365.57 188.05,-355.59 179.04,-361.16 184.48,-365.57"/>
</g>
<!-- Node3 -->
<g id="node3" class="node">
<title>Node3</title>
<g id="a_node3"><a xlink:href="_definitions_8h.xhtml" target="_top" xlink:title=" ">
<polygon fill="none" stroke="black" points="286.5,-56.5 286.5,-75.5 365.5,-75.5 365.5,-56.5 286.5,-56.5"/>
<text text-anchor="middle" x="326" y="-63.5" font-family="Helvetica,sans-Serif" font-size="10.00">Definitions.h</text>
</a>
</g>
</g>
<!-- Node2&#45;&gt;Node3 -->
<g id="edge2" class="edge">
<title>Node2&#45;&gt;Node3</title>
<path fill="none" stroke="midnightblue" d="M65.31,-392.47C43.76,-375.66 0,-335.99 0,-291 0,-291 0,-291 0,-177 0,-119.41 184.94,-86.17 276.23,-73.27"/>
<polygon fill="midnightblue" stroke="midnightblue" points="276.93,-76.71 286.35,-71.87 275.97,-69.77 276.93,-76.71"/>
</g>
<!-- Node2&#45;&gt;Node13 -->
<g id="edge12" class="edge">
<title>Node2&#45;&gt;Node13</title>
<path fill="none" stroke="midnightblue" d="M95.7,-392.44C114.94,-383.64 145.15,-369.81 167.2,-359.72"/>
<polygon fill="midnightblue" stroke="midnightblue" points="168.75,-362.86 176.39,-355.52 165.84,-356.5 168.75,-362.86"/>
</g>
<!-- Node14 -->
<g id="node14" class="node">
<title>Node14</title>
<g id="a_node14"><a xlink:href="_cp_info_8h.xhtml" target="_top" xlink:title=" ">
<polygon fill="none" stroke="black" points="180.5,-112.5 180.5,-131.5 237.5,-131.5 237.5,-112.5 180.5,-112.5"/>
<text text-anchor="middle" x="209" y="-119.5" font-family="Helvetica,sans-Serif" font-size="10.00">CpInfo.h</text>
</a>
</g>
</g>
<!-- Node2&#45;&gt;Node14 -->
<g id="edge33" class="edge">
<title>Node2&#45;&gt;Node14</title>
<path fill="none" stroke="midnightblue" d="M73.05,-392.36C64.43,-372.32 45.6,-321.25 57,-280 72.45,-224.09 81.93,-207.93 124,-168 138.68,-154.07 158.51,-143.24 175.33,-135.7"/>
<polygon fill="midnightblue" stroke="midnightblue" points="177,-138.79 184.82,-131.64 174.25,-132.36 177,-138.79"/>
</g>
<!-- Node4 -->
<g id="node4" class="node">
<title>Node4</title>
<g id="a_node4"><a xlink:title=" ">
<polygon fill="none" stroke="#bfbfbf" points="0,-0.5 0,-19.5 64,-19.5 64,-0.5 0,-0.5"/>
<text text-anchor="middle" x="32" y="-7.5" font-family="Helvetica,sans-Serif" font-size="10.00">sys/stat.h</text>
</a>
</g>
</g>
<!-- Node3&#45;&gt;Node4 -->
<g id="edge3" class="edge">
<title>Node3&#45;&gt;Node4</title>
<path fill="none" stroke="midnightblue" d="M286.47,-58.47C238.55,-50.45 155.11,-36.12 74.07,-20.15"/>
<polygon fill="midnightblue" stroke="midnightblue" points="74.69,-16.71 64.2,-18.2 73.33,-23.57 74.69,-16.71"/>
</g>
<!-- Node5 -->
<g id="node5" class="node">
<title>Node5</title>
<g id="a_node5"><a xlink:title=" ">
<polygon fill="none" stroke="#bfbfbf" points="82.5,-0.5 82.5,-19.5 137.5,-19.5 137.5,-0.5 82.5,-0.5"/>
<text text-anchor="middle" x="110" y="-7.5" font-family="Helvetica,sans-Serif" font-size="10.00">fstream</text>
</a>
</g>
</g>
<!-- Node3&#45;&gt;Node5 -->
<g id="edge4" class="edge">
<title>Node3&#45;&gt;Node5</title>
<path fill="none" stroke="midnightblue" d="M291.77,-56.44C252.4,-46.6 187.98,-30.5 147.34,-20.34"/>
<polygon fill="midnightblue" stroke="midnightblue" points="148.1,-16.92 137.55,-17.89 146.41,-23.71 148.1,-16.92"/>
</g>
<!-- Node6 -->
<g id="node6" class="node">
<title>Node6</title>
<g id="a_node6"><a xlink:title=" ">
<polygon fill="none" stroke="#bfbfbf" points="156,-0.5 156,-19.5 216,-19.5 216,-0.5 156,-0.5"/>
<text text-anchor="middle" x="186" y="-7.5" font-family="Helvetica,sans-Serif" font-size="10.00">iostream</text>
</a>
</g>
</g>
<!-- Node3&#45;&gt;Node6 -->
<g id="edge5" class="edge">
<title>Node3&#45;&gt;Node6</title>
<path fill="none" stroke="midnightblue" d="M303.82,-56.44C280.57,-47.48 243.85,-33.31 217.58,-23.18"/>
<polygon fill="midnightblue" stroke="midnightblue" points="218.67,-19.85 208.08,-19.52 216.15,-26.38 218.67,-19.85"/>
</g>
<!-- Node7 -->
<g id="node7" class="node">
<title>Node7</title>
<g id="a_node7"><a xlink:title=" ">
<polygon fill="none" stroke="#bfbfbf" points="234,-0.5 234,-19.5 284,-19.5 284,-0.5 234,-0.5"/>
<text text-anchor="middle" x="259" y="-7.5" font-family="Helvetica,sans-Serif" font-size="10.00">cstdint</text>
</a>
</g>
</g>
<!-- Node3&#45;&gt;Node7 -->
<g id="edge6" class="edge">
<title>Node3&#45;&gt;Node7</title>
<path fill="none" stroke="midnightblue" d="M315.24,-56.32C305.23,-48.26 290.11,-36.08 278.07,-26.37"/>
<polygon fill="midnightblue" stroke="midnightblue" points="279.94,-23.38 269.96,-19.83 275.55,-28.83 279.94,-23.38"/>
</g>
<!-- Node8 -->
<g id="node8" class="node">
<title>Node8</title>
<g id="a_node8"><a xlink:title=" ">
<polygon fill="none" stroke="#bfbfbf" points="302.5,-0.5 302.5,-19.5 349.5,-19.5 349.5,-0.5 302.5,-0.5"/>
<text text-anchor="middle" x="326" y="-7.5" font-family="Helvetica,sans-Serif" font-size="10.00">vector</text>
</a>
</g>
</g>
<!-- Node3&#45;&gt;Node8 -->
<g id="edge7" class="edge">
<title>Node3&#45;&gt;Node8</title>
<path fill="none" stroke="midnightblue" d="M326,-56.08C326,-49.01 326,-38.86 326,-29.99"/>
<polygon fill="midnightblue" stroke="midnightblue" points="329.5,-29.75 326,-19.75 322.5,-29.75 329.5,-29.75"/>
</g>
<!-- Node9 -->
<g id="node9" class="node">
<title>Node9</title>
<g id="a_node9"><a xlink:title=" ">
<polygon fill="none" stroke="#bfbfbf" points="368,-0.5 368,-19.5 412,-19.5 412,-0.5 368,-0.5"/>
<text text-anchor="middle" x="390" y="-7.5" font-family="Helvetica,sans-Serif" font-size="10.00">string</text>
</a>
</g>
</g>
<!-- Node3&#45;&gt;Node9 -->
<g id="edge8" class="edge">
<title>Node3&#45;&gt;Node9</title>
<path fill="none" stroke="midnightblue" d="M336.28,-56.32C345.84,-48.26 360.28,-36.08 371.78,-26.37"/>
<polygon fill="midnightblue" stroke="midnightblue" points="374.14,-28.96 379.53,-19.83 369.63,-23.61 374.14,-28.96"/>
</g>
<!-- Node10 -->
<g id="node10" class="node">
<title>Node10</title>
<g id="a_node10"><a xlink:title=" ">
<polygon fill="none" stroke="#bfbfbf" points="430,-0.5 430,-19.5 468,-19.5 468,-0.5 430,-0.5"/>
<text text-anchor="middle" x="449" y="-7.5" font-family="Helvetica,sans-Serif" font-size="10.00">map</text>
</a>
</g>
</g>
<!-- Node3&#45;&gt;Node10 -->
<g id="edge9" class="edge">
<title>Node3&#45;&gt;Node10</title>
<path fill="none" stroke="midnightblue" d="M345.49,-56.44C365.64,-47.6 397.32,-33.69 420.33,-23.59"/>
<polygon fill="midnightblue" stroke="midnightblue" points="421.85,-26.74 429.6,-19.52 419.04,-20.33 421.85,-26.74"/>
</g>
<!-- Node11 -->
<g id="node11" class="node">
<title>Node11</title>
<g id="a_node11"><a xlink:title=" ">
<polygon fill="none" stroke="#bfbfbf" points="486,-0.5 486,-19.5 530,-19.5 530,-0.5 486,-0.5"/>
<text text-anchor="middle" x="508" y="-7.5" font-family="Helvetica,sans-Serif" font-size="10.00">limits</text>
</a>
</g>
</g>
<!-- Node3&#45;&gt;Node11 -->
<g id="edge10" class="edge">
<title>Node3&#45;&gt;Node11</title>
<path fill="none" stroke="midnightblue" d="M354.84,-56.44C387.81,-46.66 441.64,-30.69 475.92,-20.52"/>
<polygon fill="midnightblue" stroke="midnightblue" points="477.29,-23.76 485.88,-17.56 475.3,-17.05 477.29,-23.76"/>
</g>
<!-- Node12 -->
<g id="node12" class="node">
<title>Node12</title>
<g id="a_node12"><a xlink:title=" ">
<polygon fill="none" stroke="#bfbfbf" points="548.5,-0.5 548.5,-19.5 599.5,-19.5 599.5,-0.5 548.5,-0.5"/>
<text text-anchor="middle" x="574" y="-7.5" font-family="Helvetica,sans-Serif" font-size="10.00">math.h</text>
</a>
</g>
</g>
<!-- Node3&#45;&gt;Node12 -->
<g id="edge11" class="edge">
<title>Node3&#45;&gt;Node12</title>
<path fill="none" stroke="midnightblue" d="M365.76,-57.14C406.63,-48.94 472.31,-35.43 538.63,-20"/>
<polygon fill="midnightblue" stroke="midnightblue" points="539.48,-23.4 548.42,-17.72 537.88,-16.58 539.48,-23.4"/>
</g>
<!-- Node13&#45;&gt;Node3 -->
<g id="edge13" class="edge">
<title>Node13&#45;&gt;Node3</title>
<path fill="none" stroke="midnightblue" d="M229.01,-340.5C310.46,-328.77 510,-294.01 510,-235 510,-235 510,-235 510,-177 510,-114.28 430.27,-86.47 375.78,-74.79"/>
<polygon fill="midnightblue" stroke="midnightblue" points="376.42,-71.34 365.93,-72.79 375.03,-78.21 376.42,-71.34"/>
</g>
<!-- Node13&#45;&gt;Node14 -->
<g id="edge14" class="edge">
<title>Node13&#45;&gt;Node14</title>
<path fill="none" stroke="midnightblue" d="M194.6,-336.48C193.54,-310.88 191.2,-232.38 199,-168 200.07,-159.15 202.1,-149.48 204.06,-141.39"/>
<polygon fill="midnightblue" stroke="midnightblue" points="207.49,-142.1 206.58,-131.54 200.71,-140.36 207.49,-142.1"/>
</g>
<!-- Node15 -->
<g id="node15" class="node">
<title>Node15</title>
<g id="a_node15"><a xlink:href="_attribute_info_8h.xhtml" target="_top" xlink:title=" ">
<polygon fill="none" stroke="black" points="225.5,-224.5 225.5,-243.5 312.5,-243.5 312.5,-224.5 225.5,-224.5"/>
<text text-anchor="middle" x="269" y="-231.5" font-family="Helvetica,sans-Serif" font-size="10.00">AttributeInfo.h</text>
</a>
</g>
</g>
<!-- Node13&#45;&gt;Node15 -->
<g id="edge16" class="edge">
<title>Node13&#45;&gt;Node15</title>
<path fill="none" stroke="midnightblue" d="M199.54,-336.34C206.3,-323.65 219.68,-299.39 233,-280 239.73,-270.21 247.96,-259.82 254.85,-251.49"/>
<polygon fill="midnightblue" stroke="midnightblue" points="257.67,-253.58 261.43,-243.67 252.32,-249.07 257.67,-253.58"/>
</g>
<!-- Node17 -->
<g id="node17" class="node">
<title>Node17</title>
<g id="a_node17"><a xlink:href="_field_info_8h.xhtml" target="_top" xlink:title=" ">
<polygon fill="none" stroke="black" points="242.5,-280.5 242.5,-299.5 309.5,-299.5 309.5,-280.5 242.5,-280.5"/>
<text text-anchor="middle" x="276" y="-287.5" font-family="Helvetica,sans-Serif" font-size="10.00">FieldInfo.h</text>
</a>
</g>
</g>
<!-- Node13&#45;&gt;Node17 -->
<g id="edge22" class="edge">
<title>Node13&#45;&gt;Node17</title>
<path fill="none" stroke="midnightblue" d="M208.01,-336.32C220.53,-327.98 239.68,-315.21 254.47,-305.35"/>
<polygon fill="midnightblue" stroke="midnightblue" points="256.64,-308.11 263.02,-299.65 252.76,-302.29 256.64,-308.11"/>
</g>
<!-- Node18 -->
<g id="node18" class="node">
<title>Node18</title>
<g id="a_node18"><a xlink:href="_method_info_8h.xhtml" target="_top" xlink:title=" ">
<polygon fill="none" stroke="black" points="66.5,-280.5 66.5,-299.5 147.5,-299.5 147.5,-280.5 66.5,-280.5"/>
<text text-anchor="middle" x="107" y="-287.5" font-family="Helvetica,sans-Serif" font-size="10.00">MethodInfo.h</text>
</a>
</g>
</g>
<!-- Node13&#45;&gt;Node18 -->
<g id="edge26" class="edge">
<title>Node13&#45;&gt;Node18</title>
<path fill="none" stroke="midnightblue" d="M180.86,-336.32C167.13,-327.9 146.06,-314.97 129.94,-305.07"/>
<polygon fill="midnightblue" stroke="midnightblue" points="131.46,-301.9 121.1,-299.65 127.8,-307.87 131.46,-301.9"/>
</g>
<!-- Node19 -->
<g id="node19" class="node">
<title>Node19</title>
<g id="a_node19"><a xlink:href="_interface_8h.xhtml" target="_top" xlink:title=" ">
<polygon fill="none" stroke="black" points="412.5,-168.5 412.5,-187.5 481.5,-187.5 481.5,-168.5 412.5,-168.5"/>
<text text-anchor="middle" x="447" y="-175.5" font-family="Helvetica,sans-Serif" font-size="10.00">Interface.h</text>
</a>
</g>
</g>
<!-- Node13&#45;&gt;Node19 -->
<g id="edge30" class="edge">
<title>Node13&#45;&gt;Node19</title>
<path fill="none" stroke="midnightblue" d="M224.99,-336.43C250.48,-328.6 287.66,-315.82 318,-300 356.48,-279.93 366.77,-274.14 398,-244 413.03,-229.49 427.05,-210.05 436.21,-196.22"/>
<polygon fill="midnightblue" stroke="midnightblue" points="439.24,-197.98 441.72,-187.68 433.36,-194.18 439.24,-197.98"/>
</g>
<!-- Node14&#45;&gt;Node3 -->
<g id="edge15" class="edge">
<title>Node14&#45;&gt;Node3</title>
<path fill="none" stroke="midnightblue" d="M227.54,-112.44C246.62,-103.64 276.57,-89.81 298.44,-79.72"/>
<polygon fill="midnightblue" stroke="midnightblue" points="299.93,-82.88 307.55,-75.52 297,-76.53 299.93,-82.88"/>
</g>
<!-- Node15&#45;&gt;Node3 -->
<g id="edge17" class="edge">
<title>Node15&#45;&gt;Node3</title>
<path fill="none" stroke="midnightblue" d="M287.39,-224.47C301.1,-217 318.81,-204.71 327,-188 343.19,-154.95 336.75,-110.48 331.08,-85.69"/>
<polygon fill="midnightblue" stroke="midnightblue" points="334.43,-84.65 328.61,-75.79 327.63,-86.34 334.43,-84.65"/>
</g>
<!-- Node15&#45;&gt;Node14 -->
<g id="edge18" class="edge">
<title>Node15&#45;&gt;Node14</title>
<path fill="none" stroke="midnightblue" d="M264.29,-224.37C254.48,-206.38 231.66,-164.55 218.61,-140.63"/>
<polygon fill="midnightblue" stroke="midnightblue" points="221.55,-138.69 213.69,-131.59 215.4,-142.05 221.55,-138.69"/>
</g>
<!-- Node16 -->
<g id="node16" class="node">
<title>Node16</title>
<g id="a_node16"><a xlink:href="_opcode_8h.xhtml" target="_top" xlink:title=" ">
<polygon fill="none" stroke="black" points="256,-168.5 256,-187.5 318,-187.5 318,-168.5 256,-168.5"/>
<text text-anchor="middle" x="287" y="-175.5" font-family="Helvetica,sans-Serif" font-size="10.00">Opcode.h</text>
</a>
</g>
</g>
<!-- Node15&#45;&gt;Node16 -->
<g id="edge19" class="edge">
<title>Node15&#45;&gt;Node16</title>
<path fill="none" stroke="midnightblue" d="M271.97,-224.08C274.38,-216.85 277.86,-206.41 280.87,-197.4"/>
<polygon fill="midnightblue" stroke="midnightblue" points="284.24,-198.34 284.08,-187.75 277.6,-196.13 284.24,-198.34"/>
</g>
<!-- Node16&#45;&gt;Node3 -->
<g id="edge20" class="edge">
<title>Node16&#45;&gt;Node3</title>
<path fill="none" stroke="midnightblue" d="M290.06,-168.37C296.38,-150.54 311,-109.3 319.52,-85.27"/>
<polygon fill="midnightblue" stroke="midnightblue" points="322.91,-86.19 322.95,-75.59 316.31,-83.85 322.91,-86.19"/>
</g>
<!-- Node16&#45;&gt;Node14 -->
<g id="edge21" class="edge">
<title>Node16&#45;&gt;Node14</title>
<path fill="none" stroke="midnightblue" d="M274.47,-168.32C262.41,-159.98 243.97,-147.21 229.73,-137.35"/>
<polygon fill="midnightblue" stroke="midnightblue" points="231.72,-134.47 221.5,-131.65 227.73,-140.22 231.72,-134.47"/>
</g>
<!-- Node17&#45;&gt;Node3 -->
<g id="edge24" class="edge">
<title>Node17&#45;&gt;Node3</title>
<path fill="none" stroke="midnightblue" d="M286.81,-280.3C296.74,-271.86 311.34,-258.27 321,-244 336.18,-221.58 338.15,-214.2 345,-188 353.57,-155.22 359.5,-144.8 351,-112 348.45,-102.18 343.25,-92.21 338.24,-84.17"/>
<polygon fill="midnightblue" stroke="midnightblue" points="341.08,-82.11 332.63,-75.73 335.25,-85.99 341.08,-82.11"/>
</g>
<!-- Node17&#45;&gt;Node14 -->
<g id="edge23" class="edge">
<title>Node17&#45;&gt;Node14</title>
<path fill="none" stroke="midnightblue" d="M257.27,-280.49C243.24,-273.03 224.99,-260.75 216,-244 198.48,-211.36 201.75,-166.39 205.5,-141.49"/>
<polygon fill="midnightblue" stroke="midnightblue" points="208.96,-142.02 207.18,-131.57 202.05,-140.84 208.96,-142.02"/>
</g>
<!-- Node17&#45;&gt;Node15 -->
<g id="edge25" class="edge">
<title>Node17&#45;&gt;Node15</title>
<path fill="none" stroke="midnightblue" d="M274.84,-280.08C273.92,-272.93 272.58,-262.64 271.42,-253.69"/>
<polygon fill="midnightblue" stroke="midnightblue" points="274.89,-253.22 270.13,-243.75 267.95,-254.12 274.89,-253.22"/>
</g>
<!-- Node18&#45;&gt;Node3 -->
<g id="edge27" class="edge">
<title>Node18&#45;&gt;Node3</title>
<path fill="none" stroke="midnightblue" d="M106.18,-280.11C105.2,-267.53 104.05,-243.87 107,-224 115.42,-167.29 122.97,-143.3 171,-112 202.77,-91.29 244.28,-79.9 276.34,-73.77"/>
<polygon fill="midnightblue" stroke="midnightblue" points="277.18,-77.17 286.4,-71.95 275.93,-70.28 277.18,-77.17"/>
</g>
<!-- Node18&#45;&gt;Node14 -->
<g id="edge29" class="edge">
<title>Node18&#45;&gt;Node14</title>
<path fill="none" stroke="midnightblue" d="M107.1,-280.48C107.75,-259.38 112,-203.79 138,-168 148.13,-154.05 164.03,-143.4 178.22,-135.96"/>
<polygon fill="midnightblue" stroke="midnightblue" points="179.78,-139.09 187.21,-131.54 176.7,-132.81 179.78,-139.09"/>
</g>
<!-- Node18&#45;&gt;Node15 -->
<g id="edge28" class="edge">
<title>Node18&#45;&gt;Node15</title>
<path fill="none" stroke="midnightblue" d="M132.67,-280.44C159.92,-271.36 203.18,-256.94 233.65,-246.78"/>
<polygon fill="midnightblue" stroke="midnightblue" points="235.07,-250 243.45,-243.52 232.86,-243.36 235.07,-250"/>
</g>
<!-- Node19&#45;&gt;Node3 -->
<g id="edge31" class="edge">
<title>Node19&#45;&gt;Node3</title>
<path fill="none" stroke="midnightblue" d="M441.84,-168.2C433.73,-154.9 416.96,-129.38 398,-112 384.36,-99.5 366.79,-88.44 352.42,-80.41"/>
<polygon fill="midnightblue" stroke="midnightblue" points="353.97,-77.28 343.51,-75.59 350.64,-83.43 353.97,-77.28"/>
</g>
<!-- Node19&#45;&gt;Node14 -->
<g id="edge32" class="edge">
<title>Node19&#45;&gt;Node14</title>
<path fill="none" stroke="midnightblue" d="M412.39,-169.15C368.52,-159.19 293.13,-142.09 247.49,-131.73"/>
<polygon fill="midnightblue" stroke="midnightblue" points="248.2,-128.31 237.67,-129.51 246.65,-135.13 248.2,-128.31"/>
</g>
</g>
</svg>
