<?xml version="1.0" encoding="UTF-8" standalone="no"?>
<!DOCTYPE svg PUBLIC "-//W3C//DTD SVG 1.1//EN"
 "http://www.w3.org/Graphics/SVG/1.1/DTD/svg11.dtd">
<!-- Generated by graphviz version 2.43.0 (0)
 -->
<!-- Title: src/Display.cpp Pages: 1 -->
<svg width="608pt" height="476pt"
 viewBox="0.00 0.00 607.50 476.00" xmlns="http://www.w3.org/2000/svg" xmlns:xlink="http://www.w3.org/1999/xlink">
<g id="graph0" class="graph" transform="scale(1 1) rotate(0) translate(4 472)">
<title>src/Display.cpp</title>
<!-- Node1 -->
<g id="node1" class="node">
<title>Node1</title>
<g id="a_node1"><a xlink:title=" ">
<polygon fill="#bfbfbf" stroke="black" points="142.5,-448.5 142.5,-467.5 231.5,-467.5 231.5,-448.5 142.5,-448.5"/>
<text text-anchor="middle" x="187" y="-455.5" font-family="Helvetica,sans-Serif" font-size="10.00">src/Display.cpp</text>
</a>
</g>
</g>
<!-- Node2 -->
<g id="node2" class="node">
<title>Node2</title>
<g id="a_node2"><a xlink:href="_display_8h.xhtml" target="_top" xlink:title=" ">
<polygon fill="none" stroke="black" points="127.5,-392.5 127.5,-411.5 188.5,-411.5 188.5,-392.5 127.5,-392.5"/>
<text text-anchor="middle" x="158" y="-399.5" font-family="Helvetica,sans-Serif" font-size="10.00">Display.h</text>
</a>
</g>
</g>
<!-- Node1&#45;&gt;Node2 -->
<g id="edge1" class="edge">
<title>Node1&#45;&gt;Node2</title>
<path fill="none" stroke="midnightblue" d="M182.21,-448.08C178.24,-440.69 172.47,-429.95 167.57,-420.81"/>
<polygon fill="midnightblue" stroke="midnightblue" points="170.51,-418.91 162.7,-411.75 164.35,-422.22 170.51,-418.91"/>
</g>
<!-- Node13 -->
<g id="node13" class="node">
<title>Node13</title>
<g id="a_node13"><a xlink:href="_class_file_8h.xhtml" target="_top" xlink:title=" ">
<polygon fill="none" stroke="black" points="226,-336.5 226,-355.5 294,-355.5 294,-336.5 226,-336.5"/>
<text text-anchor="middle" x="260" y="-343.5" font-family="Helvetica,sans-Serif" font-size="10.00">ClassFile.h</text>
</a>
</g>
</g>
<!-- Node1&#45;&gt;Node13 -->
<g id="edge31" class="edge">
<title>Node1&#45;&gt;Node13</title>
<path fill="none" stroke="midnightblue" d="M192.73,-448.37C204.78,-430.22 232.92,-387.8 248.72,-363.99"/>
<polygon fill="midnightblue" stroke="midnightblue" points="251.69,-365.86 254.3,-355.59 245.85,-361.99 251.69,-365.86"/>
</g>
<!-- Node3 -->
<g id="node3" class="node">
<title>Node3</title>
<g id="a_node3"><a xlink:href="_definitions_8h.xhtml" target="_top" xlink:title=" ">
<polygon fill="none" stroke="black" points="286.5,-56.5 286.5,-75.5 365.5,-75.5 365.5,-56.5 286.5,-56.5"/>
<text text-anchor="middle" x="326" y="-63.5" font-family="Helvetica,sans-Serif" font-size="10.00">Definitions.h</text>
</a>
</g>
</g>
<!-- Node2&#45;&gt;Node3 -->
<g id="edge2" class="edge">
<title>Node2&#45;&gt;Node3</title>
<path fill="none" stroke="midnightblue" d="M145.34,-392.35C122.56,-375.64 77,-336.54 77,-291 77,-291 77,-291 77,-177 77,-90.85 203.25,-71.62 275.95,-67.68"/>
<polygon fill="midnightblue" stroke="midnightblue" points="276.44,-71.16 286.27,-67.2 276.12,-64.17 276.44,-71.16"/>
</g>
<!-- Node2&#45;&gt;Node13 -->
<g id="edge12" class="edge">
<title>Node2&#45;&gt;Node13</title>
<path fill="none" stroke="midnightblue" d="M174.39,-392.32C190.67,-383.7 215.87,-370.36 234.72,-360.39"/>
<polygon fill="midnightblue" stroke="midnightblue" points="236.45,-363.43 243.65,-355.65 233.18,-357.24 236.45,-363.43"/>
</g>
<!-- Node14 -->
<g id="node14" class="node">
<title>Node14</title>
<g id="a_node14"><a xlink:href="_cp_info_8h.xhtml" target="_top" xlink:title=" ">
<polygon fill="none" stroke="black" points="238.5,-112.5 238.5,-131.5 295.5,-131.5 295.5,-112.5 238.5,-112.5"/>
<text text-anchor="middle" x="267" y="-119.5" font-family="Helvetica,sans-Serif" font-size="10.00">CpInfo.h</text>
</a>
</g>
</g>
<!-- Node2&#45;&gt;Node14 -->
<g id="edge30" class="edge">
<title>Node2&#45;&gt;Node14</title>
<path fill="none" stroke="midnightblue" d="M159.84,-392.13C166.65,-360.39 192.26,-249.98 235,-168 240.21,-158.01 247.38,-147.71 253.61,-139.49"/>
<polygon fill="midnightblue" stroke="midnightblue" points="256.46,-141.53 259.87,-131.5 250.95,-137.22 256.46,-141.53"/>
</g>
<!-- Node4 -->
<g id="node4" class="node">
<title>Node4</title>
<g id="a_node4"><a xlink:title=" ">
<polygon fill="none" stroke="#bfbfbf" points="0,-0.5 0,-19.5 64,-19.5 64,-0.5 0,-0.5"/>
<text text-anchor="middle" x="32" y="-7.5" font-family="Helvetica,sans-Serif" font-size="10.00">sys/stat.h</text>
</a>
</g>
</g>
<!-- Node3&#45;&gt;Node4 -->
<g id="edge3" class="edge">
<title>Node3&#45;&gt;Node4</title>
<path fill="none" stroke="midnightblue" d="M286.47,-58.47C238.55,-50.45 155.11,-36.12 74.07,-20.15"/>
<polygon fill="midnightblue" stroke="midnightblue" points="74.69,-16.71 64.2,-18.2 73.33,-23.57 74.69,-16.71"/>
</g>
<!-- Node5 -->
<g id="node5" class="node">
<title>Node5</title>
<g id="a_node5"><a xlink:title=" ">
<polygon fill="none" stroke="#bfbfbf" points="82.5,-0.5 82.5,-19.5 137.5,-19.5 137.5,-0.5 82.5,-0.5"/>
<text text-anchor="middle" x="110" y="-7.5" font-family="Helvetica,sans-Serif" font-size="10.00">fstream</text>
</a>
</g>
</g>
<!-- Node3&#45;&gt;Node5 -->
<g id="edge4" class="edge">
<title>Node3&#45;&gt;Node5</title>
<path fill="none" stroke="midnightblue" d="M291.77,-56.44C252.4,-46.6 187.98,-30.5 147.34,-20.34"/>
<polygon fill="midnightblue" stroke="midnightblue" points="148.1,-16.92 137.55,-17.89 146.41,-23.71 148.1,-16.92"/>
</g>
<!-- Node6 -->
<g id="node6" class="node">
<title>Node6</title>
<g id="a_node6"><a xlink:title=" ">
<polygon fill="none" stroke="#bfbfbf" points="156,-0.5 156,-19.5 216,-19.5 216,-0.5 156,-0.5"/>
<text text-anchor="middle" x="186" y="-7.5" font-family="Helvetica,sans-Serif" font-size="10.00">iostream</text>
</a>
</g>
</g>
<!-- Node3&#45;&gt;Node6 -->
<g id="edge5" class="edge">
<title>Node3&#45;&gt;Node6</title>
<path fill="none" stroke="midnightblue" d="M303.82,-56.44C280.57,-47.48 243.85,-33.31 217.58,-23.18"/>
<polygon fill="midnightblue" stroke="midnightblue" points="218.67,-19.85 208.08,-19.52 216.15,-26.38 218.67,-19.85"/>
</g>
<!-- Node7 -->
<g id="node7" class="node">
<title>Node7</title>
<g id="a_node7"><a xlink:title=" ">
<polygon fill="none" stroke="#bfbfbf" points="234,-0.5 234,-19.5 284,-19.5 284,-0.5 234,-0.5"/>
<text text-anchor="middle" x="259" y="-7.5" font-family="Helvetica,sans-Serif" font-size="10.00">cstdint</text>
</a>
</g>
</g>
<!-- Node3&#45;&gt;Node7 -->
<g id="edge6" class="edge">
<title>Node3&#45;&gt;Node7</title>
<path fill="none" stroke="midnightblue" d="M315.24,-56.32C305.23,-48.26 290.11,-36.08 278.07,-26.37"/>
<polygon fill="midnightblue" stroke="midnightblue" points="279.94,-23.38 269.96,-19.83 275.55,-28.83 279.94,-23.38"/>
</g>
<!-- Node8 -->
<g id="node8" class="node">
<title>Node8</title>
<g id="a_node8"><a xlink:title=" ">
<polygon fill="none" stroke="#bfbfbf" points="302.5,-0.5 302.5,-19.5 349.5,-19.5 349.5,-0.5 302.5,-0.5"/>
<text text-anchor="middle" x="326" y="-7.5" font-family="Helvetica,sans-Serif" font-size="10.00">vector</text>
</a>
</g>
</g>
<!-- Node3&#45;&gt;Node8 -->
<g id="edge7" class="edge">
<title>Node3&#45;&gt;Node8</title>
<path fill="none" stroke="midnightblue" d="M326,-56.08C326,-49.01 326,-38.86 326,-29.99"/>
<polygon fill="midnightblue" stroke="midnightblue" points="329.5,-29.75 326,-19.75 322.5,-29.75 329.5,-29.75"/>
</g>
<!-- Node9 -->
<g id="node9" class="node">
<title>Node9</title>
<g id="a_node9"><a xlink:title=" ">
<polygon fill="none" stroke="#bfbfbf" points="368,-0.5 368,-19.5 412,-19.5 412,-0.5 368,-0.5"/>
<text text-anchor="middle" x="390" y="-7.5" font-family="Helvetica,sans-Serif" font-size="10.00">string</text>
</a>
</g>
</g>
<!-- Node3&#45;&gt;Node9 -->
<g id="edge8" class="edge">
<title>Node3&#45;&gt;Node9</title>
<path fill="none" stroke="midnightblue" d="M336.28,-56.32C345.84,-48.26 360.28,-36.08 371.78,-26.37"/>
<polygon fill="midnightblue" stroke="midnightblue" points="374.14,-28.96 379.53,-19.83 369.63,-23.61 374.14,-28.96"/>
</g>
<!-- Node10 -->
<g id="node10" class="node">
<title>Node10</title>
<g id="a_node10"><a xlink:title=" ">
<polygon fill="none" stroke="#bfbfbf" points="430,-0.5 430,-19.5 468,-19.5 468,-0.5 430,-0.5"/>
<text text-anchor="middle" x="449" y="-7.5" font-family="Helvetica,sans-Serif" font-size="10.00">map</text>
</a>
</g>
</g>
<!-- Node3&#45;&gt;Node10 -->
<g id="edge9" class="edge">
<title>Node3&#45;&gt;Node10</title>
<path fill="none" stroke="midnightblue" d="M345.49,-56.44C365.64,-47.6 397.32,-33.69 420.33,-23.59"/>
<polygon fill="midnightblue" stroke="midnightblue" points="421.85,-26.74 429.6,-19.52 419.04,-20.33 421.85,-26.74"/>
</g>
<!-- Node11 -->
<g id="node11" class="node">
<title>Node11</title>
<g id="a_node11"><a xlink:title=" ">
<polygon fill="none" stroke="#bfbfbf" points="486,-0.5 486,-19.5 530,-19.5 530,-0.5 486,-0.5"/>
<text text-anchor="middle" x="508" y="-7.5" font-family="Helvetica,sans-Serif" font-size="10.00">limits</text>
</a>
</g>
</g>
<!-- Node3&#45;&gt;Node11 -->
<g id="edge10" class="edge">
<title>Node3&#45;&gt;Node11</title>
<path fill="none" stroke="midnightblue" d="M354.84,-56.44C387.81,-46.66 441.64,-30.69 475.92,-20.52"/>
<polygon fill="midnightblue" stroke="midnightblue" points="477.29,-23.76 485.88,-17.56 475.3,-17.05 477.29,-23.76"/>
</g>
<!-- Node12 -->
<g id="node12" class="node">
<title>Node12</title>
<g id="a_node12"><a xlink:title=" ">
<polygon fill="none" stroke="#bfbfbf" points="548.5,-0.5 548.5,-19.5 599.5,-19.5 599.5,-0.5 548.5,-0.5"/>
<text text-anchor="middle" x="574" y="-7.5" font-family="Helvetica,sans-Serif" font-size="10.00">math.h</text>
</a>
</g>
</g>
<!-- Node3&#45;&gt;Node12 -->
<g id="edge11" class="edge">
<title>Node3&#45;&gt;Node12</title>
<path fill="none" stroke="midnightblue" d="M365.76,-57.14C406.63,-48.94 472.31,-35.43 538.63,-20"/>
<polygon fill="midnightblue" stroke="midnightblue" points="539.48,-23.4 548.42,-17.72 537.88,-16.58 539.48,-23.4"/>
</g>
<!-- Node13&#45;&gt;Node3 -->
<g id="edge13" class="edge">
<title>Node13&#45;&gt;Node3</title>
<path fill="none" stroke="midnightblue" d="M294.24,-344.41C360.33,-341.27 499,-324.07 499,-235 499,-235 499,-235 499,-177 499,-118.11 426.72,-89.39 375.6,-76.44"/>
<polygon fill="midnightblue" stroke="midnightblue" points="376.23,-73 365.69,-74.06 374.59,-79.8 376.23,-73"/>
</g>
<!-- Node13&#45;&gt;Node14 -->
<g id="edge14" class="edge">
<title>Node13&#45;&gt;Node14</title>
<path fill="none" stroke="midnightblue" d="M245.05,-336.47C233.07,-328.7 217.13,-316 210,-300 206.38,-291.88 208.46,-288.75 210,-280 219.26,-227.35 244.75,-169.11 258.28,-140.63"/>
<polygon fill="midnightblue" stroke="midnightblue" points="261.47,-142.08 262.68,-131.56 255.17,-139.03 261.47,-142.08"/>
</g>
<!-- Node15 -->
<g id="node15" class="node">
<title>Node15</title>
<g id="a_node15"><a xlink:href="_attribute_info_8h.xhtml" target="_top" xlink:title=" ">
<polygon fill="none" stroke="black" points="284.5,-224.5 284.5,-243.5 371.5,-243.5 371.5,-224.5 284.5,-224.5"/>
<text text-anchor="middle" x="328" y="-231.5" font-family="Helvetica,sans-Serif" font-size="10.00">AttributeInfo.h</text>
</a>
</g>
</g>
<!-- Node13&#45;&gt;Node15 -->
<g id="edge16" class="edge">
<title>Node13&#45;&gt;Node15</title>
<path fill="none" stroke="midnightblue" d="M273.43,-336.23C284.78,-328.13 300.66,-315.1 310,-300 318.76,-285.84 323.34,-267.36 325.68,-253.72"/>
<polygon fill="midnightblue" stroke="midnightblue" points="329.18,-254.01 327.17,-243.61 322.25,-253 329.18,-254.01"/>
</g>
<!-- Node17 -->
<g id="node17" class="node">
<title>Node17</title>
<g id="a_node17"><a xlink:href="_field_info_8h.xhtml" target="_top" xlink:title=" ">
<polygon fill="none" stroke="black" points="373.5,-280.5 373.5,-299.5 440.5,-299.5 440.5,-280.5 373.5,-280.5"/>
<text text-anchor="middle" x="407" y="-287.5" font-family="Helvetica,sans-Serif" font-size="10.00">FieldInfo.h</text>
</a>
</g>
</g>
<!-- Node13&#45;&gt;Node17 -->
<g id="edge22" class="edge">
<title>Node13&#45;&gt;Node17</title>
<path fill="none" stroke="midnightblue" d="M283.29,-336.44C307.81,-327.44 346.6,-313.19 374.2,-303.05"/>
<polygon fill="midnightblue" stroke="midnightblue" points="375.64,-306.25 383.82,-299.52 373.22,-299.68 375.64,-306.25"/>
</g>
<!-- Node18 -->
<g id="node18" class="node">
<title>Node18</title>
<g id="a_node18"><a xlink:href="_method_info_8h.xhtml" target="_top" xlink:title=" ">
<polygon fill="none" stroke="black" points="219.5,-280.5 219.5,-299.5 300.5,-299.5 300.5,-280.5 219.5,-280.5"/>
<text text-anchor="middle" x="260" y="-287.5" font-family="Helvetica,sans-Serif" font-size="10.00">MethodInfo.h</text>
</a>
</g>
</g>
<!-- Node13&#45;&gt;Node18 -->
<g id="edge26" class="edge">
<title>Node13&#45;&gt;Node18</title>
<path fill="none" stroke="midnightblue" d="M260,-336.08C260,-329.01 260,-318.86 260,-309.99"/>
<polygon fill="midnightblue" stroke="midnightblue" points="263.5,-309.75 260,-299.75 256.5,-309.75 263.5,-309.75"/>
</g>
<!-- Node14&#45;&gt;Node3 -->
<g id="edge15" class="edge">
<title>Node14&#45;&gt;Node3</title>
<path fill="none" stroke="midnightblue" d="M276.48,-112.32C285.2,-104.34 298.34,-92.31 308.9,-82.65"/>
<polygon fill="midnightblue" stroke="midnightblue" points="311.33,-85.17 316.35,-75.83 306.61,-80 311.33,-85.17"/>
</g>
<!-- Node15&#45;&gt;Node3 -->
<g id="edge17" class="edge">
<title>Node15&#45;&gt;Node3</title>
<path fill="none" stroke="midnightblue" d="M338.71,-224.3C347.94,-216.07 360.59,-202.79 366,-188 379.49,-151.13 355.06,-107.24 338.8,-83.77"/>
<polygon fill="midnightblue" stroke="midnightblue" points="341.56,-81.62 332.86,-75.57 335.89,-85.72 341.56,-81.62"/>
</g>
<!-- Node15&#45;&gt;Node14 -->
<g id="edge18" class="edge">
<title>Node15&#45;&gt;Node14</title>
<path fill="none" stroke="midnightblue" d="M317.56,-224.4C308.04,-216.03 294.25,-202.49 286,-188 277.82,-173.63 272.89,-155.44 270.11,-141.95"/>
<polygon fill="midnightblue" stroke="midnightblue" points="273.52,-141.12 268.26,-131.92 266.64,-142.39 273.52,-141.12"/>
</g>
<!-- Node16 -->
<g id="node16" class="node">
<title>Node16</title>
<g id="a_node16"><a xlink:href="_opcode_8h.xhtml" target="_top" xlink:title=" ">
<polygon fill="none" stroke="black" points="295,-168.5 295,-187.5 357,-187.5 357,-168.5 295,-168.5"/>
<text text-anchor="middle" x="326" y="-175.5" font-family="Helvetica,sans-Serif" font-size="10.00">Opcode.h</text>
</a>
</g>
</g>
<!-- Node15&#45;&gt;Node16 -->
<g id="edge19" class="edge">
<title>Node15&#45;&gt;Node16</title>
<path fill="none" stroke="midnightblue" d="M327.67,-224.08C327.41,-217.01 327.03,-206.86 326.7,-197.99"/>
<polygon fill="midnightblue" stroke="midnightblue" points="330.19,-197.61 326.32,-187.75 323.2,-197.87 330.19,-197.61"/>
</g>
<!-- Node16&#45;&gt;Node3 -->
<g id="edge20" class="edge">
<title>Node16&#45;&gt;Node3</title>
<path fill="none" stroke="midnightblue" d="M326,-168.37C326,-150.62 326,-109.67 326,-85.6"/>
<polygon fill="midnightblue" stroke="midnightblue" points="329.5,-85.59 326,-75.59 322.5,-85.59 329.5,-85.59"/>
</g>
<!-- Node16&#45;&gt;Node14 -->
<g id="edge21" class="edge">
<title>Node16&#45;&gt;Node14</title>
<path fill="none" stroke="midnightblue" d="M316.52,-168.32C307.8,-160.34 294.66,-148.31 284.1,-138.65"/>
<polygon fill="midnightblue" stroke="midnightblue" points="286.39,-136 276.65,-131.83 281.67,-141.17 286.39,-136"/>
</g>
<!-- Node17&#45;&gt;Node3 -->
<g id="edge24" class="edge">
<title>Node17&#45;&gt;Node3</title>
<path fill="none" stroke="midnightblue" d="M407.99,-280.39C408.98,-271.34 410.44,-256.69 411,-244 413.7,-183.13 406.79,-163.35 374,-112 366.68,-100.53 355.78,-90 346.21,-82"/>
<polygon fill="midnightblue" stroke="midnightblue" points="348.28,-79.17 338.28,-75.68 343.92,-84.65 348.28,-79.17"/>
</g>
<!-- Node17&#45;&gt;Node14 -->
<g id="edge23" class="edge">
<title>Node17&#45;&gt;Node14</title>
<path fill="none" stroke="midnightblue" d="M406.37,-280.2C404.37,-258.47 396.36,-201.55 366,-168 350.11,-150.43 326.01,-139.28 305.57,-132.47"/>
<polygon fill="midnightblue" stroke="midnightblue" points="306.47,-129.08 295.88,-129.46 304.4,-135.77 306.47,-129.08"/>
</g>
<!-- Node17&#45;&gt;Node15 -->
<g id="edge25" class="edge">
<title>Node17&#45;&gt;Node15</title>
<path fill="none" stroke="midnightblue" d="M394.31,-280.32C382.1,-271.98 363.42,-259.21 349,-249.35"/>
<polygon fill="midnightblue" stroke="midnightblue" points="350.89,-246.41 340.66,-243.65 346.94,-252.19 350.89,-246.41"/>
</g>
<!-- Node18&#45;&gt;Node3 -->
<g id="edge27" class="edge">
<title>Node18&#45;&gt;Node3</title>
<path fill="none" stroke="midnightblue" d="M254.64,-280.44C238.45,-253.35 193.24,-168.01 229,-112 239.67,-95.29 258.32,-84.69 276.44,-78.01"/>
<polygon fill="midnightblue" stroke="midnightblue" points="277.73,-81.27 286.1,-74.78 275.51,-74.63 277.73,-81.27"/>
</g>
<!-- Node18&#45;&gt;Node14 -->
<g id="edge29" class="edge">
<title>Node18&#45;&gt;Node14</title>
<path fill="none" stroke="midnightblue" d="M260.38,-280.08C261.48,-253.95 264.71,-177.21 266.22,-141.58"/>
<polygon fill="midnightblue" stroke="midnightblue" points="269.71,-141.71 266.64,-131.57 262.72,-141.41 269.71,-141.71"/>
</g>
<!-- Node18&#45;&gt;Node15 -->
<g id="edge28" class="edge">
<title>Node18&#45;&gt;Node15</title>
<path fill="none" stroke="midnightblue" d="M270.93,-280.32C281.17,-272.18 296.72,-259.84 309,-250.09"/>
<polygon fill="midnightblue" stroke="midnightblue" points="311.22,-252.79 316.88,-243.83 306.87,-247.31 311.22,-252.79"/>
</g>
</g>
</svg>
