<?xml version="1.0" encoding="UTF-8" standalone="no"?>
<!DOCTYPE svg PUBLIC "-//W3C//DTD SVG 1.1//EN"
 "http://www.w3.org/Graphics/SVG/1.1/DTD/svg11.dtd">
<!-- Generated by graphviz version 2.43.0 (0)
 -->
<!-- Title: include/Display.h Pages: 1 -->
<svg width="621pt" height="420pt"
 viewBox="0.00 0.00 621.00 420.00" xmlns="http://www.w3.org/2000/svg" xmlns:xlink="http://www.w3.org/1999/xlink">
<g id="graph0" class="graph" transform="scale(1 1) rotate(0) translate(4 416)">
<title>include/Display.h</title>
<!-- Node1 -->
<g id="node1" class="node">
<title>Node1</title>
<g id="a_node1"><a xlink:title=" ">
<polygon fill="#bfbfbf" stroke="black" points="229.5,-392.5 229.5,-411.5 328.5,-411.5 328.5,-392.5 229.5,-392.5"/>
<text text-anchor="middle" x="279" y="-399.5" font-family="Helvetica,sans-Serif" font-size="10.00">include/Display.h</text>
</a>
</g>
</g>
<!-- Node2 -->
<g id="node2" class="node">
<title>Node2</title>
<g id="a_node2"><a xlink:href="_definitions_8h.xhtml" target="_top" xlink:title=" ">
<polygon fill="none" stroke="black" points="286.5,-56.5 286.5,-75.5 365.5,-75.5 365.5,-56.5 286.5,-56.5"/>
<text text-anchor="middle" x="326" y="-63.5" font-family="Helvetica,sans-Serif" font-size="10.00">Definitions.h</text>
</a>
</g>
</g>
<!-- Node1&#45;&gt;Node2 -->
<g id="edge1" class="edge">
<title>Node1&#45;&gt;Node2</title>
<path fill="none" stroke="midnightblue" d="M264.86,-392.36C239.99,-375.95 191,-337.71 191,-291 191,-291 191,-291 191,-177 191,-126.31 248.91,-94.83 288.88,-79.14"/>
<polygon fill="midnightblue" stroke="midnightblue" points="290.22,-82.38 298.35,-75.58 287.76,-75.82 290.22,-82.38"/>
</g>
<!-- Node12 -->
<g id="node12" class="node">
<title>Node12</title>
<g id="a_node12"><a xlink:href="_class_file_8h.xhtml" target="_top" xlink:title=" ">
<polygon fill="none" stroke="black" points="433,-336.5 433,-355.5 501,-355.5 501,-336.5 433,-336.5"/>
<text text-anchor="middle" x="467" y="-343.5" font-family="Helvetica,sans-Serif" font-size="10.00">ClassFile.h</text>
</a>
</g>
</g>
<!-- Node1&#45;&gt;Node12 -->
<g id="edge11" class="edge">
<title>Node1&#45;&gt;Node12</title>
<path fill="none" stroke="midnightblue" d="M308.79,-392.44C340.83,-383.24 391.93,-368.56 427.35,-358.39"/>
<polygon fill="midnightblue" stroke="midnightblue" points="428.71,-361.64 437.35,-355.52 426.77,-354.91 428.71,-361.64"/>
</g>
<!-- Node13 -->
<g id="node13" class="node">
<title>Node13</title>
<g id="a_node13"><a xlink:href="_cp_info_8h.xhtml" target="_top" xlink:title=" ">
<polygon fill="none" stroke="black" points="394.5,-112.5 394.5,-131.5 451.5,-131.5 451.5,-112.5 394.5,-112.5"/>
<text text-anchor="middle" x="423" y="-119.5" font-family="Helvetica,sans-Serif" font-size="10.00">CpInfo.h</text>
</a>
</g>
</g>
<!-- Node1&#45;&gt;Node13 -->
<g id="edge29" class="edge">
<title>Node1&#45;&gt;Node13</title>
<path fill="none" stroke="midnightblue" d="M280.5,-392.4C285.4,-365.9 302.51,-283.69 336,-224 338.67,-219.24 384.58,-166.73 408.6,-139.37"/>
<polygon fill="midnightblue" stroke="midnightblue" points="411.31,-141.59 415.28,-131.77 406.05,-136.97 411.31,-141.59"/>
</g>
<!-- Node3 -->
<g id="node3" class="node">
<title>Node3</title>
<g id="a_node3"><a xlink:title=" ">
<polygon fill="none" stroke="#bfbfbf" points="0,-0.5 0,-19.5 64,-19.5 64,-0.5 0,-0.5"/>
<text text-anchor="middle" x="32" y="-7.5" font-family="Helvetica,sans-Serif" font-size="10.00">sys/stat.h</text>
</a>
</g>
</g>
<!-- Node2&#45;&gt;Node3 -->
<g id="edge2" class="edge">
<title>Node2&#45;&gt;Node3</title>
<path fill="none" stroke="midnightblue" d="M286.47,-58.47C238.55,-50.45 155.11,-36.12 74.07,-20.15"/>
<polygon fill="midnightblue" stroke="midnightblue" points="74.69,-16.71 64.2,-18.2 73.33,-23.57 74.69,-16.71"/>
</g>
<!-- Node4 -->
<g id="node4" class="node">
<title>Node4</title>
<g id="a_node4"><a xlink:title=" ">
<polygon fill="none" stroke="#bfbfbf" points="82.5,-0.5 82.5,-19.5 137.5,-19.5 137.5,-0.5 82.5,-0.5"/>
<text text-anchor="middle" x="110" y="-7.5" font-family="Helvetica,sans-Serif" font-size="10.00">fstream</text>
</a>
</g>
</g>
<!-- Node2&#45;&gt;Node4 -->
<g id="edge3" class="edge">
<title>Node2&#45;&gt;Node4</title>
<path fill="none" stroke="midnightblue" d="M291.77,-56.44C252.4,-46.6 187.98,-30.5 147.34,-20.34"/>
<polygon fill="midnightblue" stroke="midnightblue" points="148.1,-16.92 137.55,-17.89 146.41,-23.71 148.1,-16.92"/>
</g>
<!-- Node5 -->
<g id="node5" class="node">
<title>Node5</title>
<g id="a_node5"><a xlink:title=" ">
<polygon fill="none" stroke="#bfbfbf" points="156,-0.5 156,-19.5 216,-19.5 216,-0.5 156,-0.5"/>
<text text-anchor="middle" x="186" y="-7.5" font-family="Helvetica,sans-Serif" font-size="10.00">iostream</text>
</a>
</g>
</g>
<!-- Node2&#45;&gt;Node5 -->
<g id="edge4" class="edge">
<title>Node2&#45;&gt;Node5</title>
<path fill="none" stroke="midnightblue" d="M303.82,-56.44C280.57,-47.48 243.85,-33.31 217.58,-23.18"/>
<polygon fill="midnightblue" stroke="midnightblue" points="218.67,-19.85 208.08,-19.52 216.15,-26.38 218.67,-19.85"/>
</g>
<!-- Node6 -->
<g id="node6" class="node">
<title>Node6</title>
<g id="a_node6"><a xlink:title=" ">
<polygon fill="none" stroke="#bfbfbf" points="234,-0.5 234,-19.5 284,-19.5 284,-0.5 234,-0.5"/>
<text text-anchor="middle" x="259" y="-7.5" font-family="Helvetica,sans-Serif" font-size="10.00">cstdint</text>
</a>
</g>
</g>
<!-- Node2&#45;&gt;Node6 -->
<g id="edge5" class="edge">
<title>Node2&#45;&gt;Node6</title>
<path fill="none" stroke="midnightblue" d="M315.24,-56.32C305.23,-48.26 290.11,-36.08 278.07,-26.37"/>
<polygon fill="midnightblue" stroke="midnightblue" points="279.94,-23.38 269.96,-19.83 275.55,-28.83 279.94,-23.38"/>
</g>
<!-- Node7 -->
<g id="node7" class="node">
<title>Node7</title>
<g id="a_node7"><a xlink:title=" ">
<polygon fill="none" stroke="#bfbfbf" points="302.5,-0.5 302.5,-19.5 349.5,-19.5 349.5,-0.5 302.5,-0.5"/>
<text text-anchor="middle" x="326" y="-7.5" font-family="Helvetica,sans-Serif" font-size="10.00">vector</text>
</a>
</g>
</g>
<!-- Node2&#45;&gt;Node7 -->
<g id="edge6" class="edge">
<title>Node2&#45;&gt;Node7</title>
<path fill="none" stroke="midnightblue" d="M326,-56.08C326,-49.01 326,-38.86 326,-29.99"/>
<polygon fill="midnightblue" stroke="midnightblue" points="329.5,-29.75 326,-19.75 322.5,-29.75 329.5,-29.75"/>
</g>
<!-- Node8 -->
<g id="node8" class="node">
<title>Node8</title>
<g id="a_node8"><a xlink:title=" ">
<polygon fill="none" stroke="#bfbfbf" points="368,-0.5 368,-19.5 412,-19.5 412,-0.5 368,-0.5"/>
<text text-anchor="middle" x="390" y="-7.5" font-family="Helvetica,sans-Serif" font-size="10.00">string</text>
</a>
</g>
</g>
<!-- Node2&#45;&gt;Node8 -->
<g id="edge7" class="edge">
<title>Node2&#45;&gt;Node8</title>
<path fill="none" stroke="midnightblue" d="M336.28,-56.32C345.84,-48.26 360.28,-36.08 371.78,-26.37"/>
<polygon fill="midnightblue" stroke="midnightblue" points="374.14,-28.96 379.53,-19.83 369.63,-23.61 374.14,-28.96"/>
</g>
<!-- Node9 -->
<g id="node9" class="node">
<title>Node9</title>
<g id="a_node9"><a xlink:title=" ">
<polygon fill="none" stroke="#bfbfbf" points="430,-0.5 430,-19.5 468,-19.5 468,-0.5 430,-0.5"/>
<text text-anchor="middle" x="449" y="-7.5" font-family="Helvetica,sans-Serif" font-size="10.00">map</text>
</a>
</g>
</g>
<!-- Node2&#45;&gt;Node9 -->
<g id="edge8" class="edge">
<title>Node2&#45;&gt;Node9</title>
<path fill="none" stroke="midnightblue" d="M345.49,-56.44C365.64,-47.6 397.32,-33.69 420.33,-23.59"/>
<polygon fill="midnightblue" stroke="midnightblue" points="421.85,-26.74 429.6,-19.52 419.04,-20.33 421.85,-26.74"/>
</g>
<!-- Node10 -->
<g id="node10" class="node">
<title>Node10</title>
<g id="a_node10"><a xlink:title=" ">
<polygon fill="none" stroke="#bfbfbf" points="486,-0.5 486,-19.5 530,-19.5 530,-0.5 486,-0.5"/>
<text text-anchor="middle" x="508" y="-7.5" font-family="Helvetica,sans-Serif" font-size="10.00">limits</text>
</a>
</g>
</g>
<!-- Node2&#45;&gt;Node10 -->
<g id="edge9" class="edge">
<title>Node2&#45;&gt;Node10</title>
<path fill="none" stroke="midnightblue" d="M354.84,-56.44C387.81,-46.66 441.64,-30.69 475.92,-20.52"/>
<polygon fill="midnightblue" stroke="midnightblue" points="477.29,-23.76 485.88,-17.56 475.3,-17.05 477.29,-23.76"/>
</g>
<!-- Node11 -->
<g id="node11" class="node">
<title>Node11</title>
<g id="a_node11"><a xlink:title=" ">
<polygon fill="none" stroke="#bfbfbf" points="548.5,-0.5 548.5,-19.5 599.5,-19.5 599.5,-0.5 548.5,-0.5"/>
<text text-anchor="middle" x="574" y="-7.5" font-family="Helvetica,sans-Serif" font-size="10.00">math.h</text>
</a>
</g>
</g>
<!-- Node2&#45;&gt;Node11 -->
<g id="edge10" class="edge">
<title>Node2&#45;&gt;Node11</title>
<path fill="none" stroke="midnightblue" d="M365.76,-57.14C406.63,-48.94 472.31,-35.43 538.63,-20"/>
<polygon fill="midnightblue" stroke="midnightblue" points="539.48,-23.4 548.42,-17.72 537.88,-16.58 539.48,-23.4"/>
</g>
<!-- Node12&#45;&gt;Node2 -->
<g id="edge12" class="edge">
<title>Node12&#45;&gt;Node2</title>
<path fill="none" stroke="midnightblue" d="M499.04,-336.44C542.02,-322.78 613,-291.65 613,-235 613,-235 613,-235 613,-177 613,-126.74 457.57,-90.88 375.48,-75.45"/>
<polygon fill="midnightblue" stroke="midnightblue" points="376.07,-72 365.6,-73.62 374.8,-78.88 376.07,-72"/>
</g>
<!-- Node12&#45;&gt;Node13 -->
<g id="edge13" class="edge">
<title>Node12&#45;&gt;Node13</title>
<path fill="none" stroke="midnightblue" d="M500.8,-336.39C519.39,-329.74 540.89,-318.45 552,-300 556.58,-292.38 554.53,-288.52 552,-280 535.08,-223.04 518.88,-212.05 479,-168 468.7,-156.62 455.35,-145.78 444.28,-137.59"/>
<polygon fill="midnightblue" stroke="midnightblue" points="446.15,-134.62 435.98,-131.63 442.06,-140.31 446.15,-134.62"/>
</g>
<!-- Node14 -->
<g id="node14" class="node">
<title>Node14</title>
<g id="a_node14"><a xlink:href="_attribute_info_8h.xhtml" target="_top" xlink:title=" ">
<polygon fill="none" stroke="black" points="345.5,-224.5 345.5,-243.5 432.5,-243.5 432.5,-224.5 345.5,-224.5"/>
<text text-anchor="middle" x="389" y="-231.5" font-family="Helvetica,sans-Serif" font-size="10.00">AttributeInfo.h</text>
</a>
</g>
</g>
<!-- Node12&#45;&gt;Node14 -->
<g id="edge15" class="edge">
<title>Node12&#45;&gt;Node14</title>
<path fill="none" stroke="midnightblue" d="M460.88,-336.37C448.01,-318.22 417.93,-275.8 401.05,-251.99"/>
<polygon fill="midnightblue" stroke="midnightblue" points="403.73,-249.72 395.09,-243.59 398.02,-253.77 403.73,-249.72"/>
</g>
<!-- Node16 -->
<g id="node16" class="node">
<title>Node16</title>
<g id="a_node16"><a xlink:href="_field_info_8h.xhtml" target="_top" xlink:title=" ">
<polygon fill="none" stroke="black" points="337.5,-280.5 337.5,-299.5 404.5,-299.5 404.5,-280.5 337.5,-280.5"/>
<text text-anchor="middle" x="371" y="-287.5" font-family="Helvetica,sans-Serif" font-size="10.00">FieldInfo.h</text>
</a>
</g>
</g>
<!-- Node12&#45;&gt;Node16 -->
<g id="edge21" class="edge">
<title>Node12&#45;&gt;Node16</title>
<path fill="none" stroke="midnightblue" d="M451.58,-336.32C436.46,-327.82 413.18,-314.73 395.53,-304.8"/>
<polygon fill="midnightblue" stroke="midnightblue" points="396.82,-301.51 386.39,-299.65 393.39,-307.61 396.82,-301.51"/>
</g>
<!-- Node17 -->
<g id="node17" class="node">
<title>Node17</title>
<g id="a_node17"><a xlink:href="_method_info_8h.xhtml" target="_top" xlink:title=" ">
<polygon fill="none" stroke="black" points="461.5,-280.5 461.5,-299.5 542.5,-299.5 542.5,-280.5 461.5,-280.5"/>
<text text-anchor="middle" x="502" y="-287.5" font-family="Helvetica,sans-Serif" font-size="10.00">MethodInfo.h</text>
</a>
</g>
</g>
<!-- Node12&#45;&gt;Node17 -->
<g id="edge25" class="edge">
<title>Node12&#45;&gt;Node17</title>
<path fill="none" stroke="midnightblue" d="M472.78,-336.08C477.67,-328.53 484.83,-317.49 490.83,-308.23"/>
<polygon fill="midnightblue" stroke="midnightblue" points="493.83,-310.05 496.33,-299.75 487.95,-306.24 493.83,-310.05"/>
</g>
<!-- Node13&#45;&gt;Node2 -->
<g id="edge14" class="edge">
<title>Node13&#45;&gt;Node2</title>
<path fill="none" stroke="midnightblue" d="M407.42,-112.32C392,-103.74 368.19,-90.49 350.29,-80.52"/>
<polygon fill="midnightblue" stroke="midnightblue" points="351.99,-77.46 341.55,-75.65 348.58,-83.58 351.99,-77.46"/>
</g>
<!-- Node14&#45;&gt;Node2 -->
<g id="edge16" class="edge">
<title>Node14&#45;&gt;Node2</title>
<path fill="none" stroke="midnightblue" d="M345.39,-225.52C323.63,-219.35 299.2,-208.17 286,-188 264.1,-154.53 293.08,-107.98 312,-83.53"/>
<polygon fill="midnightblue" stroke="midnightblue" points="314.86,-85.56 318.4,-75.58 309.4,-81.17 314.86,-85.56"/>
</g>
<!-- Node14&#45;&gt;Node13 -->
<g id="edge17" class="edge">
<title>Node14&#45;&gt;Node13</title>
<path fill="none" stroke="midnightblue" d="M391.67,-224.37C397.18,-206.54 409.93,-165.3 417.35,-141.27"/>
<polygon fill="midnightblue" stroke="midnightblue" points="420.74,-142.18 420.34,-131.59 414.05,-140.11 420.74,-142.18"/>
</g>
<!-- Node15 -->
<g id="node15" class="node">
<title>Node15</title>
<g id="a_node15"><a xlink:href="_opcode_8h.xhtml" target="_top" xlink:title=" ">
<polygon fill="none" stroke="black" points="295,-168.5 295,-187.5 357,-187.5 357,-168.5 295,-168.5"/>
<text text-anchor="middle" x="326" y="-175.5" font-family="Helvetica,sans-Serif" font-size="10.00">Opcode.h</text>
</a>
</g>
</g>
<!-- Node14&#45;&gt;Node15 -->
<g id="edge18" class="edge">
<title>Node14&#45;&gt;Node15</title>
<path fill="none" stroke="midnightblue" d="M378.88,-224.32C369.47,-216.26 355.26,-204.08 343.93,-194.37"/>
<polygon fill="midnightblue" stroke="midnightblue" points="346.18,-191.68 336.31,-187.83 341.62,-197 346.18,-191.68"/>
</g>
<!-- Node15&#45;&gt;Node2 -->
<g id="edge19" class="edge">
<title>Node15&#45;&gt;Node2</title>
<path fill="none" stroke="midnightblue" d="M326,-168.37C326,-150.62 326,-109.67 326,-85.6"/>
<polygon fill="midnightblue" stroke="midnightblue" points="329.5,-85.59 326,-75.59 322.5,-85.59 329.5,-85.59"/>
</g>
<!-- Node15&#45;&gt;Node13 -->
<g id="edge20" class="edge">
<title>Node15&#45;&gt;Node13</title>
<path fill="none" stroke="midnightblue" d="M341.58,-168.32C357,-159.74 380.81,-146.49 398.71,-136.52"/>
<polygon fill="midnightblue" stroke="midnightblue" points="400.42,-139.58 407.45,-131.65 397.01,-133.46 400.42,-139.58"/>
</g>
<!-- Node16&#45;&gt;Node2 -->
<g id="edge23" class="edge">
<title>Node16&#45;&gt;Node2</title>
<path fill="none" stroke="midnightblue" d="M357.85,-280.35C335.74,-264.91 291.87,-230.24 275,-188 269.03,-173.05 270.67,-131.67 280,-112 285.63,-100.13 295.79,-89.67 305.13,-81.83"/>
<polygon fill="midnightblue" stroke="midnightblue" points="307.3,-84.58 312.99,-75.65 302.97,-79.08 307.3,-84.58"/>
</g>
<!-- Node16&#45;&gt;Node13 -->
<g id="edge22" class="edge">
<title>Node16&#45;&gt;Node13</title>
<path fill="none" stroke="midnightblue" d="M395.47,-280.44C411.57,-273.38 431.38,-261.63 441,-244 459.08,-210.89 443.4,-165.47 432.11,-140.77"/>
<polygon fill="midnightblue" stroke="midnightblue" points="435.16,-139.02 427.65,-131.55 428.85,-142.07 435.16,-139.02"/>
</g>
<!-- Node16&#45;&gt;Node14 -->
<g id="edge24" class="edge">
<title>Node16&#45;&gt;Node14</title>
<path fill="none" stroke="midnightblue" d="M373.97,-280.08C376.38,-272.85 379.86,-262.41 382.87,-253.4"/>
<polygon fill="midnightblue" stroke="midnightblue" points="386.24,-254.34 386.08,-243.75 379.6,-252.13 386.24,-254.34"/>
</g>
<!-- Node17&#45;&gt;Node2 -->
<g id="edge26" class="edge">
<title>Node17&#45;&gt;Node2</title>
<path fill="none" stroke="midnightblue" d="M502.87,-280.46C505.27,-251.95 508.84,-159.17 460,-112 437.28,-90.06 403.54,-78.81 375.6,-73.04"/>
<polygon fill="midnightblue" stroke="midnightblue" points="376.08,-69.57 365.6,-71.15 374.78,-76.45 376.08,-69.57"/>
</g>
<!-- Node17&#45;&gt;Node13 -->
<g id="edge28" class="edge">
<title>Node17&#45;&gt;Node13</title>
<path fill="none" stroke="midnightblue" d="M500.11,-280.35C495.42,-259.86 481.97,-207.18 460,-168 454.14,-157.55 445.77,-147.13 438.48,-138.95"/>
<polygon fill="midnightblue" stroke="midnightblue" points="441.04,-136.57 431.68,-131.61 435.91,-141.32 441.04,-136.57"/>
</g>
<!-- Node17&#45;&gt;Node14 -->
<g id="edge27" class="edge">
<title>Node17&#45;&gt;Node14</title>
<path fill="none" stroke="midnightblue" d="M484.09,-280.44C465.75,-271.68 436.99,-257.94 415.91,-247.86"/>
<polygon fill="midnightblue" stroke="midnightblue" points="417.35,-244.67 406.82,-243.52 414.33,-250.99 417.35,-244.67"/>
</g>
</g>
</svg>
