<?xml version="1.0" encoding="UTF-8" standalone="no"?>
<!DOCTYPE svg PUBLIC "-//W3C//DTD SVG 1.1//EN"
 "http://www.w3.org/Graphics/SVG/1.1/DTD/svg11.dtd">
<!-- Generated by graphviz version 2.43.0 (0)
 -->
<!-- Title: include/Display.h Pages: 1 -->
<svg width="619pt" height="420pt"
 viewBox="0.00 0.00 619.00 420.00" xmlns="http://www.w3.org/2000/svg" xmlns:xlink="http://www.w3.org/1999/xlink">
<g id="graph0" class="graph" transform="scale(1 1) rotate(0) translate(4 416)">
<title>include/Display.h</title>
<!-- Node1 -->
<g id="node1" class="node">
<title>Node1</title>
<g id="a_node1"><a xlink:title=" ">
<polygon fill="#bfbfbf" stroke="black" points="0,-392.5 0,-411.5 99,-411.5 99,-392.5 0,-392.5"/>
<text text-anchor="middle" x="49.5" y="-399.5" font-family="Helvetica,sans-Serif" font-size="10.00">include/Display.h</text>
</a>
</g>
</g>
<!-- Node2 -->
<g id="node2" class="node">
<title>Node2</title>
<g id="a_node2"><a xlink:href="_definitions_8h.xhtml" target="_top" xlink:title=" ">
<polygon fill="none" stroke="black" points="298,-56.5 298,-75.5 377,-75.5 377,-56.5 298,-56.5"/>
<text text-anchor="middle" x="337.5" y="-63.5" font-family="Helvetica,sans-Serif" font-size="10.00">Definitions.h</text>
</a>
</g>
</g>
<!-- Node1&#45;&gt;Node2 -->
<g id="edge1" class="edge">
<title>Node1&#45;&gt;Node2</title>
<path fill="none" stroke="midnightblue" d="M44.22,-392.23C33.77,-374.04 11.5,-330.6 11.5,-291 11.5,-291 11.5,-291 11.5,-177 11.5,-119.41 196.44,-86.17 287.73,-73.27"/>
<polygon fill="midnightblue" stroke="midnightblue" points="288.43,-76.71 297.85,-71.87 287.47,-69.77 288.43,-76.71"/>
</g>
<!-- Node12 -->
<g id="node12" class="node">
<title>Node12</title>
<g id="a_node12"><a xlink:href="_class_file_8h.xhtml" target="_top" xlink:title=" ">
<polygon fill="none" stroke="black" points="198.5,-336.5 198.5,-355.5 266.5,-355.5 266.5,-336.5 198.5,-336.5"/>
<text text-anchor="middle" x="232.5" y="-343.5" font-family="Helvetica,sans-Serif" font-size="10.00">ClassFile.h</text>
</a>
</g>
</g>
<!-- Node1&#45;&gt;Node12 -->
<g id="edge11" class="edge">
<title>Node1&#45;&gt;Node12</title>
<path fill="none" stroke="midnightblue" d="M78.5,-392.44C109.68,-383.24 159.43,-368.56 193.91,-358.39"/>
<polygon fill="midnightblue" stroke="midnightblue" points="195.04,-361.7 203.64,-355.52 193.06,-354.99 195.04,-361.7"/>
</g>
<!-- Node13 -->
<g id="node13" class="node">
<title>Node13</title>
<g id="a_node13"><a xlink:href="_cp_info_8h.xhtml" target="_top" xlink:title=" ">
<polygon fill="none" stroke="black" points="192,-112.5 192,-131.5 249,-131.5 249,-112.5 192,-112.5"/>
<text text-anchor="middle" x="220.5" y="-119.5" font-family="Helvetica,sans-Serif" font-size="10.00">CpInfo.h</text>
</a>
</g>
</g>
<!-- Node1&#45;&gt;Node13 -->
<g id="edge32" class="edge">
<title>Node1&#45;&gt;Node13</title>
<path fill="none" stroke="midnightblue" d="M49.5,-392.44C49.5,-373.94 49.5,-328.81 49.5,-291 49.5,-291 49.5,-291 49.5,-233 49.5,-170.42 131.51,-141.76 181.94,-130.05"/>
<polygon fill="midnightblue" stroke="midnightblue" points="182.86,-133.44 191.88,-127.87 181.36,-126.6 182.86,-133.44"/>
</g>
<!-- Node3 -->
<g id="node3" class="node">
<title>Node3</title>
<g id="a_node3"><a xlink:title=" ">
<polygon fill="none" stroke="#bfbfbf" points="11.5,-0.5 11.5,-19.5 75.5,-19.5 75.5,-0.5 11.5,-0.5"/>
<text text-anchor="middle" x="43.5" y="-7.5" font-family="Helvetica,sans-Serif" font-size="10.00">sys/stat.h</text>
</a>
</g>
</g>
<!-- Node2&#45;&gt;Node3 -->
<g id="edge2" class="edge">
<title>Node2&#45;&gt;Node3</title>
<path fill="none" stroke="midnightblue" d="M297.97,-58.47C250.05,-50.45 166.61,-36.12 85.57,-20.15"/>
<polygon fill="midnightblue" stroke="midnightblue" points="86.19,-16.71 75.7,-18.2 84.83,-23.57 86.19,-16.71"/>
</g>
<!-- Node4 -->
<g id="node4" class="node">
<title>Node4</title>
<g id="a_node4"><a xlink:title=" ">
<polygon fill="none" stroke="#bfbfbf" points="94,-0.5 94,-19.5 149,-19.5 149,-0.5 94,-0.5"/>
<text text-anchor="middle" x="121.5" y="-7.5" font-family="Helvetica,sans-Serif" font-size="10.00">fstream</text>
</a>
</g>
</g>
<!-- Node2&#45;&gt;Node4 -->
<g id="edge3" class="edge">
<title>Node2&#45;&gt;Node4</title>
<path fill="none" stroke="midnightblue" d="M303.27,-56.44C263.9,-46.6 199.48,-30.5 158.84,-20.34"/>
<polygon fill="midnightblue" stroke="midnightblue" points="159.6,-16.92 149.05,-17.89 157.91,-23.71 159.6,-16.92"/>
</g>
<!-- Node5 -->
<g id="node5" class="node">
<title>Node5</title>
<g id="a_node5"><a xlink:title=" ">
<polygon fill="none" stroke="#bfbfbf" points="167.5,-0.5 167.5,-19.5 227.5,-19.5 227.5,-0.5 167.5,-0.5"/>
<text text-anchor="middle" x="197.5" y="-7.5" font-family="Helvetica,sans-Serif" font-size="10.00">iostream</text>
</a>
</g>
</g>
<!-- Node2&#45;&gt;Node5 -->
<g id="edge4" class="edge">
<title>Node2&#45;&gt;Node5</title>
<path fill="none" stroke="midnightblue" d="M315.32,-56.44C292.07,-47.48 255.35,-33.31 229.08,-23.18"/>
<polygon fill="midnightblue" stroke="midnightblue" points="230.17,-19.85 219.58,-19.52 227.65,-26.38 230.17,-19.85"/>
</g>
<!-- Node6 -->
<g id="node6" class="node">
<title>Node6</title>
<g id="a_node6"><a xlink:title=" ">
<polygon fill="none" stroke="#bfbfbf" points="245.5,-0.5 245.5,-19.5 295.5,-19.5 295.5,-0.5 245.5,-0.5"/>
<text text-anchor="middle" x="270.5" y="-7.5" font-family="Helvetica,sans-Serif" font-size="10.00">cstdint</text>
</a>
</g>
</g>
<!-- Node2&#45;&gt;Node6 -->
<g id="edge5" class="edge">
<title>Node2&#45;&gt;Node6</title>
<path fill="none" stroke="midnightblue" d="M326.74,-56.32C316.73,-48.26 301.61,-36.08 289.57,-26.37"/>
<polygon fill="midnightblue" stroke="midnightblue" points="291.44,-23.38 281.46,-19.83 287.05,-28.83 291.44,-23.38"/>
</g>
<!-- Node7 -->
<g id="node7" class="node">
<title>Node7</title>
<g id="a_node7"><a xlink:title=" ">
<polygon fill="none" stroke="#bfbfbf" points="314,-0.5 314,-19.5 361,-19.5 361,-0.5 314,-0.5"/>
<text text-anchor="middle" x="337.5" y="-7.5" font-family="Helvetica,sans-Serif" font-size="10.00">vector</text>
</a>
</g>
</g>
<!-- Node2&#45;&gt;Node7 -->
<g id="edge6" class="edge">
<title>Node2&#45;&gt;Node7</title>
<path fill="none" stroke="midnightblue" d="M337.5,-56.08C337.5,-49.01 337.5,-38.86 337.5,-29.99"/>
<polygon fill="midnightblue" stroke="midnightblue" points="341,-29.75 337.5,-19.75 334,-29.75 341,-29.75"/>
</g>
<!-- Node8 -->
<g id="node8" class="node">
<title>Node8</title>
<g id="a_node8"><a xlink:title=" ">
<polygon fill="none" stroke="#bfbfbf" points="379.5,-0.5 379.5,-19.5 423.5,-19.5 423.5,-0.5 379.5,-0.5"/>
<text text-anchor="middle" x="401.5" y="-7.5" font-family="Helvetica,sans-Serif" font-size="10.00">string</text>
</a>
</g>
</g>
<!-- Node2&#45;&gt;Node8 -->
<g id="edge7" class="edge">
<title>Node2&#45;&gt;Node8</title>
<path fill="none" stroke="midnightblue" d="M347.78,-56.32C357.34,-48.26 371.78,-36.08 383.28,-26.37"/>
<polygon fill="midnightblue" stroke="midnightblue" points="385.64,-28.96 391.03,-19.83 381.13,-23.61 385.64,-28.96"/>
</g>
<!-- Node9 -->
<g id="node9" class="node">
<title>Node9</title>
<g id="a_node9"><a xlink:title=" ">
<polygon fill="none" stroke="#bfbfbf" points="441.5,-0.5 441.5,-19.5 479.5,-19.5 479.5,-0.5 441.5,-0.5"/>
<text text-anchor="middle" x="460.5" y="-7.5" font-family="Helvetica,sans-Serif" font-size="10.00">map</text>
</a>
</g>
</g>
<!-- Node2&#45;&gt;Node9 -->
<g id="edge8" class="edge">
<title>Node2&#45;&gt;Node9</title>
<path fill="none" stroke="midnightblue" d="M356.99,-56.44C377.14,-47.6 408.82,-33.69 431.83,-23.59"/>
<polygon fill="midnightblue" stroke="midnightblue" points="433.35,-26.74 441.1,-19.52 430.54,-20.33 433.35,-26.74"/>
</g>
<!-- Node10 -->
<g id="node10" class="node">
<title>Node10</title>
<g id="a_node10"><a xlink:title=" ">
<polygon fill="none" stroke="#bfbfbf" points="497.5,-0.5 497.5,-19.5 541.5,-19.5 541.5,-0.5 497.5,-0.5"/>
<text text-anchor="middle" x="519.5" y="-7.5" font-family="Helvetica,sans-Serif" font-size="10.00">limits</text>
</a>
</g>
</g>
<!-- Node2&#45;&gt;Node10 -->
<g id="edge9" class="edge">
<title>Node2&#45;&gt;Node10</title>
<path fill="none" stroke="midnightblue" d="M366.34,-56.44C399.31,-46.66 453.14,-30.69 487.42,-20.52"/>
<polygon fill="midnightblue" stroke="midnightblue" points="488.79,-23.76 497.38,-17.56 486.8,-17.05 488.79,-23.76"/>
</g>
<!-- Node11 -->
<g id="node11" class="node">
<title>Node11</title>
<g id="a_node11"><a xlink:title=" ">
<polygon fill="none" stroke="#bfbfbf" points="560,-0.5 560,-19.5 611,-19.5 611,-0.5 560,-0.5"/>
<text text-anchor="middle" x="585.5" y="-7.5" font-family="Helvetica,sans-Serif" font-size="10.00">math.h</text>
</a>
</g>
</g>
<!-- Node2&#45;&gt;Node11 -->
<g id="edge10" class="edge">
<title>Node2&#45;&gt;Node11</title>
<path fill="none" stroke="midnightblue" d="M377.26,-57.14C418.13,-48.94 483.81,-35.43 550.13,-20"/>
<polygon fill="midnightblue" stroke="midnightblue" points="550.98,-23.4 559.92,-17.72 549.38,-16.58 550.98,-23.4"/>
</g>
<!-- Node12&#45;&gt;Node2 -->
<g id="edge12" class="edge">
<title>Node12&#45;&gt;Node2</title>
<path fill="none" stroke="midnightblue" d="M266.5,-339.47C342.9,-326.09 521.5,-289.02 521.5,-235 521.5,-235 521.5,-235 521.5,-177 521.5,-114.28 441.77,-86.47 387.28,-74.79"/>
<polygon fill="midnightblue" stroke="midnightblue" points="387.92,-71.34 377.43,-72.79 386.53,-78.21 387.92,-71.34"/>
</g>
<!-- Node12&#45;&gt;Node13 -->
<g id="edge13" class="edge">
<title>Node12&#45;&gt;Node13</title>
<path fill="none" stroke="midnightblue" d="M198.43,-342.35C170.45,-338.16 132.46,-327.44 113.5,-300 73.28,-241.79 158.36,-168.33 199.69,-137.58"/>
<polygon fill="midnightblue" stroke="midnightblue" points="201.98,-140.24 208.01,-131.52 197.87,-134.58 201.98,-140.24"/>
</g>
<!-- Node14 -->
<g id="node14" class="node">
<title>Node14</title>
<g id="a_node14"><a xlink:href="_attribute_info_8h.xhtml" target="_top" xlink:title=" ">
<polygon fill="none" stroke="black" points="241,-224.5 241,-243.5 328,-243.5 328,-224.5 241,-224.5"/>
<text text-anchor="middle" x="284.5" y="-231.5" font-family="Helvetica,sans-Serif" font-size="10.00">AttributeInfo.h</text>
</a>
</g>
</g>
<!-- Node12&#45;&gt;Node14 -->
<g id="edge15" class="edge">
<title>Node12&#45;&gt;Node14</title>
<path fill="none" stroke="midnightblue" d="M234.05,-336.23C236.54,-323.4 242.13,-298.98 251.5,-280 256.48,-269.92 263.72,-259.73 270.16,-251.61"/>
<polygon fill="midnightblue" stroke="midnightblue" points="273.01,-253.64 276.67,-243.7 267.61,-249.19 273.01,-253.64"/>
</g>
<!-- Node16 -->
<g id="node16" class="node">
<title>Node16</title>
<g id="a_node16"><a xlink:href="_field_info_8h.xhtml" target="_top" xlink:title=" ">
<polygon fill="none" stroke="black" points="261,-280.5 261,-299.5 328,-299.5 328,-280.5 261,-280.5"/>
<text text-anchor="middle" x="294.5" y="-287.5" font-family="Helvetica,sans-Serif" font-size="10.00">FieldInfo.h</text>
</a>
</g>
</g>
<!-- Node12&#45;&gt;Node16 -->
<g id="edge21" class="edge">
<title>Node12&#45;&gt;Node16</title>
<path fill="none" stroke="midnightblue" d="M242.46,-336.32C251.63,-328.34 265.44,-316.31 276.53,-306.65"/>
<polygon fill="midnightblue" stroke="midnightblue" points="279.12,-309.04 284.36,-299.83 274.52,-303.76 279.12,-309.04"/>
</g>
<!-- Node17 -->
<g id="node17" class="node">
<title>Node17</title>
<g id="a_node17"><a xlink:href="_method_info_8h.xhtml" target="_top" xlink:title=" ">
<polygon fill="none" stroke="black" points="123,-280.5 123,-299.5 204,-299.5 204,-280.5 123,-280.5"/>
<text text-anchor="middle" x="163.5" y="-287.5" font-family="Helvetica,sans-Serif" font-size="10.00">MethodInfo.h</text>
</a>
</g>
</g>
<!-- Node12&#45;&gt;Node17 -->
<g id="edge25" class="edge">
<title>Node12&#45;&gt;Node17</title>
<path fill="none" stroke="midnightblue" d="M221.41,-336.32C211.01,-328.18 195.24,-315.84 182.78,-306.09"/>
<polygon fill="midnightblue" stroke="midnightblue" points="184.82,-303.24 174.79,-299.83 180.51,-308.75 184.82,-303.24"/>
</g>
<!-- Node18 -->
<g id="node18" class="node">
<title>Node18</title>
<g id="a_node18"><a xlink:href="_interface_8h.xhtml" target="_top" xlink:title=" ">
<polygon fill="none" stroke="black" points="424,-168.5 424,-187.5 493,-187.5 493,-168.5 424,-168.5"/>
<text text-anchor="middle" x="458.5" y="-175.5" font-family="Helvetica,sans-Serif" font-size="10.00">Interface.h</text>
</a>
</g>
</g>
<!-- Node12&#45;&gt;Node18 -->
<g id="edge29" class="edge">
<title>Node12&#45;&gt;Node18</title>
<path fill="none" stroke="midnightblue" d="M256.86,-336.42C278.47,-328.35 310.55,-315.25 336.5,-300 371.75,-279.28 380.71,-273.04 409.5,-244 424.21,-229.16 438.28,-209.78 447.54,-196.05"/>
<polygon fill="midnightblue" stroke="midnightblue" points="450.54,-197.85 453.12,-187.58 444.7,-194 450.54,-197.85"/>
</g>
<!-- Node13&#45;&gt;Node2 -->
<g id="edge14" class="edge">
<title>Node13&#45;&gt;Node2</title>
<path fill="none" stroke="midnightblue" d="M239.04,-112.44C258.12,-103.64 288.07,-89.81 309.94,-79.72"/>
<polygon fill="midnightblue" stroke="midnightblue" points="311.43,-82.88 319.05,-75.52 308.5,-76.53 311.43,-82.88"/>
</g>
<!-- Node14&#45;&gt;Node2 -->
<g id="edge16" class="edge">
<title>Node14&#45;&gt;Node2</title>
<path fill="none" stroke="midnightblue" d="M301.13,-224.46C313.99,-216.84 330.84,-204.36 338.5,-188 354.11,-154.67 347.89,-110.3 342.4,-85.6"/>
<polygon fill="midnightblue" stroke="midnightblue" points="345.77,-84.65 340.02,-75.75 338.97,-86.29 345.77,-84.65"/>
</g>
<!-- Node14&#45;&gt;Node13 -->
<g id="edge17" class="edge">
<title>Node14&#45;&gt;Node13</title>
<path fill="none" stroke="midnightblue" d="M279.48,-224.37C268.96,-206.3 244.46,-164.18 230.57,-140.31"/>
<polygon fill="midnightblue" stroke="midnightblue" points="233.55,-138.47 225.5,-131.59 227.5,-142 233.55,-138.47"/>
</g>
<!-- Node15 -->
<g id="node15" class="node">
<title>Node15</title>
<g id="a_node15"><a xlink:href="_opcode_8h.xhtml" target="_top" xlink:title=" ">
<polygon fill="none" stroke="black" points="267.5,-168.5 267.5,-187.5 329.5,-187.5 329.5,-168.5 267.5,-168.5"/>
<text text-anchor="middle" x="298.5" y="-175.5" font-family="Helvetica,sans-Serif" font-size="10.00">Opcode.h</text>
</a>
</g>
</g>
<!-- Node14&#45;&gt;Node15 -->
<g id="edge18" class="edge">
<title>Node14&#45;&gt;Node15</title>
<path fill="none" stroke="midnightblue" d="M286.81,-224.08C288.67,-216.93 291.34,-206.64 293.65,-197.69"/>
<polygon fill="midnightblue" stroke="midnightblue" points="297.11,-198.31 296.23,-187.75 290.33,-196.55 297.11,-198.31"/>
</g>
<!-- Node15&#45;&gt;Node2 -->
<g id="edge19" class="edge">
<title>Node15&#45;&gt;Node2</title>
<path fill="none" stroke="midnightblue" d="M301.56,-168.37C307.88,-150.54 322.5,-109.3 331.02,-85.27"/>
<polygon fill="midnightblue" stroke="midnightblue" points="334.41,-86.19 334.45,-75.59 327.81,-83.85 334.41,-86.19"/>
</g>
<!-- Node15&#45;&gt;Node13 -->
<g id="edge20" class="edge">
<title>Node15&#45;&gt;Node13</title>
<path fill="none" stroke="midnightblue" d="M285.97,-168.32C273.91,-159.98 255.47,-147.21 241.23,-137.35"/>
<polygon fill="midnightblue" stroke="midnightblue" points="243.22,-134.47 233,-131.65 239.23,-140.22 243.22,-134.47"/>
</g>
<!-- Node16&#45;&gt;Node2 -->
<g id="edge23" class="edge">
<title>Node16&#45;&gt;Node2</title>
<path fill="none" stroke="midnightblue" d="M304.75,-280.28C314.13,-271.83 327.83,-258.24 336.5,-244 350.25,-221.43 350.61,-213.76 356.5,-188 364.06,-154.97 371,-144.8 362.5,-112 359.95,-102.18 354.75,-92.21 349.74,-84.17"/>
<polygon fill="midnightblue" stroke="midnightblue" points="352.58,-82.11 344.13,-75.73 346.75,-85.99 352.58,-82.11"/>
</g>
<!-- Node16&#45;&gt;Node13 -->
<g id="edge22" class="edge">
<title>Node16&#45;&gt;Node13</title>
<path fill="none" stroke="midnightblue" d="M274.71,-280.49C260.12,-273.1 241.19,-260.91 231.5,-244 213.03,-211.79 214.76,-166.66 217.64,-141.61"/>
<polygon fill="midnightblue" stroke="midnightblue" points="221.12,-142.01 218.98,-131.63 214.18,-141.08 221.12,-142.01"/>
</g>
<!-- Node16&#45;&gt;Node14 -->
<g id="edge24" class="edge">
<title>Node16&#45;&gt;Node14</title>
<path fill="none" stroke="midnightblue" d="M292.85,-280.08C291.52,-272.93 289.62,-262.64 287.96,-253.69"/>
<polygon fill="midnightblue" stroke="midnightblue" points="291.38,-252.95 286.12,-243.75 284.5,-254.22 291.38,-252.95"/>
</g>
<!-- Node17&#45;&gt;Node2 -->
<g id="edge26" class="edge">
<title>Node17&#45;&gt;Node2</title>
<path fill="none" stroke="midnightblue" d="M161.33,-280.27C154.85,-251.95 138.7,-161.56 182.5,-112 208.65,-82.41 252.98,-71.76 287.55,-68.17"/>
<polygon fill="midnightblue" stroke="midnightblue" points="288.27,-71.62 297.93,-67.27 287.67,-64.64 288.27,-71.62"/>
</g>
<!-- Node17&#45;&gt;Node13 -->
<g id="edge28" class="edge">
<title>Node17&#45;&gt;Node13</title>
<path fill="none" stroke="midnightblue" d="M163.93,-280.41C165.21,-260.04 170.09,-207.6 187.5,-168 192.02,-157.71 199.23,-147.5 205.75,-139.42"/>
<polygon fill="midnightblue" stroke="midnightblue" points="208.6,-141.46 212.4,-131.57 203.27,-136.94 208.6,-141.46"/>
</g>
<!-- Node17&#45;&gt;Node14 -->
<g id="edge27" class="edge">
<title>Node17&#45;&gt;Node14</title>
<path fill="none" stroke="midnightblue" d="M182.67,-280.44C202.41,-271.64 233.39,-257.81 255.99,-247.72"/>
<polygon fill="midnightblue" stroke="midnightblue" points="257.71,-250.79 265.42,-243.52 254.86,-244.4 257.71,-250.79"/>
</g>
<!-- Node18&#45;&gt;Node2 -->
<g id="edge30" class="edge">
<title>Node18&#45;&gt;Node2</title>
<path fill="none" stroke="midnightblue" d="M453.34,-168.2C445.23,-154.9 428.46,-129.38 409.5,-112 395.86,-99.5 378.29,-88.44 363.92,-80.41"/>
<polygon fill="midnightblue" stroke="midnightblue" points="365.47,-77.28 355.01,-75.59 362.14,-83.43 365.47,-77.28"/>
</g>
<!-- Node18&#45;&gt;Node13 -->
<g id="edge31" class="edge">
<title>Node18&#45;&gt;Node13</title>
<path fill="none" stroke="midnightblue" d="M423.89,-169.15C380.02,-159.19 304.63,-142.09 258.99,-131.73"/>
<polygon fill="midnightblue" stroke="midnightblue" points="259.7,-128.31 249.17,-129.51 258.15,-135.13 259.7,-128.31"/>
</g>
</g>
</svg>
