<?xml version="1.0" encoding="UTF-8" standalone="no"?>
<!DOCTYPE svg PUBLIC "-//W3C//DTD SVG 1.1//EN"
 "http://www.w3.org/Graphics/SVG/1.1/DTD/svg11.dtd">
<!-- Generated by graphviz version 2.43.0 (0)
 -->
<!-- Title: include/Opcode.h Pages: 1 -->
<svg width="512pt" height="308pt"
 viewBox="0.00 0.00 512.00 308.00" xmlns="http://www.w3.org/2000/svg" xmlns:xlink="http://www.w3.org/1999/xlink">
<g id="graph0" class="graph" transform="scale(1 1) rotate(0) translate(4 304)">
<title>include/Opcode.h</title>
<!-- Node1 -->
<g id="node1" class="node">
<title>Node1</title>
<g id="a_node1"><a xlink:title=" ">
<polygon fill="#bfbfbf" stroke="black" points="324,-280.5 324,-299.5 425,-299.5 425,-280.5 324,-280.5"/>
<text text-anchor="middle" x="374.5" y="-287.5" font-family="Helvetica,sans-Serif" font-size="10.00">include/Opcode.h</text>
</a>
</g>
</g>
<!-- Node2 -->
<g id="node2" class="node">
<title>Node2</title>
<g id="a_node2"><a xlink:href="_attribute_info_8h.xhtml" target="_top" xlink:title=" ">
<polygon fill="none" stroke="black" points="249,-224.5 249,-243.5 374,-243.5 374,-224.5 249,-224.5"/>
<text text-anchor="middle" x="311.5" y="-231.5" font-family="Helvetica,sans-Serif" font-size="10.00">include/AttributeInfo.h</text>
</a>
</g>
</g>
<!-- Node1&#45;&gt;Node2 -->
<g id="edge1" class="edge">
<title>Node1&#45;&gt;Node2</title>
<path fill="none" stroke="midnightblue" d="M356.46,-273.54C345.23,-263.91 331.18,-251.87 321.81,-243.83"/>
<polygon fill="midnightblue" stroke="midnightblue" points="354.51,-276.47 364.38,-280.32 359.06,-271.16 354.51,-276.47"/>
</g>
<!-- Node10 -->
<g id="node10" class="node">
<title>Node10</title>
<g id="a_node10"><a xlink:href="_opcode_8cpp.xhtml" target="_top" xlink:title=" ">
<polygon fill="none" stroke="black" points="413,-112.5 413,-131.5 504,-131.5 504,-112.5 413,-112.5"/>
<text text-anchor="middle" x="458.5" y="-119.5" font-family="Helvetica,sans-Serif" font-size="10.00">src/Opcode.cpp</text>
</a>
</g>
</g>
<!-- Node1&#45;&gt;Node10 -->
<g id="edge18" class="edge">
<title>Node1&#45;&gt;Node10</title>
<path fill="none" stroke="midnightblue" d="M389.31,-272.62C405.63,-253.66 431.44,-220.8 445.5,-188 453.66,-168.96 456.77,-144.56 457.9,-131.75"/>
<polygon fill="midnightblue" stroke="midnightblue" points="386.53,-270.49 382.55,-280.31 391.78,-275.11 386.53,-270.49"/>
</g>
<!-- Node3 -->
<g id="node3" class="node">
<title>Node3</title>
<g id="a_node3"><a xlink:href="_class_file_8h.xhtml" target="_top" xlink:title=" ">
<polygon fill="none" stroke="black" points="159,-112.5 159,-131.5 266,-131.5 266,-112.5 159,-112.5"/>
<text text-anchor="middle" x="212.5" y="-119.5" font-family="Helvetica,sans-Serif" font-size="10.00">include/ClassFile.h</text>
</a>
</g>
</g>
<!-- Node2&#45;&gt;Node3 -->
<g id="edge2" class="edge">
<title>Node2&#45;&gt;Node3</title>
<path fill="none" stroke="midnightblue" d="M297.01,-216.9C275.72,-193.25 236.75,-149.95 220.23,-131.59"/>
<polygon fill="midnightblue" stroke="midnightblue" points="294.44,-219.28 303.73,-224.37 299.64,-214.59 294.44,-219.28"/>
</g>
<!-- Node8 -->
<g id="node8" class="node">
<title>Node8</title>
<g id="a_node8"><a xlink:href="_field_info_8h.xhtml" target="_top" xlink:title=" ">
<polygon fill="none" stroke="black" points="0,-168.5 0,-187.5 105,-187.5 105,-168.5 0,-168.5"/>
<text text-anchor="middle" x="52.5" y="-175.5" font-family="Helvetica,sans-Serif" font-size="10.00">include/FieldInfo.h</text>
</a>
</g>
</g>
<!-- Node2&#45;&gt;Node8 -->
<g id="edge8" class="edge">
<title>Node2&#45;&gt;Node8</title>
<path fill="none" stroke="midnightblue" d="M260.4,-222.35C211.45,-212.14 138.55,-196.94 93.35,-187.52"/>
<polygon fill="midnightblue" stroke="midnightblue" points="259.96,-225.83 270.46,-224.44 261.39,-218.98 259.96,-225.83"/>
</g>
<!-- Node2&#45;&gt;Node10 -->
<g id="edge17" class="edge">
<title>Node2&#45;&gt;Node10</title>
<path fill="none" stroke="midnightblue" d="M361.2,-221.55C382.62,-214.65 406.76,-204.01 424.5,-188 441.9,-172.3 451.85,-145.59 456.07,-131.81"/>
<polygon fill="midnightblue" stroke="midnightblue" points="360.15,-218.22 351.59,-224.47 362.18,-224.92 360.15,-218.22"/>
</g>
<!-- Node11 -->
<g id="node11" class="node">
<title>Node11</title>
<g id="a_node11"><a xlink:href="_method_info_8h.xhtml" target="_top" xlink:title=" ">
<polygon fill="none" stroke="black" points="296,-168.5 296,-187.5 415,-187.5 415,-168.5 296,-168.5"/>
<text text-anchor="middle" x="355.5" y="-175.5" font-family="Helvetica,sans-Serif" font-size="10.00">include/MethodInfo.h</text>
</a>
</g>
</g>
<!-- Node2&#45;&gt;Node11 -->
<g id="edge12" class="edge">
<title>Node2&#45;&gt;Node11</title>
<path fill="none" stroke="midnightblue" d="M325.23,-216.14C332.9,-206.74 342.13,-195.4 348.37,-187.75"/>
<polygon fill="midnightblue" stroke="midnightblue" points="322.37,-214.12 318.77,-224.08 327.8,-218.54 322.37,-214.12"/>
</g>
<!-- Node13 -->
<g id="node13" class="node">
<title>Node13</title>
<g id="a_node13"><a xlink:href="_attribute_info_8cpp.xhtml" target="_top" xlink:title=" ">
<polygon fill="none" stroke="black" points="123.5,-168.5 123.5,-187.5 239.5,-187.5 239.5,-168.5 123.5,-168.5"/>
<text text-anchor="middle" x="181.5" y="-175.5" font-family="Helvetica,sans-Serif" font-size="10.00">src/AttributeInfo.cpp</text>
</a>
</g>
</g>
<!-- Node2&#45;&gt;Node13 -->
<g id="edge16" class="edge">
<title>Node2&#45;&gt;Node13</title>
<path fill="none" stroke="midnightblue" d="M281.41,-220.5C257.04,-210.38 223.36,-196.39 202,-187.52"/>
<polygon fill="midnightblue" stroke="midnightblue" points="280.32,-223.84 290.9,-224.44 283.01,-217.38 280.32,-223.84"/>
</g>
<!-- Node4 -->
<g id="node4" class="node">
<title>Node4</title>
<g id="a_node4"><a xlink:href="_display_8h.xhtml" target="_top" xlink:title=" ">
<polygon fill="none" stroke="black" points="105,-56.5 105,-75.5 204,-75.5 204,-56.5 105,-56.5"/>
<text text-anchor="middle" x="154.5" y="-63.5" font-family="Helvetica,sans-Serif" font-size="10.00">include/Display.h</text>
</a>
</g>
</g>
<!-- Node3&#45;&gt;Node4 -->
<g id="edge3" class="edge">
<title>Node3&#45;&gt;Node4</title>
<path fill="none" stroke="midnightblue" d="M195.59,-105.25C185.3,-95.67 172.53,-83.79 163.99,-75.83"/>
<polygon fill="midnightblue" stroke="midnightblue" points="193.48,-108.07 203.18,-112.32 198.25,-102.95 193.48,-108.07"/>
</g>
<!-- Node5 -->
<g id="node5" class="node">
<title>Node5</title>
<g id="a_node5"><a xlink:href="_display_8cpp.xhtml" target="_top" xlink:title=" ">
<polygon fill="none" stroke="black" points="71,-0.5 71,-19.5 160,-19.5 160,-0.5 71,-0.5"/>
<text text-anchor="middle" x="115.5" y="-7.5" font-family="Helvetica,sans-Serif" font-size="10.00">src/Display.cpp</text>
</a>
</g>
</g>
<!-- Node3&#45;&gt;Node5 -->
<g id="edge6" class="edge">
<title>Node3&#45;&gt;Node5</title>
<path fill="none" stroke="midnightblue" d="M149.19,-111.33C128.6,-104.85 107.89,-94.04 95.5,-76 83.33,-58.29 98.58,-32.91 108.4,-19.71"/>
<polygon fill="midnightblue" stroke="midnightblue" points="148.35,-114.73 158.92,-114.09 150.26,-108 148.35,-114.73"/>
</g>
<!-- Node6 -->
<g id="node6" class="node">
<title>Node6</title>
<g id="a_node6"><a xlink:href="_class_file_8cpp.xhtml" target="_top" xlink:title=" ">
<polygon fill="none" stroke="black" points="222,-56.5 222,-75.5 319,-75.5 319,-56.5 222,-56.5"/>
<text text-anchor="middle" x="270.5" y="-63.5" font-family="Helvetica,sans-Serif" font-size="10.00">src/ClassFile.cpp</text>
</a>
</g>
</g>
<!-- Node3&#45;&gt;Node6 -->
<g id="edge5" class="edge">
<title>Node3&#45;&gt;Node6</title>
<path fill="none" stroke="midnightblue" d="M229.41,-105.25C239.7,-95.67 252.47,-83.79 261.01,-75.83"/>
<polygon fill="midnightblue" stroke="midnightblue" points="226.75,-102.95 221.82,-112.32 231.52,-108.07 226.75,-102.95"/>
</g>
<!-- Node7 -->
<g id="node7" class="node">
<title>Node7</title>
<g id="a_node7"><a xlink:href="main_8cpp.xhtml" target="_top" xlink:title=" ">
<polygon fill="none" stroke="black" points="337,-56.5 337,-75.5 416,-75.5 416,-56.5 337,-56.5"/>
<text text-anchor="middle" x="376.5" y="-63.5" font-family="Helvetica,sans-Serif" font-size="10.00">src/main.cpp</text>
</a>
</g>
</g>
<!-- Node3&#45;&gt;Node7 -->
<g id="edge7" class="edge">
<title>Node3&#45;&gt;Node7</title>
<path fill="none" stroke="midnightblue" d="M248.02,-109.3C278.92,-99.13 322.97,-84.62 350.64,-75.52"/>
<polygon fill="midnightblue" stroke="midnightblue" points="246.89,-105.99 238.49,-112.44 249.08,-112.64 246.89,-105.99"/>
</g>
<!-- Node4&#45;&gt;Node5 -->
<g id="edge4" class="edge">
<title>Node4&#45;&gt;Node5</title>
<path fill="none" stroke="midnightblue" d="M142.12,-47.86C135.36,-38.5 127.29,-27.33 121.82,-19.75"/>
<polygon fill="midnightblue" stroke="midnightblue" points="139.37,-50.03 148.06,-56.08 145.04,-45.93 139.37,-50.03"/>
</g>
<!-- Node8&#45;&gt;Node3 -->
<g id="edge9" class="edge">
<title>Node8&#45;&gt;Node3</title>
<path fill="none" stroke="midnightblue" d="M87.55,-165.17C117.67,-155 160.4,-140.59 187.27,-131.52"/>
<polygon fill="midnightblue" stroke="midnightblue" points="86.21,-161.93 77.85,-168.44 88.45,-168.56 86.21,-161.93"/>
</g>
<!-- Node9 -->
<g id="node9" class="node">
<title>Node9</title>
<g id="a_node9"><a xlink:href="_field_info_8cpp.xhtml" target="_top" xlink:title=" ">
<polygon fill="none" stroke="black" points="5,-112.5 5,-131.5 100,-131.5 100,-112.5 5,-112.5"/>
<text text-anchor="middle" x="52.5" y="-119.5" font-family="Helvetica,sans-Serif" font-size="10.00">src/FieldInfo.cpp</text>
</a>
</g>
</g>
<!-- Node8&#45;&gt;Node9 -->
<g id="edge10" class="edge">
<title>Node8&#45;&gt;Node9</title>
<path fill="none" stroke="midnightblue" d="M52.5,-157.8C52.5,-148.91 52.5,-138.78 52.5,-131.75"/>
<polygon fill="midnightblue" stroke="midnightblue" points="49,-158.08 52.5,-168.08 56,-158.08 49,-158.08"/>
</g>
<!-- Node8&#45;&gt;Node10 -->
<g id="edge11" class="edge">
<title>Node8&#45;&gt;Node10</title>
<path fill="none" stroke="midnightblue" d="M115.53,-167.89C244.49,-150.68 278.64,-149.99 403.5,-132 406.56,-131.56 409.72,-131.09 412.9,-130.6"/>
<polygon fill="midnightblue" stroke="midnightblue" points="114.7,-164.47 105.26,-169.27 115.63,-171.41 114.7,-164.47"/>
</g>
<!-- Node11&#45;&gt;Node3 -->
<g id="edge13" class="edge">
<title>Node11&#45;&gt;Node3</title>
<path fill="none" stroke="midnightblue" d="M323.47,-164.91C296.59,-154.75 258.86,-140.51 235.05,-131.52"/>
<polygon fill="midnightblue" stroke="midnightblue" points="322.25,-168.19 332.84,-168.44 324.72,-161.64 322.25,-168.19"/>
</g>
<!-- Node11&#45;&gt;Node10 -->
<g id="edge15" class="edge">
<title>Node11&#45;&gt;Node10</title>
<path fill="none" stroke="midnightblue" d="M381.08,-163.59C400.12,-153.61 425.56,-140.27 441.99,-131.65"/>
<polygon fill="midnightblue" stroke="midnightblue" points="379.28,-160.58 372.05,-168.32 382.53,-166.78 379.28,-160.58"/>
</g>
<!-- Node12 -->
<g id="node12" class="node">
<title>Node12</title>
<g id="a_node12"><a xlink:href="_method_info_8cpp.xhtml" target="_top" xlink:title=" ">
<polygon fill="none" stroke="black" points="284.5,-112.5 284.5,-131.5 394.5,-131.5 394.5,-112.5 284.5,-112.5"/>
<text text-anchor="middle" x="339.5" y="-119.5" font-family="Helvetica,sans-Serif" font-size="10.00">src/MethodInfo.cpp</text>
</a>
</g>
</g>
<!-- Node11&#45;&gt;Node12 -->
<g id="edge14" class="edge">
<title>Node11&#45;&gt;Node12</title>
<path fill="none" stroke="midnightblue" d="M349.99,-158.4C347.31,-149.36 344.22,-138.94 342.09,-131.75"/>
<polygon fill="midnightblue" stroke="midnightblue" points="346.66,-159.49 352.86,-168.08 353.37,-157.5 346.66,-159.49"/>
</g>
</g>
</svg>
