<?xml version="1.0" encoding="UTF-8" standalone="no"?>
<!DOCTYPE svg PUBLIC "-//W3C//DTD SVG 1.1//EN"
 "http://www.w3.org/Graphics/SVG/1.1/DTD/svg11.dtd">
<!-- Generated by graphviz version 2.43.0 (0)
 -->
<!-- Title: InnerClasses Pages: 1 -->
<svg width="491pt" height="331pt"
 viewBox="0.00 0.00 490.50 331.00" xmlns="http://www.w3.org/2000/svg" xmlns:xlink="http://www.w3.org/1999/xlink">
<g id="graph0" class="graph" transform="scale(1 1) rotate(0) translate(4 327)">
<title>InnerClasses</title>
<!-- Node1 -->
<g id="node1" class="node">
<title>Node1</title>
<g id="a_node1"><a xlink:title=" ">
<polygon fill="#bfbfbf" stroke="black" points="128,-0.5 128,-68.5 226,-68.5 226,-0.5 128,-0.5"/>
<text text-anchor="middle" x="177" y="-56.5" font-family="Helvetica,sans-Serif" font-size="10.00">InnerClasses</text>
<polyline fill="none" stroke="black" points="128,-49.5 226,-49.5 "/>
<text text-anchor="middle" x="177" y="-37.5" font-family="Helvetica,sans-Serif" font-size="10.00"> </text>
<polyline fill="none" stroke="black" points="128,-30.5 226,-30.5 "/>
<text text-anchor="start" x="136" y="-18.5" font-family="Helvetica,sans-Serif" font-size="10.00">+ InnerClasses()</text>
<text text-anchor="start" x="136" y="-7.5" font-family="Helvetica,sans-Serif" font-size="10.00">+ print()</text>
</a>
</g>
</g>
<!-- Node2 -->
<g id="node2" class="node">
<title>Node2</title>
<g id="a_node2"><a xlink:href="class_attribute_info.xhtml" target="_top" xlink:title="Classe base a ser herdada pelas classes das entradas do vetor Attributes, contendo membros gerais.">
<polygon fill="none" stroke="black" points="128.5,-116.5 128.5,-217.5 225.5,-217.5 225.5,-116.5 128.5,-116.5"/>
<text text-anchor="middle" x="177" y="-205.5" font-family="Helvetica,sans-Serif" font-size="10.00">AttributeInfo</text>
<polyline fill="none" stroke="black" points="128.5,-198.5 225.5,-198.5 "/>
<text text-anchor="middle" x="177" y="-186.5" font-family="Helvetica,sans-Serif" font-size="10.00"> </text>
<polyline fill="none" stroke="black" points="128.5,-179.5 225.5,-179.5 "/>
<text text-anchor="start" x="136.5" y="-167.5" font-family="Helvetica,sans-Serif" font-size="10.00">+ AttributeInfo()</text>
<text text-anchor="start" x="136.5" y="-156.5" font-family="Helvetica,sans-Serif" font-size="10.00">+ AttributeInfo()</text>
<text text-anchor="start" x="136.5" y="-145.5" font-family="Helvetica,sans-Serif" font-size="10.00">+ generalInfo()</text>
<text text-anchor="start" x="136.5" y="-134.5" font-family="Helvetica,sans-Serif" font-size="10.00">+ print()</text>
<text text-anchor="start" x="136.5" y="-123.5" font-family="Helvetica,sans-Serif" font-size="10.00">+ print()</text>
</a>
</g>
</g>
<!-- Node2&#45;&gt;Node1 -->
<g id="edge1" class="edge">
<title>Node2&#45;&gt;Node1</title>
<path fill="none" stroke="midnightblue" d="M177,-106.03C177,-93.12 177,-79.93 177,-68.51"/>
<polygon fill="none" stroke="midnightblue" points="173.5,-106.29 177,-116.29 180.5,-106.29 173.5,-106.29"/>
</g>
<!-- Node3 -->
<g id="node3" class="node">
<title>Node3</title>
<g id="a_node3"><a xlink:title=" ">
<polygon fill="none" stroke="#bfbfbf" points="0,-265.5 0,-322.5 56,-322.5 56,-265.5 0,-265.5"/>
<text text-anchor="middle" x="28" y="-310.5" font-family="Helvetica,sans-Serif" font-size="10.00">uint16_t</text>
<polyline fill="none" stroke="#bfbfbf" points="0,-303.5 56,-303.5 "/>
<text text-anchor="middle" x="28" y="-291.5" font-family="Helvetica,sans-Serif" font-size="10.00"> </text>
<polyline fill="none" stroke="#bfbfbf" points="0,-284.5 56,-284.5 "/>
<text text-anchor="middle" x="28" y="-272.5" font-family="Helvetica,sans-Serif" font-size="10.00"> </text>
</a>
</g>
</g>
<!-- Node3&#45;&gt;Node1 -->
<g id="edge5" class="edge">
<title>Node3&#45;&gt;Node1</title>
<path fill="none" stroke="#404040" d="M18.13,-265.49C6.71,-228.55 -7.16,-162.22 21,-116 41.64,-82.13 81.62,-61.89 115.93,-50.18"/>
<polygon fill="none" stroke="#404040" points="116.36,-50.04 120.86,-44.4 127.79,-46.38 123.3,-52.02 116.36,-50.04"/>
<text text-anchor="middle" x="70" y="-164.5" font-family="Helvetica,sans-Serif" font-size="10.00"> +numberOfClasses</text>
</g>
<!-- Node3&#45;&gt;Node2 -->
<g id="edge2" class="edge">
<title>Node3&#45;&gt;Node2</title>
<path fill="none" stroke="#404040" d="M40.13,-265.22C45.81,-254.87 53.45,-243.77 63,-236 81.32,-221.1 92.32,-229.41 113,-218 114.78,-217.02 116.57,-215.98 118.35,-214.91"/>
<polygon fill="none" stroke="#404040" points="118.38,-214.89 121.26,-208.28 128.47,-208.4 125.59,-215.01 118.38,-214.89"/>
<text text-anchor="middle" x="118" y="-239" font-family="Helvetica,sans-Serif" font-size="10.00"> +attributeNameIndex</text>
</g>
<!-- Node4 -->
<g id="node4" class="node">
<title>Node4</title>
<g id="a_node4"><a xlink:title=" ">
<polygon fill="none" stroke="#bfbfbf" points="149,-265.5 149,-322.5 205,-322.5 205,-265.5 149,-265.5"/>
<text text-anchor="middle" x="177" y="-310.5" font-family="Helvetica,sans-Serif" font-size="10.00">uint32_t</text>
<polyline fill="none" stroke="#bfbfbf" points="149,-303.5 205,-303.5 "/>
<text text-anchor="middle" x="177" y="-291.5" font-family="Helvetica,sans-Serif" font-size="10.00"> </text>
<polyline fill="none" stroke="#bfbfbf" points="149,-284.5 205,-284.5 "/>
<text text-anchor="middle" x="177" y="-272.5" font-family="Helvetica,sans-Serif" font-size="10.00"> </text>
</a>
</g>
</g>
<!-- Node4&#45;&gt;Node2 -->
<g id="edge3" class="edge">
<title>Node4&#45;&gt;Node2</title>
<path fill="none" stroke="#404040" d="M177,-265.26C177,-254.79 177,-242.42 177,-230.07"/>
<polygon fill="none" stroke="#404040" points="177,-229.8 173,-223.8 177,-217.8 181,-223.8 177,-229.8"/>
<text text-anchor="middle" x="220.5" y="-239" font-family="Helvetica,sans-Serif" font-size="10.00"> +attributeLength</text>
</g>
<!-- Node5 -->
<g id="node5" class="node">
<title>Node5</title>
<g id="a_node5"><a xlink:title=" ">
<polygon fill="none" stroke="#bfbfbf" points="265,-265.5 265,-322.5 309,-322.5 309,-265.5 265,-265.5"/>
<text text-anchor="middle" x="287" y="-310.5" font-family="Helvetica,sans-Serif" font-size="10.00">string</text>
<polyline fill="none" stroke="#bfbfbf" points="265,-303.5 309,-303.5 "/>
<text text-anchor="middle" x="287" y="-291.5" font-family="Helvetica,sans-Serif" font-size="10.00"> </text>
<polyline fill="none" stroke="#bfbfbf" points="265,-284.5 309,-284.5 "/>
<text text-anchor="middle" x="287" y="-272.5" font-family="Helvetica,sans-Serif" font-size="10.00"> </text>
</a>
</g>
</g>
<!-- Node5&#45;&gt;Node2 -->
<g id="edge4" class="edge">
<title>Node5&#45;&gt;Node2</title>
<path fill="none" stroke="#404040" d="M279.72,-265.35C276.27,-255.49 271.47,-244.67 265,-236 256.7,-224.87 246.12,-214.62 235.19,-205.64"/>
<polygon fill="none" stroke="#404040" points="234.99,-205.49 227.8,-204.94 225.54,-198.09 232.73,-198.64 234.99,-205.49"/>
<text text-anchor="middle" x="292" y="-239" font-family="Helvetica,sans-Serif" font-size="10.00"> +name</text>
</g>
<!-- Node6 -->
<g id="node6" class="node">
<title>Node6</title>
<g id="a_node6"><a xlink:href="class_classes.xhtml" target="_top" xlink:title=" ">
<polygon fill="none" stroke="black" points="305.5,-133 305.5,-201 378.5,-201 378.5,-133 305.5,-133"/>
<text text-anchor="middle" x="342" y="-189" font-family="Helvetica,sans-Serif" font-size="10.00">Classes</text>
<polyline fill="none" stroke="black" points="305.5,-182 378.5,-182 "/>
<text text-anchor="middle" x="342" y="-170" font-family="Helvetica,sans-Serif" font-size="10.00"> </text>
<polyline fill="none" stroke="black" points="305.5,-163 378.5,-163 "/>
<text text-anchor="start" x="313.5" y="-151" font-family="Helvetica,sans-Serif" font-size="10.00">+ Classes()</text>
<text text-anchor="start" x="313.5" y="-140" font-family="Helvetica,sans-Serif" font-size="10.00">+ Classes()</text>
</a>
</g>
</g>
<!-- Node6&#45;&gt;Node1 -->
<g id="edge6" class="edge">
<title>Node6&#45;&gt;Node1</title>
<path fill="none" stroke="#404040" d="M305.38,-137.04C282.75,-119.14 253.37,-95.9 228.42,-76.17"/>
<polygon fill="none" stroke="#404040" points="228.16,-75.96 220.97,-75.38 218.75,-68.52 225.94,-69.1 228.16,-75.96"/>
<text text-anchor="middle" x="279" y="-90" font-family="Helvetica,sans-Serif" font-size="10.00"> +classes</text>
</g>
<!-- Node7 -->
<g id="node7" class="node">
<title>Node7</title>
<g id="a_node7"><a xlink:title=" ">
<polygon fill="none" stroke="#bfbfbf" points="327.5,-265.5 327.5,-322.5 482.5,-322.5 482.5,-265.5 327.5,-265.5"/>
<text text-anchor="middle" x="405" y="-310.5" font-family="Helvetica,sans-Serif" font-size="10.00">std::vector&lt; ClassesInfo * &gt;</text>
<polyline fill="none" stroke="#bfbfbf" points="327.5,-303.5 482.5,-303.5 "/>
<text text-anchor="middle" x="405" y="-291.5" font-family="Helvetica,sans-Serif" font-size="10.00"> </text>
<polyline fill="none" stroke="#bfbfbf" points="327.5,-284.5 482.5,-284.5 "/>
<text text-anchor="middle" x="405" y="-272.5" font-family="Helvetica,sans-Serif" font-size="10.00"> </text>
</a>
</g>
</g>
<!-- Node7&#45;&gt;Node6 -->
<g id="edge7" class="edge">
<title>Node7&#45;&gt;Node6</title>
<path fill="none" stroke="midnightblue" d="M386.36,-256.02C377.64,-238.72 367.34,-218.27 358.85,-201.44"/>
<polygon fill="none" stroke="midnightblue" points="383.39,-257.9 391.02,-265.26 389.64,-254.75 383.39,-257.9"/>
</g>
</g>
</svg>
