<?xml version="1.0" encoding="UTF-8" standalone="no"?>
<!DOCTYPE svg PUBLIC "-//W3C//DTD SVG 1.1//EN"
 "http://www.w3.org/Graphics/SVG/1.1/DTD/svg11.dtd">
<!-- Generated by graphviz version 2.43.0 (0)
 -->
<!-- Title: U2OperandOpcodeCP Pages: 1 -->
<svg width="399pt" height="526pt"
 viewBox="0.00 0.00 398.50 526.00" xmlns="http://www.w3.org/2000/svg" xmlns:xlink="http://www.w3.org/1999/xlink">
<g id="graph0" class="graph" transform="scale(1 1) rotate(0) translate(4 522)">
<title>U2OperandOpcodeCP</title>
<!-- Node1 -->
<g id="node1" class="node">
<title>Node1</title>
<g id="a_node1"><a xlink:title=" ">
<polygon fill="#bfbfbf" stroke="black" points="91,-0.5 91,-68.5 231,-68.5 231,-0.5 91,-0.5"/>
<text text-anchor="middle" x="161" y="-56.5" font-family="Helvetica,sans-Serif" font-size="10.00">U2OperandOpcodeCP</text>
<polyline fill="none" stroke="black" points="91,-49.5 231,-49.5 "/>
<text text-anchor="middle" x="161" y="-37.5" font-family="Helvetica,sans-Serif" font-size="10.00"> </text>
<polyline fill="none" stroke="black" points="91,-30.5 231,-30.5 "/>
<text text-anchor="start" x="99" y="-18.5" font-family="Helvetica,sans-Serif" font-size="10.00">+ getString()</text>
<text text-anchor="start" x="99" y="-7.5" font-family="Helvetica,sans-Serif" font-size="10.00">+ U2OperandOpcodeCP()</text>
</a>
</g>
</g>
<!-- Node2 -->
<g id="node2" class="node">
<title>Node2</title>
<g id="a_node2"><a xlink:href="class_opcode.xhtml" target="_top" xlink:title="Classe base para Opcodes. Ainda não está pronta para ser uma classe completa para instruções,...">
<polygon fill="none" stroke="black" points="117.5,-106.5 117.5,-196.5 204.5,-196.5 204.5,-106.5 117.5,-106.5"/>
<text text-anchor="middle" x="161" y="-184.5" font-family="Helvetica,sans-Serif" font-size="10.00">Opcode</text>
<polyline fill="none" stroke="black" points="117.5,-177.5 204.5,-177.5 "/>
<text text-anchor="middle" x="161" y="-165.5" font-family="Helvetica,sans-Serif" font-size="10.00"> </text>
<polyline fill="none" stroke="black" points="117.5,-158.5 204.5,-158.5 "/>
<text text-anchor="start" x="125.5" y="-146.5" font-family="Helvetica,sans-Serif" font-size="10.00">+ Opcode()</text>
<text text-anchor="start" x="125.5" y="-135.5" font-family="Helvetica,sans-Serif" font-size="10.00">+ ~Opcode()</text>
<text text-anchor="start" x="125.5" y="-124.5" font-family="Helvetica,sans-Serif" font-size="10.00">+ getString()</text>
<text text-anchor="start" x="125.5" y="-113.5" font-family="Helvetica,sans-Serif" font-size="10.00">+ injectCode()</text>
</a>
</g>
</g>
<!-- Node2&#45;&gt;Node1 -->
<g id="edge1" class="edge">
<title>Node2&#45;&gt;Node1</title>
<path fill="none" stroke="midnightblue" d="M161,-96.23C161,-86.8 161,-77.26 161,-68.62"/>
<polygon fill="none" stroke="midnightblue" points="157.5,-96.37 161,-106.37 164.5,-96.37 157.5,-96.37"/>
</g>
<!-- Node3 -->
<g id="node3" class="node">
<title>Node3</title>
<g id="a_node3"><a xlink:title=" ">
<polygon fill="none" stroke="#bfbfbf" points="0,-310.5 0,-367.5 56,-367.5 56,-310.5 0,-310.5"/>
<text text-anchor="middle" x="28" y="-355.5" font-family="Helvetica,sans-Serif" font-size="10.00">uint32_t</text>
<polyline fill="none" stroke="#bfbfbf" points="0,-348.5 56,-348.5 "/>
<text text-anchor="middle" x="28" y="-336.5" font-family="Helvetica,sans-Serif" font-size="10.00"> </text>
<polyline fill="none" stroke="#bfbfbf" points="0,-329.5 56,-329.5 "/>
<text text-anchor="middle" x="28" y="-317.5" font-family="Helvetica,sans-Serif" font-size="10.00"> </text>
</a>
</g>
</g>
<!-- Node3&#45;&gt;Node2 -->
<g id="edge2" class="edge">
<title>Node3&#45;&gt;Node2</title>
<path fill="none" stroke="#404040" d="M29.93,-310.33C33.02,-283.63 41.07,-243.19 62,-215 73.58,-199.4 90.31,-186.74 106.73,-177"/>
<polygon fill="none" stroke="#404040" points="106.95,-176.88 110.23,-170.45 117.42,-171.01 114.14,-177.43 106.95,-176.88"/>
<text text-anchor="middle" x="87.5" y="-223.5" font-family="Helvetica,sans-Serif" font-size="10.00"> #position</text>
</g>
<!-- Node4 -->
<g id="node4" class="node">
<title>Node4</title>
<g id="a_node4"><a xlink:title=" ">
<polygon fill="none" stroke="#bfbfbf" points="75,-310.5 75,-367.5 125,-367.5 125,-310.5 75,-310.5"/>
<text text-anchor="middle" x="100" y="-355.5" font-family="Helvetica,sans-Serif" font-size="10.00">uint8_t</text>
<polyline fill="none" stroke="#bfbfbf" points="75,-348.5 125,-348.5 "/>
<text text-anchor="middle" x="100" y="-336.5" font-family="Helvetica,sans-Serif" font-size="10.00"> </text>
<polyline fill="none" stroke="#bfbfbf" points="75,-329.5 125,-329.5 "/>
<text text-anchor="middle" x="100" y="-317.5" font-family="Helvetica,sans-Serif" font-size="10.00"> </text>
</a>
</g>
</g>
<!-- Node4&#45;&gt;Node2 -->
<g id="edge3" class="edge">
<title>Node4&#45;&gt;Node2</title>
<path fill="none" stroke="#404040" d="M102.29,-310.36C105.07,-284.9 110.96,-246.45 123,-215 123.96,-212.49 125.02,-209.98 126.16,-207.47"/>
<polygon fill="none" stroke="#404040" points="126.23,-207.31 125.31,-200.16 131.56,-196.56 132.48,-203.72 126.23,-207.31"/>
<text text-anchor="middle" x="140.5" y="-223.5" font-family="Helvetica,sans-Serif" font-size="10.00"> #code</text>
</g>
<!-- Node5 -->
<g id="node5" class="node">
<title>Node5</title>
<g id="a_node5"><a xlink:title=" ">
<polygon fill="none" stroke="#bfbfbf" points="143,-310.5 143,-367.5 187,-367.5 187,-310.5 143,-310.5"/>
<text text-anchor="middle" x="165" y="-355.5" font-family="Helvetica,sans-Serif" font-size="10.00">string</text>
<polyline fill="none" stroke="#bfbfbf" points="143,-348.5 187,-348.5 "/>
<text text-anchor="middle" x="165" y="-336.5" font-family="Helvetica,sans-Serif" font-size="10.00"> </text>
<polyline fill="none" stroke="#bfbfbf" points="143,-329.5 187,-329.5 "/>
<text text-anchor="middle" x="165" y="-317.5" font-family="Helvetica,sans-Serif" font-size="10.00"> </text>
</a>
</g>
</g>
<!-- Node5&#45;&gt;Node2 -->
<g id="edge4" class="edge">
<title>Node5&#45;&gt;Node2</title>
<path fill="none" stroke="#404040" d="M164.04,-310.14C163.37,-289.86 162.51,-261.73 162,-237 161.81,-227.92 161.66,-218.3 161.53,-208.92"/>
<polygon fill="none" stroke="#404040" points="161.53,-208.79 157.45,-202.85 161.38,-196.8 165.45,-202.75 161.53,-208.79"/>
<text text-anchor="middle" x="182" y="-223.5" font-family="Helvetica,sans-Serif" font-size="10.00"> #name</text>
</g>
<!-- Node6 -->
<g id="node6" class="node">
<title>Node6</title>
<g id="a_node6"><a xlink:title=" ">
<polygon fill="none" stroke="#bfbfbf" points="205,-310.5 205,-367.5 243,-367.5 243,-310.5 205,-310.5"/>
<text text-anchor="middle" x="224" y="-355.5" font-family="Helvetica,sans-Serif" font-size="10.00">bool</text>
<polyline fill="none" stroke="#bfbfbf" points="205,-348.5 243,-348.5 "/>
<text text-anchor="middle" x="224" y="-336.5" font-family="Helvetica,sans-Serif" font-size="10.00"> </text>
<polyline fill="none" stroke="#bfbfbf" points="205,-329.5 243,-329.5 "/>
<text text-anchor="middle" x="224" y="-317.5" font-family="Helvetica,sans-Serif" font-size="10.00"> </text>
</a>
</g>
</g>
<!-- Node6&#45;&gt;Node2 -->
<g id="edge5" class="edge">
<title>Node6&#45;&gt;Node2</title>
<path fill="none" stroke="#404040" d="M222.24,-310.26C219.88,-284.74 214.43,-246.24 202,-215 201.01,-212.5 199.9,-210 198.72,-207.51"/>
<polygon fill="none" stroke="#404040" points="198.63,-207.34 192.3,-203.89 193.06,-196.72 199.39,-200.17 198.63,-207.34"/>
<text text-anchor="middle" x="243" y="-229" font-family="Helvetica,sans-Serif" font-size="10.00"> +knowsCode</text>
<text text-anchor="middle" x="243" y="-218" font-family="Helvetica,sans-Serif" font-size="10.00">+knowsCp</text>
</g>
<!-- Node7 -->
<g id="node7" class="node">
<title>Node7</title>
<g id="a_node7"><a xlink:href="class_constant_pool.xhtml" target="_top" xlink:title="Vetor (tabela) das constantes. Cada entrada é do tipo Cpinfo.">
<polygon fill="none" stroke="black" points="261.5,-255.5 261.5,-422.5 390.5,-422.5 390.5,-255.5 261.5,-255.5"/>
<text text-anchor="middle" x="326" y="-410.5" font-family="Helvetica,sans-Serif" font-size="10.00">ConstantPool</text>
<polyline fill="none" stroke="black" points="261.5,-403.5 390.5,-403.5 "/>
<text text-anchor="middle" x="326" y="-391.5" font-family="Helvetica,sans-Serif" font-size="10.00"> </text>
<polyline fill="none" stroke="black" points="261.5,-384.5 390.5,-384.5 "/>
<text text-anchor="start" x="269.5" y="-372.5" font-family="Helvetica,sans-Serif" font-size="10.00">+ ConstantPool()</text>
<text text-anchor="start" x="269.5" y="-361.5" font-family="Helvetica,sans-Serif" font-size="10.00">+ ConstantPool()</text>
<text text-anchor="start" x="269.5" y="-350.5" font-family="Helvetica,sans-Serif" font-size="10.00">+ print()</text>
<text text-anchor="start" x="269.5" y="-339.5" font-family="Helvetica,sans-Serif" font-size="10.00">+ Bytes2Str()</text>
<text text-anchor="start" x="269.5" y="-328.5" font-family="Helvetica,sans-Serif" font-size="10.00">+ getUtf8Str()</text>
<text text-anchor="start" x="269.5" y="-317.5" font-family="Helvetica,sans-Serif" font-size="10.00">+ getUtf8Class()</text>
<text text-anchor="start" x="269.5" y="-306.5" font-family="Helvetica,sans-Serif" font-size="10.00">+ getDescriptor()</text>
<text text-anchor="start" x="269.5" y="-295.5" font-family="Helvetica,sans-Serif" font-size="10.00">+ getNNameAndType()</text>
<text text-anchor="start" x="269.5" y="-284.5" font-family="Helvetica,sans-Serif" font-size="10.00">+ getFloat()</text>
<text text-anchor="start" x="269.5" y="-273.5" font-family="Helvetica,sans-Serif" font-size="10.00">+ getLong()</text>
<text text-anchor="start" x="269.5" y="-262.5" font-family="Helvetica,sans-Serif" font-size="10.00">+ getDouble()</text>
</a>
</g>
</g>
<!-- Node7&#45;&gt;Node2 -->
<g id="edge6" class="edge">
<title>Node7&#45;&gt;Node2</title>
<path fill="none" stroke="#404040" d="M305.35,-255.22C299.16,-240.74 291.2,-226.62 281,-215 263.7,-195.3 238.66,-180.89 215.93,-170.91"/>
<polygon fill="none" stroke="#404040" points="215.74,-170.83 208.66,-172.22 204.66,-166.23 211.73,-164.84 215.74,-170.83"/>
<text text-anchor="middle" x="307.5" y="-223.5" font-family="Helvetica,sans-Serif" font-size="10.00"> #cp</text>
</g>
<!-- Node8 -->
<g id="node8" class="node">
<title>Node8</title>
<g id="a_node8"><a xlink:title=" ">
<polygon fill="none" stroke="#bfbfbf" points="265,-460.5 265,-517.5 387,-517.5 387,-460.5 265,-460.5"/>
<text text-anchor="middle" x="326" y="-505.5" font-family="Helvetica,sans-Serif" font-size="10.00">std::vector&lt; Cpinfo &gt;</text>
<polyline fill="none" stroke="#bfbfbf" points="265,-498.5 387,-498.5 "/>
<text text-anchor="middle" x="326" y="-486.5" font-family="Helvetica,sans-Serif" font-size="10.00"> </text>
<polyline fill="none" stroke="#bfbfbf" points="265,-479.5 387,-479.5 "/>
<text text-anchor="middle" x="326" y="-467.5" font-family="Helvetica,sans-Serif" font-size="10.00"> </text>
</a>
</g>
</g>
<!-- Node8&#45;&gt;Node7 -->
<g id="edge7" class="edge">
<title>Node8&#45;&gt;Node7</title>
<path fill="none" stroke="midnightblue" d="M326,-449.93C326,-441.46 326,-432.17 326,-422.68"/>
<polygon fill="none" stroke="midnightblue" points="322.5,-450.16 326,-460.16 329.5,-450.16 322.5,-450.16"/>
</g>
</g>
</svg>
