<?xml version="1.0" encoding="UTF-8" standalone="no"?>
<!DOCTYPE svg PUBLIC "-//W3C//DTD SVG 1.1//EN"
 "http://www.w3.org/Graphics/SVG/1.1/DTD/svg11.dtd">
<!-- Generated by graphviz version 2.43.0 (0)
 -->
<!-- Title: Code Pages: 1 -->
<svg width="791pt" height="342pt"
 viewBox="0.00 0.00 790.50 342.00" xmlns="http://www.w3.org/2000/svg" xmlns:xlink="http://www.w3.org/1999/xlink">
<g id="graph0" class="graph" transform="scale(1 1) rotate(0) translate(4 338)">
<title>Code</title>
<!-- Node1 -->
<g id="node1" class="node">
<title>Node1</title>
<g id="a_node1"><a xlink:title=" ">
<polygon fill="#bfbfbf" stroke="black" points="364,-0.5 364,-68.5 424,-68.5 424,-0.5 364,-0.5"/>
<text text-anchor="middle" x="394" y="-56.5" font-family="Helvetica,sans-Serif" font-size="10.00">Code</text>
<polyline fill="none" stroke="black" points="364,-49.5 424,-49.5 "/>
<text text-anchor="middle" x="394" y="-37.5" font-family="Helvetica,sans-Serif" font-size="10.00"> </text>
<polyline fill="none" stroke="black" points="364,-30.5 424,-30.5 "/>
<text text-anchor="start" x="372" y="-18.5" font-family="Helvetica,sans-Serif" font-size="10.00">+ Code()</text>
<text text-anchor="start" x="372" y="-7.5" font-family="Helvetica,sans-Serif" font-size="10.00">+ print()</text>
</a>
</g>
</g>
<!-- Node2 -->
<g id="node2" class="node">
<title>Node2</title>
<g id="a_node2"><a xlink:href="class_attribute_info.xhtml" target="_top" xlink:title="Classe base a ser herdada pelas classes das entradas do vetor Attributes, contendo membros gerais.">
<polygon fill="none" stroke="black" points="168.5,-116.5 168.5,-217.5 265.5,-217.5 265.5,-116.5 168.5,-116.5"/>
<text text-anchor="middle" x="217" y="-205.5" font-family="Helvetica,sans-Serif" font-size="10.00">AttributeInfo</text>
<polyline fill="none" stroke="black" points="168.5,-198.5 265.5,-198.5 "/>
<text text-anchor="middle" x="217" y="-186.5" font-family="Helvetica,sans-Serif" font-size="10.00"> </text>
<polyline fill="none" stroke="black" points="168.5,-179.5 265.5,-179.5 "/>
<text text-anchor="start" x="176.5" y="-167.5" font-family="Helvetica,sans-Serif" font-size="10.00">+ AttributeInfo()</text>
<text text-anchor="start" x="176.5" y="-156.5" font-family="Helvetica,sans-Serif" font-size="10.00">+ AttributeInfo()</text>
<text text-anchor="start" x="176.5" y="-145.5" font-family="Helvetica,sans-Serif" font-size="10.00">+ generalInfo()</text>
<text text-anchor="start" x="176.5" y="-134.5" font-family="Helvetica,sans-Serif" font-size="10.00">+ print()</text>
<text text-anchor="start" x="176.5" y="-123.5" font-family="Helvetica,sans-Serif" font-size="10.00">+ print()</text>
</a>
</g>
</g>
<!-- Node2&#45;&gt;Node1 -->
<g id="edge1" class="edge">
<title>Node2&#45;&gt;Node1</title>
<path fill="none" stroke="midnightblue" d="M274.11,-123.9C304,-101.86 339.38,-75.77 363.92,-57.68"/>
<polygon fill="none" stroke="midnightblue" points="271.81,-121.24 265.83,-129.99 275.96,-126.88 271.81,-121.24"/>
</g>
<!-- Node3 -->
<g id="node3" class="node">
<title>Node3</title>
<g id="a_node3"><a xlink:title=" ">
<polygon fill="none" stroke="#bfbfbf" points="0,-271 0,-328 56,-328 56,-271 0,-271"/>
<text text-anchor="middle" x="28" y="-316" font-family="Helvetica,sans-Serif" font-size="10.00">uint16_t</text>
<polyline fill="none" stroke="#bfbfbf" points="0,-309 56,-309 "/>
<text text-anchor="middle" x="28" y="-297" font-family="Helvetica,sans-Serif" font-size="10.00"> </text>
<polyline fill="none" stroke="#bfbfbf" points="0,-290 56,-290 "/>
<text text-anchor="middle" x="28" y="-278" font-family="Helvetica,sans-Serif" font-size="10.00"> </text>
</a>
</g>
</g>
<!-- Node3&#45;&gt;Node1 -->
<g id="edge5" class="edge">
<title>Node3&#45;&gt;Node1</title>
<path fill="none" stroke="#404040" d="M21.39,-270.89C13.74,-231.46 6.52,-159.07 44,-116 84.1,-69.92 267.86,-47.22 351.87,-39.1"/>
<polygon fill="none" stroke="#404040" points="352.04,-39.09 357.64,-34.55 363.99,-37.97 358.39,-42.51 352.04,-39.09"/>
<text text-anchor="middle" x="101.5" y="-181" font-family="Helvetica,sans-Serif" font-size="10.00"> +attributesCount</text>
<text text-anchor="middle" x="101.5" y="-170" font-family="Helvetica,sans-Serif" font-size="10.00">+exceptionTableLength</text>
<text text-anchor="middle" x="101.5" y="-159" font-family="Helvetica,sans-Serif" font-size="10.00">+maxLocals</text>
<text text-anchor="middle" x="101.5" y="-148" font-family="Helvetica,sans-Serif" font-size="10.00">+maxStack</text>
</g>
<!-- Node3&#45;&gt;Node2 -->
<g id="edge2" class="edge">
<title>Node3&#45;&gt;Node2</title>
<path fill="none" stroke="#404040" d="M37.27,-270.81C42.69,-258.51 50.73,-244.85 62,-236 86.59,-216.69 101.09,-229.89 130,-218 139.26,-214.19 148.76,-209.57 157.91,-204.69"/>
<polygon fill="none" stroke="#404040" points="157.94,-204.67 161.27,-198.28 168.45,-198.89 165.13,-205.28 157.94,-204.67"/>
<text text-anchor="middle" x="117" y="-239" font-family="Helvetica,sans-Serif" font-size="10.00"> +attributeNameIndex</text>
</g>
<!-- Node4 -->
<g id="node4" class="node">
<title>Node4</title>
<g id="a_node4"><a xlink:title=" ">
<polygon fill="none" stroke="#bfbfbf" points="266,-271 266,-328 322,-328 322,-271 266,-271"/>
<text text-anchor="middle" x="294" y="-316" font-family="Helvetica,sans-Serif" font-size="10.00">uint32_t</text>
<polyline fill="none" stroke="#bfbfbf" points="266,-309 322,-309 "/>
<text text-anchor="middle" x="294" y="-297" font-family="Helvetica,sans-Serif" font-size="10.00"> </text>
<polyline fill="none" stroke="#bfbfbf" points="266,-290 322,-290 "/>
<text text-anchor="middle" x="294" y="-278" font-family="Helvetica,sans-Serif" font-size="10.00"> </text>
</a>
</g>
</g>
<!-- Node4&#45;&gt;Node1 -->
<g id="edge6" class="edge">
<title>Node4&#45;&gt;Node1</title>
<path fill="none" stroke="#404040" d="M315.27,-270.78C320.1,-263.38 324.75,-255.16 328,-247 349.85,-192.07 331.72,-171.88 351,-116 355.23,-103.74 361.15,-91.09 367.25,-79.56"/>
<polygon fill="none" stroke="#404040" points="367.33,-79.41 366.71,-72.22 373.1,-68.89 373.72,-76.07 367.33,-79.41"/>
<text text-anchor="middle" x="385" y="-164.5" font-family="Helvetica,sans-Serif" font-size="10.00"> +codeLength</text>
</g>
<!-- Node4&#45;&gt;Node2 -->
<g id="edge3" class="edge">
<title>Node4&#45;&gt;Node2</title>
<path fill="none" stroke="#404040" d="M265.83,-276.13C256.84,-267.8 247.54,-257.74 241,-247 237.6,-241.42 234.64,-235.31 232.09,-229.05"/>
<polygon fill="none" stroke="#404040" points="232.05,-228.96 226.23,-224.71 227.91,-217.69 233.74,-221.94 232.05,-228.96"/>
<text text-anchor="middle" x="284.5" y="-239" font-family="Helvetica,sans-Serif" font-size="10.00"> +attributeLength</text>
</g>
<!-- Node5 -->
<g id="node5" class="node">
<title>Node5</title>
<g id="a_node5"><a xlink:title=" ">
<polygon fill="none" stroke="#bfbfbf" points="155,-271 155,-328 199,-328 199,-271 155,-271"/>
<text text-anchor="middle" x="177" y="-316" font-family="Helvetica,sans-Serif" font-size="10.00">string</text>
<polyline fill="none" stroke="#bfbfbf" points="155,-309 199,-309 "/>
<text text-anchor="middle" x="177" y="-297" font-family="Helvetica,sans-Serif" font-size="10.00"> </text>
<polyline fill="none" stroke="#bfbfbf" points="155,-290 199,-290 "/>
<text text-anchor="middle" x="177" y="-278" font-family="Helvetica,sans-Serif" font-size="10.00"> </text>
</a>
</g>
</g>
<!-- Node5&#45;&gt;Node2 -->
<g id="edge4" class="edge">
<title>Node5&#45;&gt;Node2</title>
<path fill="none" stroke="#404040" d="M174.49,-270.7C174.25,-259.71 174.95,-247.09 178,-236 178.66,-233.59 179.43,-231.18 180.29,-228.77"/>
<polygon fill="none" stroke="#404040" points="180.3,-228.74 178.88,-221.67 184.85,-217.63 186.28,-224.7 180.3,-228.74"/>
<text text-anchor="middle" x="198" y="-239" font-family="Helvetica,sans-Serif" font-size="10.00"> +name</text>
</g>
<!-- Node6 -->
<g id="node6" class="node">
<title>Node6</title>
<g id="a_node6"><a xlink:title=" ">
<polygon fill="none" stroke="#bfbfbf" points="428.5,-138.5 428.5,-195.5 465.5,-195.5 465.5,-138.5 428.5,-138.5"/>
<text text-anchor="middle" x="447" y="-183.5" font-family="Helvetica,sans-Serif" font-size="10.00">u1 *</text>
<polyline fill="none" stroke="#bfbfbf" points="428.5,-176.5 465.5,-176.5 "/>
<text text-anchor="middle" x="447" y="-164.5" font-family="Helvetica,sans-Serif" font-size="10.00"> </text>
<polyline fill="none" stroke="#bfbfbf" points="428.5,-157.5 465.5,-157.5 "/>
<text text-anchor="middle" x="447" y="-145.5" font-family="Helvetica,sans-Serif" font-size="10.00"> </text>
</a>
</g>
</g>
<!-- Node6&#45;&gt;Node1 -->
<g id="edge7" class="edge">
<title>Node6&#45;&gt;Node1</title>
<path fill="none" stroke="#404040" d="M435.76,-138.32C428.88,-121.39 419.93,-99.34 412.07,-80"/>
<polygon fill="none" stroke="#404040" points="411.99,-79.8 406.03,-75.75 407.48,-68.68 413.44,-72.74 411.99,-79.8"/>
<text text-anchor="middle" x="436.5" y="-90" font-family="Helvetica,sans-Serif" font-size="10.00"> +code</text>
</g>
<!-- Node7 -->
<g id="node7" class="node">
<title>Node7</title>
<g id="a_node7"><a xlink:href="class_exception_table.xhtml" target="_top" xlink:title=" ">
<polygon fill="none" stroke="black" points="483.5,-127.5 483.5,-206.5 592.5,-206.5 592.5,-127.5 483.5,-127.5"/>
<text text-anchor="middle" x="538" y="-194.5" font-family="Helvetica,sans-Serif" font-size="10.00">ExceptionTable</text>
<polyline fill="none" stroke="black" points="483.5,-187.5 592.5,-187.5 "/>
<text text-anchor="middle" x="538" y="-175.5" font-family="Helvetica,sans-Serif" font-size="10.00"> </text>
<polyline fill="none" stroke="black" points="483.5,-168.5 592.5,-168.5 "/>
<text text-anchor="start" x="491.5" y="-156.5" font-family="Helvetica,sans-Serif" font-size="10.00">+ ExceptionTable()</text>
<text text-anchor="start" x="491.5" y="-145.5" font-family="Helvetica,sans-Serif" font-size="10.00">+ ExceptionTable()</text>
<text text-anchor="start" x="491.5" y="-134.5" font-family="Helvetica,sans-Serif" font-size="10.00">+ print()</text>
</a>
</g>
</g>
<!-- Node7&#45;&gt;Node1 -->
<g id="edge8" class="edge">
<title>Node7&#45;&gt;Node1</title>
<path fill="none" stroke="#404040" d="M500.51,-127.42C487.34,-114.29 472.28,-99.73 458,-87 450.27,-80.11 441.78,-72.98 433.58,-66.31"/>
<polygon fill="none" stroke="#404040" points="433.5,-66.25 426.32,-65.61 424.15,-58.73 431.34,-59.37 433.5,-66.25"/>
<text text-anchor="middle" x="512.5" y="-90" font-family="Helvetica,sans-Serif" font-size="10.00"> +exceptionTable</text>
</g>
<!-- Node8 -->
<g id="node8" class="node">
<title>Node8</title>
<g id="a_node8"><a xlink:title=" ">
<polygon fill="none" stroke="#bfbfbf" points="450.5,-265.5 450.5,-333.5 603.5,-333.5 603.5,-265.5 450.5,-265.5"/>
<text text-anchor="start" x="458.5" y="-321.5" font-family="Helvetica,sans-Serif" font-size="10.00">std::vector&lt; ExceptionTable</text>
<text text-anchor="middle" x="527" y="-310.5" font-family="Helvetica,sans-Serif" font-size="10.00">Info * &gt;</text>
<polyline fill="none" stroke="#bfbfbf" points="450.5,-303.5 603.5,-303.5 "/>
<text text-anchor="middle" x="527" y="-291.5" font-family="Helvetica,sans-Serif" font-size="10.00"> </text>
<polyline fill="none" stroke="#bfbfbf" points="450.5,-284.5 603.5,-284.5 "/>
<text text-anchor="middle" x="527" y="-272.5" font-family="Helvetica,sans-Serif" font-size="10.00"> </text>
</a>
</g>
</g>
<!-- Node8&#45;&gt;Node7 -->
<g id="edge9" class="edge">
<title>Node8&#45;&gt;Node7</title>
<path fill="none" stroke="midnightblue" d="M530.64,-255.26C531.96,-239.6 533.45,-222.02 534.73,-206.77"/>
<polygon fill="none" stroke="midnightblue" points="527.16,-254.97 529.8,-265.23 534.13,-255.56 527.16,-254.97"/>
</g>
<!-- Node9 -->
<g id="node9" class="node">
<title>Node9</title>
<g id="a_node9"><a xlink:href="class_attributes.xhtml" target="_top" xlink:title="Vetor (tabela) dos atributos. Cada entrada é do tipo AttributeInfo.">
<polygon fill="none" stroke="black" points="631,-122 631,-212 753,-212 753,-122 631,-122"/>
<text text-anchor="middle" x="692" y="-200" font-family="Helvetica,sans-Serif" font-size="10.00">Attributes</text>
<polyline fill="none" stroke="black" points="631,-193 753,-193 "/>
<text text-anchor="middle" x="692" y="-181" font-family="Helvetica,sans-Serif" font-size="10.00"> </text>
<polyline fill="none" stroke="black" points="631,-174 753,-174 "/>
<text text-anchor="start" x="639" y="-162" font-family="Helvetica,sans-Serif" font-size="10.00">+ Attributes()</text>
<text text-anchor="start" x="639" y="-151" font-family="Helvetica,sans-Serif" font-size="10.00">+ Attributes()</text>
<text text-anchor="start" x="639" y="-140" font-family="Helvetica,sans-Serif" font-size="10.00">+ getConstantValue()</text>
<text text-anchor="start" x="639" y="-129" font-family="Helvetica,sans-Serif" font-size="10.00">+ print()</text>
</a>
</g>
</g>
<!-- Node9&#45;&gt;Node1 -->
<g id="edge10" class="edge">
<title>Node9&#45;&gt;Node1</title>
<path fill="none" stroke="#404040" d="M630.69,-125.52C608.68,-112.09 583.29,-97.82 559,-87 518.6,-68.99 470.02,-54.65 436.08,-45.72"/>
<polygon fill="none" stroke="#404040" points="435.9,-45.67 429.09,-48.05 424.27,-42.68 431.08,-40.3 435.9,-45.67"/>
<text text-anchor="middle" x="611.5" y="-90" font-family="Helvetica,sans-Serif" font-size="10.00"> +attributes</text>
</g>
<!-- Node10 -->
<g id="node10" class="node">
<title>Node10</title>
<g id="a_node10"><a xlink:title=" ">
<polygon fill="none" stroke="#bfbfbf" points="621.5,-271 621.5,-328 782.5,-328 782.5,-271 621.5,-271"/>
<text text-anchor="middle" x="702" y="-316" font-family="Helvetica,sans-Serif" font-size="10.00">std::vector&lt; AttributeInfo * &gt;</text>
<polyline fill="none" stroke="#bfbfbf" points="621.5,-309 782.5,-309 "/>
<text text-anchor="middle" x="702" y="-297" font-family="Helvetica,sans-Serif" font-size="10.00"> </text>
<polyline fill="none" stroke="#bfbfbf" points="621.5,-290 782.5,-290 "/>
<text text-anchor="middle" x="702" y="-278" font-family="Helvetica,sans-Serif" font-size="10.00"> </text>
</a>
</g>
</g>
<!-- Node10&#45;&gt;Node9 -->
<g id="edge11" class="edge">
<title>Node10&#45;&gt;Node9</title>
<path fill="none" stroke="midnightblue" d="M699.11,-260.73C697.94,-245.52 696.59,-227.86 695.38,-212.07"/>
<polygon fill="none" stroke="midnightblue" points="695.63,-261.12 699.88,-270.82 702.6,-260.59 695.63,-261.12"/>
</g>
</g>
</svg>
