<?xml version="1.0" encoding="UTF-8" standalone="no"?>
<!DOCTYPE svg PUBLIC "-//W3C//DTD SVG 1.1//EN"
 "http://www.w3.org/Graphics/SVG/1.1/DTD/svg11.dtd">
<!-- Generated by graphviz version 2.43.0 (0)
 -->
<!-- Title: AttributeInfo Pages: 1 -->
<svg width="1016pt" height="314pt"
 viewBox="0.00 0.00 1015.50 314.00" xmlns="http://www.w3.org/2000/svg" xmlns:xlink="http://www.w3.org/1999/xlink">
<g id="graph0" class="graph" transform="scale(1 1) rotate(0) translate(4 310)">
<title>AttributeInfo</title>
<!-- Node1 -->
<g id="node1" class="node">
<title>Node1</title>
<g id="a_node1"><a xlink:title="Classe base a ser herdada pelas classes das entradas do vetor Attributes, contendo membros gerais.">
<polygon fill="#bfbfbf" stroke="black" points="436,-182.5 436,-305.5 562,-305.5 562,-182.5 436,-182.5"/>
<text text-anchor="middle" x="499" y="-293.5" font-family="Helvetica,sans-Serif" font-size="10.00">AttributeInfo</text>
<polyline fill="none" stroke="black" points="436,-286.5 562,-286.5 "/>
<text text-anchor="start" x="444" y="-274.5" font-family="Helvetica,sans-Serif" font-size="10.00">+ attributeNameIndex</text>
<text text-anchor="start" x="444" y="-263.5" font-family="Helvetica,sans-Serif" font-size="10.00">+ attributeLength</text>
<text text-anchor="start" x="444" y="-252.5" font-family="Helvetica,sans-Serif" font-size="10.00">+ name</text>
<polyline fill="none" stroke="black" points="436,-245.5 562,-245.5 "/>
<text text-anchor="start" x="444" y="-233.5" font-family="Helvetica,sans-Serif" font-size="10.00">+ AttributeInfo()</text>
<text text-anchor="start" x="444" y="-222.5" font-family="Helvetica,sans-Serif" font-size="10.00">+ AttributeInfo()</text>
<text text-anchor="start" x="444" y="-211.5" font-family="Helvetica,sans-Serif" font-size="10.00">+ generalInfo()</text>
<text text-anchor="start" x="444" y="-200.5" font-family="Helvetica,sans-Serif" font-size="10.00">+ print()</text>
<text text-anchor="start" x="444" y="-189.5" font-family="Helvetica,sans-Serif" font-size="10.00">+ print()</text>
</a>
</g>
</g>
<!-- Node2 -->
<g id="node2" class="node">
<title>Node2</title>
<g id="a_node2"><a xlink:href="class_code.xhtml" target="_top" xlink:title=" ">
<polygon fill="none" stroke="black" points="0,-0.5 0,-145.5 134,-145.5 134,-0.5 0,-0.5"/>
<text text-anchor="middle" x="67" y="-133.5" font-family="Helvetica,sans-Serif" font-size="10.00">Code</text>
<polyline fill="none" stroke="black" points="0,-126.5 134,-126.5 "/>
<text text-anchor="start" x="8" y="-114.5" font-family="Helvetica,sans-Serif" font-size="10.00">+ maxStack</text>
<text text-anchor="start" x="8" y="-103.5" font-family="Helvetica,sans-Serif" font-size="10.00">+ maxLocals</text>
<text text-anchor="start" x="8" y="-92.5" font-family="Helvetica,sans-Serif" font-size="10.00">+ codeLength</text>
<text text-anchor="start" x="8" y="-81.5" font-family="Helvetica,sans-Serif" font-size="10.00">+ code</text>
<text text-anchor="start" x="8" y="-70.5" font-family="Helvetica,sans-Serif" font-size="10.00">+ exceptionTableLength</text>
<text text-anchor="start" x="8" y="-59.5" font-family="Helvetica,sans-Serif" font-size="10.00">+ attributesCount</text>
<text text-anchor="start" x="8" y="-48.5" font-family="Helvetica,sans-Serif" font-size="10.00">+ attributes</text>
<text text-anchor="start" x="8" y="-37.5" font-family="Helvetica,sans-Serif" font-size="10.00">+ exceptionTable</text>
<polyline fill="none" stroke="black" points="0,-30.5 134,-30.5 "/>
<text text-anchor="start" x="8" y="-18.5" font-family="Helvetica,sans-Serif" font-size="10.00">+ Code()</text>
<text text-anchor="start" x="8" y="-7.5" font-family="Helvetica,sans-Serif" font-size="10.00">+ print()</text>
</a>
</g>
</g>
<!-- Node1&#45;&gt;Node2 -->
<g id="edge1" class="edge">
<title>Node1&#45;&gt;Node2</title>
<path fill="none" stroke="midnightblue" d="M425.69,-233.76C350.78,-221.93 232.99,-196.6 143,-146 139.99,-144.31 137.01,-142.47 134.07,-140.52"/>
<polygon fill="none" stroke="midnightblue" points="425.55,-237.28 435.97,-235.34 426.61,-230.36 425.55,-237.28"/>
</g>
<!-- Node3 -->
<g id="node3" class="node">
<title>Node3</title>
<g id="a_node3"><a xlink:href="class_constant_value.xhtml" target="_top" xlink:title="Atributo para uma estrutura de campo (Field) e representa o valor de uma expressão constante....">
<polygon fill="none" stroke="black" points="152,-22.5 152,-123.5 276,-123.5 276,-22.5 152,-22.5"/>
<text text-anchor="middle" x="214" y="-111.5" font-family="Helvetica,sans-Serif" font-size="10.00">ConstantValue&lt; T &gt;</text>
<polyline fill="none" stroke="black" points="152,-104.5 276,-104.5 "/>
<text text-anchor="start" x="160" y="-92.5" font-family="Helvetica,sans-Serif" font-size="10.00">+ value</text>
<text text-anchor="start" x="160" y="-81.5" font-family="Helvetica,sans-Serif" font-size="10.00">+ tagValue</text>
<text text-anchor="start" x="160" y="-70.5" font-family="Helvetica,sans-Serif" font-size="10.00">+ constantvalueIndex</text>
<polyline fill="none" stroke="black" points="152,-63.5 276,-63.5 "/>
<text text-anchor="start" x="160" y="-51.5" font-family="Helvetica,sans-Serif" font-size="10.00">+ ConstantValue()</text>
<text text-anchor="start" x="160" y="-40.5" font-family="Helvetica,sans-Serif" font-size="10.00">+ ConstantValue()</text>
<text text-anchor="start" x="160" y="-29.5" font-family="Helvetica,sans-Serif" font-size="10.00">+ print()</text>
</a>
</g>
</g>
<!-- Node1&#45;&gt;Node3 -->
<g id="edge2" class="edge">
<title>Node1&#45;&gt;Node3</title>
<path fill="none" stroke="midnightblue" d="M426.27,-217.74C383.13,-200.93 328.55,-176.37 285,-146 275.64,-139.47 266.46,-131.62 257.96,-123.53"/>
<polygon fill="none" stroke="midnightblue" points="425.27,-221.1 435.86,-221.42 427.78,-214.57 425.27,-221.1"/>
</g>
<!-- Node4 -->
<g id="node4" class="node">
<title>Node4</title>
<g id="a_node4"><a xlink:href="class_exceptions.xhtml" target="_top" xlink:title=" ">
<polygon fill="none" stroke="black" points="294,-33.5 294,-112.5 424,-112.5 424,-33.5 294,-33.5"/>
<text text-anchor="middle" x="359" y="-100.5" font-family="Helvetica,sans-Serif" font-size="10.00">Exceptions</text>
<polyline fill="none" stroke="black" points="294,-93.5 424,-93.5 "/>
<text text-anchor="start" x="302" y="-81.5" font-family="Helvetica,sans-Serif" font-size="10.00">+ numberOfExceptions</text>
<text text-anchor="start" x="302" y="-70.5" font-family="Helvetica,sans-Serif" font-size="10.00">+ exceptionIndexTable</text>
<polyline fill="none" stroke="black" points="294,-63.5 424,-63.5 "/>
<text text-anchor="start" x="302" y="-51.5" font-family="Helvetica,sans-Serif" font-size="10.00">+ Exceptions()</text>
<text text-anchor="start" x="302" y="-40.5" font-family="Helvetica,sans-Serif" font-size="10.00">+ print()</text>
</a>
</g>
</g>
<!-- Node1&#45;&gt;Node4 -->
<g id="edge3" class="edge">
<title>Node1&#45;&gt;Node4</title>
<path fill="none" stroke="midnightblue" d="M442.45,-174.73C424.9,-153.55 406.18,-130.95 390.93,-112.54"/>
<polygon fill="none" stroke="midnightblue" points="439.78,-177 448.85,-182.46 445.17,-172.53 439.78,-177"/>
</g>
<!-- Node5 -->
<g id="node5" class="node">
<title>Node5</title>
<g id="a_node5"><a xlink:href="class_inner_classes.xhtml" target="_top" xlink:title=" ">
<polygon fill="none" stroke="black" points="442,-33.5 442,-112.5 556,-112.5 556,-33.5 442,-33.5"/>
<text text-anchor="middle" x="499" y="-100.5" font-family="Helvetica,sans-Serif" font-size="10.00">InnerClasses</text>
<polyline fill="none" stroke="black" points="442,-93.5 556,-93.5 "/>
<text text-anchor="start" x="450" y="-81.5" font-family="Helvetica,sans-Serif" font-size="10.00">+ numberOfClasses</text>
<text text-anchor="start" x="450" y="-70.5" font-family="Helvetica,sans-Serif" font-size="10.00">+ classes</text>
<polyline fill="none" stroke="black" points="442,-63.5 556,-63.5 "/>
<text text-anchor="start" x="450" y="-51.5" font-family="Helvetica,sans-Serif" font-size="10.00">+ InnerClasses()</text>
<text text-anchor="start" x="450" y="-40.5" font-family="Helvetica,sans-Serif" font-size="10.00">+ print()</text>
</a>
</g>
</g>
<!-- Node1&#45;&gt;Node5 -->
<g id="edge4" class="edge">
<title>Node1&#45;&gt;Node5</title>
<path fill="none" stroke="midnightblue" d="M499,-172.22C499,-151.77 499,-130.23 499,-112.54"/>
<polygon fill="none" stroke="midnightblue" points="495.5,-172.46 499,-182.46 502.5,-172.46 495.5,-172.46"/>
</g>
<!-- Node6 -->
<g id="node6" class="node">
<title>Node6</title>
<g id="a_node6"><a xlink:href="class_line_number_table.xhtml" target="_top" xlink:title=" ">
<polygon fill="none" stroke="black" points="574.5,-33.5 574.5,-112.5 717.5,-112.5 717.5,-33.5 574.5,-33.5"/>
<text text-anchor="middle" x="646" y="-100.5" font-family="Helvetica,sans-Serif" font-size="10.00">LineNumberTable</text>
<polyline fill="none" stroke="black" points="574.5,-93.5 717.5,-93.5 "/>
<text text-anchor="start" x="582.5" y="-81.5" font-family="Helvetica,sans-Serif" font-size="10.00">+ lineNumberTableLength</text>
<text text-anchor="start" x="582.5" y="-70.5" font-family="Helvetica,sans-Serif" font-size="10.00">+ lnTable</text>
<polyline fill="none" stroke="black" points="574.5,-63.5 717.5,-63.5 "/>
<text text-anchor="start" x="582.5" y="-51.5" font-family="Helvetica,sans-Serif" font-size="10.00">+ LineNumberTable()</text>
<text text-anchor="start" x="582.5" y="-40.5" font-family="Helvetica,sans-Serif" font-size="10.00">+ print()</text>
</a>
</g>
</g>
<!-- Node1&#45;&gt;Node6 -->
<g id="edge5" class="edge">
<title>Node1&#45;&gt;Node6</title>
<path fill="none" stroke="midnightblue" d="M558.38,-174.73C576.8,-153.55 596.46,-130.95 612.48,-112.54"/>
<polygon fill="none" stroke="midnightblue" points="555.58,-172.62 551.66,-182.46 560.86,-177.22 555.58,-172.62"/>
</g>
<!-- Node7 -->
<g id="node7" class="node">
<title>Node7</title>
<g id="a_node7"><a xlink:href="class_local_variable_table.xhtml" target="_top" xlink:title=" ">
<polygon fill="none" stroke="black" points="736,-33.5 736,-112.5 886,-112.5 886,-33.5 736,-33.5"/>
<text text-anchor="middle" x="811" y="-100.5" font-family="Helvetica,sans-Serif" font-size="10.00">LocalVariableTable</text>
<polyline fill="none" stroke="black" points="736,-93.5 886,-93.5 "/>
<text text-anchor="start" x="744" y="-81.5" font-family="Helvetica,sans-Serif" font-size="10.00">+ localVariableTableLength</text>
<text text-anchor="start" x="744" y="-70.5" font-family="Helvetica,sans-Serif" font-size="10.00">+ lvTable</text>
<polyline fill="none" stroke="black" points="736,-63.5 886,-63.5 "/>
<text text-anchor="start" x="744" y="-51.5" font-family="Helvetica,sans-Serif" font-size="10.00">+ LocalVariableTable()</text>
<text text-anchor="start" x="744" y="-40.5" font-family="Helvetica,sans-Serif" font-size="10.00">+ print()</text>
</a>
</g>
</g>
<!-- Node1&#45;&gt;Node7 -->
<g id="edge6" class="edge">
<title>Node1&#45;&gt;Node7</title>
<path fill="none" stroke="midnightblue" d="M571.65,-218.61C617.88,-201.54 678.03,-176.39 727,-146 742.34,-136.48 757.74,-124.24 771.09,-112.57"/>
<polygon fill="none" stroke="midnightblue" points="570.2,-215.41 562.01,-222.12 572.6,-221.98 570.2,-215.41"/>
</g>
<!-- Node8 -->
<g id="node8" class="node">
<title>Node8</title>
<g id="a_node8"><a xlink:href="class_source_file.xhtml" target="_top" xlink:title=" ">
<polygon fill="none" stroke="black" points="904.5,-33.5 904.5,-112.5 1007.5,-112.5 1007.5,-33.5 904.5,-33.5"/>
<text text-anchor="middle" x="956" y="-100.5" font-family="Helvetica,sans-Serif" font-size="10.00">SourceFile</text>
<polyline fill="none" stroke="black" points="904.5,-93.5 1007.5,-93.5 "/>
<text text-anchor="start" x="912.5" y="-81.5" font-family="Helvetica,sans-Serif" font-size="10.00">+ sourcefileIndex</text>
<polyline fill="none" stroke="black" points="904.5,-74.5 1007.5,-74.5 "/>
<text text-anchor="start" x="912.5" y="-62.5" font-family="Helvetica,sans-Serif" font-size="10.00">+ SourceFile()</text>
<text text-anchor="start" x="912.5" y="-51.5" font-family="Helvetica,sans-Serif" font-size="10.00">+ SourceFile()</text>
<text text-anchor="start" x="912.5" y="-40.5" font-family="Helvetica,sans-Serif" font-size="10.00">+ print()</text>
</a>
</g>
</g>
<!-- Node1&#45;&gt;Node8 -->
<g id="edge7" class="edge">
<title>Node1&#45;&gt;Node8</title>
<path fill="none" stroke="midnightblue" d="M572.45,-238.57C656.14,-230.6 794.31,-208.3 895,-146 908.65,-137.55 920.79,-125.02 930.58,-112.77"/>
<polygon fill="none" stroke="midnightblue" points="571.91,-235.11 562.27,-239.5 572.54,-242.08 571.91,-235.11"/>
</g>
</g>
</svg>
