<?xml version="1.0" encoding="UTF-8" standalone="no"?>
<!DOCTYPE svg PUBLIC "-//W3C//DTD SVG 1.1//EN"
 "http://www.w3.org/Graphics/SVG/1.1/DTD/svg11.dtd">
<!-- Generated by graphviz version 2.43.0 (0)
 -->
<!-- Title: Exceptions Pages: 1 -->
<svg width="323pt" height="321pt"
 viewBox="0.00 0.00 323.00 321.00" xmlns="http://www.w3.org/2000/svg" xmlns:xlink="http://www.w3.org/1999/xlink">
<g id="graph0" class="graph" transform="scale(1 1) rotate(0) translate(4 317)">
<title>Exceptions</title>
<!-- Node1 -->
<g id="node1" class="node">
<title>Node1</title>
<g id="a_node1"><a xlink:title=" ">
<polygon fill="#bfbfbf" stroke="black" points="11.5,-0.5 11.5,-68.5 100.5,-68.5 100.5,-0.5 11.5,-0.5"/>
<text text-anchor="middle" x="56" y="-56.5" font-family="Helvetica,sans-Serif" font-size="10.00">Exceptions</text>
<polyline fill="none" stroke="black" points="11.5,-49.5 100.5,-49.5 "/>
<text text-anchor="middle" x="56" y="-37.5" font-family="Helvetica,sans-Serif" font-size="10.00"> </text>
<polyline fill="none" stroke="black" points="11.5,-30.5 100.5,-30.5 "/>
<text text-anchor="start" x="19.5" y="-18.5" font-family="Helvetica,sans-Serif" font-size="10.00">+ Exceptions()</text>
<text text-anchor="start" x="19.5" y="-7.5" font-family="Helvetica,sans-Serif" font-size="10.00">+ print()</text>
</a>
</g>
</g>
<!-- Node2 -->
<g id="node2" class="node">
<title>Node2</title>
<g id="a_node2"><a xlink:href="class_attribute_info.xhtml" target="_top" xlink:title="Classe base a ser herdada pelas classes das entradas do vetor Attributes, contendo membros gerais.">
<polygon fill="none" stroke="black" points="135.5,-106.5 135.5,-207.5 232.5,-207.5 232.5,-106.5 135.5,-106.5"/>
<text text-anchor="middle" x="184" y="-195.5" font-family="Helvetica,sans-Serif" font-size="10.00">AttributeInfo</text>
<polyline fill="none" stroke="black" points="135.5,-188.5 232.5,-188.5 "/>
<text text-anchor="middle" x="184" y="-176.5" font-family="Helvetica,sans-Serif" font-size="10.00"> </text>
<polyline fill="none" stroke="black" points="135.5,-169.5 232.5,-169.5 "/>
<text text-anchor="start" x="143.5" y="-157.5" font-family="Helvetica,sans-Serif" font-size="10.00">+ AttributeInfo()</text>
<text text-anchor="start" x="143.5" y="-146.5" font-family="Helvetica,sans-Serif" font-size="10.00">+ AttributeInfo()</text>
<text text-anchor="start" x="143.5" y="-135.5" font-family="Helvetica,sans-Serif" font-size="10.00">+ generalInfo()</text>
<text text-anchor="start" x="143.5" y="-124.5" font-family="Helvetica,sans-Serif" font-size="10.00">+ print()</text>
<text text-anchor="start" x="143.5" y="-113.5" font-family="Helvetica,sans-Serif" font-size="10.00">+ print()</text>
</a>
</g>
</g>
<!-- Node2&#45;&gt;Node1 -->
<g id="edge1" class="edge">
<title>Node2&#45;&gt;Node1</title>
<path fill="none" stroke="midnightblue" d="M127.93,-103.22C115.41,-91.43 102.48,-79.26 91.09,-68.54"/>
<polygon fill="none" stroke="midnightblue" points="125.56,-105.79 135.24,-110.1 130.36,-100.7 125.56,-105.79"/>
</g>
<!-- Node3 -->
<g id="node3" class="node">
<title>Node3</title>
<g id="a_node3"><a xlink:title=" ">
<polygon fill="none" stroke="#bfbfbf" points="0,-255.5 0,-312.5 56,-312.5 56,-255.5 0,-255.5"/>
<text text-anchor="middle" x="28" y="-300.5" font-family="Helvetica,sans-Serif" font-size="10.00">uint16_t</text>
<polyline fill="none" stroke="#bfbfbf" points="0,-293.5 56,-293.5 "/>
<text text-anchor="middle" x="28" y="-281.5" font-family="Helvetica,sans-Serif" font-size="10.00"> </text>
<polyline fill="none" stroke="#bfbfbf" points="0,-274.5 56,-274.5 "/>
<text text-anchor="middle" x="28" y="-262.5" font-family="Helvetica,sans-Serif" font-size="10.00"> </text>
</a>
</g>
</g>
<!-- Node3&#45;&gt;Node1 -->
<g id="edge5" class="edge">
<title>Node3&#45;&gt;Node1</title>
<path fill="none" stroke="#404040" d="M20.08,-255.46C11.22,-220.17 -0.15,-157.41 14,-106 16.53,-96.82 20.59,-87.64 25.23,-79.07"/>
<polygon fill="none" stroke="#404040" points="25.29,-78.97 24.85,-71.77 31.32,-68.6 31.76,-75.79 25.29,-78.97"/>
<text text-anchor="middle" x="70" y="-160" font-family="Helvetica,sans-Serif" font-size="10.00"> +exceptionIndexTable</text>
<text text-anchor="middle" x="70" y="-149" font-family="Helvetica,sans-Serif" font-size="10.00">+numberOfExceptions</text>
</g>
<!-- Node3&#45;&gt;Node2 -->
<g id="edge2" class="edge">
<title>Node3&#45;&gt;Node2</title>
<path fill="none" stroke="#404040" d="M41.85,-255.4C48.26,-244.95 56.76,-233.73 67,-226 87.2,-210.77 98.75,-220.05 121,-208 122.35,-207.27 123.69,-206.51 125.04,-205.73"/>
<polygon fill="none" stroke="#404040" points="125.11,-205.68 128.05,-199.1 135.26,-199.28 132.32,-205.87 125.11,-205.68"/>
<text text-anchor="middle" x="122" y="-229" font-family="Helvetica,sans-Serif" font-size="10.00"> +attributeNameIndex</text>
</g>
<!-- Node4 -->
<g id="node4" class="node">
<title>Node4</title>
<g id="a_node4"><a xlink:title=" ">
<polygon fill="none" stroke="#bfbfbf" points="152,-255.5 152,-312.5 208,-312.5 208,-255.5 152,-255.5"/>
<text text-anchor="middle" x="180" y="-300.5" font-family="Helvetica,sans-Serif" font-size="10.00">uint32_t</text>
<polyline fill="none" stroke="#bfbfbf" points="152,-293.5 208,-293.5 "/>
<text text-anchor="middle" x="180" y="-281.5" font-family="Helvetica,sans-Serif" font-size="10.00"> </text>
<polyline fill="none" stroke="#bfbfbf" points="152,-274.5 208,-274.5 "/>
<text text-anchor="middle" x="180" y="-262.5" font-family="Helvetica,sans-Serif" font-size="10.00"> </text>
</a>
</g>
</g>
<!-- Node4&#45;&gt;Node2 -->
<g id="edge3" class="edge">
<title>Node4&#45;&gt;Node2</title>
<path fill="none" stroke="#404040" d="M180.34,-255.45C180.49,-246.1 180.7,-235.6 181,-226 181.06,-223.97 181.13,-221.91 181.2,-219.82"/>
<polygon fill="none" stroke="#404040" points="181.2,-219.75 177.43,-213.61 181.65,-207.76 185.43,-213.9 181.2,-219.75"/>
<text text-anchor="middle" x="224.5" y="-229" font-family="Helvetica,sans-Serif" font-size="10.00"> +attributeLength</text>
</g>
<!-- Node5 -->
<g id="node5" class="node">
<title>Node5</title>
<g id="a_node5"><a xlink:title=" ">
<polygon fill="none" stroke="#bfbfbf" points="268,-255.5 268,-312.5 312,-312.5 312,-255.5 268,-255.5"/>
<text text-anchor="middle" x="290" y="-300.5" font-family="Helvetica,sans-Serif" font-size="10.00">string</text>
<polyline fill="none" stroke="#bfbfbf" points="268,-293.5 312,-293.5 "/>
<text text-anchor="middle" x="290" y="-281.5" font-family="Helvetica,sans-Serif" font-size="10.00"> </text>
<polyline fill="none" stroke="#bfbfbf" points="268,-274.5 312,-274.5 "/>
<text text-anchor="middle" x="290" y="-262.5" font-family="Helvetica,sans-Serif" font-size="10.00"> </text>
</a>
</g>
</g>
<!-- Node5&#45;&gt;Node2 -->
<g id="edge4" class="edge">
<title>Node5&#45;&gt;Node2</title>
<path fill="none" stroke="#404040" d="M282.61,-255.43C279.15,-245.57 274.37,-234.75 268,-226 260.72,-216 251.62,-206.64 242.11,-198.25"/>
<polygon fill="none" stroke="#404040" points="242.11,-198.25 234.94,-197.45 232.93,-190.52 240.09,-191.33 242.11,-198.25"/>
<text text-anchor="middle" x="295" y="-229" font-family="Helvetica,sans-Serif" font-size="10.00"> +name</text>
</g>
</g>
</svg>
