<?xml version="1.0" encoding="UTF-8" standalone="no"?>
<!DOCTYPE svg PUBLIC "-//W3C//DTD SVG 1.1//EN"
 "http://www.w3.org/Graphics/SVG/1.1/DTD/svg11.dtd">
<!-- Generated by graphviz version 2.43.0 (0)
 -->
<!-- Title: Opcode Pages: 1 -->
<svg width="399pt" height="420pt"
 viewBox="0.00 0.00 398.50 420.00" xmlns="http://www.w3.org/2000/svg" xmlns:xlink="http://www.w3.org/1999/xlink">
<g id="graph0" class="graph" transform="scale(1 1) rotate(0) translate(4 416)">
<title>Opcode</title>
<!-- Node1 -->
<g id="node1" class="node">
<title>Node1</title>
<g id="a_node1"><a xlink:title="Classe base para Opcodes. Ainda não está pronta para ser uma classe completa para instruções,...">
<polygon fill="#bfbfbf" stroke="black" points="117.5,-0.5 117.5,-90.5 204.5,-90.5 204.5,-0.5 117.5,-0.5"/>
<text text-anchor="middle" x="161" y="-78.5" font-family="Helvetica,sans-Serif" font-size="10.00">Opcode</text>
<polyline fill="none" stroke="black" points="117.5,-71.5 204.5,-71.5 "/>
<text text-anchor="middle" x="161" y="-59.5" font-family="Helvetica,sans-Serif" font-size="10.00"> </text>
<polyline fill="none" stroke="black" points="117.5,-52.5 204.5,-52.5 "/>
<text text-anchor="start" x="125.5" y="-40.5" font-family="Helvetica,sans-Serif" font-size="10.00">+ Opcode()</text>
<text text-anchor="start" x="125.5" y="-29.5" font-family="Helvetica,sans-Serif" font-size="10.00">+ ~Opcode()</text>
<text text-anchor="start" x="125.5" y="-18.5" font-family="Helvetica,sans-Serif" font-size="10.00">+ getString()</text>
<text text-anchor="start" x="125.5" y="-7.5" font-family="Helvetica,sans-Serif" font-size="10.00">+ injectCode()</text>
</a>
</g>
</g>
<!-- Node2 -->
<g id="node2" class="node">
<title>Node2</title>
<g id="a_node2"><a xlink:title=" ">
<polygon fill="none" stroke="#bfbfbf" points="0,-204.5 0,-261.5 56,-261.5 56,-204.5 0,-204.5"/>
<text text-anchor="middle" x="28" y="-249.5" font-family="Helvetica,sans-Serif" font-size="10.00">uint32_t</text>
<polyline fill="none" stroke="#bfbfbf" points="0,-242.5 56,-242.5 "/>
<text text-anchor="middle" x="28" y="-230.5" font-family="Helvetica,sans-Serif" font-size="10.00"> </text>
<polyline fill="none" stroke="#bfbfbf" points="0,-223.5 56,-223.5 "/>
<text text-anchor="middle" x="28" y="-211.5" font-family="Helvetica,sans-Serif" font-size="10.00"> </text>
</a>
</g>
</g>
<!-- Node2&#45;&gt;Node1 -->
<g id="edge1" class="edge">
<title>Node2&#45;&gt;Node1</title>
<path fill="none" stroke="#404040" d="M29.93,-204.33C33.02,-177.63 41.07,-137.19 62,-109 73.58,-93.4 90.31,-80.74 106.73,-71"/>
<polygon fill="none" stroke="#404040" points="106.95,-70.88 110.23,-64.45 117.42,-65.01 114.14,-71.43 106.95,-70.88"/>
<text text-anchor="middle" x="87.5" y="-117.5" font-family="Helvetica,sans-Serif" font-size="10.00"> #position</text>
</g>
<!-- Node3 -->
<g id="node3" class="node">
<title>Node3</title>
<g id="a_node3"><a xlink:title=" ">
<polygon fill="none" stroke="#bfbfbf" points="75,-204.5 75,-261.5 125,-261.5 125,-204.5 75,-204.5"/>
<text text-anchor="middle" x="100" y="-249.5" font-family="Helvetica,sans-Serif" font-size="10.00">uint8_t</text>
<polyline fill="none" stroke="#bfbfbf" points="75,-242.5 125,-242.5 "/>
<text text-anchor="middle" x="100" y="-230.5" font-family="Helvetica,sans-Serif" font-size="10.00"> </text>
<polyline fill="none" stroke="#bfbfbf" points="75,-223.5 125,-223.5 "/>
<text text-anchor="middle" x="100" y="-211.5" font-family="Helvetica,sans-Serif" font-size="10.00"> </text>
</a>
</g>
</g>
<!-- Node3&#45;&gt;Node1 -->
<g id="edge2" class="edge">
<title>Node3&#45;&gt;Node1</title>
<path fill="none" stroke="#404040" d="M102.29,-204.36C105.07,-178.9 110.96,-140.45 123,-109 123.96,-106.49 125.02,-103.98 126.16,-101.47"/>
<polygon fill="none" stroke="#404040" points="126.23,-101.31 125.31,-94.16 131.56,-90.56 132.48,-97.72 126.23,-101.31"/>
<text text-anchor="middle" x="140.5" y="-117.5" font-family="Helvetica,sans-Serif" font-size="10.00"> #code</text>
</g>
<!-- Node4 -->
<g id="node4" class="node">
<title>Node4</title>
<g id="a_node4"><a xlink:title=" ">
<polygon fill="none" stroke="#bfbfbf" points="143,-204.5 143,-261.5 187,-261.5 187,-204.5 143,-204.5"/>
<text text-anchor="middle" x="165" y="-249.5" font-family="Helvetica,sans-Serif" font-size="10.00">string</text>
<polyline fill="none" stroke="#bfbfbf" points="143,-242.5 187,-242.5 "/>
<text text-anchor="middle" x="165" y="-230.5" font-family="Helvetica,sans-Serif" font-size="10.00"> </text>
<polyline fill="none" stroke="#bfbfbf" points="143,-223.5 187,-223.5 "/>
<text text-anchor="middle" x="165" y="-211.5" font-family="Helvetica,sans-Serif" font-size="10.00"> </text>
</a>
</g>
</g>
<!-- Node4&#45;&gt;Node1 -->
<g id="edge3" class="edge">
<title>Node4&#45;&gt;Node1</title>
<path fill="none" stroke="#404040" d="M164.04,-204.14C163.37,-183.86 162.51,-155.73 162,-131 161.81,-121.92 161.66,-112.3 161.53,-102.92"/>
<polygon fill="none" stroke="#404040" points="161.53,-102.79 157.45,-96.85 161.38,-90.8 165.45,-96.75 161.53,-102.79"/>
<text text-anchor="middle" x="182" y="-117.5" font-family="Helvetica,sans-Serif" font-size="10.00"> #name</text>
</g>
<!-- Node5 -->
<g id="node5" class="node">
<title>Node5</title>
<g id="a_node5"><a xlink:title=" ">
<polygon fill="none" stroke="#bfbfbf" points="205,-204.5 205,-261.5 243,-261.5 243,-204.5 205,-204.5"/>
<text text-anchor="middle" x="224" y="-249.5" font-family="Helvetica,sans-Serif" font-size="10.00">bool</text>
<polyline fill="none" stroke="#bfbfbf" points="205,-242.5 243,-242.5 "/>
<text text-anchor="middle" x="224" y="-230.5" font-family="Helvetica,sans-Serif" font-size="10.00"> </text>
<polyline fill="none" stroke="#bfbfbf" points="205,-223.5 243,-223.5 "/>
<text text-anchor="middle" x="224" y="-211.5" font-family="Helvetica,sans-Serif" font-size="10.00"> </text>
</a>
</g>
</g>
<!-- Node5&#45;&gt;Node1 -->
<g id="edge4" class="edge">
<title>Node5&#45;&gt;Node1</title>
<path fill="none" stroke="#404040" d="M222.24,-204.26C219.88,-178.74 214.43,-140.24 202,-109 201.01,-106.5 199.9,-104 198.72,-101.51"/>
<polygon fill="none" stroke="#404040" points="198.63,-101.34 192.3,-97.89 193.06,-90.72 199.39,-94.17 198.63,-101.34"/>
<text text-anchor="middle" x="243" y="-123" font-family="Helvetica,sans-Serif" font-size="10.00"> +knowsCode</text>
<text text-anchor="middle" x="243" y="-112" font-family="Helvetica,sans-Serif" font-size="10.00">+knowsCp</text>
</g>
<!-- Node6 -->
<g id="node6" class="node">
<title>Node6</title>
<g id="a_node6"><a xlink:href="class_constant_pool.xhtml" target="_top" xlink:title="Vetor (tabela) das constantes. Cada entrada é do tipo Cpinfo.">
<polygon fill="none" stroke="black" points="261.5,-149.5 261.5,-316.5 390.5,-316.5 390.5,-149.5 261.5,-149.5"/>
<text text-anchor="middle" x="326" y="-304.5" font-family="Helvetica,sans-Serif" font-size="10.00">ConstantPool</text>
<polyline fill="none" stroke="black" points="261.5,-297.5 390.5,-297.5 "/>
<text text-anchor="middle" x="326" y="-285.5" font-family="Helvetica,sans-Serif" font-size="10.00"> </text>
<polyline fill="none" stroke="black" points="261.5,-278.5 390.5,-278.5 "/>
<text text-anchor="start" x="269.5" y="-266.5" font-family="Helvetica,sans-Serif" font-size="10.00">+ ConstantPool()</text>
<text text-anchor="start" x="269.5" y="-255.5" font-family="Helvetica,sans-Serif" font-size="10.00">+ ConstantPool()</text>
<text text-anchor="start" x="269.5" y="-244.5" font-family="Helvetica,sans-Serif" font-size="10.00">+ print()</text>
<text text-anchor="start" x="269.5" y="-233.5" font-family="Helvetica,sans-Serif" font-size="10.00">+ Bytes2Str()</text>
<text text-anchor="start" x="269.5" y="-222.5" font-family="Helvetica,sans-Serif" font-size="10.00">+ getUtf8Str()</text>
<text text-anchor="start" x="269.5" y="-211.5" font-family="Helvetica,sans-Serif" font-size="10.00">+ getUtf8Class()</text>
<text text-anchor="start" x="269.5" y="-200.5" font-family="Helvetica,sans-Serif" font-size="10.00">+ getDescriptor()</text>
<text text-anchor="start" x="269.5" y="-189.5" font-family="Helvetica,sans-Serif" font-size="10.00">+ getNNameAndType()</text>
<text text-anchor="start" x="269.5" y="-178.5" font-family="Helvetica,sans-Serif" font-size="10.00">+ getFloat()</text>
<text text-anchor="start" x="269.5" y="-167.5" font-family="Helvetica,sans-Serif" font-size="10.00">+ getLong()</text>
<text text-anchor="start" x="269.5" y="-156.5" font-family="Helvetica,sans-Serif" font-size="10.00">+ getDouble()</text>
</a>
</g>
</g>
<!-- Node6&#45;&gt;Node1 -->
<g id="edge5" class="edge">
<title>Node6&#45;&gt;Node1</title>
<path fill="none" stroke="#404040" d="M305.35,-149.22C299.16,-134.74 291.2,-120.62 281,-109 263.7,-89.3 238.66,-74.89 215.93,-64.91"/>
<polygon fill="none" stroke="#404040" points="215.74,-64.83 208.66,-66.22 204.66,-60.23 211.73,-58.84 215.74,-64.83"/>
<text text-anchor="middle" x="307.5" y="-117.5" font-family="Helvetica,sans-Serif" font-size="10.00"> #cp</text>
</g>
<!-- Node7 -->
<g id="node7" class="node">
<title>Node7</title>
<g id="a_node7"><a xlink:title=" ">
<polygon fill="none" stroke="#bfbfbf" points="265,-354.5 265,-411.5 387,-411.5 387,-354.5 265,-354.5"/>
<text text-anchor="middle" x="326" y="-399.5" font-family="Helvetica,sans-Serif" font-size="10.00">std::vector&lt; Cpinfo &gt;</text>
<polyline fill="none" stroke="#bfbfbf" points="265,-392.5 387,-392.5 "/>
<text text-anchor="middle" x="326" y="-380.5" font-family="Helvetica,sans-Serif" font-size="10.00"> </text>
<polyline fill="none" stroke="#bfbfbf" points="265,-373.5 387,-373.5 "/>
<text text-anchor="middle" x="326" y="-361.5" font-family="Helvetica,sans-Serif" font-size="10.00"> </text>
</a>
</g>
</g>
<!-- Node7&#45;&gt;Node6 -->
<g id="edge6" class="edge">
<title>Node7&#45;&gt;Node6</title>
<path fill="none" stroke="midnightblue" d="M326,-343.93C326,-335.46 326,-326.17 326,-316.68"/>
<polygon fill="none" stroke="midnightblue" points="322.5,-344.16 326,-354.16 329.5,-344.16 322.5,-344.16"/>
</g>
</g>
</svg>
