<?xml version="1.0" encoding="UTF-8" standalone="no"?>
<!DOCTYPE svg PUBLIC "-//W3C//DTD SVG 1.1//EN"
 "http://www.w3.org/Graphics/SVG/1.1/DTD/svg11.dtd">
<!-- Generated by graphviz version 2.43.0 (0)
 -->
<!-- Title: Opcode Pages: 1 -->
<svg width="564pt" height="248pt"
 viewBox="0.00 0.00 563.50 248.00" xmlns="http://www.w3.org/2000/svg" xmlns:xlink="http://www.w3.org/1999/xlink">
<g id="graph0" class="graph" transform="scale(1 1) rotate(0) translate(4 244)">
<title>Opcode</title>
<!-- Node1 -->
<g id="node1" class="node">
<title>Node1</title>
<g id="a_node1"><a xlink:title="Classe base para Opcodes. Ainda não está pronta para ser uma classe completa para instruções,...">
<polygon fill="#bfbfbf" stroke="black" points="231.5,-105.5 231.5,-239.5 318.5,-239.5 318.5,-105.5 231.5,-105.5"/>
<text text-anchor="middle" x="275" y="-227.5" font-family="Helvetica,sans-Serif" font-size="10.00">Opcode</text>
<polyline fill="none" stroke="black" points="231.5,-220.5 318.5,-220.5 "/>
<text text-anchor="start" x="239.5" y="-208.5" font-family="Helvetica,sans-Serif" font-size="10.00">+ knowsCode</text>
<text text-anchor="start" x="239.5" y="-197.5" font-family="Helvetica,sans-Serif" font-size="10.00"># name</text>
<text text-anchor="start" x="239.5" y="-186.5" font-family="Helvetica,sans-Serif" font-size="10.00"># code</text>
<text text-anchor="start" x="239.5" y="-175.5" font-family="Helvetica,sans-Serif" font-size="10.00"># position</text>
<text text-anchor="start" x="239.5" y="-164.5" font-family="Helvetica,sans-Serif" font-size="10.00"># cp</text>
<polyline fill="none" stroke="black" points="231.5,-157.5 318.5,-157.5 "/>
<text text-anchor="start" x="239.5" y="-145.5" font-family="Helvetica,sans-Serif" font-size="10.00">+ Opcode()</text>
<text text-anchor="start" x="239.5" y="-134.5" font-family="Helvetica,sans-Serif" font-size="10.00">+ ~Opcode()</text>
<text text-anchor="start" x="239.5" y="-123.5" font-family="Helvetica,sans-Serif" font-size="10.00">+ getString()</text>
<text text-anchor="start" x="239.5" y="-112.5" font-family="Helvetica,sans-Serif" font-size="10.00">+ injectCode()</text>
</a>
</g>
</g>
<!-- Node2 -->
<g id="node2" class="node">
<title>Node2</title>
<g id="a_node2"><a xlink:href="class_increment_opcode.xhtml" target="_top" xlink:title="Opcode de incremento.">
<polygon fill="none" stroke="black" points="0,-0.5 0,-68.5 122,-68.5 122,-0.5 0,-0.5"/>
<text text-anchor="middle" x="61" y="-56.5" font-family="Helvetica,sans-Serif" font-size="10.00">IncrementOpcode</text>
<polyline fill="none" stroke="black" points="0,-49.5 122,-49.5 "/>
<text text-anchor="middle" x="61" y="-37.5" font-family="Helvetica,sans-Serif" font-size="10.00"> </text>
<polyline fill="none" stroke="black" points="0,-30.5 122,-30.5 "/>
<text text-anchor="start" x="8" y="-18.5" font-family="Helvetica,sans-Serif" font-size="10.00">+ getString()</text>
<text text-anchor="start" x="8" y="-7.5" font-family="Helvetica,sans-Serif" font-size="10.00">+ IncrementOpcode()</text>
</a>
</g>
</g>
<!-- Node1&#45;&gt;Node2 -->
<g id="edge1" class="edge">
<title>Node1&#45;&gt;Node2</title>
<path fill="none" stroke="midnightblue" d="M222.76,-138.3C189.46,-117.14 146.48,-89.82 113.19,-68.67"/>
<polygon fill="none" stroke="midnightblue" points="221.12,-141.4 231.44,-143.81 224.87,-135.5 221.12,-141.4"/>
</g>
<!-- Node3 -->
<g id="node3" class="node">
<title>Node3</title>
<g id="a_node3"><a xlink:href="class_s2_operand_opcode.xhtml" target="_top" xlink:title="Opcode com dois bytes de operandos com sinal. Os dois bytes são juntados para formarem um inteiro de ...">
<polygon fill="none" stroke="black" points="140.5,-0.5 140.5,-68.5 265.5,-68.5 265.5,-0.5 140.5,-0.5"/>
<text text-anchor="middle" x="203" y="-56.5" font-family="Helvetica,sans-Serif" font-size="10.00">S2OperandOpcode</text>
<polyline fill="none" stroke="black" points="140.5,-49.5 265.5,-49.5 "/>
<text text-anchor="middle" x="203" y="-37.5" font-family="Helvetica,sans-Serif" font-size="10.00"> </text>
<polyline fill="none" stroke="black" points="140.5,-30.5 265.5,-30.5 "/>
<text text-anchor="start" x="148.5" y="-18.5" font-family="Helvetica,sans-Serif" font-size="10.00">+ getString()</text>
<text text-anchor="start" x="148.5" y="-7.5" font-family="Helvetica,sans-Serif" font-size="10.00">+ S2OperandOpcode()</text>
</a>
</g>
</g>
<!-- Node1&#45;&gt;Node3 -->
<g id="edge2" class="edge">
<title>Node1&#45;&gt;Node3</title>
<path fill="none" stroke="midnightblue" d="M235.32,-96.55C230.19,-86.85 225.15,-77.34 220.64,-68.83"/>
<polygon fill="none" stroke="midnightblue" points="232.28,-98.29 240.05,-105.49 238.47,-95.02 232.28,-98.29"/>
</g>
<!-- Node4 -->
<g id="node4" class="node">
<title>Node4</title>
<g id="a_node4"><a xlink:href="class_u1_operand_opcode.xhtml" target="_top" xlink:title="Opcode com um byte de operando.">
<polygon fill="none" stroke="black" points="283.5,-0.5 283.5,-68.5 410.5,-68.5 410.5,-0.5 283.5,-0.5"/>
<text text-anchor="middle" x="347" y="-56.5" font-family="Helvetica,sans-Serif" font-size="10.00">U1OperandOpcode</text>
<polyline fill="none" stroke="black" points="283.5,-49.5 410.5,-49.5 "/>
<text text-anchor="middle" x="347" y="-37.5" font-family="Helvetica,sans-Serif" font-size="10.00"> </text>
<polyline fill="none" stroke="black" points="283.5,-30.5 410.5,-30.5 "/>
<text text-anchor="start" x="291.5" y="-18.5" font-family="Helvetica,sans-Serif" font-size="10.00">+ getString()</text>
<text text-anchor="start" x="291.5" y="-7.5" font-family="Helvetica,sans-Serif" font-size="10.00">+ U1OperandOpcode()</text>
</a>
</g>
</g>
<!-- Node1&#45;&gt;Node4 -->
<g id="edge3" class="edge">
<title>Node1&#45;&gt;Node4</title>
<path fill="none" stroke="midnightblue" d="M314.68,-96.55C319.81,-86.85 324.85,-77.34 329.36,-68.83"/>
<polygon fill="none" stroke="midnightblue" points="311.53,-95.02 309.95,-105.49 317.72,-98.29 311.53,-95.02"/>
</g>
<!-- Node5 -->
<g id="node5" class="node">
<title>Node5</title>
<g id="a_node5"><a xlink:href="class_u2_operand_opcode.xhtml" target="_top" xlink:title="Opcode com dois bytes de operandos. Os dois bytes são juntados para formarem um u2 por (byte1 &lt;&lt; 8) |...">
<polygon fill="none" stroke="black" points="428.5,-0.5 428.5,-68.5 555.5,-68.5 555.5,-0.5 428.5,-0.5"/>
<text text-anchor="middle" x="492" y="-56.5" font-family="Helvetica,sans-Serif" font-size="10.00">U2OperandOpcode</text>
<polyline fill="none" stroke="black" points="428.5,-49.5 555.5,-49.5 "/>
<text text-anchor="middle" x="492" y="-37.5" font-family="Helvetica,sans-Serif" font-size="10.00"> </text>
<polyline fill="none" stroke="black" points="428.5,-30.5 555.5,-30.5 "/>
<text text-anchor="start" x="436.5" y="-18.5" font-family="Helvetica,sans-Serif" font-size="10.00">+ getString()</text>
<text text-anchor="start" x="436.5" y="-7.5" font-family="Helvetica,sans-Serif" font-size="10.00">+ U2OperandOpcode()</text>
</a>
</g>
</g>
<!-- Node1&#45;&gt;Node5 -->
<g id="edge4" class="edge">
<title>Node1&#45;&gt;Node5</title>
<path fill="none" stroke="midnightblue" d="M327.48,-138.61C361.36,-117.38 405.28,-89.85 439.22,-68.58"/>
<polygon fill="none" stroke="midnightblue" points="325.27,-135.87 318.65,-144.14 328.98,-141.8 325.27,-135.87"/>
</g>
</g>
</svg>
