<?xml version="1.0" encoding="UTF-8" standalone="no"?>
<!DOCTYPE svg PUBLIC "-//W3C//DTD SVG 1.1//EN"
 "http://www.w3.org/Graphics/SVG/1.1/DTD/svg11.dtd">
<!-- Generated by graphviz version 2.43.0 (0)
 -->
<!-- Title: LineNumberTable Pages: 1 -->
<svg width="499pt" height="342pt"
 viewBox="0.00 0.00 499.00 342.00" xmlns="http://www.w3.org/2000/svg" xmlns:xlink="http://www.w3.org/1999/xlink">
<g id="graph0" class="graph" transform="scale(1 1) rotate(0) translate(4 338)">
<title>LineNumberTable</title>
<!-- Node1 -->
<g id="node1" class="node">
<title>Node1</title>
<g id="a_node1"><a xlink:title=" ">
<polygon fill="#bfbfbf" stroke="black" points="145,-0.5 145,-68.5 265,-68.5 265,-0.5 145,-0.5"/>
<text text-anchor="middle" x="205" y="-56.5" font-family="Helvetica,sans-Serif" font-size="10.00">LineNumberTable</text>
<polyline fill="none" stroke="black" points="145,-49.5 265,-49.5 "/>
<text text-anchor="middle" x="205" y="-37.5" font-family="Helvetica,sans-Serif" font-size="10.00"> </text>
<polyline fill="none" stroke="black" points="145,-30.5 265,-30.5 "/>
<text text-anchor="start" x="153" y="-18.5" font-family="Helvetica,sans-Serif" font-size="10.00">+ LineNumberTable()</text>
<text text-anchor="start" x="153" y="-7.5" font-family="Helvetica,sans-Serif" font-size="10.00">+ print()</text>
</a>
</g>
</g>
<!-- Node2 -->
<g id="node2" class="node">
<title>Node2</title>
<g id="a_node2"><a xlink:href="class_attribute_info.xhtml" target="_top" xlink:title="Classe base a ser herdada pelas classes das entradas do vetor Attributes, contendo membros gerais.">
<polygon fill="none" stroke="black" points="156.5,-116.5 156.5,-217.5 253.5,-217.5 253.5,-116.5 156.5,-116.5"/>
<text text-anchor="middle" x="205" y="-205.5" font-family="Helvetica,sans-Serif" font-size="10.00">AttributeInfo</text>
<polyline fill="none" stroke="black" points="156.5,-198.5 253.5,-198.5 "/>
<text text-anchor="middle" x="205" y="-186.5" font-family="Helvetica,sans-Serif" font-size="10.00"> </text>
<polyline fill="none" stroke="black" points="156.5,-179.5 253.5,-179.5 "/>
<text text-anchor="start" x="164.5" y="-167.5" font-family="Helvetica,sans-Serif" font-size="10.00">+ AttributeInfo()</text>
<text text-anchor="start" x="164.5" y="-156.5" font-family="Helvetica,sans-Serif" font-size="10.00">+ AttributeInfo()</text>
<text text-anchor="start" x="164.5" y="-145.5" font-family="Helvetica,sans-Serif" font-size="10.00">+ generalInfo()</text>
<text text-anchor="start" x="164.5" y="-134.5" font-family="Helvetica,sans-Serif" font-size="10.00">+ print()</text>
<text text-anchor="start" x="164.5" y="-123.5" font-family="Helvetica,sans-Serif" font-size="10.00">+ print()</text>
</a>
</g>
</g>
<!-- Node2&#45;&gt;Node1 -->
<g id="edge1" class="edge">
<title>Node2&#45;&gt;Node1</title>
<path fill="none" stroke="midnightblue" d="M205,-106.03C205,-93.12 205,-79.93 205,-68.51"/>
<polygon fill="none" stroke="midnightblue" points="201.5,-106.29 205,-116.29 208.5,-106.29 201.5,-106.29"/>
</g>
<!-- Node3 -->
<g id="node3" class="node">
<title>Node3</title>
<g id="a_node3"><a xlink:title=" ">
<polygon fill="none" stroke="#bfbfbf" points="0,-271 0,-328 56,-328 56,-271 0,-271"/>
<text text-anchor="middle" x="28" y="-316" font-family="Helvetica,sans-Serif" font-size="10.00">uint16_t</text>
<polyline fill="none" stroke="#bfbfbf" points="0,-309 56,-309 "/>
<text text-anchor="middle" x="28" y="-297" font-family="Helvetica,sans-Serif" font-size="10.00"> </text>
<polyline fill="none" stroke="#bfbfbf" points="0,-290 56,-290 "/>
<text text-anchor="middle" x="28" y="-278" font-family="Helvetica,sans-Serif" font-size="10.00"> </text>
</a>
</g>
</g>
<!-- Node3&#45;&gt;Node1 -->
<g id="edge5" class="edge">
<title>Node3&#45;&gt;Node1</title>
<path fill="none" stroke="#404040" d="M17.5,-270.82C4.92,-232.61 -10.86,-163.08 20,-116 44.99,-77.87 92.39,-57.71 132.95,-47.09"/>
<polygon fill="none" stroke="#404040" points="133.08,-47.06 137.96,-41.75 144.73,-44.22 139.85,-49.53 133.08,-47.06"/>
<text text-anchor="middle" x="83.5" y="-164.5" font-family="Helvetica,sans-Serif" font-size="10.00"> +lineNumberTableLength</text>
</g>
<!-- Node3&#45;&gt;Node2 -->
<g id="edge2" class="edge">
<title>Node3&#45;&gt;Node2</title>
<path fill="none" stroke="#404040" d="M37.44,-270.94C43.04,-258.52 51.35,-244.71 63,-236 91.84,-214.43 109.53,-233.58 142,-218 143.2,-217.43 144.39,-216.83 145.58,-216.2"/>
<polygon fill="none" stroke="#404040" points="145.8,-216.08 148.96,-209.6 156.16,-210.03 152.99,-216.51 145.8,-216.08"/>
<text text-anchor="middle" x="118" y="-239" font-family="Helvetica,sans-Serif" font-size="10.00"> +attributeNameIndex</text>
</g>
<!-- Node4 -->
<g id="node4" class="node">
<title>Node4</title>
<g id="a_node4"><a xlink:title=" ">
<polygon fill="none" stroke="#bfbfbf" points="149,-271 149,-328 205,-328 205,-271 149,-271"/>
<text text-anchor="middle" x="177" y="-316" font-family="Helvetica,sans-Serif" font-size="10.00">uint32_t</text>
<polyline fill="none" stroke="#bfbfbf" points="149,-309 205,-309 "/>
<text text-anchor="middle" x="177" y="-297" font-family="Helvetica,sans-Serif" font-size="10.00"> </text>
<polyline fill="none" stroke="#bfbfbf" points="149,-290 205,-290 "/>
<text text-anchor="middle" x="177" y="-278" font-family="Helvetica,sans-Serif" font-size="10.00"> </text>
</a>
</g>
</g>
<!-- Node4&#45;&gt;Node2 -->
<g id="edge3" class="edge">
<title>Node4&#45;&gt;Node2</title>
<path fill="none" stroke="#404040" d="M175.31,-270.89C175.19,-259.94 175.75,-247.28 178,-236 178.46,-233.71 178.99,-231.4 179.58,-229.08"/>
<polygon fill="none" stroke="#404040" points="179.6,-229.02 177.45,-222.14 182.98,-217.51 185.13,-224.39 179.6,-229.02"/>
<text text-anchor="middle" x="221.5" y="-239" font-family="Helvetica,sans-Serif" font-size="10.00"> +attributeLength</text>
</g>
<!-- Node5 -->
<g id="node5" class="node">
<title>Node5</title>
<g id="a_node5"><a xlink:title=" ">
<polygon fill="none" stroke="#bfbfbf" points="265,-271 265,-328 309,-328 309,-271 265,-271"/>
<text text-anchor="middle" x="287" y="-316" font-family="Helvetica,sans-Serif" font-size="10.00">string</text>
<polyline fill="none" stroke="#bfbfbf" points="265,-309 309,-309 "/>
<text text-anchor="middle" x="287" y="-297" font-family="Helvetica,sans-Serif" font-size="10.00"> </text>
<polyline fill="none" stroke="#bfbfbf" points="265,-290 309,-290 "/>
<text text-anchor="middle" x="287" y="-278" font-family="Helvetica,sans-Serif" font-size="10.00"> </text>
</a>
</g>
</g>
<!-- Node5&#45;&gt;Node2 -->
<g id="edge4" class="edge">
<title>Node5&#45;&gt;Node2</title>
<path fill="none" stroke="#404040" d="M279.75,-270.73C276.19,-259.51 271.29,-246.71 265,-236 263.34,-233.17 261.55,-230.35 259.67,-227.56"/>
<polygon fill="none" stroke="#404040" points="259.5,-227.33 252.75,-224.8 252.48,-217.59 259.24,-220.12 259.5,-227.33"/>
<text text-anchor="middle" x="291" y="-239" font-family="Helvetica,sans-Serif" font-size="10.00"> +name</text>
</g>
<!-- Node6 -->
<g id="node6" class="node">
<title>Node6</title>
<g id="a_node6"><a xlink:href="class_line_number_table_str.xhtml" target="_top" xlink:title=" ">
<polygon fill="none" stroke="black" points="307,-133 307,-201 441,-201 441,-133 307,-133"/>
<text text-anchor="middle" x="374" y="-189" font-family="Helvetica,sans-Serif" font-size="10.00">LineNumberTableStr</text>
<polyline fill="none" stroke="black" points="307,-182 441,-182 "/>
<text text-anchor="middle" x="374" y="-170" font-family="Helvetica,sans-Serif" font-size="10.00"> </text>
<polyline fill="none" stroke="black" points="307,-163 441,-163 "/>
<text text-anchor="start" x="315" y="-151" font-family="Helvetica,sans-Serif" font-size="10.00">+ LineNumberTableStr()</text>
<text text-anchor="start" x="315" y="-140" font-family="Helvetica,sans-Serif" font-size="10.00">+ LineNumberTableStr()</text>
</a>
</g>
</g>
<!-- Node6&#45;&gt;Node1 -->
<g id="edge6" class="edge">
<title>Node6&#45;&gt;Node1</title>
<path fill="none" stroke="#404040" d="M330.92,-132.73C308.57,-115.48 281.09,-94.25 257.51,-76.04"/>
<polygon fill="none" stroke="#404040" points="257.5,-76.04 250.31,-75.54 248,-68.71 255.2,-69.21 257.5,-76.04"/>
<text text-anchor="middle" x="308" y="-90" font-family="Helvetica,sans-Serif" font-size="10.00"> +lnTable</text>
</g>
<!-- Node7 -->
<g id="node7" class="node">
<title>Node7</title>
<g id="a_node7"><a xlink:title=" ">
<polygon fill="none" stroke="#bfbfbf" points="327,-265.5 327,-333.5 491,-333.5 491,-265.5 327,-265.5"/>
<text text-anchor="start" x="335" y="-321.5" font-family="Helvetica,sans-Serif" font-size="10.00">std::vector&lt; LineNumberTable</text>
<text text-anchor="middle" x="409" y="-310.5" font-family="Helvetica,sans-Serif" font-size="10.00">StrInfo * &gt;</text>
<polyline fill="none" stroke="#bfbfbf" points="327,-303.5 491,-303.5 "/>
<text text-anchor="middle" x="409" y="-291.5" font-family="Helvetica,sans-Serif" font-size="10.00"> </text>
<polyline fill="none" stroke="#bfbfbf" points="327,-284.5 491,-284.5 "/>
<text text-anchor="middle" x="409" y="-272.5" font-family="Helvetica,sans-Serif" font-size="10.00"> </text>
</a>
</g>
</g>
<!-- Node7&#45;&gt;Node6 -->
<g id="edge7" class="edge">
<title>Node7&#45;&gt;Node6</title>
<path fill="none" stroke="midnightblue" d="M397.39,-255.2C392.67,-237.61 387.31,-217.61 382.91,-201.21"/>
<polygon fill="none" stroke="midnightblue" points="394.11,-256.48 400.08,-265.23 400.87,-254.67 394.11,-256.48"/>
</g>
</g>
</svg>
