<?xml version="1.0" encoding="UTF-8" standalone="no"?>
<!DOCTYPE svg PUBLIC "-//W3C//DTD SVG 1.1//EN"
 "http://www.w3.org/Graphics/SVG/1.1/DTD/svg11.dtd">
<!-- Generated by graphviz version 2.43.0 (0)
 -->
<!-- Title: LocalVariableTable Pages: 1 -->
<svg width="481pt" height="342pt"
 viewBox="0.00 0.00 481.00 342.00" xmlns="http://www.w3.org/2000/svg" xmlns:xlink="http://www.w3.org/1999/xlink">
<g id="graph0" class="graph" transform="scale(1 1) rotate(0) translate(4 338)">
<title>LocalVariableTable</title>
<!-- Node1 -->
<g id="node1" class="node">
<title>Node1</title>
<g id="a_node1"><a xlink:title=" ">
<polygon fill="#bfbfbf" stroke="black" points="148.5,-0.5 148.5,-68.5 275.5,-68.5 275.5,-0.5 148.5,-0.5"/>
<text text-anchor="middle" x="212" y="-56.5" font-family="Helvetica,sans-Serif" font-size="10.00">LocalVariableTable</text>
<polyline fill="none" stroke="black" points="148.5,-49.5 275.5,-49.5 "/>
<text text-anchor="middle" x="212" y="-37.5" font-family="Helvetica,sans-Serif" font-size="10.00"> </text>
<polyline fill="none" stroke="black" points="148.5,-30.5 275.5,-30.5 "/>
<text text-anchor="start" x="156.5" y="-18.5" font-family="Helvetica,sans-Serif" font-size="10.00">+ LocalVariableTable()</text>
<text text-anchor="start" x="156.5" y="-7.5" font-family="Helvetica,sans-Serif" font-size="10.00">+ print()</text>
</a>
</g>
</g>
<!-- Node2 -->
<g id="node2" class="node">
<title>Node2</title>
<g id="a_node2"><a xlink:href="class_attribute_info.xhtml" target="_top" xlink:title="Classe base a ser herdada pelas classes das entradas do vetor Attributes, contendo membros gerais.">
<polygon fill="none" stroke="black" points="163.5,-116.5 163.5,-217.5 260.5,-217.5 260.5,-116.5 163.5,-116.5"/>
<text text-anchor="middle" x="212" y="-205.5" font-family="Helvetica,sans-Serif" font-size="10.00">AttributeInfo</text>
<polyline fill="none" stroke="black" points="163.5,-198.5 260.5,-198.5 "/>
<text text-anchor="middle" x="212" y="-186.5" font-family="Helvetica,sans-Serif" font-size="10.00"> </text>
<polyline fill="none" stroke="black" points="163.5,-179.5 260.5,-179.5 "/>
<text text-anchor="start" x="171.5" y="-167.5" font-family="Helvetica,sans-Serif" font-size="10.00">+ AttributeInfo()</text>
<text text-anchor="start" x="171.5" y="-156.5" font-family="Helvetica,sans-Serif" font-size="10.00">+ AttributeInfo()</text>
<text text-anchor="start" x="171.5" y="-145.5" font-family="Helvetica,sans-Serif" font-size="10.00">+ generalInfo()</text>
<text text-anchor="start" x="171.5" y="-134.5" font-family="Helvetica,sans-Serif" font-size="10.00">+ print()</text>
<text text-anchor="start" x="171.5" y="-123.5" font-family="Helvetica,sans-Serif" font-size="10.00">+ print()</text>
</a>
</g>
</g>
<!-- Node2&#45;&gt;Node1 -->
<g id="edge1" class="edge">
<title>Node2&#45;&gt;Node1</title>
<path fill="none" stroke="midnightblue" d="M212,-106.03C212,-93.12 212,-79.93 212,-68.51"/>
<polygon fill="none" stroke="midnightblue" points="208.5,-106.29 212,-116.29 215.5,-106.29 208.5,-106.29"/>
</g>
<!-- Node3 -->
<g id="node3" class="node">
<title>Node3</title>
<g id="a_node3"><a xlink:title=" ">
<polygon fill="none" stroke="#bfbfbf" points="0,-271 0,-328 56,-328 56,-271 0,-271"/>
<text text-anchor="middle" x="28" y="-316" font-family="Helvetica,sans-Serif" font-size="10.00">uint16_t</text>
<polyline fill="none" stroke="#bfbfbf" points="0,-309 56,-309 "/>
<text text-anchor="middle" x="28" y="-297" font-family="Helvetica,sans-Serif" font-size="10.00"> </text>
<polyline fill="none" stroke="#bfbfbf" points="0,-290 56,-290 "/>
<text text-anchor="middle" x="28" y="-278" font-family="Helvetica,sans-Serif" font-size="10.00"> </text>
</a>
</g>
</g>
<!-- Node3&#45;&gt;Node1 -->
<g id="edge7" class="edge">
<title>Node3&#45;&gt;Node1</title>
<path fill="none" stroke="#404040" d="M17.41,-270.77C4.73,-232.48 -11.17,-162.87 20,-116 45.83,-77.16 94.42,-57.02 136.25,-46.6"/>
<polygon fill="none" stroke="#404040" points="136.44,-46.55 141.38,-41.3 148.13,-43.85 143.19,-49.1 136.44,-46.55"/>
<text text-anchor="middle" x="87" y="-164.5" font-family="Helvetica,sans-Serif" font-size="10.00"> +localVariableTableLength</text>
</g>
<!-- Node3&#45;&gt;Node2 -->
<g id="edge2" class="edge">
<title>Node3&#45;&gt;Node2</title>
<path fill="none" stroke="#404040" d="M37.38,-270.85C42.95,-258.41 51.27,-244.61 63,-236 94.48,-212.89 113.65,-234.58 149,-218 150.2,-217.44 151.4,-216.85 152.59,-216.23"/>
<polygon fill="none" stroke="#404040" points="152.81,-216.11 156.01,-209.65 163.2,-210.12 160,-216.58 152.81,-216.11"/>
<text text-anchor="middle" x="118" y="-239" font-family="Helvetica,sans-Serif" font-size="10.00"> +attributeNameIndex</text>
</g>
<!-- Node4 -->
<g id="node4" class="node">
<title>Node4</title>
<g id="a_node4"><a xlink:title=" ">
<polygon fill="none" stroke="#bfbfbf" points="149,-271 149,-328 205,-328 205,-271 149,-271"/>
<text text-anchor="middle" x="177" y="-316" font-family="Helvetica,sans-Serif" font-size="10.00">uint32_t</text>
<polyline fill="none" stroke="#bfbfbf" points="149,-309 205,-309 "/>
<text text-anchor="middle" x="177" y="-297" font-family="Helvetica,sans-Serif" font-size="10.00"> </text>
<polyline fill="none" stroke="#bfbfbf" points="149,-290 205,-290 "/>
<text text-anchor="middle" x="177" y="-278" font-family="Helvetica,sans-Serif" font-size="10.00"> </text>
</a>
</g>
</g>
<!-- Node4&#45;&gt;Node2 -->
<g id="edge3" class="edge">
<title>Node4&#45;&gt;Node2</title>
<path fill="none" stroke="#404040" d="M174.81,-270.78C174.63,-259.81 175.27,-247.17 178,-236 178.56,-233.69 179.22,-231.37 179.94,-229.05"/>
<polygon fill="none" stroke="#404040" points="180.03,-228.82 178.31,-221.81 184.12,-217.54 185.83,-224.54 180.03,-228.82"/>
<text text-anchor="middle" x="221.5" y="-239" font-family="Helvetica,sans-Serif" font-size="10.00"> +attributeLength</text>
</g>
<!-- Node5 -->
<g id="node5" class="node">
<title>Node5</title>
<g id="a_node5"><a xlink:title=" ">
<polygon fill="none" stroke="#bfbfbf" points="265,-271 265,-328 309,-328 309,-271 265,-271"/>
<text text-anchor="middle" x="287" y="-316" font-family="Helvetica,sans-Serif" font-size="10.00">string</text>
<polyline fill="none" stroke="#bfbfbf" points="265,-309 309,-309 "/>
<text text-anchor="middle" x="287" y="-297" font-family="Helvetica,sans-Serif" font-size="10.00"> </text>
<polyline fill="none" stroke="#bfbfbf" points="265,-290 309,-290 "/>
<text text-anchor="middle" x="287" y="-278" font-family="Helvetica,sans-Serif" font-size="10.00"> </text>
</a>
</g>
</g>
<!-- Node5&#45;&gt;Node2 -->
<g id="edge4" class="edge">
<title>Node5&#45;&gt;Node2</title>
<path fill="none" stroke="#404040" d="M279.42,-270.92C275.81,-259.73 270.96,-246.9 265,-236 263.52,-233.3 261.94,-230.59 260.28,-227.9"/>
<polygon fill="none" stroke="#404040" points="260.13,-227.66 253.49,-224.83 253.55,-217.62 260.18,-220.45 260.13,-227.66"/>
<text text-anchor="middle" x="290" y="-239" font-family="Helvetica,sans-Serif" font-size="10.00"> +name</text>
</g>
<!-- Node6 -->
<g id="node6" class="node">
<title>Node6</title>
<g id="a_node6"><a xlink:href="class_local_variable_table_str.xhtml" target="_top" xlink:title=" ">
<polygon fill="none" stroke="black" points="305,-133 305,-201 445,-201 445,-133 305,-133"/>
<text text-anchor="middle" x="375" y="-189" font-family="Helvetica,sans-Serif" font-size="10.00">LocalVariableTableStr</text>
<polyline fill="none" stroke="black" points="305,-182 445,-182 "/>
<text text-anchor="middle" x="375" y="-170" font-family="Helvetica,sans-Serif" font-size="10.00"> </text>
<polyline fill="none" stroke="black" points="305,-163 445,-163 "/>
<text text-anchor="start" x="313" y="-151" font-family="Helvetica,sans-Serif" font-size="10.00">+ LocalVariableTableStr()</text>
<text text-anchor="start" x="313" y="-140" font-family="Helvetica,sans-Serif" font-size="10.00">+ LocalVariableTableStr()</text>
</a>
</g>
</g>
<!-- Node6&#45;&gt;Node1 -->
<g id="edge5" class="edge">
<title>Node6&#45;&gt;Node1</title>
<path fill="none" stroke="#404040" d="M333.45,-132.73C311.99,-115.55 285.62,-94.44 262.95,-76.29"/>
<polygon fill="none" stroke="#404040" points="262.85,-76.21 255.66,-75.58 253.48,-68.71 260.66,-69.33 262.85,-76.21"/>
<text text-anchor="middle" x="312" y="-90" font-family="Helvetica,sans-Serif" font-size="10.00"> +lvTable</text>
</g>
<!-- Node7 -->
<g id="node7" class="node">
<title>Node7</title>
<g id="a_node7"><a xlink:title=" ">
<polygon fill="none" stroke="#bfbfbf" points="327,-265.5 327,-333.5 473,-333.5 473,-265.5 327,-265.5"/>
<text text-anchor="start" x="335" y="-321.5" font-family="Helvetica,sans-Serif" font-size="10.00">std::vector&lt; LocalVariable</text>
<text text-anchor="middle" x="400" y="-310.5" font-family="Helvetica,sans-Serif" font-size="10.00">TableStrInfo * &gt;</text>
<polyline fill="none" stroke="#bfbfbf" points="327,-303.5 473,-303.5 "/>
<text text-anchor="middle" x="400" y="-291.5" font-family="Helvetica,sans-Serif" font-size="10.00"> </text>
<polyline fill="none" stroke="#bfbfbf" points="327,-284.5 473,-284.5 "/>
<text text-anchor="middle" x="400" y="-272.5" font-family="Helvetica,sans-Serif" font-size="10.00"> </text>
</a>
</g>
</g>
<!-- Node7&#45;&gt;Node6 -->
<g id="edge6" class="edge">
<title>Node7&#45;&gt;Node6</title>
<path fill="none" stroke="midnightblue" d="M391.7,-255.2C388.34,-237.61 384.5,-217.61 381.36,-201.21"/>
<polygon fill="none" stroke="midnightblue" points="388.31,-256.07 393.63,-265.23 395.18,-254.75 388.31,-256.07"/>
</g>
</g>
</svg>
