<?xml version="1.0" encoding="UTF-8" standalone="no"?>
<!DOCTYPE svg PUBLIC "-//W3C//DTD SVG 1.1//EN"
 "http://www.w3.org/Graphics/SVG/1.1/DTD/svg11.dtd">
<!-- Generated by graphviz version 2.43.0 (0)
 -->
<!-- Title: Version Pages: 1 -->
<svg width="198pt" height="193pt"
 viewBox="0.00 0.00 198.00 193.00" xmlns="http://www.w3.org/2000/svg" xmlns:xlink="http://www.w3.org/1999/xlink">
<g id="graph0" class="graph" transform="scale(1 1) rotate(0) translate(4 189)">
<title>Version</title>
<!-- Node1 -->
<g id="node1" class="node">
<title>Node1</title>
<g id="a_node1"><a xlink:title="Versão Java do arquivo .class. Delega para si o processamento das versões Java.">
<polygon fill="#bfbfbf" stroke="black" points="80,-0.5 80,-79.5 152,-79.5 152,-0.5 80,-0.5"/>
<text text-anchor="middle" x="116" y="-67.5" font-family="Helvetica,sans-Serif" font-size="10.00">Version</text>
<polyline fill="none" stroke="black" points="80,-60.5 152,-60.5 "/>
<text text-anchor="middle" x="116" y="-48.5" font-family="Helvetica,sans-Serif" font-size="10.00"> </text>
<polyline fill="none" stroke="black" points="80,-41.5 152,-41.5 "/>
<text text-anchor="start" x="88" y="-29.5" font-family="Helvetica,sans-Serif" font-size="10.00">+ Version()</text>
<text text-anchor="start" x="88" y="-18.5" font-family="Helvetica,sans-Serif" font-size="10.00">+ put()</text>
<text text-anchor="start" x="88" y="-7.5" font-family="Helvetica,sans-Serif" font-size="10.00">+ get()</text>
</a>
</g>
</g>
<!-- Node2 -->
<g id="node2" class="node">
<title>Node2</title>
<g id="a_node2"><a xlink:title=" ">
<polygon fill="none" stroke="#bfbfbf" points="0,-127.5 0,-184.5 128,-184.5 128,-127.5 0,-127.5"/>
<text text-anchor="middle" x="64" y="-172.5" font-family="Helvetica,sans-Serif" font-size="10.00">map&lt; u2, std::string &gt;</text>
<polyline fill="none" stroke="#bfbfbf" points="0,-165.5 128,-165.5 "/>
<text text-anchor="middle" x="64" y="-153.5" font-family="Helvetica,sans-Serif" font-size="10.00"> </text>
<polyline fill="none" stroke="#bfbfbf" points="0,-146.5 128,-146.5 "/>
<text text-anchor="middle" x="64" y="-134.5" font-family="Helvetica,sans-Serif" font-size="10.00"> </text>
</a>
</g>
</g>
<!-- Node2&#45;&gt;Node1 -->
<g id="edge1" class="edge">
<title>Node2&#45;&gt;Node1</title>
<path fill="none" stroke="#404040" d="M65.01,-127.27C66.1,-117.71 68.16,-107.12 72,-98 73.13,-95.33 74.41,-92.67 75.81,-90.05"/>
<polygon fill="none" stroke="#404040" points="75.96,-89.8 75.63,-82.59 82.15,-79.52 82.48,-86.72 75.96,-89.8"/>
<text text-anchor="middle" x="109" y="-101" font-family="Helvetica,sans-Serif" font-size="10.00"> +versionsMap</text>
</g>
<!-- Node3 -->
<g id="node3" class="node">
<title>Node3</title>
<g id="a_node3"><a xlink:title=" ">
<polygon fill="none" stroke="#bfbfbf" points="146,-127.5 146,-184.5 190,-184.5 190,-127.5 146,-127.5"/>
<text text-anchor="middle" x="168" y="-172.5" font-family="Helvetica,sans-Serif" font-size="10.00">string</text>
<polyline fill="none" stroke="#bfbfbf" points="146,-165.5 190,-165.5 "/>
<text text-anchor="middle" x="168" y="-153.5" font-family="Helvetica,sans-Serif" font-size="10.00"> </text>
<polyline fill="none" stroke="#bfbfbf" points="146,-146.5 190,-146.5 "/>
<text text-anchor="middle" x="168" y="-134.5" font-family="Helvetica,sans-Serif" font-size="10.00"> </text>
</a>
</g>
</g>
<!-- Node3&#45;&gt;Node1 -->
<g id="edge2" class="edge">
<title>Node3&#45;&gt;Node1</title>
<path fill="none" stroke="#404040" d="M158.12,-127.48C154.53,-118.04 150.3,-107.46 146,-98 144.89,-95.56 143.73,-93.08 142.53,-90.58"/>
<polygon fill="none" stroke="#404040" points="142.44,-90.39 136.19,-86.79 137.11,-79.64 143.35,-83.24 142.44,-90.39"/>
<text text-anchor="middle" x="159" y="-101" font-family="Helvetica,sans-Serif" font-size="10.00"> +v</text>
</g>
</g>
</svg>
