<?xml version="1.0" encoding="UTF-8" standalone="no"?>
<!DOCTYPE svg PUBLIC "-//W3C//DTD SVG 1.1//EN"
 "http://www.w3.org/Graphics/SVG/1.1/DTD/svg11.dtd">
<!-- Generated by graphviz version 2.43.0 (0)
 -->
<!-- Title: AttributeInfo Pages: 1 -->
<svg width="303pt" height="215pt"
 viewBox="0.00 0.00 303.00 215.00" xmlns="http://www.w3.org/2000/svg" xmlns:xlink="http://www.w3.org/1999/xlink">
<g id="graph0" class="graph" transform="scale(1 1) rotate(0) translate(4 211)">
<title>AttributeInfo</title>
<!-- Node1 -->
<g id="node1" class="node">
<title>Node1</title>
<g id="a_node1"><a xlink:title="Classe base a ser herdada pelas classes das entradas do vetor Attributes, contendo membros gerais.">
<polygon fill="#bfbfbf" stroke="black" points="112.5,-0.5 112.5,-101.5 209.5,-101.5 209.5,-0.5 112.5,-0.5"/>
<text text-anchor="middle" x="161" y="-89.5" font-family="Helvetica,sans-Serif" font-size="10.00">AttributeInfo</text>
<polyline fill="none" stroke="black" points="112.5,-82.5 209.5,-82.5 "/>
<text text-anchor="middle" x="161" y="-70.5" font-family="Helvetica,sans-Serif" font-size="10.00"> </text>
<polyline fill="none" stroke="black" points="112.5,-63.5 209.5,-63.5 "/>
<text text-anchor="start" x="120.5" y="-51.5" font-family="Helvetica,sans-Serif" font-size="10.00">+ AttributeInfo()</text>
<text text-anchor="start" x="120.5" y="-40.5" font-family="Helvetica,sans-Serif" font-size="10.00">+ AttributeInfo()</text>
<text text-anchor="start" x="120.5" y="-29.5" font-family="Helvetica,sans-Serif" font-size="10.00">+ generalInfo()</text>
<text text-anchor="start" x="120.5" y="-18.5" font-family="Helvetica,sans-Serif" font-size="10.00">+ print()</text>
<text text-anchor="start" x="120.5" y="-7.5" font-family="Helvetica,sans-Serif" font-size="10.00">+ print()</text>
</a>
</g>
</g>
<!-- Node2 -->
<g id="node2" class="node">
<title>Node2</title>
<g id="a_node2"><a xlink:title=" ">
<polygon fill="none" stroke="#bfbfbf" points="0,-149.5 0,-206.5 56,-206.5 56,-149.5 0,-149.5"/>
<text text-anchor="middle" x="28" y="-194.5" font-family="Helvetica,sans-Serif" font-size="10.00">uint16_t</text>
<polyline fill="none" stroke="#bfbfbf" points="0,-187.5 56,-187.5 "/>
<text text-anchor="middle" x="28" y="-175.5" font-family="Helvetica,sans-Serif" font-size="10.00"> </text>
<polyline fill="none" stroke="#bfbfbf" points="0,-168.5 56,-168.5 "/>
<text text-anchor="middle" x="28" y="-156.5" font-family="Helvetica,sans-Serif" font-size="10.00"> </text>
</a>
</g>
</g>
<!-- Node2&#45;&gt;Node1 -->
<g id="edge1" class="edge">
<title>Node2&#45;&gt;Node1</title>
<path fill="none" stroke="#404040" d="M33.03,-149.23C35.88,-139.23 40.27,-128.37 47,-120 61.44,-102.05 81.99,-87.74 101.68,-76.98"/>
<polygon fill="none" stroke="#404040" points="101.83,-76.9 105.31,-70.58 112.48,-71.36 109,-77.68 101.83,-76.9"/>
<text text-anchor="middle" x="102" y="-123" font-family="Helvetica,sans-Serif" font-size="10.00"> +attributeNameIndex</text>
</g>
<!-- Node3 -->
<g id="node3" class="node">
<title>Node3</title>
<g id="a_node3"><a xlink:title=" ">
<polygon fill="none" stroke="#bfbfbf" points="133,-149.5 133,-206.5 189,-206.5 189,-149.5 133,-149.5"/>
<text text-anchor="middle" x="161" y="-194.5" font-family="Helvetica,sans-Serif" font-size="10.00">uint32_t</text>
<polyline fill="none" stroke="#bfbfbf" points="133,-187.5 189,-187.5 "/>
<text text-anchor="middle" x="161" y="-175.5" font-family="Helvetica,sans-Serif" font-size="10.00"> </text>
<polyline fill="none" stroke="#bfbfbf" points="133,-168.5 189,-168.5 "/>
<text text-anchor="middle" x="161" y="-156.5" font-family="Helvetica,sans-Serif" font-size="10.00"> </text>
</a>
</g>
</g>
<!-- Node3&#45;&gt;Node1 -->
<g id="edge2" class="edge">
<title>Node3&#45;&gt;Node1</title>
<path fill="none" stroke="#404040" d="M161,-149.26C161,-138.79 161,-126.42 161,-114.07"/>
<polygon fill="none" stroke="#404040" points="161,-113.8 157,-107.8 161,-101.8 165,-107.8 161,-113.8"/>
<text text-anchor="middle" x="204.5" y="-123" font-family="Helvetica,sans-Serif" font-size="10.00"> +attributeLength</text>
</g>
<!-- Node4 -->
<g id="node4" class="node">
<title>Node4</title>
<g id="a_node4"><a xlink:title=" ">
<polygon fill="none" stroke="#bfbfbf" points="249,-149.5 249,-206.5 293,-206.5 293,-149.5 249,-149.5"/>
<text text-anchor="middle" x="271" y="-194.5" font-family="Helvetica,sans-Serif" font-size="10.00">string</text>
<polyline fill="none" stroke="#bfbfbf" points="249,-187.5 293,-187.5 "/>
<text text-anchor="middle" x="271" y="-175.5" font-family="Helvetica,sans-Serif" font-size="10.00"> </text>
<polyline fill="none" stroke="#bfbfbf" points="249,-168.5 293,-168.5 "/>
<text text-anchor="middle" x="271" y="-156.5" font-family="Helvetica,sans-Serif" font-size="10.00"> </text>
</a>
</g>
</g>
<!-- Node4&#45;&gt;Node1 -->
<g id="edge3" class="edge">
<title>Node4&#45;&gt;Node1</title>
<path fill="none" stroke="#404040" d="M263.72,-149.35C260.27,-139.49 255.47,-128.67 249,-120 240.7,-108.87 230.12,-98.62 219.19,-89.64"/>
<polygon fill="none" stroke="#404040" points="218.99,-89.49 211.8,-88.94 209.54,-82.09 216.73,-82.64 218.99,-89.49"/>
<text text-anchor="middle" x="275" y="-123" font-family="Helvetica,sans-Serif" font-size="10.00"> +name</text>
</g>
</g>
</svg>
