<?xml version="1.0" encoding="UTF-8" standalone="no"?>
<!DOCTYPE svg PUBLIC "-//W3C//DTD SVG 1.1//EN"
 "http://www.w3.org/Graphics/SVG/1.1/DTD/svg11.dtd">
<!-- Generated by graphviz version 2.43.0 (0)
 -->
<!-- Title: AcessFlags Pages: 1 -->
<svg width="163pt" height="204pt"
 viewBox="0.00 0.00 162.50 204.00" xmlns="http://www.w3.org/2000/svg" xmlns:xlink="http://www.w3.org/1999/xlink">
<g id="graph0" class="graph" transform="scale(1 1) rotate(0) translate(4 200)">
<title>AcessFlags</title>
<!-- Node1 -->
<g id="node1" class="node">
<title>Node1</title>
<g id="a_node1"><a xlink:title="Flags de acesso Delega para si o processamento das flags de acesso.">
<polygon fill="#bfbfbf" stroke="black" points="22.5,-0.5 22.5,-79.5 112.5,-79.5 112.5,-0.5 22.5,-0.5"/>
<text text-anchor="middle" x="67.5" y="-67.5" font-family="Helvetica,sans-Serif" font-size="10.00">AcessFlags</text>
<polyline fill="none" stroke="black" points="22.5,-60.5 112.5,-60.5 "/>
<text text-anchor="middle" x="67.5" y="-48.5" font-family="Helvetica,sans-Serif" font-size="10.00"> </text>
<polyline fill="none" stroke="black" points="22.5,-41.5 112.5,-41.5 "/>
<text text-anchor="start" x="30.5" y="-29.5" font-family="Helvetica,sans-Serif" font-size="10.00">+ AcessFlags()</text>
<text text-anchor="start" x="30.5" y="-18.5" font-family="Helvetica,sans-Serif" font-size="10.00">+ set()</text>
<text text-anchor="start" x="30.5" y="-7.5" font-family="Helvetica,sans-Serif" font-size="10.00">+ print()</text>
</a>
</g>
</g>
<!-- Node2 -->
<g id="node2" class="node">
<title>Node2</title>
<g id="a_node2"><a xlink:title=" ">
<polygon fill="none" stroke="#bfbfbf" points="0,-127.5 0,-195.5 135,-195.5 135,-127.5 0,-127.5"/>
<text text-anchor="start" x="8" y="-183.5" font-family="Helvetica,sans-Serif" font-size="10.00">map&lt; enumAcessFlags,</text>
<text text-anchor="middle" x="67.5" y="-172.5" font-family="Helvetica,sans-Serif" font-size="10.00"> bool &gt;</text>
<polyline fill="none" stroke="#bfbfbf" points="0,-165.5 135,-165.5 "/>
<text text-anchor="middle" x="67.5" y="-153.5" font-family="Helvetica,sans-Serif" font-size="10.00"> </text>
<polyline fill="none" stroke="#bfbfbf" points="0,-146.5 135,-146.5 "/>
<text text-anchor="middle" x="67.5" y="-134.5" font-family="Helvetica,sans-Serif" font-size="10.00"> </text>
</a>
</g>
</g>
<!-- Node2&#45;&gt;Node1 -->
<g id="edge1" class="edge">
<title>Node2&#45;&gt;Node1</title>
<path fill="none" stroke="#404040" d="M67.5,-127.21C67.5,-116.24 67.5,-103.78 67.5,-91.81"/>
<polygon fill="none" stroke="#404040" points="67.5,-91.6 63.5,-85.6 67.5,-79.6 71.5,-85.6 67.5,-91.6"/>
<text text-anchor="middle" x="111" y="-101" font-family="Helvetica,sans-Serif" font-size="10.00"> +acessFlagsMap</text>
</g>
</g>
</svg>
