<?xml version="1.0" encoding="UTF-8" standalone="no"?>
<!DOCTYPE svg PUBLIC "-//W3C//DTD SVG 1.1//EN"
 "http://www.w3.org/Graphics/SVG/1.1/DTD/svg11.dtd">
<!-- Generated by graphviz version 2.43.0 (0)
 -->
<!-- Title: S2OperandOpcode Pages: 1 -->
<svg width="133pt" height="248pt"
 viewBox="0.00 0.00 133.00 248.00" xmlns="http://www.w3.org/2000/svg" xmlns:xlink="http://www.w3.org/1999/xlink">
<g id="graph0" class="graph" transform="scale(1 1) rotate(0) translate(4 244)">
<title>S2OperandOpcode</title>
<!-- Node1 -->
<g id="node1" class="node">
<title>Node1</title>
<g id="a_node1"><a xlink:title="Opcode com dois bytes de operandos com sinal. Os dois bytes são juntados para formarem um inteiro de ...">
<polygon fill="#bfbfbf" stroke="black" points="0,-0.5 0,-68.5 125,-68.5 125,-0.5 0,-0.5"/>
<text text-anchor="middle" x="62.5" y="-56.5" font-family="Helvetica,sans-Serif" font-size="10.00">S2OperandOpcode</text>
<polyline fill="none" stroke="black" points="0,-49.5 125,-49.5 "/>
<text text-anchor="middle" x="62.5" y="-37.5" font-family="Helvetica,sans-Serif" font-size="10.00"> </text>
<polyline fill="none" stroke="black" points="0,-30.5 125,-30.5 "/>
<text text-anchor="start" x="8" y="-18.5" font-family="Helvetica,sans-Serif" font-size="10.00">+ getString()</text>
<text text-anchor="start" x="8" y="-7.5" font-family="Helvetica,sans-Serif" font-size="10.00">+ S2OperandOpcode()</text>
</a>
</g>
</g>
<!-- Node2 -->
<g id="node2" class="node">
<title>Node2</title>
<g id="a_node2"><a xlink:href="class_opcode.xhtml" target="_top" xlink:title="Classe base para Opcodes. Ainda não está pronta para ser uma classe completa para instruções,...">
<polygon fill="none" stroke="black" points="19,-105.5 19,-239.5 106,-239.5 106,-105.5 19,-105.5"/>
<text text-anchor="middle" x="62.5" y="-227.5" font-family="Helvetica,sans-Serif" font-size="10.00">Opcode</text>
<polyline fill="none" stroke="black" points="19,-220.5 106,-220.5 "/>
<text text-anchor="start" x="27" y="-208.5" font-family="Helvetica,sans-Serif" font-size="10.00">+ knowsCode</text>
<text text-anchor="start" x="27" y="-197.5" font-family="Helvetica,sans-Serif" font-size="10.00"># name</text>
<text text-anchor="start" x="27" y="-186.5" font-family="Helvetica,sans-Serif" font-size="10.00"># code</text>
<text text-anchor="start" x="27" y="-175.5" font-family="Helvetica,sans-Serif" font-size="10.00"># position</text>
<text text-anchor="start" x="27" y="-164.5" font-family="Helvetica,sans-Serif" font-size="10.00"># cp</text>
<polyline fill="none" stroke="black" points="19,-157.5 106,-157.5 "/>
<text text-anchor="start" x="27" y="-145.5" font-family="Helvetica,sans-Serif" font-size="10.00">+ Opcode()</text>
<text text-anchor="start" x="27" y="-134.5" font-family="Helvetica,sans-Serif" font-size="10.00">+ ~Opcode()</text>
<text text-anchor="start" x="27" y="-123.5" font-family="Helvetica,sans-Serif" font-size="10.00">+ getString()</text>
<text text-anchor="start" x="27" y="-112.5" font-family="Helvetica,sans-Serif" font-size="10.00">+ injectCode()</text>
</a>
</g>
</g>
<!-- Node2&#45;&gt;Node1 -->
<g id="edge1" class="edge">
<title>Node2&#45;&gt;Node1</title>
<path fill="none" stroke="midnightblue" d="M62.5,-95.37C62.5,-86.08 62.5,-77 62.5,-68.83"/>
<polygon fill="none" stroke="midnightblue" points="59,-95.49 62.5,-105.49 66,-95.49 59,-95.49"/>
</g>
</g>
</svg>
