<?xml version="1.0" encoding="UTF-8" standalone="no"?>
<!DOCTYPE svg PUBLIC "-//W3C//DTD SVG 1.1//EN"
 "http://www.w3.org/Graphics/SVG/1.1/DTD/svg11.dtd">
<!-- Generated by graphviz version 2.43.0 (0)
 -->
<!-- Title: Opcode Pages: 1 -->
<svg width="1992pt" height="259pt"
 viewBox="0.00 0.00 1992.00 259.00" xmlns="http://www.w3.org/2000/svg" xmlns:xlink="http://www.w3.org/1999/xlink">
<g id="graph0" class="graph" transform="scale(1 1) rotate(0) translate(4 255)">
<title>Opcode</title>
<!-- Node1 -->
<g id="node1" class="node">
<title>Node1</title>
<g id="a_node1"><a xlink:title="Classe base para Opcodes. Ainda não está pronta para ser uma classe completa para instruções,...">
<polygon fill="#bfbfbf" stroke="black" points="892.5,-105.5 892.5,-250.5 979.5,-250.5 979.5,-105.5 892.5,-105.5"/>
<text text-anchor="middle" x="936" y="-238.5" font-family="Helvetica,sans-Serif" font-size="10.00">Opcode</text>
<polyline fill="none" stroke="black" points="892.5,-231.5 979.5,-231.5 "/>
<text text-anchor="start" x="900.5" y="-219.5" font-family="Helvetica,sans-Serif" font-size="10.00">+ knowsCode</text>
<text text-anchor="start" x="900.5" y="-208.5" font-family="Helvetica,sans-Serif" font-size="10.00">+ knowsCp</text>
<text text-anchor="start" x="900.5" y="-197.5" font-family="Helvetica,sans-Serif" font-size="10.00"># name</text>
<text text-anchor="start" x="900.5" y="-186.5" font-family="Helvetica,sans-Serif" font-size="10.00"># code</text>
<text text-anchor="start" x="900.5" y="-175.5" font-family="Helvetica,sans-Serif" font-size="10.00"># position</text>
<text text-anchor="start" x="900.5" y="-164.5" font-family="Helvetica,sans-Serif" font-size="10.00"># cp</text>
<polyline fill="none" stroke="black" points="892.5,-157.5 979.5,-157.5 "/>
<text text-anchor="start" x="900.5" y="-145.5" font-family="Helvetica,sans-Serif" font-size="10.00">+ Opcode()</text>
<text text-anchor="start" x="900.5" y="-134.5" font-family="Helvetica,sans-Serif" font-size="10.00">+ ~Opcode()</text>
<text text-anchor="start" x="900.5" y="-123.5" font-family="Helvetica,sans-Serif" font-size="10.00">+ getString()</text>
<text text-anchor="start" x="900.5" y="-112.5" font-family="Helvetica,sans-Serif" font-size="10.00">+ injectCode()</text>
</a>
</g>
</g>
<!-- Node2 -->
<g id="node2" class="node">
<title>Node2</title>
<g id="a_node2"><a xlink:href="class_increment_opcode.xhtml" target="_top" xlink:title="Opcode de incremento.">
<polygon fill="none" stroke="black" points="0,-0.5 0,-68.5 122,-68.5 122,-0.5 0,-0.5"/>
<text text-anchor="middle" x="61" y="-56.5" font-family="Helvetica,sans-Serif" font-size="10.00">IncrementOpcode</text>
<polyline fill="none" stroke="black" points="0,-49.5 122,-49.5 "/>
<text text-anchor="middle" x="61" y="-37.5" font-family="Helvetica,sans-Serif" font-size="10.00"> </text>
<polyline fill="none" stroke="black" points="0,-30.5 122,-30.5 "/>
<text text-anchor="start" x="8" y="-18.5" font-family="Helvetica,sans-Serif" font-size="10.00">+ getString()</text>
<text text-anchor="start" x="8" y="-7.5" font-family="Helvetica,sans-Serif" font-size="10.00">+ IncrementOpcode()</text>
</a>
</g>
</g>
<!-- Node1&#45;&gt;Node2 -->
<g id="edge1" class="edge">
<title>Node1&#45;&gt;Node2</title>
<path fill="none" stroke="midnightblue" d="M882.05,-175.55C750.77,-170.79 405.31,-150.82 131,-69 128.03,-68.11 125.03,-67.12 122.03,-66.04"/>
<polygon fill="none" stroke="midnightblue" points="882.13,-179.05 892.24,-175.9 882.37,-172.06 882.13,-179.05"/>
</g>
<!-- Node3 -->
<g id="node3" class="node">
<title>Node3</title>
<g id="a_node3"><a xlink:href="class_lookupswitch_opcode.xhtml" target="_top" xlink:title=" ">
<polygon fill="none" stroke="black" points="140.5,-0.5 140.5,-68.5 279.5,-68.5 279.5,-0.5 140.5,-0.5"/>
<text text-anchor="middle" x="210" y="-56.5" font-family="Helvetica,sans-Serif" font-size="10.00">LookupswitchOpcode</text>
<polyline fill="none" stroke="black" points="140.5,-49.5 279.5,-49.5 "/>
<text text-anchor="middle" x="210" y="-37.5" font-family="Helvetica,sans-Serif" font-size="10.00"> </text>
<polyline fill="none" stroke="black" points="140.5,-30.5 279.5,-30.5 "/>
<text text-anchor="start" x="148.5" y="-18.5" font-family="Helvetica,sans-Serif" font-size="10.00">+ getString()</text>
<text text-anchor="start" x="148.5" y="-7.5" font-family="Helvetica,sans-Serif" font-size="10.00">+ LookupswitchOpcode()</text>
</a>
</g>
</g>
<!-- Node1&#45;&gt;Node3 -->
<g id="edge2" class="edge">
<title>Node1&#45;&gt;Node3</title>
<path fill="none" stroke="midnightblue" d="M882.41,-172.36C770.38,-161.74 503.98,-131.57 289,-69 286,-68.13 282.95,-67.17 279.9,-66.15"/>
<polygon fill="none" stroke="midnightblue" points="882.16,-175.85 892.44,-173.3 882.81,-168.88 882.16,-175.85"/>
</g>
<!-- Node4 -->
<g id="node4" class="node">
<title>Node4</title>
<g id="a_node4"><a xlink:href="class_modify_opcode.xhtml" target="_top" xlink:title=" ">
<polygon fill="none" stroke="black" points="298,-0.5 298,-68.5 404,-68.5 404,-0.5 298,-0.5"/>
<text text-anchor="middle" x="351" y="-56.5" font-family="Helvetica,sans-Serif" font-size="10.00">ModifyOpcode</text>
<polyline fill="none" stroke="black" points="298,-49.5 404,-49.5 "/>
<text text-anchor="middle" x="351" y="-37.5" font-family="Helvetica,sans-Serif" font-size="10.00"> </text>
<polyline fill="none" stroke="black" points="298,-30.5 404,-30.5 "/>
<text text-anchor="start" x="306" y="-18.5" font-family="Helvetica,sans-Serif" font-size="10.00">+ getString()</text>
<text text-anchor="start" x="306" y="-7.5" font-family="Helvetica,sans-Serif" font-size="10.00">+ ModifyOpcode()</text>
</a>
</g>
</g>
<!-- Node1&#45;&gt;Node4 -->
<g id="edge3" class="edge">
<title>Node1&#45;&gt;Node4</title>
<path fill="none" stroke="midnightblue" d="M882.39,-171.16C786.06,-159.54 578.36,-129.27 413,-69 410.13,-67.95 407.22,-66.79 404.32,-65.55"/>
<polygon fill="none" stroke="midnightblue" points="882.12,-174.66 892.46,-172.36 882.95,-167.71 882.12,-174.66"/>
</g>
<!-- Node5 -->
<g id="node5" class="node">
<title>Node5</title>
<g id="a_node5"><a xlink:href="class_multi_new_array_opcode.xhtml" target="_top" xlink:title=" ">
<polygon fill="none" stroke="black" points="422.5,-0.5 422.5,-68.5 567.5,-68.5 567.5,-0.5 422.5,-0.5"/>
<text text-anchor="middle" x="495" y="-56.5" font-family="Helvetica,sans-Serif" font-size="10.00">MultiNewArrayOpcode</text>
<polyline fill="none" stroke="black" points="422.5,-49.5 567.5,-49.5 "/>
<text text-anchor="middle" x="495" y="-37.5" font-family="Helvetica,sans-Serif" font-size="10.00"> </text>
<polyline fill="none" stroke="black" points="422.5,-30.5 567.5,-30.5 "/>
<text text-anchor="start" x="430.5" y="-18.5" font-family="Helvetica,sans-Serif" font-size="10.00">+ getString()</text>
<text text-anchor="start" x="430.5" y="-7.5" font-family="Helvetica,sans-Serif" font-size="10.00">+ MultiNewArrayOpcode()</text>
</a>
</g>
</g>
<!-- Node1&#45;&gt;Node5 -->
<g id="edge4" class="edge">
<title>Node1&#45;&gt;Node5</title>
<path fill="none" stroke="midnightblue" d="M882.29,-162.71C811.46,-143.45 683.23,-107.15 576,-69 573.28,-68.03 570.51,-67.02 567.72,-65.98"/>
<polygon fill="none" stroke="midnightblue" points="881.75,-166.19 892.32,-165.43 883.58,-159.43 881.75,-166.19"/>
</g>
<!-- Node6 -->
<g id="node6" class="node">
<title>Node6</title>
<g id="a_node6"><a xlink:href="class_s2_operand_opcode.xhtml" target="_top" xlink:title="Opcode com dois bytes de operandos com sinal. Os dois bytes são juntados para formarem um inteiro de ...">
<polygon fill="none" stroke="black" points="585.5,-0.5 585.5,-68.5 710.5,-68.5 710.5,-0.5 585.5,-0.5"/>
<text text-anchor="middle" x="648" y="-56.5" font-family="Helvetica,sans-Serif" font-size="10.00">S2OperandOpcode</text>
<polyline fill="none" stroke="black" points="585.5,-49.5 710.5,-49.5 "/>
<text text-anchor="middle" x="648" y="-37.5" font-family="Helvetica,sans-Serif" font-size="10.00"> </text>
<polyline fill="none" stroke="black" points="585.5,-30.5 710.5,-30.5 "/>
<text text-anchor="start" x="593.5" y="-18.5" font-family="Helvetica,sans-Serif" font-size="10.00">+ getString()</text>
<text text-anchor="start" x="593.5" y="-7.5" font-family="Helvetica,sans-Serif" font-size="10.00">+ S2OperandOpcode()</text>
</a>
</g>
</g>
<!-- Node1&#45;&gt;Node6 -->
<g id="edge5" class="edge">
<title>Node1&#45;&gt;Node6</title>
<path fill="none" stroke="midnightblue" d="M883.15,-151.03C834.47,-127.12 762.18,-91.6 710.62,-66.26"/>
<polygon fill="none" stroke="midnightblue" points="881.74,-154.24 892.26,-155.51 884.83,-147.96 881.74,-154.24"/>
</g>
<!-- Node7 -->
<g id="node7" class="node">
<title>Node7</title>
<g id="a_node7"><a xlink:href="class_s4_operand_opcode.xhtml" target="_top" xlink:title=" ">
<polygon fill="none" stroke="black" points="728.5,-0.5 728.5,-68.5 853.5,-68.5 853.5,-0.5 728.5,-0.5"/>
<text text-anchor="middle" x="791" y="-56.5" font-family="Helvetica,sans-Serif" font-size="10.00">S4OperandOpcode</text>
<polyline fill="none" stroke="black" points="728.5,-49.5 853.5,-49.5 "/>
<text text-anchor="middle" x="791" y="-37.5" font-family="Helvetica,sans-Serif" font-size="10.00"> </text>
<polyline fill="none" stroke="black" points="728.5,-30.5 853.5,-30.5 "/>
<text text-anchor="start" x="736.5" y="-18.5" font-family="Helvetica,sans-Serif" font-size="10.00">+ getString()</text>
<text text-anchor="start" x="736.5" y="-7.5" font-family="Helvetica,sans-Serif" font-size="10.00">+ S4OperandOpcode()</text>
</a>
</g>
</g>
<!-- Node1&#45;&gt;Node7 -->
<g id="edge6" class="edge">
<title>Node1&#45;&gt;Node7</title>
<path fill="none" stroke="midnightblue" d="M885.3,-127.52C865.44,-108.14 843.17,-86.41 825.26,-68.94"/>
<polygon fill="none" stroke="midnightblue" points="882.89,-130.07 892.5,-134.55 887.78,-125.06 882.89,-130.07"/>
</g>
<!-- Node8 -->
<g id="node8" class="node">
<title>Node8</title>
<g id="a_node8"><a xlink:href="class_tableswitch_opcode.xhtml" target="_top" xlink:title=" ">
<polygon fill="none" stroke="black" points="871.5,-0.5 871.5,-68.5 1000.5,-68.5 1000.5,-0.5 871.5,-0.5"/>
<text text-anchor="middle" x="936" y="-56.5" font-family="Helvetica,sans-Serif" font-size="10.00">TableswitchOpcode</text>
<polyline fill="none" stroke="black" points="871.5,-49.5 1000.5,-49.5 "/>
<text text-anchor="middle" x="936" y="-37.5" font-family="Helvetica,sans-Serif" font-size="10.00"> </text>
<polyline fill="none" stroke="black" points="871.5,-30.5 1000.5,-30.5 "/>
<text text-anchor="start" x="879.5" y="-18.5" font-family="Helvetica,sans-Serif" font-size="10.00">+ getString()</text>
<text text-anchor="start" x="879.5" y="-7.5" font-family="Helvetica,sans-Serif" font-size="10.00">+ TableswitchOpcode()</text>
</a>
</g>
</g>
<!-- Node1&#45;&gt;Node8 -->
<g id="edge7" class="edge">
<title>Node1&#45;&gt;Node8</title>
<path fill="none" stroke="midnightblue" d="M936,-95.19C936,-85.83 936,-76.73 936,-68.58"/>
<polygon fill="none" stroke="midnightblue" points="932.5,-95.42 936,-105.42 939.5,-95.42 932.5,-95.42"/>
</g>
<!-- Node9 -->
<g id="node9" class="node">
<title>Node9</title>
<g id="a_node9"><a xlink:href="class_u1_operand_opcode.xhtml" target="_top" xlink:title="Opcode com um byte de operando.">
<polygon fill="none" stroke="black" points="1018.5,-0.5 1018.5,-68.5 1145.5,-68.5 1145.5,-0.5 1018.5,-0.5"/>
<text text-anchor="middle" x="1082" y="-56.5" font-family="Helvetica,sans-Serif" font-size="10.00">U1OperandOpcode</text>
<polyline fill="none" stroke="black" points="1018.5,-49.5 1145.5,-49.5 "/>
<text text-anchor="middle" x="1082" y="-37.5" font-family="Helvetica,sans-Serif" font-size="10.00"> </text>
<polyline fill="none" stroke="black" points="1018.5,-30.5 1145.5,-30.5 "/>
<text text-anchor="start" x="1026.5" y="-18.5" font-family="Helvetica,sans-Serif" font-size="10.00">+ getString()</text>
<text text-anchor="start" x="1026.5" y="-7.5" font-family="Helvetica,sans-Serif" font-size="10.00">+ U1OperandOpcode()</text>
</a>
</g>
</g>
<!-- Node1&#45;&gt;Node9 -->
<g id="edge8" class="edge">
<title>Node1&#45;&gt;Node9</title>
<path fill="none" stroke="midnightblue" d="M987.05,-127.52C1007.05,-108.14 1029.47,-86.41 1047.5,-68.94"/>
<polygon fill="none" stroke="midnightblue" points="984.55,-125.07 979.8,-134.55 989.42,-130.1 984.55,-125.07"/>
</g>
<!-- Node10 -->
<g id="node10" class="node">
<title>Node10</title>
<g id="a_node10"><a xlink:href="class_u1_operand_opcode_c_p.xhtml" target="_top" xlink:title=" ">
<polygon fill="none" stroke="black" points="1164,-0.5 1164,-68.5 1304,-68.5 1304,-0.5 1164,-0.5"/>
<text text-anchor="middle" x="1234" y="-56.5" font-family="Helvetica,sans-Serif" font-size="10.00">U1OperandOpcodeCP</text>
<polyline fill="none" stroke="black" points="1164,-49.5 1304,-49.5 "/>
<text text-anchor="middle" x="1234" y="-37.5" font-family="Helvetica,sans-Serif" font-size="10.00"> </text>
<polyline fill="none" stroke="black" points="1164,-30.5 1304,-30.5 "/>
<text text-anchor="start" x="1172" y="-18.5" font-family="Helvetica,sans-Serif" font-size="10.00">+ getString()</text>
<text text-anchor="start" x="1172" y="-7.5" font-family="Helvetica,sans-Serif" font-size="10.00">+ U1OperandOpcodeCP()</text>
</a>
</g>
</g>
<!-- Node1&#45;&gt;Node10 -->
<g id="edge9" class="edge">
<title>Node1&#45;&gt;Node10</title>
<path fill="none" stroke="midnightblue" d="M988.78,-151.94C1037.64,-128.74 1110.6,-94.1 1164.24,-68.63"/>
<polygon fill="none" stroke="midnightblue" points="987.18,-148.82 979.65,-156.27 990.19,-155.15 987.18,-148.82"/>
</g>
<!-- Node11 -->
<g id="node11" class="node">
<title>Node11</title>
<g id="a_node11"><a xlink:href="class_u2_operand_opcode.xhtml" target="_top" xlink:title="Opcode com dois bytes de operandos. Os dois bytes são juntados para formarem um u2 por (byte1 &lt;&lt; 8) |...">
<polygon fill="none" stroke="black" points="1322.5,-0.5 1322.5,-68.5 1449.5,-68.5 1449.5,-0.5 1322.5,-0.5"/>
<text text-anchor="middle" x="1386" y="-56.5" font-family="Helvetica,sans-Serif" font-size="10.00">U2OperandOpcode</text>
<polyline fill="none" stroke="black" points="1322.5,-49.5 1449.5,-49.5 "/>
<text text-anchor="middle" x="1386" y="-37.5" font-family="Helvetica,sans-Serif" font-size="10.00"> </text>
<polyline fill="none" stroke="black" points="1322.5,-30.5 1449.5,-30.5 "/>
<text text-anchor="start" x="1330.5" y="-18.5" font-family="Helvetica,sans-Serif" font-size="10.00">+ getString()</text>
<text text-anchor="start" x="1330.5" y="-7.5" font-family="Helvetica,sans-Serif" font-size="10.00">+ U2OperandOpcode()</text>
</a>
</g>
</g>
<!-- Node1&#45;&gt;Node11 -->
<g id="edge10" class="edge">
<title>Node1&#45;&gt;Node11</title>
<path fill="none" stroke="midnightblue" d="M989.65,-164.35C1063.51,-146.33 1200.19,-110.77 1313,-69 1316.01,-67.89 1319.06,-66.7 1322.14,-65.47"/>
<polygon fill="none" stroke="midnightblue" points="988.55,-161.02 979.65,-166.78 990.2,-167.82 988.55,-161.02"/>
</g>
<!-- Node12 -->
<g id="node12" class="node">
<title>Node12</title>
<g id="a_node12"><a xlink:href="class_u2_operand_opcode_c_p.xhtml" target="_top" xlink:title=" ">
<polygon fill="none" stroke="black" points="1468,-0.5 1468,-68.5 1608,-68.5 1608,-0.5 1468,-0.5"/>
<text text-anchor="middle" x="1538" y="-56.5" font-family="Helvetica,sans-Serif" font-size="10.00">U2OperandOpcodeCP</text>
<polyline fill="none" stroke="black" points="1468,-49.5 1608,-49.5 "/>
<text text-anchor="middle" x="1538" y="-37.5" font-family="Helvetica,sans-Serif" font-size="10.00"> </text>
<polyline fill="none" stroke="black" points="1468,-30.5 1608,-30.5 "/>
<text text-anchor="start" x="1476" y="-18.5" font-family="Helvetica,sans-Serif" font-size="10.00">+ getString()</text>
<text text-anchor="start" x="1476" y="-7.5" font-family="Helvetica,sans-Serif" font-size="10.00">+ U2OperandOpcodeCP()</text>
</a>
</g>
</g>
<!-- Node1&#45;&gt;Node12 -->
<g id="edge11" class="edge">
<title>Node1&#45;&gt;Node12</title>
<path fill="none" stroke="midnightblue" d="M989.81,-169.48C1085.61,-155.3 1291.41,-121.27 1459,-69 1461.84,-68.11 1464.73,-67.16 1467.62,-66.16"/>
<polygon fill="none" stroke="midnightblue" points="989.17,-166.04 979.79,-170.95 990.19,-172.96 989.17,-166.04"/>
</g>
<!-- Node13 -->
<g id="node13" class="node">
<title>Node13</title>
<g id="a_node13"><a xlink:href="class_u2_operand_opcode_c_p_class.xhtml" target="_top" xlink:title=" ">
<polygon fill="none" stroke="black" points="1626,-0.5 1626,-68.5 1792,-68.5 1792,-0.5 1626,-0.5"/>
<text text-anchor="middle" x="1709" y="-56.5" font-family="Helvetica,sans-Serif" font-size="10.00">U2OperandOpcodeCPClass</text>
<polyline fill="none" stroke="black" points="1626,-49.5 1792,-49.5 "/>
<text text-anchor="middle" x="1709" y="-37.5" font-family="Helvetica,sans-Serif" font-size="10.00"> </text>
<polyline fill="none" stroke="black" points="1626,-30.5 1792,-30.5 "/>
<text text-anchor="start" x="1634" y="-18.5" font-family="Helvetica,sans-Serif" font-size="10.00">+ getString()</text>
<text text-anchor="start" x="1634" y="-7.5" font-family="Helvetica,sans-Serif" font-size="10.00">+ U2OperandOpcodeCPClass()</text>
</a>
</g>
</g>
<!-- Node1&#45;&gt;Node13 -->
<g id="edge12" class="edge">
<title>Node1&#45;&gt;Node13</title>
<path fill="none" stroke="midnightblue" d="M989.65,-172.03C1105.58,-160.52 1387.51,-128.39 1617,-69 1619.96,-68.23 1622.96,-67.41 1625.98,-66.54"/>
<polygon fill="none" stroke="midnightblue" points="989.23,-168.55 979.62,-173.02 989.91,-175.52 989.23,-168.55"/>
</g>
<!-- Node14 -->
<g id="node14" class="node">
<title>Node14</title>
<g id="a_node14"><a xlink:href="class_u2_operand_opcode_c_p_double.xhtml" target="_top" xlink:title=" ">
<polygon fill="none" stroke="black" points="1810,-0.5 1810,-68.5 1984,-68.5 1984,-0.5 1810,-0.5"/>
<text text-anchor="middle" x="1897" y="-56.5" font-family="Helvetica,sans-Serif" font-size="10.00">U2OperandOpcodeCPDouble</text>
<polyline fill="none" stroke="black" points="1810,-49.5 1984,-49.5 "/>
<text text-anchor="middle" x="1897" y="-37.5" font-family="Helvetica,sans-Serif" font-size="10.00"> </text>
<polyline fill="none" stroke="black" points="1810,-30.5 1984,-30.5 "/>
<text text-anchor="start" x="1818" y="-18.5" font-family="Helvetica,sans-Serif" font-size="10.00">+ getString()</text>
<text text-anchor="start" x="1818" y="-7.5" font-family="Helvetica,sans-Serif" font-size="10.00">+ U2OperandOpcodeCPDouble()</text>
</a>
</g>
</g>
<!-- Node1&#45;&gt;Node14 -->
<g id="edge13" class="edge">
<title>Node1&#45;&gt;Node14</title>
<path fill="none" stroke="midnightblue" d="M990.01,-174.23C1127.17,-166.35 1499.41,-139.61 1801,-69 1803.92,-68.32 1806.88,-67.57 1809.85,-66.79"/>
<polygon fill="none" stroke="midnightblue" points="989.56,-170.75 979.78,-174.81 989.96,-177.74 989.56,-170.75"/>
</g>
</g>
</svg>
