<?xml version="1.0" encoding="UTF-8" standalone="no"?>
<!DOCTYPE svg PUBLIC "-//W3C//DTD SVG 1.1//EN"
 "http://www.w3.org/Graphics/SVG/1.1/DTD/svg11.dtd">
<!-- Generated by graphviz version 2.43.0 (0)
 -->
<!-- Title: SourceFile Pages: 1 -->
<svg width="320pt" height="332pt"
 viewBox="0.00 0.00 320.00 332.00" xmlns="http://www.w3.org/2000/svg" xmlns:xlink="http://www.w3.org/1999/xlink">
<g id="graph0" class="graph" transform="scale(1 1) rotate(0) translate(4 328)">
<title>SourceFile</title>
<!-- Node1 -->
<g id="node1" class="node">
<title>Node1</title>
<g id="a_node1"><a xlink:title=" ">
<polygon fill="#bfbfbf" stroke="black" points="14.5,-0.5 14.5,-79.5 99.5,-79.5 99.5,-0.5 14.5,-0.5"/>
<text text-anchor="middle" x="57" y="-67.5" font-family="Helvetica,sans-Serif" font-size="10.00">SourceFile</text>
<polyline fill="none" stroke="black" points="14.5,-60.5 99.5,-60.5 "/>
<text text-anchor="middle" x="57" y="-48.5" font-family="Helvetica,sans-Serif" font-size="10.00"> </text>
<polyline fill="none" stroke="black" points="14.5,-41.5 99.5,-41.5 "/>
<text text-anchor="start" x="22.5" y="-29.5" font-family="Helvetica,sans-Serif" font-size="10.00">+ SourceFile()</text>
<text text-anchor="start" x="22.5" y="-18.5" font-family="Helvetica,sans-Serif" font-size="10.00">+ SourceFile()</text>
<text text-anchor="start" x="22.5" y="-7.5" font-family="Helvetica,sans-Serif" font-size="10.00">+ print()</text>
</a>
</g>
</g>
<!-- Node2 -->
<g id="node2" class="node">
<title>Node2</title>
<g id="a_node2"><a xlink:href="class_attribute_info.xhtml" target="_top" xlink:title="Classe base a ser herdada pelas classes das entradas do vetor Attributes, contendo membros gerais.">
<polygon fill="none" stroke="black" points="122.5,-117.5 122.5,-218.5 219.5,-218.5 219.5,-117.5 122.5,-117.5"/>
<text text-anchor="middle" x="171" y="-206.5" font-family="Helvetica,sans-Serif" font-size="10.00">AttributeInfo</text>
<polyline fill="none" stroke="black" points="122.5,-199.5 219.5,-199.5 "/>
<text text-anchor="middle" x="171" y="-187.5" font-family="Helvetica,sans-Serif" font-size="10.00"> </text>
<polyline fill="none" stroke="black" points="122.5,-180.5 219.5,-180.5 "/>
<text text-anchor="start" x="130.5" y="-168.5" font-family="Helvetica,sans-Serif" font-size="10.00">+ AttributeInfo()</text>
<text text-anchor="start" x="130.5" y="-157.5" font-family="Helvetica,sans-Serif" font-size="10.00">+ AttributeInfo()</text>
<text text-anchor="start" x="130.5" y="-146.5" font-family="Helvetica,sans-Serif" font-size="10.00">+ generalInfo()</text>
<text text-anchor="start" x="130.5" y="-135.5" font-family="Helvetica,sans-Serif" font-size="10.00">+ print()</text>
<text text-anchor="start" x="130.5" y="-124.5" font-family="Helvetica,sans-Serif" font-size="10.00">+ print()</text>
</a>
</g>
</g>
<!-- Node2&#45;&gt;Node1 -->
<g id="edge1" class="edge">
<title>Node2&#45;&gt;Node1</title>
<path fill="none" stroke="midnightblue" d="M118.98,-109.5C109.8,-99.36 100.45,-89.02 91.89,-79.56"/>
<polygon fill="none" stroke="midnightblue" points="116.64,-112.13 125.94,-117.2 121.83,-107.44 116.64,-112.13"/>
</g>
<!-- Node3 -->
<g id="node3" class="node">
<title>Node3</title>
<g id="a_node3"><a xlink:title=" ">
<polygon fill="none" stroke="#bfbfbf" points="0,-266.5 0,-323.5 56,-323.5 56,-266.5 0,-266.5"/>
<text text-anchor="middle" x="28" y="-311.5" font-family="Helvetica,sans-Serif" font-size="10.00">uint16_t</text>
<polyline fill="none" stroke="#bfbfbf" points="0,-304.5 56,-304.5 "/>
<text text-anchor="middle" x="28" y="-292.5" font-family="Helvetica,sans-Serif" font-size="10.00"> </text>
<polyline fill="none" stroke="#bfbfbf" points="0,-285.5 56,-285.5 "/>
<text text-anchor="middle" x="28" y="-273.5" font-family="Helvetica,sans-Serif" font-size="10.00"> </text>
</a>
</g>
</g>
<!-- Node3&#45;&gt;Node1 -->
<g id="edge5" class="edge">
<title>Node3&#45;&gt;Node1</title>
<path fill="none" stroke="#404040" d="M24.24,-266.4C20.25,-231.3 15.8,-169.02 26,-117 27.7,-108.35 30.38,-99.44 33.48,-90.9"/>
<polygon fill="none" stroke="#404040" points="33.55,-90.73 32.01,-83.69 37.91,-79.55 39.46,-86.59 33.55,-90.73"/>
<text text-anchor="middle" x="69.5" y="-165.5" font-family="Helvetica,sans-Serif" font-size="10.00"> +sourcefileIndex</text>
</g>
<!-- Node3&#45;&gt;Node2 -->
<g id="edge2" class="edge">
<title>Node3&#45;&gt;Node2</title>
<path fill="none" stroke="#404040" d="M39.56,-266.26C44.89,-256.03 52.05,-245.01 61,-237 75.83,-223.73 84.73,-228.89 102,-219 105.4,-217.05 108.84,-214.97 112.27,-212.8"/>
<polygon fill="none" stroke="#404040" points="112.45,-212.69 115.27,-206.05 122.48,-206.1 119.66,-212.74 112.45,-212.69"/>
<text text-anchor="middle" x="116" y="-240" font-family="Helvetica,sans-Serif" font-size="10.00"> +attributeNameIndex</text>
</g>
<!-- Node4 -->
<g id="node4" class="node">
<title>Node4</title>
<g id="a_node4"><a xlink:title=" ">
<polygon fill="none" stroke="#bfbfbf" points="149,-266.5 149,-323.5 205,-323.5 205,-266.5 149,-266.5"/>
<text text-anchor="middle" x="177" y="-311.5" font-family="Helvetica,sans-Serif" font-size="10.00">uint32_t</text>
<polyline fill="none" stroke="#bfbfbf" points="149,-304.5 205,-304.5 "/>
<text text-anchor="middle" x="177" y="-292.5" font-family="Helvetica,sans-Serif" font-size="10.00"> </text>
<polyline fill="none" stroke="#bfbfbf" points="149,-285.5 205,-285.5 "/>
<text text-anchor="middle" x="177" y="-273.5" font-family="Helvetica,sans-Serif" font-size="10.00"> </text>
</a>
</g>
</g>
<!-- Node4&#45;&gt;Node2 -->
<g id="edge3" class="edge">
<title>Node4&#45;&gt;Node2</title>
<path fill="none" stroke="#404040" d="M175.67,-266.26C175.17,-255.79 174.57,-243.42 173.98,-231.07"/>
<polygon fill="none" stroke="#404040" points="173.97,-230.79 169.68,-224.99 173.39,-218.8 177.67,-224.6 173.97,-230.79"/>
<text text-anchor="middle" x="218.5" y="-240" font-family="Helvetica,sans-Serif" font-size="10.00"> +attributeLength</text>
</g>
<!-- Node5 -->
<g id="node5" class="node">
<title>Node5</title>
<g id="a_node5"><a xlink:title=" ">
<polygon fill="none" stroke="#bfbfbf" points="265,-266.5 265,-323.5 309,-323.5 309,-266.5 265,-266.5"/>
<text text-anchor="middle" x="287" y="-311.5" font-family="Helvetica,sans-Serif" font-size="10.00">string</text>
<polyline fill="none" stroke="#bfbfbf" points="265,-304.5 309,-304.5 "/>
<text text-anchor="middle" x="287" y="-292.5" font-family="Helvetica,sans-Serif" font-size="10.00"> </text>
<polyline fill="none" stroke="#bfbfbf" points="265,-285.5 309,-285.5 "/>
<text text-anchor="middle" x="287" y="-273.5" font-family="Helvetica,sans-Serif" font-size="10.00"> </text>
</a>
</g>
</g>
<!-- Node5&#45;&gt;Node2 -->
<g id="edge4" class="edge">
<title>Node5&#45;&gt;Node2</title>
<path fill="none" stroke="#404040" d="M279.86,-266.24C276.44,-256.36 271.6,-245.57 265,-237 255.3,-224.41 242.65,-213.13 229.8,-203.53"/>
<polygon fill="none" stroke="#404040" points="229.74,-203.49 222.53,-203.27 219.97,-196.53 227.18,-196.76 229.74,-203.49"/>
<text text-anchor="middle" x="292" y="-240" font-family="Helvetica,sans-Serif" font-size="10.00"> +name</text>
</g>
</g>
</svg>
