<?xml version="1.0" encoding="UTF-8" standalone="no"?>
<!DOCTYPE svg PUBLIC "-//W3C//DTD SVG 1.1//EN"
 "http://www.w3.org/Graphics/SVG/1.1/DTD/svg11.dtd">
<!-- Generated by graphviz version 2.43.0 (0)
 -->
<!-- Title: ExceptionTable Pages: 1 -->
<svg width="161pt" height="193pt"
 viewBox="0.00 0.00 161.00 193.00" xmlns="http://www.w3.org/2000/svg" xmlns:xlink="http://www.w3.org/1999/xlink">
<g id="graph0" class="graph" transform="scale(1 1) rotate(0) translate(4 189)">
<title>ExceptionTable</title>
<!-- Node1 -->
<g id="node1" class="node">
<title>Node1</title>
<g id="a_node1"><a xlink:title=" ">
<polygon fill="#bfbfbf" stroke="black" points="22,-0.5 22,-79.5 131,-79.5 131,-0.5 22,-0.5"/>
<text text-anchor="middle" x="76.5" y="-67.5" font-family="Helvetica,sans-Serif" font-size="10.00">ExceptionTable</text>
<polyline fill="none" stroke="black" points="22,-60.5 131,-60.5 "/>
<text text-anchor="middle" x="76.5" y="-48.5" font-family="Helvetica,sans-Serif" font-size="10.00"> </text>
<polyline fill="none" stroke="black" points="22,-41.5 131,-41.5 "/>
<text text-anchor="start" x="30" y="-29.5" font-family="Helvetica,sans-Serif" font-size="10.00">+ ExceptionTable()</text>
<text text-anchor="start" x="30" y="-18.5" font-family="Helvetica,sans-Serif" font-size="10.00">+ ExceptionTable()</text>
<text text-anchor="start" x="30" y="-7.5" font-family="Helvetica,sans-Serif" font-size="10.00">+ print()</text>
</a>
</g>
</g>
<!-- Node2 -->
<g id="node2" class="node">
<title>Node2</title>
<g id="a_node2"><a xlink:title=" ">
<polygon fill="none" stroke="#bfbfbf" points="0,-116.5 0,-184.5 153,-184.5 153,-116.5 0,-116.5"/>
<text text-anchor="start" x="8" y="-172.5" font-family="Helvetica,sans-Serif" font-size="10.00">std::vector&lt; ExceptionTable</text>
<text text-anchor="middle" x="76.5" y="-161.5" font-family="Helvetica,sans-Serif" font-size="10.00">Info * &gt;</text>
<polyline fill="none" stroke="#bfbfbf" points="0,-154.5 153,-154.5 "/>
<text text-anchor="middle" x="76.5" y="-142.5" font-family="Helvetica,sans-Serif" font-size="10.00"> </text>
<polyline fill="none" stroke="#bfbfbf" points="0,-135.5 153,-135.5 "/>
<text text-anchor="middle" x="76.5" y="-123.5" font-family="Helvetica,sans-Serif" font-size="10.00"> </text>
</a>
</g>
</g>
<!-- Node2&#45;&gt;Node1 -->
<g id="edge1" class="edge">
<title>Node2&#45;&gt;Node1</title>
<path fill="none" stroke="midnightblue" d="M76.5,-106.27C76.5,-97.48 76.5,-88.28 76.5,-79.65"/>
<polygon fill="none" stroke="midnightblue" points="73,-106.36 76.5,-116.36 80,-106.36 73,-106.36"/>
</g>
</g>
</svg>
