<?xml version="1.0" encoding="UTF-8" standalone="no"?>
<!DOCTYPE svg PUBLIC "-//W3C//DTD SVG 1.1//EN"
 "http://www.w3.org/Graphics/SVG/1.1/DTD/svg11.dtd">
<!-- Generated by graphviz version 2.43.0 (0)
 -->
<!-- Title: ClassFile Pages: 1 -->
<svg width="1228pt" height="430pt"
 viewBox="0.00 0.00 1228.00 430.00" xmlns="http://www.w3.org/2000/svg" xmlns:xlink="http://www.w3.org/1999/xlink">
<g id="graph0" class="graph" transform="scale(1 1) rotate(0) translate(4 426)">
<title>ClassFile</title>
<!-- Node1 -->
<g id="node1" class="node">
<title>Node1</title>
<g id="a_node1"><a xlink:title="Classe que representa o arquivo .class.">
<polygon fill="#bfbfbf" stroke="black" points="531.5,-0.5 531.5,-90.5 617.5,-90.5 617.5,-0.5 531.5,-0.5"/>
<text text-anchor="middle" x="574.5" y="-78.5" font-family="Helvetica,sans-Serif" font-size="10.00">ClassFile</text>
<polyline fill="none" stroke="black" points="531.5,-71.5 617.5,-71.5 "/>
<text text-anchor="middle" x="574.5" y="-59.5" font-family="Helvetica,sans-Serif" font-size="10.00"> </text>
<polyline fill="none" stroke="black" points="531.5,-52.5 617.5,-52.5 "/>
<text text-anchor="start" x="539.5" y="-40.5" font-family="Helvetica,sans-Serif" font-size="10.00">+ ClassFile()</text>
<text text-anchor="start" x="539.5" y="-29.5" font-family="Helvetica,sans-Serif" font-size="10.00">+ print()</text>
<text text-anchor="start" x="539.5" y="-18.5" font-family="Helvetica,sans-Serif" font-size="10.00">+ printBuf()</text>
<text text-anchor="start" x="539.5" y="-7.5" font-family="Helvetica,sans-Serif" font-size="10.00">+ ~ClassFile()</text>
</a>
</g>
</g>
<!-- Node2 -->
<g id="node2" class="node">
<title>Node2</title>
<g id="a_node2"><a xlink:href="class_acess_flags.xhtml" target="_top" xlink:title="Flags de acesso Delega para si o processamento das flags de acesso.">
<polygon fill="none" stroke="black" points="28.5,-182.5 28.5,-261.5 118.5,-261.5 118.5,-182.5 28.5,-182.5"/>
<text text-anchor="middle" x="73.5" y="-249.5" font-family="Helvetica,sans-Serif" font-size="10.00">AcessFlags</text>
<polyline fill="none" stroke="black" points="28.5,-242.5 118.5,-242.5 "/>
<text text-anchor="middle" x="73.5" y="-230.5" font-family="Helvetica,sans-Serif" font-size="10.00"> </text>
<polyline fill="none" stroke="black" points="28.5,-223.5 118.5,-223.5 "/>
<text text-anchor="start" x="36.5" y="-211.5" font-family="Helvetica,sans-Serif" font-size="10.00">+ AcessFlags()</text>
<text text-anchor="start" x="36.5" y="-200.5" font-family="Helvetica,sans-Serif" font-size="10.00">+ set()</text>
<text text-anchor="start" x="36.5" y="-189.5" font-family="Helvetica,sans-Serif" font-size="10.00">+ print()</text>
</a>
</g>
</g>
<!-- Node2&#45;&gt;Node1 -->
<g id="edge1" class="edge">
<title>Node2&#45;&gt;Node1</title>
<path fill="none" stroke="#404040" d="M68.2,-182.34C67.18,-157.97 70.55,-127.69 89.5,-109 149.14,-50.17 405.06,-44.9 519.19,-45.58"/>
<polygon fill="none" stroke="#404040" points="519.41,-45.58 525.44,-41.63 531.41,-45.67 525.38,-49.62 519.41,-45.58"/>
<text text-anchor="middle" x="122.5" y="-112" font-family="Helvetica,sans-Serif" font-size="10.00"> +acessFlags</text>
</g>
<!-- Node3 -->
<g id="node3" class="node">
<title>Node3</title>
<g id="a_node3"><a xlink:title=" ">
<polygon fill="none" stroke="#bfbfbf" points="0,-353.5 0,-421.5 135,-421.5 135,-353.5 0,-353.5"/>
<text text-anchor="start" x="8" y="-409.5" font-family="Helvetica,sans-Serif" font-size="10.00">map&lt; enumAcessFlags,</text>
<text text-anchor="middle" x="67.5" y="-398.5" font-family="Helvetica,sans-Serif" font-size="10.00"> bool &gt;</text>
<polyline fill="none" stroke="#bfbfbf" points="0,-391.5 135,-391.5 "/>
<text text-anchor="middle" x="67.5" y="-379.5" font-family="Helvetica,sans-Serif" font-size="10.00"> </text>
<polyline fill="none" stroke="#bfbfbf" points="0,-372.5 135,-372.5 "/>
<text text-anchor="middle" x="67.5" y="-360.5" font-family="Helvetica,sans-Serif" font-size="10.00"> </text>
</a>
</g>
</g>
<!-- Node3&#45;&gt;Node2 -->
<g id="edge2" class="edge">
<title>Node3&#45;&gt;Node2</title>
<path fill="none" stroke="#404040" d="M67.82,-353.41C67.97,-343.91 68.19,-333.54 68.5,-324 69.03,-307.8 69.83,-290.15 70.63,-274.2"/>
<polygon fill="none" stroke="#404040" points="70.65,-273.82 66.97,-267.62 71.27,-261.84 74.96,-268.04 70.65,-273.82"/>
<text text-anchor="middle" x="112" y="-327" font-family="Helvetica,sans-Serif" font-size="10.00"> +acessFlagsMap</text>
</g>
<!-- Node4 -->
<g id="node4" class="node">
<title>Node4</title>
<g id="a_node4"><a xlink:title=" ">
<polygon fill="none" stroke="#bfbfbf" points="179.5,-359 179.5,-416 235.5,-416 235.5,-359 179.5,-359"/>
<text text-anchor="middle" x="207.5" y="-404" font-family="Helvetica,sans-Serif" font-size="10.00">uint16_t</text>
<polyline fill="none" stroke="#bfbfbf" points="179.5,-397 235.5,-397 "/>
<text text-anchor="middle" x="207.5" y="-385" font-family="Helvetica,sans-Serif" font-size="10.00"> </text>
<polyline fill="none" stroke="#bfbfbf" points="179.5,-378 235.5,-378 "/>
<text text-anchor="middle" x="207.5" y="-366" font-family="Helvetica,sans-Serif" font-size="10.00"> </text>
</a>
</g>
</g>
<!-- Node4&#45;&gt;Node1 -->
<g id="edge3" class="edge">
<title>Node4&#45;&gt;Node1</title>
<path fill="none" stroke="#404040" d="M192.66,-358.74C168.2,-308.75 127,-202.76 178.5,-138 220.46,-85.24 420.4,-60.26 519.11,-50.99"/>
<polygon fill="none" stroke="#404040" points="519.25,-50.98 524.86,-46.45 531.2,-49.88 525.59,-54.41 519.25,-50.98"/>
<text text-anchor="middle" x="228.5" y="-274.5" font-family="Helvetica,sans-Serif" font-size="10.00"> +acessFlagsMask</text>
<text text-anchor="middle" x="228.5" y="-263.5" font-family="Helvetica,sans-Serif" font-size="10.00">+attributesCount</text>
<text text-anchor="middle" x="228.5" y="-252.5" font-family="Helvetica,sans-Serif" font-size="10.00">+constantPoolCount</text>
<text text-anchor="middle" x="228.5" y="-241.5" font-family="Helvetica,sans-Serif" font-size="10.00">+fieldsCount</text>
<text text-anchor="middle" x="228.5" y="-230.5" font-family="Helvetica,sans-Serif" font-size="10.00">+interfacesCount</text>
<text text-anchor="middle" x="228.5" y="-219.5" font-family="Helvetica,sans-Serif" font-size="10.00">+majorVersion</text>
<text text-anchor="middle" x="228.5" y="-208.5" font-family="Helvetica,sans-Serif" font-size="10.00">+methodsCount</text>
<text text-anchor="middle" x="228.5" y="-197.5" font-family="Helvetica,sans-Serif" font-size="10.00">+minorVersion</text>
<text text-anchor="middle" x="228.5" y="-186.5" font-family="Helvetica,sans-Serif" font-size="10.00">+superClassIdx</text>
<text text-anchor="middle" x="228.5" y="-175.5" font-family="Helvetica,sans-Serif" font-size="10.00">+thisClassIdx</text>
<text text-anchor="middle" x="228.5" y="-164.5" font-family="Helvetica,sans-Serif" font-size="10.00">...</text>
</g>
<!-- Node5 -->
<g id="node5" class="node">
<title>Node5</title>
<g id="a_node5"><a xlink:href="class_super_class.xhtml" target="_top" xlink:title="Classe da qual o arquivo herda. Delega a si processamentos da super classe.">
<polygon fill="none" stroke="black" points="288,-182.5 288,-261.5 377,-261.5 377,-182.5 288,-182.5"/>
<text text-anchor="middle" x="332.5" y="-249.5" font-family="Helvetica,sans-Serif" font-size="10.00">SuperClass</text>
<polyline fill="none" stroke="black" points="288,-242.5 377,-242.5 "/>
<text text-anchor="middle" x="332.5" y="-230.5" font-family="Helvetica,sans-Serif" font-size="10.00"> </text>
<polyline fill="none" stroke="black" points="288,-223.5 377,-223.5 "/>
<text text-anchor="start" x="296" y="-211.5" font-family="Helvetica,sans-Serif" font-size="10.00">+ SuperClass()</text>
<text text-anchor="start" x="296" y="-200.5" font-family="Helvetica,sans-Serif" font-size="10.00">+ set()</text>
<text text-anchor="start" x="296" y="-189.5" font-family="Helvetica,sans-Serif" font-size="10.00">+ print()</text>
</a>
</g>
</g>
<!-- Node4&#45;&gt;Node5 -->
<g id="edge5" class="edge">
<title>Node4&#45;&gt;Node5</title>
<path fill="none" stroke="#404040" d="M201.06,-358.86C199.92,-347.01 201,-333.7 208.5,-324 226.84,-300.29 248.96,-323.21 273.5,-306 286.18,-297.11 297.09,-284.59 305.95,-271.96"/>
<polygon fill="none" stroke="#404040" points="306,-271.89 305.98,-264.67 312.62,-261.88 312.65,-269.09 306,-271.89"/>
<text text-anchor="middle" x="235" y="-327" font-family="Helvetica,sans-Serif" font-size="10.00"> +idxClass</text>
</g>
<!-- Node10 -->
<g id="node10" class="node">
<title>Node10</title>
<g id="a_node10"><a xlink:href="class_this_class.xhtml" target="_top" xlink:title="Própria classe do arquivo. Delega a si processamentos da própria classe que o .class define.">
<polygon fill="none" stroke="black" points="395.5,-182.5 395.5,-261.5 477.5,-261.5 477.5,-182.5 395.5,-182.5"/>
<text text-anchor="middle" x="436.5" y="-249.5" font-family="Helvetica,sans-Serif" font-size="10.00">ThisClass</text>
<polyline fill="none" stroke="black" points="395.5,-242.5 477.5,-242.5 "/>
<text text-anchor="middle" x="436.5" y="-230.5" font-family="Helvetica,sans-Serif" font-size="10.00"> </text>
<polyline fill="none" stroke="black" points="395.5,-223.5 477.5,-223.5 "/>
<text text-anchor="start" x="403.5" y="-211.5" font-family="Helvetica,sans-Serif" font-size="10.00">+ ThisClass()</text>
<text text-anchor="start" x="403.5" y="-200.5" font-family="Helvetica,sans-Serif" font-size="10.00">+ set()</text>
<text text-anchor="start" x="403.5" y="-189.5" font-family="Helvetica,sans-Serif" font-size="10.00">+ print()</text>
</a>
</g>
</g>
<!-- Node4&#45;&gt;Node10 -->
<g id="edge11" class="edge">
<title>Node4&#45;&gt;Node10</title>
<path fill="none" stroke="#404040" d="M235.65,-365.87C255.43,-352.23 283,-334.93 309.5,-324 341.59,-310.77 357.37,-326.34 385.5,-306 397.49,-297.33 407.24,-284.89 414.89,-272.27"/>
<polygon fill="none" stroke="#404040" points="414.94,-272.17 414.39,-264.98 420.81,-261.7 421.37,-268.89 414.94,-272.17"/>
<text text-anchor="middle" x="336" y="-327" font-family="Helvetica,sans-Serif" font-size="10.00"> +idxClass</text>
</g>
<!-- Node5&#45;&gt;Node1 -->
<g id="edge4" class="edge">
<title>Node5&#45;&gt;Node1</title>
<path fill="none" stroke="#404040" d="M348.27,-182.36C359.83,-158.31 377.67,-128.38 401.5,-109 435.56,-81.31 482.92,-65.33 519.48,-56.48"/>
<polygon fill="none" stroke="#404040" points="519.73,-56.42 524.69,-51.18 531.43,-53.74 526.47,-58.98 519.73,-56.42"/>
<text text-anchor="middle" x="434" y="-112" font-family="Helvetica,sans-Serif" font-size="10.00"> +superClass</text>
</g>
<!-- Node6 -->
<g id="node6" class="node">
<title>Node6</title>
<g id="a_node6"><a xlink:title=" ">
<polygon fill="none" stroke="#bfbfbf" points="379.5,-359 379.5,-416 423.5,-416 423.5,-359 379.5,-359"/>
<text text-anchor="middle" x="401.5" y="-404" font-family="Helvetica,sans-Serif" font-size="10.00">string</text>
<polyline fill="none" stroke="#bfbfbf" points="379.5,-397 423.5,-397 "/>
<text text-anchor="middle" x="401.5" y="-385" font-family="Helvetica,sans-Serif" font-size="10.00"> </text>
<polyline fill="none" stroke="#bfbfbf" points="379.5,-378 423.5,-378 "/>
<text text-anchor="middle" x="401.5" y="-366" font-family="Helvetica,sans-Serif" font-size="10.00"> </text>
</a>
</g>
</g>
<!-- Node6&#45;&gt;Node5 -->
<g id="edge6" class="edge">
<title>Node6&#45;&gt;Node5</title>
<path fill="none" stroke="#404040" d="M382.65,-358.84C377.98,-351.31 373.25,-343.01 369.5,-335 360.33,-315.4 352.43,-292.9 346.31,-273.23"/>
<polygon fill="none" stroke="#404040" points="346.3,-273.2 340.73,-268.61 342.82,-261.71 348.39,-266.3 346.3,-273.2"/>
<text text-anchor="middle" x="389.5" y="-327" font-family="Helvetica,sans-Serif" font-size="10.00"> +name</text>
</g>
<!-- Node6&#45;&gt;Node10 -->
<g id="edge12" class="edge">
<title>Node6&#45;&gt;Node10</title>
<path fill="none" stroke="#404040" d="M407.44,-358.76C412.42,-335.51 419.65,-301.7 425.66,-273.64"/>
<polygon fill="none" stroke="#404040" points="425.72,-273.35 423.07,-266.65 428.23,-261.62 430.89,-268.32 425.72,-273.35"/>
<text text-anchor="middle" x="435.5" y="-327" font-family="Helvetica,sans-Serif" font-size="10.00"> +name</text>
</g>
<!-- Node11 -->
<g id="node11" class="node">
<title>Node11</title>
<g id="a_node11"><a xlink:href="class_version.xhtml" target="_top" xlink:title="Versão Java do arquivo .class. Delega para si o processamento das versões Java.">
<polygon fill="none" stroke="black" points="495.5,-182.5 495.5,-261.5 567.5,-261.5 567.5,-182.5 495.5,-182.5"/>
<text text-anchor="middle" x="531.5" y="-249.5" font-family="Helvetica,sans-Serif" font-size="10.00">Version</text>
<polyline fill="none" stroke="black" points="495.5,-242.5 567.5,-242.5 "/>
<text text-anchor="middle" x="531.5" y="-230.5" font-family="Helvetica,sans-Serif" font-size="10.00"> </text>
<polyline fill="none" stroke="black" points="495.5,-223.5 567.5,-223.5 "/>
<text text-anchor="start" x="503.5" y="-211.5" font-family="Helvetica,sans-Serif" font-size="10.00">+ Version()</text>
<text text-anchor="start" x="503.5" y="-200.5" font-family="Helvetica,sans-Serif" font-size="10.00">+ put()</text>
<text text-anchor="start" x="503.5" y="-189.5" font-family="Helvetica,sans-Serif" font-size="10.00">+ get()</text>
</a>
</g>
</g>
<!-- Node6&#45;&gt;Node11 -->
<g id="edge15" class="edge">
<title>Node6&#45;&gt;Node11</title>
<path fill="none" stroke="#404040" d="M423.56,-361.33C426.47,-358.42 429.49,-355.57 432.5,-353 443.47,-343.64 448.51,-344.34 459.5,-335 472.92,-323.59 476.22,-320.3 486.5,-306 493.97,-295.61 501.07,-283.84 507.32,-272.5"/>
<polygon fill="none" stroke="#404040" points="507.38,-272.39 506.69,-265.21 513.05,-261.81 513.74,-268.99 507.38,-272.39"/>
<text text-anchor="middle" x="480.5" y="-327" font-family="Helvetica,sans-Serif" font-size="10.00"> +v</text>
</g>
<!-- Node7 -->
<g id="node7" class="node">
<title>Node7</title>
<g id="a_node7"><a xlink:href="class_fields.xhtml" target="_top" xlink:title="Vetor de fields da JVM.">
<polygon fill="none" stroke="black" points="586,-182.5 586,-261.5 649,-261.5 649,-182.5 586,-182.5"/>
<text text-anchor="middle" x="617.5" y="-249.5" font-family="Helvetica,sans-Serif" font-size="10.00">Fields</text>
<polyline fill="none" stroke="black" points="586,-242.5 649,-242.5 "/>
<text text-anchor="middle" x="617.5" y="-230.5" font-family="Helvetica,sans-Serif" font-size="10.00"> </text>
<polyline fill="none" stroke="black" points="586,-223.5 649,-223.5 "/>
<text text-anchor="start" x="594" y="-211.5" font-family="Helvetica,sans-Serif" font-size="10.00">+ Fields()</text>
<text text-anchor="start" x="594" y="-200.5" font-family="Helvetica,sans-Serif" font-size="10.00">+ Fields()</text>
<text text-anchor="start" x="594" y="-189.5" font-family="Helvetica,sans-Serif" font-size="10.00">+ print()</text>
</a>
</g>
</g>
<!-- Node7&#45;&gt;Node1 -->
<g id="edge7" class="edge">
<title>Node7&#45;&gt;Node1</title>
<path fill="none" stroke="#404040" d="M607.96,-182.27C602.19,-158.87 594.74,-128.64 588.33,-102.64"/>
<polygon fill="none" stroke="#404040" points="588.25,-102.3 582.93,-97.44 585.38,-90.65 590.7,-95.52 588.25,-102.3"/>
<text text-anchor="middle" x="612" y="-112" font-family="Helvetica,sans-Serif" font-size="10.00"> +fields</text>
</g>
<!-- Node8 -->
<g id="node8" class="node">
<title>Node8</title>
<g id="a_node8"><a xlink:title=" ">
<polygon fill="none" stroke="#bfbfbf" points="587.5,-359 587.5,-416 727.5,-416 727.5,-359 587.5,-359"/>
<text text-anchor="middle" x="657.5" y="-404" font-family="Helvetica,sans-Serif" font-size="10.00">std::vector&lt; FieldInfo * &gt;</text>
<polyline fill="none" stroke="#bfbfbf" points="587.5,-397 727.5,-397 "/>
<text text-anchor="middle" x="657.5" y="-385" font-family="Helvetica,sans-Serif" font-size="10.00"> </text>
<polyline fill="none" stroke="#bfbfbf" points="587.5,-378 727.5,-378 "/>
<text text-anchor="middle" x="657.5" y="-366" font-family="Helvetica,sans-Serif" font-size="10.00"> </text>
</a>
</g>
</g>
<!-- Node8&#45;&gt;Node7 -->
<g id="edge8" class="edge">
<title>Node8&#45;&gt;Node7</title>
<path fill="none" stroke="midnightblue" d="M648.29,-348.85C641.89,-322.7 633.39,-287.97 626.95,-261.62"/>
<polygon fill="none" stroke="midnightblue" points="644.94,-349.88 650.71,-358.76 651.74,-348.22 644.94,-349.88"/>
</g>
<!-- Node9 -->
<g id="node9" class="node">
<title>Node9</title>
<g id="a_node9"><a xlink:title=" ">
<polygon fill="none" stroke="#bfbfbf" points="667.5,-193.5 667.5,-250.5 723.5,-250.5 723.5,-193.5 667.5,-193.5"/>
<text text-anchor="middle" x="695.5" y="-238.5" font-family="Helvetica,sans-Serif" font-size="10.00">uint32_t</text>
<polyline fill="none" stroke="#bfbfbf" points="667.5,-231.5 723.5,-231.5 "/>
<text text-anchor="middle" x="695.5" y="-219.5" font-family="Helvetica,sans-Serif" font-size="10.00"> </text>
<polyline fill="none" stroke="#bfbfbf" points="667.5,-212.5 723.5,-212.5 "/>
<text text-anchor="middle" x="695.5" y="-200.5" font-family="Helvetica,sans-Serif" font-size="10.00"> </text>
</a>
</g>
</g>
<!-- Node9&#45;&gt;Node1 -->
<g id="edge9" class="edge">
<title>Node9&#45;&gt;Node1</title>
<path fill="none" stroke="#404040" d="M684.63,-193.32C677.71,-176.81 668.08,-155.68 657.5,-138 648.73,-123.34 637.38,-108.94 625.9,-96.06"/>
<polygon fill="none" stroke="#404040" points="625.68,-95.81 618.67,-94.1 617.56,-86.97 624.57,-88.69 625.68,-95.81"/>
<text text-anchor="middle" x="665.5" y="-112" font-family="Helvetica,sans-Serif" font-size="10.00"> +magic</text>
</g>
<!-- Node10&#45;&gt;Node1 -->
<g id="edge10" class="edge">
<title>Node10&#45;&gt;Node1</title>
<path fill="none" stroke="#404040" d="M444.09,-182.38C450.14,-159.23 460.49,-130.26 477.5,-109 489.09,-94.51 504.99,-82.32 520.57,-72.67"/>
<polygon fill="none" stroke="#404040" points="520.9,-72.48 524.04,-65.99 531.24,-66.39 528.1,-72.88 520.9,-72.48"/>
<text text-anchor="middle" x="505.5" y="-112" font-family="Helvetica,sans-Serif" font-size="10.00"> +thisClass</text>
</g>
<!-- Node11&#45;&gt;Node1 -->
<g id="edge13" class="edge">
<title>Node11&#45;&gt;Node1</title>
<path fill="none" stroke="#404040" d="M530.14,-182.41C530.37,-160.47 532.4,-132.72 539.5,-109 540.22,-106.58 541.05,-104.15 541.97,-101.73"/>
<polygon fill="none" stroke="#404040" points="542.05,-101.54 540.74,-94.45 546.78,-90.51 548.09,-97.6 542.05,-101.54"/>
<text text-anchor="middle" x="563.5" y="-112" font-family="Helvetica,sans-Serif" font-size="10.00"> +version</text>
</g>
<!-- Node12 -->
<g id="node12" class="node">
<title>Node12</title>
<g id="a_node12"><a xlink:title=" ">
<polygon fill="none" stroke="#bfbfbf" points="441.5,-359 441.5,-416 569.5,-416 569.5,-359 441.5,-359"/>
<text text-anchor="middle" x="505.5" y="-404" font-family="Helvetica,sans-Serif" font-size="10.00">map&lt; u2, std::string &gt;</text>
<polyline fill="none" stroke="#bfbfbf" points="441.5,-397 569.5,-397 "/>
<text text-anchor="middle" x="505.5" y="-385" font-family="Helvetica,sans-Serif" font-size="10.00"> </text>
<polyline fill="none" stroke="#bfbfbf" points="441.5,-378 569.5,-378 "/>
<text text-anchor="middle" x="505.5" y="-366" font-family="Helvetica,sans-Serif" font-size="10.00"> </text>
</a>
</g>
</g>
<!-- Node12&#45;&gt;Node11 -->
<g id="edge14" class="edge">
<title>Node12&#45;&gt;Node11</title>
<path fill="none" stroke="#404040" d="M509.91,-358.76C513.61,-335.51 518.98,-301.7 523.45,-273.64"/>
<polygon fill="none" stroke="#404040" points="523.47,-273.47 520.47,-266.91 525.36,-261.62 528.37,-268.17 523.47,-273.47"/>
<text text-anchor="middle" x="552.5" y="-327" font-family="Helvetica,sans-Serif" font-size="10.00"> +versionsMap</text>
</g>
<!-- Node13 -->
<g id="node13" class="node">
<title>Node13</title>
<g id="a_node13"><a xlink:href="class_constant_pool.xhtml" target="_top" xlink:title="Vetor (tabela) das constantes. Cada entrada é do tipo Cpinfo.">
<polygon fill="none" stroke="black" points="742,-138.5 742,-305.5 871,-305.5 871,-138.5 742,-138.5"/>
<text text-anchor="middle" x="806.5" y="-293.5" font-family="Helvetica,sans-Serif" font-size="10.00">ConstantPool</text>
<polyline fill="none" stroke="black" points="742,-286.5 871,-286.5 "/>
<text text-anchor="middle" x="806.5" y="-274.5" font-family="Helvetica,sans-Serif" font-size="10.00"> </text>
<polyline fill="none" stroke="black" points="742,-267.5 871,-267.5 "/>
<text text-anchor="start" x="750" y="-255.5" font-family="Helvetica,sans-Serif" font-size="10.00">+ ConstantPool()</text>
<text text-anchor="start" x="750" y="-244.5" font-family="Helvetica,sans-Serif" font-size="10.00">+ ConstantPool()</text>
<text text-anchor="start" x="750" y="-233.5" font-family="Helvetica,sans-Serif" font-size="10.00">+ print()</text>
<text text-anchor="start" x="750" y="-222.5" font-family="Helvetica,sans-Serif" font-size="10.00">+ Bytes2Str()</text>
<text text-anchor="start" x="750" y="-211.5" font-family="Helvetica,sans-Serif" font-size="10.00">+ getUtf8Str()</text>
<text text-anchor="start" x="750" y="-200.5" font-family="Helvetica,sans-Serif" font-size="10.00">+ getUtf8Class()</text>
<text text-anchor="start" x="750" y="-189.5" font-family="Helvetica,sans-Serif" font-size="10.00">+ getDescriptor()</text>
<text text-anchor="start" x="750" y="-178.5" font-family="Helvetica,sans-Serif" font-size="10.00">+ getNNameAndType()</text>
<text text-anchor="start" x="750" y="-167.5" font-family="Helvetica,sans-Serif" font-size="10.00">+ getFloat()</text>
<text text-anchor="start" x="750" y="-156.5" font-family="Helvetica,sans-Serif" font-size="10.00">+ getLong()</text>
<text text-anchor="start" x="750" y="-145.5" font-family="Helvetica,sans-Serif" font-size="10.00">+ getDouble()</text>
</a>
</g>
</g>
<!-- Node13&#45;&gt;Node1 -->
<g id="edge16" class="edge">
<title>Node13&#45;&gt;Node1</title>
<path fill="none" stroke="#404040" d="M741.59,-146.37C738.58,-143.49 735.54,-140.68 732.5,-138 701.47,-110.59 660.98,-87.34 628.76,-71.13"/>
<polygon fill="none" stroke="#404040" points="628.5,-71 621.35,-71.93 617.73,-65.69 624.88,-64.76 628.5,-71"/>
<text text-anchor="middle" x="747" y="-112" font-family="Helvetica,sans-Serif" font-size="10.00"> +constantPool</text>
</g>
<!-- Node14 -->
<g id="node14" class="node">
<title>Node14</title>
<g id="a_node14"><a xlink:title=" ">
<polygon fill="none" stroke="#bfbfbf" points="745.5,-359 745.5,-416 867.5,-416 867.5,-359 745.5,-359"/>
<text text-anchor="middle" x="806.5" y="-404" font-family="Helvetica,sans-Serif" font-size="10.00">std::vector&lt; Cpinfo &gt;</text>
<polyline fill="none" stroke="#bfbfbf" points="745.5,-397 867.5,-397 "/>
<text text-anchor="middle" x="806.5" y="-385" font-family="Helvetica,sans-Serif" font-size="10.00"> </text>
<polyline fill="none" stroke="#bfbfbf" points="745.5,-378 867.5,-378 "/>
<text text-anchor="middle" x="806.5" y="-366" font-family="Helvetica,sans-Serif" font-size="10.00"> </text>
</a>
</g>
</g>
<!-- Node14&#45;&gt;Node13 -->
<g id="edge17" class="edge">
<title>Node14&#45;&gt;Node13</title>
<path fill="none" stroke="midnightblue" d="M806.5,-348.45C806.5,-335.53 806.5,-320.56 806.5,-305.55"/>
<polygon fill="none" stroke="midnightblue" points="803,-348.76 806.5,-358.76 810,-348.76 803,-348.76"/>
</g>
<!-- Node15 -->
<g id="node15" class="node">
<title>Node15</title>
<g id="a_node15"><a xlink:href="class_methods.xhtml" target="_top" xlink:title="Vetor dos métodos da JVM.">
<polygon fill="none" stroke="black" points="905.5,-177 905.5,-267 991.5,-267 991.5,-177 905.5,-177"/>
<text text-anchor="middle" x="948.5" y="-255" font-family="Helvetica,sans-Serif" font-size="10.00">Methods</text>
<polyline fill="none" stroke="black" points="905.5,-248 991.5,-248 "/>
<text text-anchor="middle" x="948.5" y="-236" font-family="Helvetica,sans-Serif" font-size="10.00"> </text>
<polyline fill="none" stroke="black" points="905.5,-229 991.5,-229 "/>
<text text-anchor="start" x="913.5" y="-217" font-family="Helvetica,sans-Serif" font-size="10.00">+ Methods()</text>
<text text-anchor="start" x="913.5" y="-206" font-family="Helvetica,sans-Serif" font-size="10.00">+ Methods()</text>
<text text-anchor="start" x="913.5" y="-195" font-family="Helvetica,sans-Serif" font-size="10.00">+ ~Methods()</text>
<text text-anchor="start" x="913.5" y="-184" font-family="Helvetica,sans-Serif" font-size="10.00">+ print()</text>
</a>
</g>
</g>
<!-- Node15&#45;&gt;Node1 -->
<g id="edge18" class="edge">
<title>Node15&#45;&gt;Node1</title>
<path fill="none" stroke="#404040" d="M919.5,-176.9C908.41,-162.83 894.73,-148.26 879.5,-138 802.08,-85.84 694.09,-62.68 629.54,-52.96"/>
<polygon fill="none" stroke="#404040" points="629.5,-52.95 622.99,-56.05 617.62,-51.24 624.13,-48.14 629.5,-52.95"/>
<text text-anchor="middle" x="870" y="-112" font-family="Helvetica,sans-Serif" font-size="10.00"> +methods</text>
</g>
<!-- Node16 -->
<g id="node16" class="node">
<title>Node16</title>
<g id="a_node16"><a xlink:title=" ">
<polygon fill="none" stroke="#bfbfbf" points="886,-359 886,-416 1041,-416 1041,-359 886,-359"/>
<text text-anchor="middle" x="963.5" y="-404" font-family="Helvetica,sans-Serif" font-size="10.00">std::vector&lt; MethodInfo * &gt;</text>
<polyline fill="none" stroke="#bfbfbf" points="886,-397 1041,-397 "/>
<text text-anchor="middle" x="963.5" y="-385" font-family="Helvetica,sans-Serif" font-size="10.00"> </text>
<polyline fill="none" stroke="#bfbfbf" points="886,-378 1041,-378 "/>
<text text-anchor="middle" x="963.5" y="-366" font-family="Helvetica,sans-Serif" font-size="10.00"> </text>
</a>
</g>
</g>
<!-- Node16&#45;&gt;Node15 -->
<g id="edge19" class="edge">
<title>Node16&#45;&gt;Node15</title>
<path fill="none" stroke="midnightblue" d="M960.01,-348.51C957.79,-324.23 954.89,-292.64 952.56,-267.23"/>
<polygon fill="none" stroke="midnightblue" points="956.56,-349.13 960.96,-358.76 963.53,-348.49 956.56,-349.13"/>
</g>
<!-- Node17 -->
<g id="node17" class="node">
<title>Node17</title>
<g id="a_node17"><a xlink:href="class_attributes.xhtml" target="_top" xlink:title="Vetor (tabela) dos atributos. Cada entrada é do tipo AttributeInfo.">
<polygon fill="none" stroke="black" points="1044.5,-177 1044.5,-267 1166.5,-267 1166.5,-177 1044.5,-177"/>
<text text-anchor="middle" x="1105.5" y="-255" font-family="Helvetica,sans-Serif" font-size="10.00">Attributes</text>
<polyline fill="none" stroke="black" points="1044.5,-248 1166.5,-248 "/>
<text text-anchor="middle" x="1105.5" y="-236" font-family="Helvetica,sans-Serif" font-size="10.00"> </text>
<polyline fill="none" stroke="black" points="1044.5,-229 1166.5,-229 "/>
<text text-anchor="start" x="1052.5" y="-217" font-family="Helvetica,sans-Serif" font-size="10.00">+ Attributes()</text>
<text text-anchor="start" x="1052.5" y="-206" font-family="Helvetica,sans-Serif" font-size="10.00">+ Attributes()</text>
<text text-anchor="start" x="1052.5" y="-195" font-family="Helvetica,sans-Serif" font-size="10.00">+ getConstantValue()</text>
<text text-anchor="start" x="1052.5" y="-184" font-family="Helvetica,sans-Serif" font-size="10.00">+ print()</text>
</a>
</g>
</g>
<!-- Node17&#45;&gt;Node1 -->
<g id="edge20" class="edge">
<title>Node17&#45;&gt;Node1</title>
<path fill="none" stroke="#404040" d="M1057.74,-176.91C1040.65,-162.92 1020.63,-148.4 1000.5,-138 878.12,-74.77 714.3,-55.19 629.91,-49.16"/>
<polygon fill="none" stroke="#404040" points="629.78,-49.16 623.52,-52.75 617.81,-48.35 624.06,-44.76 629.78,-49.16"/>
<text text-anchor="middle" x="988" y="-112" font-family="Helvetica,sans-Serif" font-size="10.00"> +attributes</text>
</g>
<!-- Node18 -->
<g id="node18" class="node">
<title>Node18</title>
<g id="a_node18"><a xlink:title=" ">
<polygon fill="none" stroke="#bfbfbf" points="1059,-359 1059,-416 1220,-416 1220,-359 1059,-359"/>
<text text-anchor="middle" x="1139.5" y="-404" font-family="Helvetica,sans-Serif" font-size="10.00">std::vector&lt; AttributeInfo * &gt;</text>
<polyline fill="none" stroke="#bfbfbf" points="1059,-397 1220,-397 "/>
<text text-anchor="middle" x="1139.5" y="-385" font-family="Helvetica,sans-Serif" font-size="10.00"> </text>
<polyline fill="none" stroke="#bfbfbf" points="1059,-378 1220,-378 "/>
<text text-anchor="middle" x="1139.5" y="-366" font-family="Helvetica,sans-Serif" font-size="10.00"> </text>
</a>
</g>
</g>
<!-- Node18&#45;&gt;Node17 -->
<g id="edge21" class="edge">
<title>Node18&#45;&gt;Node17</title>
<path fill="none" stroke="midnightblue" d="M1131.67,-348.83C1126.61,-324.51 1120.01,-292.76 1114.7,-267.23"/>
<polygon fill="none" stroke="midnightblue" points="1128.27,-349.69 1133.73,-358.76 1135.12,-348.26 1128.27,-349.69"/>
</g>
</g>
</svg>
