<?xml version="1.0" encoding="UTF-8" standalone="no"?>
<!DOCTYPE svg PUBLIC "-//W3C//DTD SVG 1.1//EN"
 "http://www.w3.org/Graphics/SVG/1.1/DTD/svg11.dtd">
<!-- Generated by graphviz version 2.43.0 (0)
 -->
<!-- Title: ConstantValue&lt; T &gt; Pages: 1 -->
<svg width="370pt" height="342pt"
 viewBox="0.00 0.00 369.66 342.00" xmlns="http://www.w3.org/2000/svg" xmlns:xlink="http://www.w3.org/1999/xlink">
<g id="graph0" class="graph" transform="scale(1 1) rotate(0) translate(4 338)">
<title>ConstantValue&lt; T &gt;</title>
<!-- Node1 -->
<g id="node1" class="node">
<title>Node1</title>
<g id="a_node1"><a xlink:title="Atributo para uma estrutura de campo (Field) e representa o valor de uma expressão constante....">
<polygon fill="#bfbfbf" stroke="black" points="184.66,-0.5 184.66,-79.5 300.66,-79.5 300.66,-0.5 184.66,-0.5"/>
<text text-anchor="middle" x="242.66" y="-67.5" font-family="Helvetica,sans-Serif" font-size="10.00">ConstantValue&lt; T &gt;</text>
<polyline fill="none" stroke="black" points="184.66,-60.5 300.66,-60.5 "/>
<text text-anchor="middle" x="242.66" y="-48.5" font-family="Helvetica,sans-Serif" font-size="10.00"> </text>
<polyline fill="none" stroke="black" points="184.66,-41.5 300.66,-41.5 "/>
<text text-anchor="start" x="192.66" y="-29.5" font-family="Helvetica,sans-Serif" font-size="10.00">+ ConstantValue()</text>
<text text-anchor="start" x="192.66" y="-18.5" font-family="Helvetica,sans-Serif" font-size="10.00">+ ConstantValue()</text>
<text text-anchor="start" x="192.66" y="-7.5" font-family="Helvetica,sans-Serif" font-size="10.00">+ print()</text>
</a>
</g>
</g>
<!-- Node2 -->
<g id="node2" class="node">
<title>Node2</title>
<g id="a_node2"><a xlink:href="class_attribute_info.xhtml" target="_top" xlink:title="Classe base a ser herdada pelas classes das entradas do vetor Attributes, contendo membros gerais.">
<polygon fill="none" stroke="black" points="135.16,-127.5 135.16,-228.5 232.16,-228.5 232.16,-127.5 135.16,-127.5"/>
<text text-anchor="middle" x="183.66" y="-216.5" font-family="Helvetica,sans-Serif" font-size="10.00">AttributeInfo</text>
<polyline fill="none" stroke="black" points="135.16,-209.5 232.16,-209.5 "/>
<text text-anchor="middle" x="183.66" y="-197.5" font-family="Helvetica,sans-Serif" font-size="10.00"> </text>
<polyline fill="none" stroke="black" points="135.16,-190.5 232.16,-190.5 "/>
<text text-anchor="start" x="143.16" y="-178.5" font-family="Helvetica,sans-Serif" font-size="10.00">+ AttributeInfo()</text>
<text text-anchor="start" x="143.16" y="-167.5" font-family="Helvetica,sans-Serif" font-size="10.00">+ AttributeInfo()</text>
<text text-anchor="start" x="143.16" y="-156.5" font-family="Helvetica,sans-Serif" font-size="10.00">+ generalInfo()</text>
<text text-anchor="start" x="143.16" y="-145.5" font-family="Helvetica,sans-Serif" font-size="10.00">+ print()</text>
<text text-anchor="start" x="143.16" y="-134.5" font-family="Helvetica,sans-Serif" font-size="10.00">+ print()</text>
</a>
</g>
</g>
<!-- Node2&#45;&gt;Node1 -->
<g id="edge1" class="edge">
<title>Node2&#45;&gt;Node1</title>
<path fill="none" stroke="midnightblue" d="M209.32,-117.85C214.92,-104.96 220.69,-91.64 225.84,-79.79"/>
<polygon fill="none" stroke="midnightblue" points="206.07,-116.56 205.3,-127.13 212.49,-119.35 206.07,-116.56"/>
</g>
<!-- Node3 -->
<g id="node3" class="node">
<title>Node3</title>
<g id="a_node3"><a xlink:title=" ">
<polygon fill="none" stroke="#bfbfbf" points="1.66,-276.5 1.66,-333.5 57.66,-333.5 57.66,-276.5 1.66,-276.5"/>
<text text-anchor="middle" x="29.66" y="-321.5" font-family="Helvetica,sans-Serif" font-size="10.00">uint16_t</text>
<polyline fill="none" stroke="#bfbfbf" points="1.66,-314.5 57.66,-314.5 "/>
<text text-anchor="middle" x="29.66" y="-302.5" font-family="Helvetica,sans-Serif" font-size="10.00"> </text>
<polyline fill="none" stroke="#bfbfbf" points="1.66,-295.5 57.66,-295.5 "/>
<text text-anchor="middle" x="29.66" y="-283.5" font-family="Helvetica,sans-Serif" font-size="10.00"> </text>
</a>
</g>
</g>
<!-- Node3&#45;&gt;Node1 -->
<g id="edge5" class="edge">
<title>Node3&#45;&gt;Node1</title>
<path fill="none" stroke="#404040" d="M17.99,-276.35C4.22,-238.95 -13.16,-171.78 17.66,-127 52.2,-76.83 120.27,-55.91 172.54,-47.19"/>
<polygon fill="none" stroke="#404040" points="172.58,-47.19 177.91,-42.33 184.44,-45.37 179.12,-50.23 172.58,-47.19"/>
<text text-anchor="middle" x="71.66" y="-175.5" font-family="Helvetica,sans-Serif" font-size="10.00"> +constantvalueIndex</text>
</g>
<!-- Node3&#45;&gt;Node2 -->
<g id="edge2" class="edge">
<title>Node3&#45;&gt;Node2</title>
<path fill="none" stroke="#404040" d="M43.04,-276.43C49.28,-265.98 57.57,-254.75 67.66,-247 87.39,-231.84 98.82,-240.91 120.66,-229 122.01,-228.27 123.35,-227.5 124.7,-226.72"/>
<polygon fill="none" stroke="#404040" points="124.77,-226.67 127.7,-220.08 134.91,-220.25 131.98,-226.84 124.77,-226.67"/>
<text text-anchor="middle" x="122.66" y="-250" font-family="Helvetica,sans-Serif" font-size="10.00"> +attributeNameIndex</text>
</g>
<!-- Node4 -->
<g id="node4" class="node">
<title>Node4</title>
<g id="a_node4"><a xlink:title=" ">
<polygon fill="none" stroke="#bfbfbf" points="152.66,-276.5 152.66,-333.5 208.66,-333.5 208.66,-276.5 152.66,-276.5"/>
<text text-anchor="middle" x="180.66" y="-321.5" font-family="Helvetica,sans-Serif" font-size="10.00">uint32_t</text>
<polyline fill="none" stroke="#bfbfbf" points="152.66,-314.5 208.66,-314.5 "/>
<text text-anchor="middle" x="180.66" y="-302.5" font-family="Helvetica,sans-Serif" font-size="10.00"> </text>
<polyline fill="none" stroke="#bfbfbf" points="152.66,-295.5 208.66,-295.5 "/>
<text text-anchor="middle" x="180.66" y="-283.5" font-family="Helvetica,sans-Serif" font-size="10.00"> </text>
</a>
</g>
</g>
<!-- Node4&#45;&gt;Node2 -->
<g id="edge3" class="edge">
<title>Node4&#45;&gt;Node2</title>
<path fill="none" stroke="#404040" d="M181.08,-276.46C181.24,-267.11 181.44,-256.6 181.66,-247 181.71,-244.97 181.76,-242.91 181.81,-240.82"/>
<polygon fill="none" stroke="#404040" points="181.82,-240.76 177.98,-234.66 182.13,-228.76 185.97,-234.87 181.82,-240.76"/>
<text text-anchor="middle" x="225.16" y="-250" font-family="Helvetica,sans-Serif" font-size="10.00"> +attributeLength</text>
</g>
<!-- Node5 -->
<g id="node5" class="node">
<title>Node5</title>
<g id="a_node5"><a xlink:title=" ">
<polygon fill="none" stroke="#bfbfbf" points="268.66,-276.5 268.66,-333.5 312.66,-333.5 312.66,-276.5 268.66,-276.5"/>
<text text-anchor="middle" x="290.66" y="-321.5" font-family="Helvetica,sans-Serif" font-size="10.00">string</text>
<polyline fill="none" stroke="#bfbfbf" points="268.66,-314.5 312.66,-314.5 "/>
<text text-anchor="middle" x="290.66" y="-302.5" font-family="Helvetica,sans-Serif" font-size="10.00"> </text>
<polyline fill="none" stroke="#bfbfbf" points="268.66,-295.5 312.66,-295.5 "/>
<text text-anchor="middle" x="290.66" y="-283.5" font-family="Helvetica,sans-Serif" font-size="10.00"> </text>
</a>
</g>
</g>
<!-- Node5&#45;&gt;Node2 -->
<g id="edge4" class="edge">
<title>Node5&#45;&gt;Node2</title>
<path fill="none" stroke="#404040" d="M283.8,-276.39C280.39,-266.42 275.5,-255.53 268.66,-247 261.27,-237.77 255.56,-237.44 242.28,-228.79"/>
<polygon fill="none" stroke="#404040" points="242.13,-228.68 234.92,-228.46 232.36,-221.72 239.57,-221.94 242.13,-228.68"/>
<text text-anchor="middle" x="294.66" y="-250" font-family="Helvetica,sans-Serif" font-size="10.00"> +name</text>
</g>
<!-- Node6 -->
<g id="node6" class="node">
<title>Node6</title>
<g id="a_node6"><a xlink:title=" ">
<polygon fill="none" stroke="#bfbfbf" points="250.66,-149.5 250.66,-206.5 300.66,-206.5 300.66,-149.5 250.66,-149.5"/>
<text text-anchor="middle" x="275.66" y="-194.5" font-family="Helvetica,sans-Serif" font-size="10.00">uint8_t</text>
<polyline fill="none" stroke="#bfbfbf" points="250.66,-187.5 300.66,-187.5 "/>
<text text-anchor="middle" x="275.66" y="-175.5" font-family="Helvetica,sans-Serif" font-size="10.00"> </text>
<polyline fill="none" stroke="#bfbfbf" points="250.66,-168.5 300.66,-168.5 "/>
<text text-anchor="middle" x="275.66" y="-156.5" font-family="Helvetica,sans-Serif" font-size="10.00"> </text>
</a>
</g>
</g>
<!-- Node6&#45;&gt;Node1 -->
<g id="edge6" class="edge">
<title>Node6&#45;&gt;Node1</title>
<path fill="none" stroke="#404040" d="M268.99,-149.48C264.95,-132.83 259.67,-111.09 254.91,-91.45"/>
<polygon fill="none" stroke="#404040" points="254.85,-91.22 249.55,-86.33 252.02,-79.56 257.32,-84.45 254.85,-91.22"/>
<text text-anchor="middle" x="286.16" y="-101" font-family="Helvetica,sans-Serif" font-size="10.00"> +tagValue</text>
</g>
<!-- Node7 -->
<g id="node7" class="node">
<title>Node7</title>
<g id="a_node7"><a xlink:title=" ">
<polygon fill="none" stroke="#bfbfbf" points="329.16,-149.5 329.16,-206.5 358.16,-206.5 358.16,-149.5 329.16,-149.5"/>
<text text-anchor="middle" x="343.66" y="-194.5" font-family="Helvetica,sans-Serif" font-size="10.00">T</text>
<polyline fill="none" stroke="#bfbfbf" points="329.16,-187.5 358.16,-187.5 "/>
<text text-anchor="middle" x="343.66" y="-175.5" font-family="Helvetica,sans-Serif" font-size="10.00"> </text>
<polyline fill="none" stroke="#bfbfbf" points="329.16,-168.5 358.16,-168.5 "/>
<text text-anchor="middle" x="343.66" y="-156.5" font-family="Helvetica,sans-Serif" font-size="10.00"> </text>
</a>
</g>
</g>
<!-- Node7&#45;&gt;Node1 -->
<g id="edge7" class="edge">
<title>Node7&#45;&gt;Node1</title>
<path fill="none" stroke="#404040" d="M338.8,-149.16C335,-133.11 328.48,-113.17 317.66,-98 315.22,-94.57 312.5,-91.25 309.6,-88.05"/>
<polygon fill="none" stroke="#404040" points="309.44,-87.9 302.37,-86.47 300.98,-79.39 308.04,-80.82 309.44,-87.9"/>
<text text-anchor="middle" x="342.16" y="-101" font-family="Helvetica,sans-Serif" font-size="10.00"> +value</text>
</g>
</g>
</svg>
