<?xml version="1.0" encoding="UTF-8" standalone="no"?>
<!DOCTYPE svg PUBLIC "-//W3C//DTD SVG 1.1//EN"
 "http://www.w3.org/Graphics/SVG/1.1/DTD/svg11.dtd">
<!-- Generated by graphviz version 2.43.0 (0)
 -->
<!-- Title: FieldInfo Pages: 1 -->
<svg width="423pt" height="353pt"
 viewBox="0.00 0.00 422.50 353.00" xmlns="http://www.w3.org/2000/svg" xmlns:xlink="http://www.w3.org/1999/xlink">
<g id="graph0" class="graph" transform="scale(1 1) rotate(0) translate(4 349)">
<title>FieldInfo</title>
<!-- Node1 -->
<g id="node1" class="node">
<title>Node1</title>
<g id="a_node1"><a xlink:title="Estrutura de um field na JVM.">
<polygon fill="#bfbfbf" stroke="black" points="157,-0.5 157,-68.5 215,-68.5 215,-0.5 157,-0.5"/>
<text text-anchor="middle" x="186" y="-56.5" font-family="Helvetica,sans-Serif" font-size="10.00">FieldInfo</text>
<polyline fill="none" stroke="black" points="157,-49.5 215,-49.5 "/>
<text text-anchor="middle" x="186" y="-37.5" font-family="Helvetica,sans-Serif" font-size="10.00"> </text>
<polyline fill="none" stroke="black" points="157,-30.5 215,-30.5 "/>
<text text-anchor="start" x="165" y="-18.5" font-family="Helvetica,sans-Serif" font-size="10.00">+ init()</text>
<text text-anchor="start" x="165" y="-7.5" font-family="Helvetica,sans-Serif" font-size="10.00">+ print()</text>
</a>
</g>
</g>
<!-- Node2 -->
<g id="node2" class="node">
<title>Node2</title>
<g id="a_node2"><a xlink:title=" ">
<polygon fill="none" stroke="#bfbfbf" points="0,-155 0,-212 56,-212 56,-155 0,-155"/>
<text text-anchor="middle" x="28" y="-200" font-family="Helvetica,sans-Serif" font-size="10.00">uint16_t</text>
<polyline fill="none" stroke="#bfbfbf" points="0,-193 56,-193 "/>
<text text-anchor="middle" x="28" y="-181" font-family="Helvetica,sans-Serif" font-size="10.00"> </text>
<polyline fill="none" stroke="#bfbfbf" points="0,-174 56,-174 "/>
<text text-anchor="middle" x="28" y="-162" font-family="Helvetica,sans-Serif" font-size="10.00"> </text>
</a>
</g>
</g>
<!-- Node2&#45;&gt;Node1 -->
<g id="edge1" class="edge">
<title>Node2&#45;&gt;Node1</title>
<path fill="none" stroke="#404040" d="M24.93,-154.81C24.15,-133.94 26.6,-105.79 42,-87 67.14,-56.32 111.99,-43.91 144.97,-38.89"/>
<polygon fill="none" stroke="#404040" points="145.07,-38.88 150.5,-34.13 156.97,-37.31 151.54,-42.06 145.07,-38.88"/>
<text text-anchor="middle" x="86" y="-112" font-family="Helvetica,sans-Serif" font-size="10.00"> +attributesCount</text>
<text text-anchor="middle" x="86" y="-101" font-family="Helvetica,sans-Serif" font-size="10.00">+descriptorIndex</text>
<text text-anchor="middle" x="86" y="-90" font-family="Helvetica,sans-Serif" font-size="10.00">+nameIndex</text>
</g>
<!-- Node3 -->
<g id="node3" class="node">
<title>Node3</title>
<g id="a_node3"><a xlink:href="class_acess_flags.xhtml" target="_top" xlink:title="Flags de acesso Delega para si o processamento das flags de acesso.">
<polygon fill="none" stroke="black" points="94,-144 94,-223 184,-223 184,-144 94,-144"/>
<text text-anchor="middle" x="139" y="-211" font-family="Helvetica,sans-Serif" font-size="10.00">AcessFlags</text>
<polyline fill="none" stroke="black" points="94,-204 184,-204 "/>
<text text-anchor="middle" x="139" y="-192" font-family="Helvetica,sans-Serif" font-size="10.00"> </text>
<polyline fill="none" stroke="black" points="94,-185 184,-185 "/>
<text text-anchor="start" x="102" y="-173" font-family="Helvetica,sans-Serif" font-size="10.00">+ AcessFlags()</text>
<text text-anchor="start" x="102" y="-162" font-family="Helvetica,sans-Serif" font-size="10.00">+ set()</text>
<text text-anchor="start" x="102" y="-151" font-family="Helvetica,sans-Serif" font-size="10.00">+ print()</text>
</a>
</g>
</g>
<!-- Node3&#45;&gt;Node1 -->
<g id="edge2" class="edge">
<title>Node3&#45;&gt;Node1</title>
<path fill="none" stroke="#404040" d="M133.3,-143.68C132.21,-125.86 133.11,-104.78 140,-87 142.24,-81.21 145.46,-75.65 149.17,-70.48"/>
<polygon fill="none" stroke="#404040" points="149.26,-70.37 149.9,-63.19 156.78,-61.02 156.13,-68.2 149.26,-70.37"/>
<text text-anchor="middle" x="175.5" y="-101" font-family="Helvetica,sans-Serif" font-size="10.00"> +accessFlags</text>
</g>
<!-- Node4 -->
<g id="node4" class="node">
<title>Node4</title>
<g id="a_node4"><a xlink:title=" ">
<polygon fill="none" stroke="#bfbfbf" points="71.5,-276.5 71.5,-344.5 206.5,-344.5 206.5,-276.5 71.5,-276.5"/>
<text text-anchor="start" x="79.5" y="-332.5" font-family="Helvetica,sans-Serif" font-size="10.00">map&lt; enumAcessFlags,</text>
<text text-anchor="middle" x="139" y="-321.5" font-family="Helvetica,sans-Serif" font-size="10.00"> bool &gt;</text>
<polyline fill="none" stroke="#bfbfbf" points="71.5,-314.5 206.5,-314.5 "/>
<text text-anchor="middle" x="139" y="-302.5" font-family="Helvetica,sans-Serif" font-size="10.00"> </text>
<polyline fill="none" stroke="#bfbfbf" points="71.5,-295.5 206.5,-295.5 "/>
<text text-anchor="middle" x="139" y="-283.5" font-family="Helvetica,sans-Serif" font-size="10.00"> </text>
</a>
</g>
</g>
<!-- Node4&#45;&gt;Node3 -->
<g id="edge3" class="edge">
<title>Node4&#45;&gt;Node3</title>
<path fill="none" stroke="#404040" d="M139,-276.33C139,-263.82 139,-249.27 139,-235.5"/>
<polygon fill="none" stroke="#404040" points="139,-235.15 135,-229.15 139,-223.15 143,-229.15 139,-235.15"/>
<text text-anchor="middle" x="182.5" y="-250" font-family="Helvetica,sans-Serif" font-size="10.00"> +acessFlagsMap</text>
</g>
<!-- Node5 -->
<g id="node5" class="node">
<title>Node5</title>
<g id="a_node5"><a xlink:title=" ">
<polygon fill="none" stroke="#bfbfbf" points="211,-155 211,-212 255,-212 255,-155 211,-155"/>
<text text-anchor="middle" x="233" y="-200" font-family="Helvetica,sans-Serif" font-size="10.00">string</text>
<polyline fill="none" stroke="#bfbfbf" points="211,-193 255,-193 "/>
<text text-anchor="middle" x="233" y="-181" font-family="Helvetica,sans-Serif" font-size="10.00"> </text>
<polyline fill="none" stroke="#bfbfbf" points="211,-174 255,-174 "/>
<text text-anchor="middle" x="233" y="-162" font-family="Helvetica,sans-Serif" font-size="10.00"> </text>
</a>
</g>
</g>
<!-- Node5&#45;&gt;Node1 -->
<g id="edge4" class="edge">
<title>Node5&#45;&gt;Node1</title>
<path fill="none" stroke="#404040" d="M228.35,-154.87C224.68,-135.54 218.87,-109.3 211,-87 210.16,-84.62 209.24,-82.21 208.27,-79.79"/>
<polygon fill="none" stroke="#404040" points="208.17,-79.56 202.11,-75.65 203.39,-68.55 209.45,-72.46 208.17,-79.56"/>
<text text-anchor="middle" x="250.5" y="-106.5" font-family="Helvetica,sans-Serif" font-size="10.00"> +descriptor</text>
<text text-anchor="middle" x="250.5" y="-95.5" font-family="Helvetica,sans-Serif" font-size="10.00">+name</text>
</g>
<!-- Node6 -->
<g id="node6" class="node">
<title>Node6</title>
<g id="a_node6"><a xlink:href="class_attributes.xhtml" target="_top" xlink:title="Vetor (tabela) dos atributos. Cada entrada é do tipo AttributeInfo.">
<polygon fill="none" stroke="black" points="273,-138.5 273,-228.5 395,-228.5 395,-138.5 273,-138.5"/>
<text text-anchor="middle" x="334" y="-216.5" font-family="Helvetica,sans-Serif" font-size="10.00">Attributes</text>
<polyline fill="none" stroke="black" points="273,-209.5 395,-209.5 "/>
<text text-anchor="middle" x="334" y="-197.5" font-family="Helvetica,sans-Serif" font-size="10.00"> </text>
<polyline fill="none" stroke="black" points="273,-190.5 395,-190.5 "/>
<text text-anchor="start" x="281" y="-178.5" font-family="Helvetica,sans-Serif" font-size="10.00">+ Attributes()</text>
<text text-anchor="start" x="281" y="-167.5" font-family="Helvetica,sans-Serif" font-size="10.00">+ Attributes()</text>
<text text-anchor="start" x="281" y="-156.5" font-family="Helvetica,sans-Serif" font-size="10.00">+ getConstantValue()</text>
<text text-anchor="start" x="281" y="-145.5" font-family="Helvetica,sans-Serif" font-size="10.00">+ print()</text>
</a>
</g>
</g>
<!-- Node6&#45;&gt;Node1 -->
<g id="edge5" class="edge">
<title>Node6&#45;&gt;Node1</title>
<path fill="none" stroke="#404040" d="M318.25,-138.44C310.33,-120.85 299.32,-101.4 285,-87 268.75,-70.65 246.22,-58.38 226.75,-49.92"/>
<polygon fill="none" stroke="#404040" points="226.52,-49.82 219.45,-51.24 215.42,-45.26 222.49,-43.84 226.52,-49.82"/>
<text text-anchor="middle" x="338.5" y="-101" font-family="Helvetica,sans-Serif" font-size="10.00"> +attributes</text>
</g>
<!-- Node7 -->
<g id="node7" class="node">
<title>Node7</title>
<g id="a_node7"><a xlink:title=" ">
<polygon fill="none" stroke="#bfbfbf" points="253.5,-282 253.5,-339 414.5,-339 414.5,-282 253.5,-282"/>
<text text-anchor="middle" x="334" y="-327" font-family="Helvetica,sans-Serif" font-size="10.00">std::vector&lt; AttributeInfo * &gt;</text>
<polyline fill="none" stroke="#bfbfbf" points="253.5,-320 414.5,-320 "/>
<text text-anchor="middle" x="334" y="-308" font-family="Helvetica,sans-Serif" font-size="10.00"> </text>
<polyline fill="none" stroke="#bfbfbf" points="253.5,-301 414.5,-301 "/>
<text text-anchor="middle" x="334" y="-289" font-family="Helvetica,sans-Serif" font-size="10.00"> </text>
</a>
</g>
</g>
<!-- Node7&#45;&gt;Node6 -->
<g id="edge6" class="edge">
<title>Node7&#45;&gt;Node6</title>
<path fill="none" stroke="midnightblue" d="M334,-271.43C334,-257.99 334,-242.77 334,-228.86"/>
<polygon fill="none" stroke="midnightblue" points="330.5,-271.76 334,-281.76 337.5,-271.76 330.5,-271.76"/>
</g>
</g>
</svg>
