<?xml version="1.0" encoding="UTF-8" standalone="no"?>
<!DOCTYPE svg PUBLIC "-//W3C//DTD SVG 1.1//EN"
 "http://www.w3.org/Graphics/SVG/1.1/DTD/svg11.dtd">
<!-- Generated by graphviz version 2.43.0 (0)
 -->
<!-- Title: Opcode Pages: 1 -->
<svg width="399pt" height="409pt"
 viewBox="0.00 0.00 398.50 409.00" xmlns="http://www.w3.org/2000/svg" xmlns:xlink="http://www.w3.org/1999/xlink">
<g id="graph0" class="graph" transform="scale(1 1) rotate(0) translate(4 405)">
<title>Opcode</title>
<!-- Node1 -->
<g id="node1" class="node">
<title>Node1</title>
<g id="a_node1"><a xlink:title="Classe base para Opcodes. Ainda não está pronta para ser uma classe completa para instruções,...">
<polygon fill="#bfbfbf" stroke="black" points="117.5,-0.5 117.5,-90.5 204.5,-90.5 204.5,-0.5 117.5,-0.5"/>
<text text-anchor="middle" x="161" y="-78.5" font-family="Helvetica,sans-Serif" font-size="10.00">Opcode</text>
<polyline fill="none" stroke="black" points="117.5,-71.5 204.5,-71.5 "/>
<text text-anchor="middle" x="161" y="-59.5" font-family="Helvetica,sans-Serif" font-size="10.00"> </text>
<polyline fill="none" stroke="black" points="117.5,-52.5 204.5,-52.5 "/>
<text text-anchor="start" x="125.5" y="-40.5" font-family="Helvetica,sans-Serif" font-size="10.00">+ Opcode()</text>
<text text-anchor="start" x="125.5" y="-29.5" font-family="Helvetica,sans-Serif" font-size="10.00">+ ~Opcode()</text>
<text text-anchor="start" x="125.5" y="-18.5" font-family="Helvetica,sans-Serif" font-size="10.00">+ getString()</text>
<text text-anchor="start" x="125.5" y="-7.5" font-family="Helvetica,sans-Serif" font-size="10.00">+ injectCode()</text>
</a>
</g>
</g>
<!-- Node2 -->
<g id="node2" class="node">
<title>Node2</title>
<g id="a_node2"><a xlink:title=" ">
<polygon fill="none" stroke="#bfbfbf" points="0,-193.5 0,-250.5 56,-250.5 56,-193.5 0,-193.5"/>
<text text-anchor="middle" x="28" y="-238.5" font-family="Helvetica,sans-Serif" font-size="10.00">uint32_t</text>
<polyline fill="none" stroke="#bfbfbf" points="0,-231.5 56,-231.5 "/>
<text text-anchor="middle" x="28" y="-219.5" font-family="Helvetica,sans-Serif" font-size="10.00"> </text>
<polyline fill="none" stroke="#bfbfbf" points="0,-212.5 56,-212.5 "/>
<text text-anchor="middle" x="28" y="-200.5" font-family="Helvetica,sans-Serif" font-size="10.00"> </text>
</a>
</g>
</g>
<!-- Node2&#45;&gt;Node1 -->
<g id="edge1" class="edge">
<title>Node2&#45;&gt;Node1</title>
<path fill="none" stroke="#404040" d="M31.86,-193.25C36.4,-168.98 45.88,-133.82 65,-109 76.14,-94.53 91.64,-82.41 106.94,-72.8"/>
<polygon fill="none" stroke="#404040" points="107.13,-72.69 110.24,-66.18 117.44,-66.55 114.33,-73.06 107.13,-72.69"/>
<text text-anchor="middle" x="90.5" y="-112" font-family="Helvetica,sans-Serif" font-size="10.00"> #position</text>
</g>
<!-- Node3 -->
<g id="node3" class="node">
<title>Node3</title>
<g id="a_node3"><a xlink:title=" ">
<polygon fill="none" stroke="#bfbfbf" points="75,-193.5 75,-250.5 125,-250.5 125,-193.5 75,-193.5"/>
<text text-anchor="middle" x="100" y="-238.5" font-family="Helvetica,sans-Serif" font-size="10.00">uint8_t</text>
<polyline fill="none" stroke="#bfbfbf" points="75,-231.5 125,-231.5 "/>
<text text-anchor="middle" x="100" y="-219.5" font-family="Helvetica,sans-Serif" font-size="10.00"> </text>
<polyline fill="none" stroke="#bfbfbf" points="75,-212.5 125,-212.5 "/>
<text text-anchor="middle" x="100" y="-200.5" font-family="Helvetica,sans-Serif" font-size="10.00"> </text>
</a>
</g>
</g>
<!-- Node3&#45;&gt;Node1 -->
<g id="edge2" class="edge">
<title>Node3&#45;&gt;Node1</title>
<path fill="none" stroke="#404040" d="M103.03,-193.08C106.17,-169.95 112.18,-136.53 123,-109 123.98,-106.5 125.06,-103.99 126.21,-101.49"/>
<polygon fill="none" stroke="#404040" points="126.29,-101.33 125.4,-94.17 131.67,-90.6 132.55,-97.76 126.29,-101.33"/>
<text text-anchor="middle" x="140.5" y="-112" font-family="Helvetica,sans-Serif" font-size="10.00"> #code</text>
</g>
<!-- Node4 -->
<g id="node4" class="node">
<title>Node4</title>
<g id="a_node4"><a xlink:title=" ">
<polygon fill="none" stroke="#bfbfbf" points="143,-193.5 143,-250.5 187,-250.5 187,-193.5 143,-193.5"/>
<text text-anchor="middle" x="165" y="-238.5" font-family="Helvetica,sans-Serif" font-size="10.00">string</text>
<polyline fill="none" stroke="#bfbfbf" points="143,-231.5 187,-231.5 "/>
<text text-anchor="middle" x="165" y="-219.5" font-family="Helvetica,sans-Serif" font-size="10.00"> </text>
<polyline fill="none" stroke="#bfbfbf" points="143,-212.5 187,-212.5 "/>
<text text-anchor="middle" x="165" y="-200.5" font-family="Helvetica,sans-Serif" font-size="10.00"> </text>
</a>
</g>
</g>
<!-- Node4&#45;&gt;Node1 -->
<g id="edge3" class="edge">
<title>Node4&#45;&gt;Node1</title>
<path fill="none" stroke="#404040" d="M164.05,-193.14C163.39,-172.86 162.54,-144.73 162,-120 161.88,-114.54 161.78,-108.86 161.68,-103.17"/>
<polygon fill="none" stroke="#404040" points="161.67,-102.81 157.58,-96.87 161.49,-90.81 165.58,-96.75 161.67,-102.81"/>
<text text-anchor="middle" x="182" y="-112" font-family="Helvetica,sans-Serif" font-size="10.00"> #name</text>
</g>
<!-- Node5 -->
<g id="node5" class="node">
<title>Node5</title>
<g id="a_node5"><a xlink:title=" ">
<polygon fill="none" stroke="#bfbfbf" points="205,-193.5 205,-250.5 243,-250.5 243,-193.5 205,-193.5"/>
<text text-anchor="middle" x="224" y="-238.5" font-family="Helvetica,sans-Serif" font-size="10.00">bool</text>
<polyline fill="none" stroke="#bfbfbf" points="205,-231.5 243,-231.5 "/>
<text text-anchor="middle" x="224" y="-219.5" font-family="Helvetica,sans-Serif" font-size="10.00"> </text>
<polyline fill="none" stroke="#bfbfbf" points="205,-212.5 243,-212.5 "/>
<text text-anchor="middle" x="224" y="-200.5" font-family="Helvetica,sans-Serif" font-size="10.00"> </text>
</a>
</g>
</g>
<!-- Node5&#45;&gt;Node1 -->
<g id="edge4" class="edge">
<title>Node5&#45;&gt;Node1</title>
<path fill="none" stroke="#404040" d="M221.58,-193.45C218.85,-170.24 213.23,-136.52 202,-109 200.98,-106.51 199.86,-104.01 198.66,-101.53"/>
<polygon fill="none" stroke="#404040" points="198.58,-101.36 192.23,-97.93 192.96,-90.76 199.3,-94.19 198.58,-101.36"/>
<text text-anchor="middle" x="240" y="-112" font-family="Helvetica,sans-Serif" font-size="10.00"> +knowsCode</text>
</g>
<!-- Node6 -->
<g id="node6" class="node">
<title>Node6</title>
<g id="a_node6"><a xlink:href="class_constant_pool.xhtml" target="_top" xlink:title="Vetor (tabela) das constantes. Cada entrada é do tipo Cpinfo.">
<polygon fill="none" stroke="black" points="261.5,-138.5 261.5,-305.5 390.5,-305.5 390.5,-138.5 261.5,-138.5"/>
<text text-anchor="middle" x="326" y="-293.5" font-family="Helvetica,sans-Serif" font-size="10.00">ConstantPool</text>
<polyline fill="none" stroke="black" points="261.5,-286.5 390.5,-286.5 "/>
<text text-anchor="middle" x="326" y="-274.5" font-family="Helvetica,sans-Serif" font-size="10.00"> </text>
<polyline fill="none" stroke="black" points="261.5,-267.5 390.5,-267.5 "/>
<text text-anchor="start" x="269.5" y="-255.5" font-family="Helvetica,sans-Serif" font-size="10.00">+ ConstantPool()</text>
<text text-anchor="start" x="269.5" y="-244.5" font-family="Helvetica,sans-Serif" font-size="10.00">+ ConstantPool()</text>
<text text-anchor="start" x="269.5" y="-233.5" font-family="Helvetica,sans-Serif" font-size="10.00">+ print()</text>
<text text-anchor="start" x="269.5" y="-222.5" font-family="Helvetica,sans-Serif" font-size="10.00">+ Bytes2Str()</text>
<text text-anchor="start" x="269.5" y="-211.5" font-family="Helvetica,sans-Serif" font-size="10.00">+ getUtf8Str()</text>
<text text-anchor="start" x="269.5" y="-200.5" font-family="Helvetica,sans-Serif" font-size="10.00">+ getUtf8Class()</text>
<text text-anchor="start" x="269.5" y="-189.5" font-family="Helvetica,sans-Serif" font-size="10.00">+ getDescriptor()</text>
<text text-anchor="start" x="269.5" y="-178.5" font-family="Helvetica,sans-Serif" font-size="10.00">+ getNNameAndType()</text>
<text text-anchor="start" x="269.5" y="-167.5" font-family="Helvetica,sans-Serif" font-size="10.00">+ getFloat()</text>
<text text-anchor="start" x="269.5" y="-156.5" font-family="Helvetica,sans-Serif" font-size="10.00">+ getLong()</text>
<text text-anchor="start" x="269.5" y="-145.5" font-family="Helvetica,sans-Serif" font-size="10.00">+ getDouble()</text>
</a>
</g>
</g>
<!-- Node6&#45;&gt;Node1 -->
<g id="edge5" class="edge">
<title>Node6&#45;&gt;Node1</title>
<path fill="none" stroke="#404040" d="M298.4,-138.43C292.69,-127.81 285.94,-117.65 278,-109 261.03,-90.51 237.3,-76.43 215.64,-66.36"/>
<polygon fill="none" stroke="#404040" points="215.53,-66.31 208.42,-67.55 204.55,-61.46 211.66,-60.23 215.53,-66.31"/>
<text text-anchor="middle" x="298.5" y="-112" font-family="Helvetica,sans-Serif" font-size="10.00"> #cp</text>
</g>
<!-- Node7 -->
<g id="node7" class="node">
<title>Node7</title>
<g id="a_node7"><a xlink:title=" ">
<polygon fill="none" stroke="#bfbfbf" points="265,-343.5 265,-400.5 387,-400.5 387,-343.5 265,-343.5"/>
<text text-anchor="middle" x="326" y="-388.5" font-family="Helvetica,sans-Serif" font-size="10.00">std::vector&lt; Cpinfo &gt;</text>
<polyline fill="none" stroke="#bfbfbf" points="265,-381.5 387,-381.5 "/>
<text text-anchor="middle" x="326" y="-369.5" font-family="Helvetica,sans-Serif" font-size="10.00"> </text>
<polyline fill="none" stroke="#bfbfbf" points="265,-362.5 387,-362.5 "/>
<text text-anchor="middle" x="326" y="-350.5" font-family="Helvetica,sans-Serif" font-size="10.00"> </text>
</a>
</g>
</g>
<!-- Node7&#45;&gt;Node6 -->
<g id="edge6" class="edge">
<title>Node7&#45;&gt;Node6</title>
<path fill="none" stroke="midnightblue" d="M326,-332.93C326,-324.46 326,-315.17 326,-305.68"/>
<polygon fill="none" stroke="midnightblue" points="322.5,-333.16 326,-343.16 329.5,-333.16 322.5,-333.16"/>
</g>
</g>
</svg>
