<?xml version="1.0" encoding="UTF-8" standalone="no"?>
<!DOCTYPE svg PUBLIC "-//W3C//DTD SVG 1.1//EN"
 "http://www.w3.org/Graphics/SVG/1.1/DTD/svg11.dtd">
<!-- Generated by graphviz version 2.43.0 (0)
 -->
<!-- Title: Cpinfo Pages: 1 -->
<svg width="2021pt" height="237pt"
 viewBox="0.00 0.00 2020.50 237.00" xmlns="http://www.w3.org/2000/svg" xmlns:xlink="http://www.w3.org/1999/xlink">
<g id="graph0" class="graph" transform="scale(1 1) rotate(0) translate(4 233)">
<title>Cpinfo</title>
<!-- Node1 -->
<g id="node1" class="node">
<title>Node1</title>
<g id="a_node1"><a xlink:title=" ">
<polygon fill="#bfbfbf" stroke="black" points="994.5,-0.5 994.5,-57.5 1042.5,-57.5 1042.5,-0.5 994.5,-0.5"/>
<text text-anchor="middle" x="1018.5" y="-45.5" font-family="Helvetica,sans-Serif" font-size="10.00">Cpinfo</text>
<polyline fill="none" stroke="black" points="994.5,-38.5 1042.5,-38.5 "/>
<text text-anchor="middle" x="1018.5" y="-26.5" font-family="Helvetica,sans-Serif" font-size="10.00"> </text>
<polyline fill="none" stroke="black" points="994.5,-19.5 1042.5,-19.5 "/>
<text text-anchor="middle" x="1018.5" y="-7.5" font-family="Helvetica,sans-Serif" font-size="10.00"> </text>
</a>
</g>
</g>
<!-- Node2 -->
<g id="node2" class="node">
<title>Node2</title>
<g id="a_node2"><a xlink:title=" ">
<polygon fill="none" stroke="#bfbfbf" points="0,-171.5 0,-228.5 119,-228.5 119,-171.5 0,-171.5"/>
<text text-anchor="middle" x="59.5" y="-216.5" font-family="Helvetica,sans-Serif" font-size="10.00">anonymous:+Double</text>
<polyline fill="none" stroke="#bfbfbf" points="0,-209.5 119,-209.5 "/>
<text text-anchor="middle" x="59.5" y="-197.5" font-family="Helvetica,sans-Serif" font-size="10.00"> </text>
<polyline fill="none" stroke="#bfbfbf" points="0,-190.5 119,-190.5 "/>
<text text-anchor="middle" x="59.5" y="-178.5" font-family="Helvetica,sans-Serif" font-size="10.00"> </text>
</a>
</g>
</g>
<!-- Node2&#45;&gt;Node1 -->
<g id="edge1" class="edge">
<title>Node2&#45;&gt;Node1</title>
<path fill="none" stroke="#404040" d="M75.61,-171.43C94.59,-141.89 129.1,-96.49 172.5,-76 246.41,-41.11 829.74,-32.13 982.16,-30.37"/>
<polygon fill="none" stroke="#404040" points="982.37,-30.37 988.33,-26.3 994.37,-30.23 988.41,-34.3 982.37,-30.37"/>
<text text-anchor="middle" x="195.5" y="-112" font-family="Helvetica,sans-Serif" font-size="10.00"> +Double</text>
</g>
<!-- Node3 -->
<g id="node3" class="node">
<title>Node3</title>
<g id="a_node3"><a xlink:title=" ">
<polygon fill="none" stroke="#bfbfbf" points="137,-171.5 137,-228.5 292,-228.5 292,-171.5 137,-171.5"/>
<text text-anchor="middle" x="214.5" y="-216.5" font-family="Helvetica,sans-Serif" font-size="10.00">anonymous:+NameAndType</text>
<polyline fill="none" stroke="#bfbfbf" points="137,-209.5 292,-209.5 "/>
<text text-anchor="middle" x="214.5" y="-197.5" font-family="Helvetica,sans-Serif" font-size="10.00"> </text>
<polyline fill="none" stroke="#bfbfbf" points="137,-190.5 292,-190.5 "/>
<text text-anchor="middle" x="214.5" y="-178.5" font-family="Helvetica,sans-Serif" font-size="10.00"> </text>
</a>
</g>
</g>
<!-- Node3&#45;&gt;Node1 -->
<g id="edge2" class="edge">
<title>Node3&#45;&gt;Node1</title>
<path fill="none" stroke="#404040" d="M217.8,-171.27C222.85,-142.27 235.47,-97.97 266.5,-76 325.32,-34.37 840.11,-30.32 982.27,-30.01"/>
<polygon fill="none" stroke="#404040" points="982.47,-30.01 988.47,-26 994.47,-29.99 988.48,-34 982.47,-30.01"/>
<text text-anchor="middle" x="307.5" y="-112" font-family="Helvetica,sans-Serif" font-size="10.00"> +NameAndType</text>
</g>
<!-- Node4 -->
<g id="node4" class="node">
<title>Node4</title>
<g id="a_node4"><a xlink:title=" ">
<polygon fill="none" stroke="#bfbfbf" points="310.5,-171.5 310.5,-228.5 360.5,-228.5 360.5,-171.5 310.5,-171.5"/>
<text text-anchor="middle" x="335.5" y="-216.5" font-family="Helvetica,sans-Serif" font-size="10.00">double</text>
<polyline fill="none" stroke="#bfbfbf" points="310.5,-209.5 360.5,-209.5 "/>
<text text-anchor="middle" x="335.5" y="-197.5" font-family="Helvetica,sans-Serif" font-size="10.00"> </text>
<polyline fill="none" stroke="#bfbfbf" points="310.5,-190.5 360.5,-190.5 "/>
<text text-anchor="middle" x="335.5" y="-178.5" font-family="Helvetica,sans-Serif" font-size="10.00"> </text>
</a>
</g>
</g>
<!-- Node4&#45;&gt;Node1 -->
<g id="edge3" class="edge">
<title>Node4&#45;&gt;Node1</title>
<path fill="none" stroke="#404040" d="M343.51,-171.34C353.54,-142.18 373.79,-97.53 408.5,-76 457.26,-45.75 858.38,-33.79 982.22,-30.8"/>
<polygon fill="none" stroke="#404040" points="982.3,-30.8 988.21,-26.66 994.3,-30.52 988.4,-34.66 982.3,-30.8"/>
<text text-anchor="middle" x="434" y="-112" font-family="Helvetica,sans-Serif" font-size="10.00"> +ndouble</text>
</g>
<!-- Node5 -->
<g id="node5" class="node">
<title>Node5</title>
<g id="a_node5"><a xlink:title=" ">
<polygon fill="none" stroke="#bfbfbf" points="379,-171.5 379,-228.5 480,-228.5 480,-171.5 379,-171.5"/>
<text text-anchor="middle" x="429.5" y="-216.5" font-family="Helvetica,sans-Serif" font-size="10.00">anonymous:+@1</text>
<polyline fill="none" stroke="#bfbfbf" points="379,-209.5 480,-209.5 "/>
<text text-anchor="middle" x="429.5" y="-197.5" font-family="Helvetica,sans-Serif" font-size="10.00"> </text>
<polyline fill="none" stroke="#bfbfbf" points="379,-190.5 480,-190.5 "/>
<text text-anchor="middle" x="429.5" y="-178.5" font-family="Helvetica,sans-Serif" font-size="10.00"> </text>
</a>
</g>
</g>
<!-- Node5&#45;&gt;Node1 -->
<g id="edge4" class="edge">
<title>Node5&#45;&gt;Node1</title>
<path fill="none" stroke="#404040" d="M447.37,-171.24C467.9,-141.98 504.48,-97.25 548.5,-76 625,-39.07 885.62,-31.79 982.15,-30.35"/>
<polygon fill="none" stroke="#404040" points="982.39,-30.35 988.33,-26.27 994.39,-30.19 988.44,-34.27 982.39,-30.35"/>
<text text-anchor="middle" x="562.5" y="-112" font-family="Helvetica,sans-Serif" font-size="10.00"> +@1</text>
</g>
<!-- Node6 -->
<g id="node6" class="node">
<title>Node6</title>
<g id="a_node6"><a xlink:title=" ">
<polygon fill="none" stroke="#bfbfbf" points="498.5,-171.5 498.5,-228.5 604.5,-228.5 604.5,-171.5 498.5,-171.5"/>
<text text-anchor="middle" x="551.5" y="-216.5" font-family="Helvetica,sans-Serif" font-size="10.00">anonymous:+Utf8</text>
<polyline fill="none" stroke="#bfbfbf" points="498.5,-209.5 604.5,-209.5 "/>
<text text-anchor="middle" x="551.5" y="-197.5" font-family="Helvetica,sans-Serif" font-size="10.00"> </text>
<polyline fill="none" stroke="#bfbfbf" points="498.5,-190.5 604.5,-190.5 "/>
<text text-anchor="middle" x="551.5" y="-178.5" font-family="Helvetica,sans-Serif" font-size="10.00"> </text>
</a>
</g>
</g>
<!-- Node6&#45;&gt;Node1 -->
<g id="edge5" class="edge">
<title>Node6&#45;&gt;Node1</title>
<path fill="none" stroke="#404040" d="M566.53,-171.24C583.85,-142.21 615.2,-97.89 655.5,-76 711.29,-45.7 901.24,-34.68 981.85,-31.3"/>
<polygon fill="none" stroke="#404040" points="982.26,-31.28 988.1,-27.04 994.25,-30.8 988.42,-35.04 982.26,-31.28"/>
<text text-anchor="middle" x="672" y="-112" font-family="Helvetica,sans-Serif" font-size="10.00"> +Utf8</text>
</g>
<!-- Node7 -->
<g id="node7" class="node">
<title>Node7</title>
<g id="a_node7"><a xlink:title=" ">
<polygon fill="none" stroke="#bfbfbf" points="622.5,-171.5 622.5,-228.5 778.5,-228.5 778.5,-171.5 622.5,-171.5"/>
<text text-anchor="middle" x="700.5" y="-216.5" font-family="Helvetica,sans-Serif" font-size="10.00">anonymous:+MethodHandle</text>
<polyline fill="none" stroke="#bfbfbf" points="622.5,-209.5 778.5,-209.5 "/>
<text text-anchor="middle" x="700.5" y="-197.5" font-family="Helvetica,sans-Serif" font-size="10.00"> </text>
<polyline fill="none" stroke="#bfbfbf" points="622.5,-190.5 778.5,-190.5 "/>
<text text-anchor="middle" x="700.5" y="-178.5" font-family="Helvetica,sans-Serif" font-size="10.00"> </text>
</a>
</g>
</g>
<!-- Node7&#45;&gt;Node1 -->
<g id="edge6" class="edge">
<title>Node7&#45;&gt;Node1</title>
<path fill="none" stroke="#404040" d="M695.23,-171.28C691.66,-143.35 691.3,-100.92 715.5,-76 751.78,-38.64 909.73,-31.52 982.08,-30.24"/>
<polygon fill="none" stroke="#404040" points="982.14,-30.24 988.08,-26.15 994.14,-30.06 988.19,-34.15 982.14,-30.24"/>
<text text-anchor="middle" x="757" y="-112" font-family="Helvetica,sans-Serif" font-size="10.00"> +MethodHandle</text>
</g>
<!-- Node8 -->
<g id="node8" class="node">
<title>Node8</title>
<g id="a_node8"><a xlink:title=" ">
<polygon fill="none" stroke="#bfbfbf" points="797,-171.5 797,-228.5 836,-228.5 836,-171.5 797,-171.5"/>
<text text-anchor="middle" x="816.5" y="-216.5" font-family="Helvetica,sans-Serif" font-size="10.00">float</text>
<polyline fill="none" stroke="#bfbfbf" points="797,-209.5 836,-209.5 "/>
<text text-anchor="middle" x="816.5" y="-197.5" font-family="Helvetica,sans-Serif" font-size="10.00"> </text>
<polyline fill="none" stroke="#bfbfbf" points="797,-190.5 836,-190.5 "/>
<text text-anchor="middle" x="816.5" y="-178.5" font-family="Helvetica,sans-Serif" font-size="10.00"> </text>
</a>
</g>
</g>
<!-- Node8&#45;&gt;Node1 -->
<g id="edge7" class="edge">
<title>Node8&#45;&gt;Node1</title>
<path fill="none" stroke="#404040" d="M808.34,-171.26C802.13,-143.91 797.9,-102.49 819.5,-76 839.74,-51.17 930.55,-38.48 982.22,-33.15"/>
<polygon fill="none" stroke="#404040" points="982.51,-33.13 988.09,-28.56 994.45,-31.96 988.87,-36.52 982.51,-33.13"/>
<text text-anchor="middle" x="839.5" y="-112" font-family="Helvetica,sans-Serif" font-size="10.00"> +nfloat</text>
</g>
<!-- Node9 -->
<g id="node9" class="node">
<title>Node9</title>
<g id="a_node9"><a xlink:title=" ">
<polygon fill="none" stroke="#bfbfbf" points="854.5,-171.5 854.5,-228.5 910.5,-228.5 910.5,-171.5 854.5,-171.5"/>
<text text-anchor="middle" x="882.5" y="-216.5" font-family="Helvetica,sans-Serif" font-size="10.00">uint16_t</text>
<polyline fill="none" stroke="#bfbfbf" points="854.5,-209.5 910.5,-209.5 "/>
<text text-anchor="middle" x="882.5" y="-197.5" font-family="Helvetica,sans-Serif" font-size="10.00"> </text>
<polyline fill="none" stroke="#bfbfbf" points="854.5,-190.5 910.5,-190.5 "/>
<text text-anchor="middle" x="882.5" y="-178.5" font-family="Helvetica,sans-Serif" font-size="10.00"> </text>
</a>
</g>
</g>
<!-- Node9&#45;&gt;Node1 -->
<g id="edge8" class="edge">
<title>Node9&#45;&gt;Node1</title>
<path fill="none" stroke="#404040" d="M871.96,-171.25C863.66,-144.28 856.51,-103.49 876.5,-76 900.49,-43.01 948.66,-33.2 982.2,-30.53"/>
<polygon fill="none" stroke="#404040" points="982.28,-30.53 988.04,-26.19 994.26,-29.83 988.51,-34.17 982.28,-30.53"/>
<text text-anchor="middle" x="919.5" y="-145" font-family="Helvetica,sans-Serif" font-size="10.00"> +classIndex</text>
<text text-anchor="middle" x="919.5" y="-134" font-family="Helvetica,sans-Serif" font-size="10.00">+descriptorIndex</text>
<text text-anchor="middle" x="919.5" y="-123" font-family="Helvetica,sans-Serif" font-size="10.00">+lenght</text>
<text text-anchor="middle" x="919.5" y="-112" font-family="Helvetica,sans-Serif" font-size="10.00">+nameIndex</text>
<text text-anchor="middle" x="919.5" y="-101" font-family="Helvetica,sans-Serif" font-size="10.00">+nameTypeIndex</text>
<text text-anchor="middle" x="919.5" y="-90" font-family="Helvetica,sans-Serif" font-size="10.00">+referenceIndex</text>
<text text-anchor="middle" x="919.5" y="-79" font-family="Helvetica,sans-Serif" font-size="10.00">+stringIndex</text>
</g>
<!-- Node10 -->
<g id="node10" class="node">
<title>Node10</title>
<g id="a_node10"><a xlink:title=" ">
<polygon fill="none" stroke="#bfbfbf" points="950.5,-171.5 950.5,-228.5 1006.5,-228.5 1006.5,-171.5 950.5,-171.5"/>
<text text-anchor="middle" x="978.5" y="-216.5" font-family="Helvetica,sans-Serif" font-size="10.00">uint32_t</text>
<polyline fill="none" stroke="#bfbfbf" points="950.5,-209.5 1006.5,-209.5 "/>
<text text-anchor="middle" x="978.5" y="-197.5" font-family="Helvetica,sans-Serif" font-size="10.00"> </text>
<polyline fill="none" stroke="#bfbfbf" points="950.5,-190.5 1006.5,-190.5 "/>
<text text-anchor="middle" x="978.5" y="-178.5" font-family="Helvetica,sans-Serif" font-size="10.00"> </text>
</a>
</g>
</g>
<!-- Node10&#45;&gt;Node1 -->
<g id="edge9" class="edge">
<title>Node10&#45;&gt;Node1</title>
<path fill="none" stroke="#404040" d="M971.79,-171.05C967.01,-145.39 963.35,-106.8 975.5,-76 977.96,-69.77 981.7,-63.89 985.97,-58.55"/>
<polygon fill="none" stroke="#404040" points="986.04,-58.47 987.09,-51.33 994.07,-49.55 993.03,-56.69 986.04,-58.47"/>
<text text-anchor="middle" x="1004.5" y="-123" font-family="Helvetica,sans-Serif" font-size="10.00"> +bytes</text>
<text text-anchor="middle" x="1004.5" y="-112" font-family="Helvetica,sans-Serif" font-size="10.00">+highBytes</text>
<text text-anchor="middle" x="1004.5" y="-101" font-family="Helvetica,sans-Serif" font-size="10.00">+lowBytes</text>
</g>
<!-- Node11 -->
<g id="node11" class="node">
<title>Node11</title>
<g id="a_node11"><a xlink:title=" ">
<polygon fill="none" stroke="#bfbfbf" points="1033,-171.5 1033,-228.5 1062,-228.5 1062,-171.5 1033,-171.5"/>
<text text-anchor="middle" x="1047.5" y="-216.5" font-family="Helvetica,sans-Serif" font-size="10.00">int</text>
<polyline fill="none" stroke="#bfbfbf" points="1033,-209.5 1062,-209.5 "/>
<text text-anchor="middle" x="1047.5" y="-197.5" font-family="Helvetica,sans-Serif" font-size="10.00"> </text>
<polyline fill="none" stroke="#bfbfbf" points="1033,-190.5 1062,-190.5 "/>
<text text-anchor="middle" x="1047.5" y="-178.5" font-family="Helvetica,sans-Serif" font-size="10.00"> </text>
</a>
</g>
</g>
<!-- Node11&#45;&gt;Node1 -->
<g id="edge10" class="edge">
<title>Node11&#45;&gt;Node1</title>
<path fill="none" stroke="#404040" d="M1047.68,-171.26C1047.28,-146.07 1045.23,-108.08 1037.5,-76 1036.95,-73.73 1036.31,-71.43 1035.6,-69.13"/>
<polygon fill="none" stroke="#404040" points="1035.58,-69.07 1029.81,-64.75 1031.58,-57.76 1037.35,-62.08 1035.58,-69.07"/>
<text text-anchor="middle" x="1062" y="-112" font-family="Helvetica,sans-Serif" font-size="10.00"> +nint</text>
</g>
<!-- Node12 -->
<g id="node12" class="node">
<title>Node12</title>
<g id="a_node12"><a xlink:title=" ">
<polygon fill="none" stroke="#bfbfbf" points="1080.5,-171.5 1080.5,-228.5 1130.5,-228.5 1130.5,-171.5 1080.5,-171.5"/>
<text text-anchor="middle" x="1105.5" y="-216.5" font-family="Helvetica,sans-Serif" font-size="10.00">uint8_t</text>
<polyline fill="none" stroke="#bfbfbf" points="1080.5,-209.5 1130.5,-209.5 "/>
<text text-anchor="middle" x="1105.5" y="-197.5" font-family="Helvetica,sans-Serif" font-size="10.00"> </text>
<polyline fill="none" stroke="#bfbfbf" points="1080.5,-190.5 1130.5,-190.5 "/>
<text text-anchor="middle" x="1105.5" y="-178.5" font-family="Helvetica,sans-Serif" font-size="10.00"> </text>
</a>
</g>
</g>
<!-- Node12&#45;&gt;Node1 -->
<g id="edge11" class="edge">
<title>Node12&#45;&gt;Node1</title>
<path fill="none" stroke="#404040" d="M1105.75,-171.48C1104.76,-145.06 1099.95,-105.01 1081.5,-76 1074.47,-64.94 1063.75,-55.67 1053.14,-48.42"/>
<polygon fill="none" stroke="#404040" points="1052.86,-48.24 1045.65,-48.43 1042.71,-41.85 1049.92,-41.66 1052.86,-48.24"/>
<text text-anchor="middle" x="1142" y="-123" font-family="Helvetica,sans-Serif" font-size="10.00"> +bytes</text>
<text text-anchor="middle" x="1142" y="-112" font-family="Helvetica,sans-Serif" font-size="10.00">+referenceKind</text>
<text text-anchor="middle" x="1142" y="-101" font-family="Helvetica,sans-Serif" font-size="10.00">+tag</text>
</g>
<!-- Node13 -->
<g id="node13" class="node">
<title>Node13</title>
<g id="a_node13"><a xlink:title=" ">
<polygon fill="none" stroke="#bfbfbf" points="1149,-171.5 1149,-228.5 1260,-228.5 1260,-171.5 1149,-171.5"/>
<text text-anchor="middle" x="1204.5" y="-216.5" font-family="Helvetica,sans-Serif" font-size="10.00">anonymous:+Class</text>
<polyline fill="none" stroke="#bfbfbf" points="1149,-209.5 1260,-209.5 "/>
<text text-anchor="middle" x="1204.5" y="-197.5" font-family="Helvetica,sans-Serif" font-size="10.00"> </text>
<polyline fill="none" stroke="#bfbfbf" points="1149,-190.5 1260,-190.5 "/>
<text text-anchor="middle" x="1204.5" y="-178.5" font-family="Helvetica,sans-Serif" font-size="10.00"> </text>
</a>
</g>
</g>
<!-- Node13&#45;&gt;Node1 -->
<g id="edge12" class="edge">
<title>Node13&#45;&gt;Node1</title>
<path fill="none" stroke="#404040" d="M1207.89,-171.47C1209.67,-143.9 1207.75,-101.94 1184.5,-76 1151.77,-39.49 1092.87,-30.88 1054.75,-29.4"/>
<polygon fill="none" stroke="#404040" points="1054.68,-29.4 1048.6,-33.27 1042.68,-29.15 1048.77,-25.28 1054.68,-29.4"/>
<text text-anchor="middle" x="1226.5" y="-112" font-family="Helvetica,sans-Serif" font-size="10.00"> +Class</text>
</g>
<!-- Node14 -->
<g id="node14" class="node">
<title>Node14</title>
<g id="a_node14"><a xlink:title=" ">
<polygon fill="none" stroke="#bfbfbf" points="1278,-171.5 1278,-228.5 1433,-228.5 1433,-171.5 1278,-171.5"/>
<text text-anchor="middle" x="1355.5" y="-216.5" font-family="Helvetica,sans-Serif" font-size="10.00">anonymous:+FieldMethInter</text>
<polyline fill="none" stroke="#bfbfbf" points="1278,-209.5 1433,-209.5 "/>
<text text-anchor="middle" x="1355.5" y="-197.5" font-family="Helvetica,sans-Serif" font-size="10.00"> </text>
<polyline fill="none" stroke="#bfbfbf" points="1278,-190.5 1433,-190.5 "/>
<text text-anchor="middle" x="1355.5" y="-178.5" font-family="Helvetica,sans-Serif" font-size="10.00"> </text>
</a>
</g>
</g>
<!-- Node14&#45;&gt;Node1 -->
<g id="edge13" class="edge">
<title>Node14&#45;&gt;Node1</title>
<path fill="none" stroke="#404040" d="M1339.41,-171.26C1321.31,-142.69 1289.19,-99.15 1249.5,-76 1187.7,-39.95 1102.48,-31.69 1054.71,-30.07"/>
<polygon fill="none" stroke="#404040" points="1054.56,-30.07 1048.47,-33.92 1042.57,-29.78 1048.66,-25.93 1054.56,-30.07"/>
<text text-anchor="middle" x="1366.5" y="-112" font-family="Helvetica,sans-Serif" font-size="10.00"> +FieldMethInter</text>
</g>
<!-- Node15 -->
<g id="node15" class="node">
<title>Node15</title>
<g id="a_node15"><a xlink:title=" ">
<polygon fill="none" stroke="#bfbfbf" points="1451.5,-171.5 1451.5,-228.5 1489.5,-228.5 1489.5,-171.5 1451.5,-171.5"/>
<text text-anchor="middle" x="1470.5" y="-216.5" font-family="Helvetica,sans-Serif" font-size="10.00">long</text>
<polyline fill="none" stroke="#bfbfbf" points="1451.5,-209.5 1489.5,-209.5 "/>
<text text-anchor="middle" x="1470.5" y="-197.5" font-family="Helvetica,sans-Serif" font-size="10.00"> </text>
<polyline fill="none" stroke="#bfbfbf" points="1451.5,-190.5 1489.5,-190.5 "/>
<text text-anchor="middle" x="1470.5" y="-178.5" font-family="Helvetica,sans-Serif" font-size="10.00"> </text>
</a>
</g>
</g>
<!-- Node15&#45;&gt;Node1 -->
<g id="edge14" class="edge">
<title>Node15&#45;&gt;Node1</title>
<path fill="none" stroke="#404040" d="M1465.3,-171.24C1458.34,-142.43 1443.02,-98.5 1411.5,-76 1354.8,-35.52 1141.23,-30.31 1054.97,-29.89"/>
<polygon fill="none" stroke="#404040" points="1054.73,-29.89 1048.72,-33.87 1042.73,-29.86 1048.74,-25.87 1054.73,-29.89"/>
<text text-anchor="middle" x="1479" y="-112" font-family="Helvetica,sans-Serif" font-size="10.00"> +nlong</text>
</g>
<!-- Node16 -->
<g id="node16" class="node">
<title>Node16</title>
<g id="a_node16"><a xlink:title=" ">
<polygon fill="none" stroke="#bfbfbf" points="1508,-171.5 1508,-228.5 1621,-228.5 1621,-171.5 1508,-171.5"/>
<text text-anchor="middle" x="1564.5" y="-216.5" font-family="Helvetica,sans-Serif" font-size="10.00">anonymous:+String</text>
<polyline fill="none" stroke="#bfbfbf" points="1508,-209.5 1621,-209.5 "/>
<text text-anchor="middle" x="1564.5" y="-197.5" font-family="Helvetica,sans-Serif" font-size="10.00"> </text>
<polyline fill="none" stroke="#bfbfbf" points="1508,-190.5 1621,-190.5 "/>
<text text-anchor="middle" x="1564.5" y="-178.5" font-family="Helvetica,sans-Serif" font-size="10.00"> </text>
</a>
</g>
</g>
<!-- Node16&#45;&gt;Node1 -->
<g id="edge15" class="edge">
<title>Node16&#45;&gt;Node1</title>
<path fill="none" stroke="#404040" d="M1558.78,-171.33C1551.22,-142.38 1534.88,-98.12 1502.5,-76 1465.74,-50.89 1160.92,-35.93 1054.77,-31.44"/>
<polygon fill="none" stroke="#404040" points="1054.55,-31.43 1048.39,-35.18 1042.56,-30.93 1048.72,-27.18 1054.55,-31.43"/>
<text text-anchor="middle" x="1571.5" y="-112" font-family="Helvetica,sans-Serif" font-size="10.00"> +String</text>
</g>
<!-- Node17 -->
<g id="node17" class="node">
<title>Node17</title>
<g id="a_node17"><a xlink:title=" ">
<polygon fill="none" stroke="#bfbfbf" points="1639,-171.5 1639,-228.5 1758,-228.5 1758,-171.5 1639,-171.5"/>
<text text-anchor="middle" x="1698.5" y="-216.5" font-family="Helvetica,sans-Serif" font-size="10.00">anonymous:+Integer</text>
<polyline fill="none" stroke="#bfbfbf" points="1639,-209.5 1758,-209.5 "/>
<text text-anchor="middle" x="1698.5" y="-197.5" font-family="Helvetica,sans-Serif" font-size="10.00"> </text>
<polyline fill="none" stroke="#bfbfbf" points="1639,-190.5 1758,-190.5 "/>
<text text-anchor="middle" x="1698.5" y="-178.5" font-family="Helvetica,sans-Serif" font-size="10.00"> </text>
</a>
</g>
</g>
<!-- Node17&#45;&gt;Node1 -->
<g id="edge16" class="edge">
<title>Node17&#45;&gt;Node1</title>
<path fill="none" stroke="#404040" d="M1684.19,-171.42C1667.32,-142.09 1636.34,-97.08 1595.5,-76 1547.57,-51.25 1174.19,-35.66 1054.96,-31.27"/>
<polygon fill="none" stroke="#404040" points="1054.65,-31.26 1048.51,-35.04 1042.66,-30.83 1048.8,-27.05 1054.65,-31.26"/>
<text text-anchor="middle" x="1695.5" y="-112" font-family="Helvetica,sans-Serif" font-size="10.00"> +Integer</text>
</g>
<!-- Node18 -->
<g id="node18" class="node">
<title>Node18</title>
<g id="a_node18"><a xlink:title=" ">
<polygon fill="none" stroke="#bfbfbf" points="1776.5,-171.5 1776.5,-228.5 1886.5,-228.5 1886.5,-171.5 1776.5,-171.5"/>
<text text-anchor="middle" x="1831.5" y="-216.5" font-family="Helvetica,sans-Serif" font-size="10.00">anonymous:+Float</text>
<polyline fill="none" stroke="#bfbfbf" points="1776.5,-209.5 1886.5,-209.5 "/>
<text text-anchor="middle" x="1831.5" y="-197.5" font-family="Helvetica,sans-Serif" font-size="10.00"> </text>
<polyline fill="none" stroke="#bfbfbf" points="1776.5,-190.5 1886.5,-190.5 "/>
<text text-anchor="middle" x="1831.5" y="-178.5" font-family="Helvetica,sans-Serif" font-size="10.00"> </text>
</a>
</g>
</g>
<!-- Node18&#45;&gt;Node1 -->
<g id="edge17" class="edge">
<title>Node18&#45;&gt;Node1</title>
<path fill="none" stroke="#404040" d="M1816,-171.27C1797.84,-141.82 1764.78,-96.71 1722.5,-76 1662.29,-46.51 1190.16,-33.82 1054.71,-30.76"/>
<polygon fill="none" stroke="#404040" points="1054.67,-30.76 1048.59,-34.62 1042.68,-30.49 1048.76,-26.63 1054.67,-30.76"/>
<text text-anchor="middle" x="1822" y="-112" font-family="Helvetica,sans-Serif" font-size="10.00"> +Float</text>
</g>
<!-- Node19 -->
<g id="node19" class="node">
<title>Node19</title>
<g id="a_node19"><a xlink:title=" ">
<polygon fill="none" stroke="#bfbfbf" points="1904.5,-171.5 1904.5,-228.5 2012.5,-228.5 2012.5,-171.5 1904.5,-171.5"/>
<text text-anchor="middle" x="1958.5" y="-216.5" font-family="Helvetica,sans-Serif" font-size="10.00">anonymous:+Long</text>
<polyline fill="none" stroke="#bfbfbf" points="1904.5,-209.5 2012.5,-209.5 "/>
<text text-anchor="middle" x="1958.5" y="-197.5" font-family="Helvetica,sans-Serif" font-size="10.00"> </text>
<polyline fill="none" stroke="#bfbfbf" points="1904.5,-190.5 2012.5,-190.5 "/>
<text text-anchor="middle" x="1958.5" y="-178.5" font-family="Helvetica,sans-Serif" font-size="10.00"> </text>
</a>
</g>
</g>
<!-- Node19&#45;&gt;Node1 -->
<g id="edge18" class="edge">
<title>Node19&#45;&gt;Node1</title>
<path fill="none" stroke="#404040" d="M1942.18,-171.44C1922.98,-141.9 1888.11,-96.5 1844.5,-76 1772.43,-42.12 1205.27,-32.42 1054.96,-30.43"/>
<polygon fill="none" stroke="#404040" points="1054.9,-30.43 1048.85,-34.35 1042.9,-30.28 1048.95,-26.35 1054.9,-30.43"/>
<text text-anchor="middle" x="1946" y="-112" font-family="Helvetica,sans-Serif" font-size="10.00"> +Long</text>
</g>
</g>
</svg>
