<?xml version="1.0" encoding="UTF-8" standalone="no"?>
<!DOCTYPE svg PUBLIC "-//W3C//DTD SVG 1.1//EN"
 "http://www.w3.org/Graphics/SVG/1.1/DTD/svg11.dtd">
<!-- Generated by graphviz version 2.43.0 (0)
 -->
<!-- Title: U2OperandOpcode Pages: 1 -->
<svg width="399pt" height="515pt"
 viewBox="0.00 0.00 398.50 515.00" xmlns="http://www.w3.org/2000/svg" xmlns:xlink="http://www.w3.org/1999/xlink">
<g id="graph0" class="graph" transform="scale(1 1) rotate(0) translate(4 511)">
<title>U2OperandOpcode</title>
<!-- Node1 -->
<g id="node1" class="node">
<title>Node1</title>
<g id="a_node1"><a xlink:title="Opcode com dois bytes de operandos. Os dois bytes são juntados para formarem um u2 por (byte1 &lt;&lt; 8) |...">
<polygon fill="#bfbfbf" stroke="black" points="97.5,-0.5 97.5,-68.5 224.5,-68.5 224.5,-0.5 97.5,-0.5"/>
<text text-anchor="middle" x="161" y="-56.5" font-family="Helvetica,sans-Serif" font-size="10.00">U2OperandOpcode</text>
<polyline fill="none" stroke="black" points="97.5,-49.5 224.5,-49.5 "/>
<text text-anchor="middle" x="161" y="-37.5" font-family="Helvetica,sans-Serif" font-size="10.00"> </text>
<polyline fill="none" stroke="black" points="97.5,-30.5 224.5,-30.5 "/>
<text text-anchor="start" x="105.5" y="-18.5" font-family="Helvetica,sans-Serif" font-size="10.00">+ getString()</text>
<text text-anchor="start" x="105.5" y="-7.5" font-family="Helvetica,sans-Serif" font-size="10.00">+ U2OperandOpcode()</text>
</a>
</g>
</g>
<!-- Node2 -->
<g id="node2" class="node">
<title>Node2</title>
<g id="a_node2"><a xlink:href="class_opcode.xhtml" target="_top" xlink:title="Classe base para Opcodes. Ainda não está pronta para ser uma classe completa para instruções,...">
<polygon fill="none" stroke="black" points="117.5,-106.5 117.5,-196.5 204.5,-196.5 204.5,-106.5 117.5,-106.5"/>
<text text-anchor="middle" x="161" y="-184.5" font-family="Helvetica,sans-Serif" font-size="10.00">Opcode</text>
<polyline fill="none" stroke="black" points="117.5,-177.5 204.5,-177.5 "/>
<text text-anchor="middle" x="161" y="-165.5" font-family="Helvetica,sans-Serif" font-size="10.00"> </text>
<polyline fill="none" stroke="black" points="117.5,-158.5 204.5,-158.5 "/>
<text text-anchor="start" x="125.5" y="-146.5" font-family="Helvetica,sans-Serif" font-size="10.00">+ Opcode()</text>
<text text-anchor="start" x="125.5" y="-135.5" font-family="Helvetica,sans-Serif" font-size="10.00">+ ~Opcode()</text>
<text text-anchor="start" x="125.5" y="-124.5" font-family="Helvetica,sans-Serif" font-size="10.00">+ getString()</text>
<text text-anchor="start" x="125.5" y="-113.5" font-family="Helvetica,sans-Serif" font-size="10.00">+ injectCode()</text>
</a>
</g>
</g>
<!-- Node2&#45;&gt;Node1 -->
<g id="edge1" class="edge">
<title>Node2&#45;&gt;Node1</title>
<path fill="none" stroke="midnightblue" d="M161,-96.23C161,-86.8 161,-77.26 161,-68.62"/>
<polygon fill="none" stroke="midnightblue" points="157.5,-96.37 161,-106.37 164.5,-96.37 157.5,-96.37"/>
</g>
<!-- Node3 -->
<g id="node3" class="node">
<title>Node3</title>
<g id="a_node3"><a xlink:title=" ">
<polygon fill="none" stroke="#bfbfbf" points="0,-299.5 0,-356.5 56,-356.5 56,-299.5 0,-299.5"/>
<text text-anchor="middle" x="28" y="-344.5" font-family="Helvetica,sans-Serif" font-size="10.00">uint32_t</text>
<polyline fill="none" stroke="#bfbfbf" points="0,-337.5 56,-337.5 "/>
<text text-anchor="middle" x="28" y="-325.5" font-family="Helvetica,sans-Serif" font-size="10.00"> </text>
<polyline fill="none" stroke="#bfbfbf" points="0,-318.5 56,-318.5 "/>
<text text-anchor="middle" x="28" y="-306.5" font-family="Helvetica,sans-Serif" font-size="10.00"> </text>
</a>
</g>
</g>
<!-- Node3&#45;&gt;Node2 -->
<g id="edge2" class="edge">
<title>Node3&#45;&gt;Node2</title>
<path fill="none" stroke="#404040" d="M31.86,-299.25C36.4,-274.98 45.88,-239.82 65,-215 76.14,-200.53 91.64,-188.41 106.94,-178.8"/>
<polygon fill="none" stroke="#404040" points="107.13,-178.69 110.24,-172.18 117.44,-172.55 114.33,-179.06 107.13,-178.69"/>
<text text-anchor="middle" x="90.5" y="-218" font-family="Helvetica,sans-Serif" font-size="10.00"> #position</text>
</g>
<!-- Node4 -->
<g id="node4" class="node">
<title>Node4</title>
<g id="a_node4"><a xlink:title=" ">
<polygon fill="none" stroke="#bfbfbf" points="75,-299.5 75,-356.5 125,-356.5 125,-299.5 75,-299.5"/>
<text text-anchor="middle" x="100" y="-344.5" font-family="Helvetica,sans-Serif" font-size="10.00">uint8_t</text>
<polyline fill="none" stroke="#bfbfbf" points="75,-337.5 125,-337.5 "/>
<text text-anchor="middle" x="100" y="-325.5" font-family="Helvetica,sans-Serif" font-size="10.00"> </text>
<polyline fill="none" stroke="#bfbfbf" points="75,-318.5 125,-318.5 "/>
<text text-anchor="middle" x="100" y="-306.5" font-family="Helvetica,sans-Serif" font-size="10.00"> </text>
</a>
</g>
</g>
<!-- Node4&#45;&gt;Node2 -->
<g id="edge3" class="edge">
<title>Node4&#45;&gt;Node2</title>
<path fill="none" stroke="#404040" d="M103.03,-299.08C106.17,-275.95 112.18,-242.53 123,-215 123.98,-212.5 125.06,-209.99 126.21,-207.49"/>
<polygon fill="none" stroke="#404040" points="126.29,-207.33 125.4,-200.17 131.67,-196.6 132.55,-203.76 126.29,-207.33"/>
<text text-anchor="middle" x="140.5" y="-218" font-family="Helvetica,sans-Serif" font-size="10.00"> #code</text>
</g>
<!-- Node5 -->
<g id="node5" class="node">
<title>Node5</title>
<g id="a_node5"><a xlink:title=" ">
<polygon fill="none" stroke="#bfbfbf" points="143,-299.5 143,-356.5 187,-356.5 187,-299.5 143,-299.5"/>
<text text-anchor="middle" x="165" y="-344.5" font-family="Helvetica,sans-Serif" font-size="10.00">string</text>
<polyline fill="none" stroke="#bfbfbf" points="143,-337.5 187,-337.5 "/>
<text text-anchor="middle" x="165" y="-325.5" font-family="Helvetica,sans-Serif" font-size="10.00"> </text>
<polyline fill="none" stroke="#bfbfbf" points="143,-318.5 187,-318.5 "/>
<text text-anchor="middle" x="165" y="-306.5" font-family="Helvetica,sans-Serif" font-size="10.00"> </text>
</a>
</g>
</g>
<!-- Node5&#45;&gt;Node2 -->
<g id="edge4" class="edge">
<title>Node5&#45;&gt;Node2</title>
<path fill="none" stroke="#404040" d="M164.05,-299.14C163.39,-278.86 162.54,-250.73 162,-226 161.88,-220.54 161.78,-214.86 161.68,-209.17"/>
<polygon fill="none" stroke="#404040" points="161.67,-208.81 157.58,-202.87 161.49,-196.81 165.58,-202.75 161.67,-208.81"/>
<text text-anchor="middle" x="182" y="-218" font-family="Helvetica,sans-Serif" font-size="10.00"> #name</text>
</g>
<!-- Node6 -->
<g id="node6" class="node">
<title>Node6</title>
<g id="a_node6"><a xlink:title=" ">
<polygon fill="none" stroke="#bfbfbf" points="205,-299.5 205,-356.5 243,-356.5 243,-299.5 205,-299.5"/>
<text text-anchor="middle" x="224" y="-344.5" font-family="Helvetica,sans-Serif" font-size="10.00">bool</text>
<polyline fill="none" stroke="#bfbfbf" points="205,-337.5 243,-337.5 "/>
<text text-anchor="middle" x="224" y="-325.5" font-family="Helvetica,sans-Serif" font-size="10.00"> </text>
<polyline fill="none" stroke="#bfbfbf" points="205,-318.5 243,-318.5 "/>
<text text-anchor="middle" x="224" y="-306.5" font-family="Helvetica,sans-Serif" font-size="10.00"> </text>
</a>
</g>
</g>
<!-- Node6&#45;&gt;Node2 -->
<g id="edge5" class="edge">
<title>Node6&#45;&gt;Node2</title>
<path fill="none" stroke="#404040" d="M221.58,-299.45C218.85,-276.24 213.23,-242.52 202,-215 200.98,-212.51 199.86,-210.01 198.66,-207.53"/>
<polygon fill="none" stroke="#404040" points="198.58,-207.36 192.23,-203.93 192.96,-196.76 199.3,-200.19 198.58,-207.36"/>
<text text-anchor="middle" x="240" y="-218" font-family="Helvetica,sans-Serif" font-size="10.00"> +knowsCode</text>
</g>
<!-- Node7 -->
<g id="node7" class="node">
<title>Node7</title>
<g id="a_node7"><a xlink:href="class_constant_pool.xhtml" target="_top" xlink:title="Vetor (tabela) das constantes. Cada entrada é do tipo Cpinfo.">
<polygon fill="none" stroke="black" points="261.5,-244.5 261.5,-411.5 390.5,-411.5 390.5,-244.5 261.5,-244.5"/>
<text text-anchor="middle" x="326" y="-399.5" font-family="Helvetica,sans-Serif" font-size="10.00">ConstantPool</text>
<polyline fill="none" stroke="black" points="261.5,-392.5 390.5,-392.5 "/>
<text text-anchor="middle" x="326" y="-380.5" font-family="Helvetica,sans-Serif" font-size="10.00"> </text>
<polyline fill="none" stroke="black" points="261.5,-373.5 390.5,-373.5 "/>
<text text-anchor="start" x="269.5" y="-361.5" font-family="Helvetica,sans-Serif" font-size="10.00">+ ConstantPool()</text>
<text text-anchor="start" x="269.5" y="-350.5" font-family="Helvetica,sans-Serif" font-size="10.00">+ ConstantPool()</text>
<text text-anchor="start" x="269.5" y="-339.5" font-family="Helvetica,sans-Serif" font-size="10.00">+ print()</text>
<text text-anchor="start" x="269.5" y="-328.5" font-family="Helvetica,sans-Serif" font-size="10.00">+ Bytes2Str()</text>
<text text-anchor="start" x="269.5" y="-317.5" font-family="Helvetica,sans-Serif" font-size="10.00">+ getUtf8Str()</text>
<text text-anchor="start" x="269.5" y="-306.5" font-family="Helvetica,sans-Serif" font-size="10.00">+ getUtf8Class()</text>
<text text-anchor="start" x="269.5" y="-295.5" font-family="Helvetica,sans-Serif" font-size="10.00">+ getDescriptor()</text>
<text text-anchor="start" x="269.5" y="-284.5" font-family="Helvetica,sans-Serif" font-size="10.00">+ getNNameAndType()</text>
<text text-anchor="start" x="269.5" y="-273.5" font-family="Helvetica,sans-Serif" font-size="10.00">+ getFloat()</text>
<text text-anchor="start" x="269.5" y="-262.5" font-family="Helvetica,sans-Serif" font-size="10.00">+ getLong()</text>
<text text-anchor="start" x="269.5" y="-251.5" font-family="Helvetica,sans-Serif" font-size="10.00">+ getDouble()</text>
</a>
</g>
</g>
<!-- Node7&#45;&gt;Node2 -->
<g id="edge6" class="edge">
<title>Node7&#45;&gt;Node2</title>
<path fill="none" stroke="#404040" d="M298.4,-244.43C292.69,-233.81 285.94,-223.65 278,-215 261.03,-196.51 237.3,-182.43 215.64,-172.36"/>
<polygon fill="none" stroke="#404040" points="215.53,-172.31 208.42,-173.55 204.55,-167.46 211.66,-166.23 215.53,-172.31"/>
<text text-anchor="middle" x="298.5" y="-218" font-family="Helvetica,sans-Serif" font-size="10.00"> #cp</text>
</g>
<!-- Node8 -->
<g id="node8" class="node">
<title>Node8</title>
<g id="a_node8"><a xlink:title=" ">
<polygon fill="none" stroke="#bfbfbf" points="265,-449.5 265,-506.5 387,-506.5 387,-449.5 265,-449.5"/>
<text text-anchor="middle" x="326" y="-494.5" font-family="Helvetica,sans-Serif" font-size="10.00">std::vector&lt; Cpinfo &gt;</text>
<polyline fill="none" stroke="#bfbfbf" points="265,-487.5 387,-487.5 "/>
<text text-anchor="middle" x="326" y="-475.5" font-family="Helvetica,sans-Serif" font-size="10.00"> </text>
<polyline fill="none" stroke="#bfbfbf" points="265,-468.5 387,-468.5 "/>
<text text-anchor="middle" x="326" y="-456.5" font-family="Helvetica,sans-Serif" font-size="10.00"> </text>
</a>
</g>
</g>
<!-- Node8&#45;&gt;Node7 -->
<g id="edge7" class="edge">
<title>Node8&#45;&gt;Node7</title>
<path fill="none" stroke="midnightblue" d="M326,-438.93C326,-430.46 326,-421.17 326,-411.68"/>
<polygon fill="none" stroke="midnightblue" points="322.5,-439.16 326,-449.16 329.5,-439.16 322.5,-439.16"/>
</g>
</g>
</svg>
