<?xml version="1.0" encoding="UTF-8" standalone="no"?>
<!DOCTYPE svg PUBLIC "-//W3C//DTD SVG 1.1//EN"
 "http://www.w3.org/Graphics/SVG/1.1/DTD/svg11.dtd">
<!-- Generated by graphviz version 2.43.0 (0)
 -->
<!-- Title: MethodInfo Pages: 1 -->
<svg width="423pt" height="364pt"
 viewBox="0.00 0.00 422.50 364.00" xmlns="http://www.w3.org/2000/svg" xmlns:xlink="http://www.w3.org/1999/xlink">
<g id="graph0" class="graph" transform="scale(1 1) rotate(0) translate(4 360)">
<title>MethodInfo</title>
<!-- Node1 -->
<g id="node1" class="node">
<title>Node1</title>
<g id="a_node1"><a xlink:title="Estrutura de um método na JVM.">
<polygon fill="#bfbfbf" stroke="black" points="136.5,-0.5 136.5,-79.5 235.5,-79.5 235.5,-0.5 136.5,-0.5"/>
<text text-anchor="middle" x="186" y="-67.5" font-family="Helvetica,sans-Serif" font-size="10.00">MethodInfo</text>
<polyline fill="none" stroke="black" points="136.5,-60.5 235.5,-60.5 "/>
<text text-anchor="middle" x="186" y="-48.5" font-family="Helvetica,sans-Serif" font-size="10.00"> </text>
<polyline fill="none" stroke="black" points="136.5,-41.5 235.5,-41.5 "/>
<text text-anchor="start" x="144.5" y="-29.5" font-family="Helvetica,sans-Serif" font-size="10.00">+ ~MethodInfo()</text>
<text text-anchor="start" x="144.5" y="-18.5" font-family="Helvetica,sans-Serif" font-size="10.00">+ init()</text>
<text text-anchor="start" x="144.5" y="-7.5" font-family="Helvetica,sans-Serif" font-size="10.00">+ print()</text>
</a>
</g>
</g>
<!-- Node2 -->
<g id="node2" class="node">
<title>Node2</title>
<g id="a_node2"><a xlink:title=" ">
<polygon fill="none" stroke="#bfbfbf" points="0,-166 0,-223 56,-223 56,-166 0,-166"/>
<text text-anchor="middle" x="28" y="-211" font-family="Helvetica,sans-Serif" font-size="10.00">uint16_t</text>
<polyline fill="none" stroke="#bfbfbf" points="0,-204 56,-204 "/>
<text text-anchor="middle" x="28" y="-192" font-family="Helvetica,sans-Serif" font-size="10.00"> </text>
<polyline fill="none" stroke="#bfbfbf" points="0,-185 56,-185 "/>
<text text-anchor="middle" x="28" y="-173" font-family="Helvetica,sans-Serif" font-size="10.00"> </text>
</a>
</g>
</g>
<!-- Node2&#45;&gt;Node1 -->
<g id="edge1" class="edge">
<title>Node2&#45;&gt;Node1</title>
<path fill="none" stroke="#404040" d="M25.11,-165.95C24.43,-145.16 26.92,-117.05 42,-98 62.1,-72.62 95.15,-58.5 124.52,-50.67"/>
<polygon fill="none" stroke="#404040" points="124.74,-50.62 129.63,-45.31 136.4,-47.78 131.52,-53.08 124.74,-50.62"/>
<text text-anchor="middle" x="86" y="-123" font-family="Helvetica,sans-Serif" font-size="10.00"> +attributesCount</text>
<text text-anchor="middle" x="86" y="-112" font-family="Helvetica,sans-Serif" font-size="10.00">+descriptorIndex</text>
<text text-anchor="middle" x="86" y="-101" font-family="Helvetica,sans-Serif" font-size="10.00">+nameIndex</text>
</g>
<!-- Node3 -->
<g id="node3" class="node">
<title>Node3</title>
<g id="a_node3"><a xlink:href="class_acess_flags.xhtml" target="_top" xlink:title="Flags de acesso Delega para si o processamento das flags de acesso.">
<polygon fill="none" stroke="black" points="94,-155 94,-234 184,-234 184,-155 94,-155"/>
<text text-anchor="middle" x="139" y="-222" font-family="Helvetica,sans-Serif" font-size="10.00">AcessFlags</text>
<polyline fill="none" stroke="black" points="94,-215 184,-215 "/>
<text text-anchor="middle" x="139" y="-203" font-family="Helvetica,sans-Serif" font-size="10.00"> </text>
<polyline fill="none" stroke="black" points="94,-196 184,-196 "/>
<text text-anchor="start" x="102" y="-184" font-family="Helvetica,sans-Serif" font-size="10.00">+ AcessFlags()</text>
<text text-anchor="start" x="102" y="-173" font-family="Helvetica,sans-Serif" font-size="10.00">+ set()</text>
<text text-anchor="start" x="102" y="-162" font-family="Helvetica,sans-Serif" font-size="10.00">+ print()</text>
</a>
</g>
</g>
<!-- Node3&#45;&gt;Node1 -->
<g id="edge2" class="edge">
<title>Node3&#45;&gt;Node1</title>
<path fill="none" stroke="#404040" d="M133.71,-154.83C132.7,-137.04 133.56,-115.95 140,-98 140.93,-95.42 142.02,-92.88 143.25,-90.37"/>
<polygon fill="none" stroke="#404040" points="143.4,-90.11 142.93,-82.92 149.4,-79.72 149.86,-86.91 143.4,-90.11"/>
<text text-anchor="middle" x="175.5" y="-112" font-family="Helvetica,sans-Serif" font-size="10.00"> +accessFlags</text>
</g>
<!-- Node4 -->
<g id="node4" class="node">
<title>Node4</title>
<g id="a_node4"><a xlink:title=" ">
<polygon fill="none" stroke="#bfbfbf" points="71.5,-287.5 71.5,-355.5 206.5,-355.5 206.5,-287.5 71.5,-287.5"/>
<text text-anchor="start" x="79.5" y="-343.5" font-family="Helvetica,sans-Serif" font-size="10.00">map&lt; enumAcessFlags,</text>
<text text-anchor="middle" x="139" y="-332.5" font-family="Helvetica,sans-Serif" font-size="10.00"> bool &gt;</text>
<polyline fill="none" stroke="#bfbfbf" points="71.5,-325.5 206.5,-325.5 "/>
<text text-anchor="middle" x="139" y="-313.5" font-family="Helvetica,sans-Serif" font-size="10.00"> </text>
<polyline fill="none" stroke="#bfbfbf" points="71.5,-306.5 206.5,-306.5 "/>
<text text-anchor="middle" x="139" y="-294.5" font-family="Helvetica,sans-Serif" font-size="10.00"> </text>
</a>
</g>
</g>
<!-- Node4&#45;&gt;Node3 -->
<g id="edge3" class="edge">
<title>Node4&#45;&gt;Node3</title>
<path fill="none" stroke="#404040" d="M139,-287.33C139,-274.82 139,-260.27 139,-246.5"/>
<polygon fill="none" stroke="#404040" points="139,-246.15 135,-240.15 139,-234.15 143,-240.15 139,-246.15"/>
<text text-anchor="middle" x="182.5" y="-261" font-family="Helvetica,sans-Serif" font-size="10.00"> +acessFlagsMap</text>
</g>
<!-- Node5 -->
<g id="node5" class="node">
<title>Node5</title>
<g id="a_node5"><a xlink:title=" ">
<polygon fill="none" stroke="#bfbfbf" points="211,-166 211,-223 255,-223 255,-166 211,-166"/>
<text text-anchor="middle" x="233" y="-211" font-family="Helvetica,sans-Serif" font-size="10.00">string</text>
<polyline fill="none" stroke="#bfbfbf" points="211,-204 255,-204 "/>
<text text-anchor="middle" x="233" y="-192" font-family="Helvetica,sans-Serif" font-size="10.00"> </text>
<polyline fill="none" stroke="#bfbfbf" points="211,-185 255,-185 "/>
<text text-anchor="middle" x="233" y="-173" font-family="Helvetica,sans-Serif" font-size="10.00"> </text>
</a>
</g>
</g>
<!-- Node5&#45;&gt;Node1 -->
<g id="edge4" class="edge">
<title>Node5&#45;&gt;Node1</title>
<path fill="none" stroke="#404040" d="M228.07,-165.96C224.28,-146.68 218.44,-120.45 211,-98 210.22,-95.64 209.37,-93.24 208.48,-90.82"/>
<polygon fill="none" stroke="#404040" points="208.45,-90.73 202.53,-86.61 204.07,-79.56 209.98,-83.69 208.45,-90.73"/>
<text text-anchor="middle" x="249.5" y="-117.5" font-family="Helvetica,sans-Serif" font-size="10.00"> +descriptor</text>
<text text-anchor="middle" x="249.5" y="-106.5" font-family="Helvetica,sans-Serif" font-size="10.00">+name</text>
</g>
<!-- Node6 -->
<g id="node6" class="node">
<title>Node6</title>
<g id="a_node6"><a xlink:href="class_attributes.xhtml" target="_top" xlink:title="Vetor (tabela) dos atributos. Cada entrada é do tipo AttributeInfo.">
<polygon fill="none" stroke="black" points="273,-149.5 273,-239.5 395,-239.5 395,-149.5 273,-149.5"/>
<text text-anchor="middle" x="334" y="-227.5" font-family="Helvetica,sans-Serif" font-size="10.00">Attributes</text>
<polyline fill="none" stroke="black" points="273,-220.5 395,-220.5 "/>
<text text-anchor="middle" x="334" y="-208.5" font-family="Helvetica,sans-Serif" font-size="10.00"> </text>
<polyline fill="none" stroke="black" points="273,-201.5 395,-201.5 "/>
<text text-anchor="start" x="281" y="-189.5" font-family="Helvetica,sans-Serif" font-size="10.00">+ Attributes()</text>
<text text-anchor="start" x="281" y="-178.5" font-family="Helvetica,sans-Serif" font-size="10.00">+ Attributes()</text>
<text text-anchor="start" x="281" y="-167.5" font-family="Helvetica,sans-Serif" font-size="10.00">+ getConstantValue()</text>
<text text-anchor="start" x="281" y="-156.5" font-family="Helvetica,sans-Serif" font-size="10.00">+ print()</text>
</a>
</g>
</g>
<!-- Node6&#45;&gt;Node1 -->
<g id="edge5" class="edge">
<title>Node6&#45;&gt;Node1</title>
<path fill="none" stroke="#404040" d="M317.2,-149.3C309.05,-131.89 297.97,-112.61 284,-98 273.27,-86.78 259.84,-77.06 246.4,-68.98"/>
<polygon fill="none" stroke="#404040" points="246.09,-68.8 238.89,-69.3 235.67,-62.86 242.86,-62.36 246.09,-68.8"/>
<text text-anchor="middle" x="335.5" y="-112" font-family="Helvetica,sans-Serif" font-size="10.00"> +attributes</text>
</g>
<!-- Node7 -->
<g id="node7" class="node">
<title>Node7</title>
<g id="a_node7"><a xlink:title=" ">
<polygon fill="none" stroke="#bfbfbf" points="253.5,-293 253.5,-350 414.5,-350 414.5,-293 253.5,-293"/>
<text text-anchor="middle" x="334" y="-338" font-family="Helvetica,sans-Serif" font-size="10.00">std::vector&lt; AttributeInfo * &gt;</text>
<polyline fill="none" stroke="#bfbfbf" points="253.5,-331 414.5,-331 "/>
<text text-anchor="middle" x="334" y="-319" font-family="Helvetica,sans-Serif" font-size="10.00"> </text>
<polyline fill="none" stroke="#bfbfbf" points="253.5,-312 414.5,-312 "/>
<text text-anchor="middle" x="334" y="-300" font-family="Helvetica,sans-Serif" font-size="10.00"> </text>
</a>
</g>
</g>
<!-- Node7&#45;&gt;Node6 -->
<g id="edge6" class="edge">
<title>Node7&#45;&gt;Node6</title>
<path fill="none" stroke="midnightblue" d="M334,-282.43C334,-268.99 334,-253.77 334,-239.86"/>
<polygon fill="none" stroke="midnightblue" points="330.5,-282.76 334,-292.76 337.5,-282.76 330.5,-282.76"/>
</g>
</g>
</svg>
