<?xml version="1.0" encoding="UTF-8" standalone="no"?>
<!DOCTYPE svg PUBLIC "-//W3C//DTD SVG 1.1//EN"
 "http://www.w3.org/Graphics/SVG/1.1/DTD/svg11.dtd">
<!-- Generated by graphviz version 2.43.0 (0)
 -->
<!-- Title: LocalVariableTable Pages: 1 -->
<svg width="158pt" height="248pt"
 viewBox="0.00 0.00 158.00 248.00" xmlns="http://www.w3.org/2000/svg" xmlns:xlink="http://www.w3.org/1999/xlink">
<g id="graph0" class="graph" transform="scale(1 1) rotate(0) translate(4 244)">
<title>LocalVariableTable</title>
<!-- Node1 -->
<g id="node1" class="node">
<title>Node1</title>
<g id="a_node1"><a xlink:title=" ">
<polygon fill="#bfbfbf" stroke="black" points="0,-0.5 0,-79.5 150,-79.5 150,-0.5 0,-0.5"/>
<text text-anchor="middle" x="75" y="-67.5" font-family="Helvetica,sans-Serif" font-size="10.00">LocalVariableTable</text>
<polyline fill="none" stroke="black" points="0,-60.5 150,-60.5 "/>
<text text-anchor="start" x="8" y="-48.5" font-family="Helvetica,sans-Serif" font-size="10.00">+ localVariableTableLength</text>
<text text-anchor="start" x="8" y="-37.5" font-family="Helvetica,sans-Serif" font-size="10.00">+ lvTable</text>
<polyline fill="none" stroke="black" points="0,-30.5 150,-30.5 "/>
<text text-anchor="start" x="8" y="-18.5" font-family="Helvetica,sans-Serif" font-size="10.00">+ LocalVariableTable()</text>
<text text-anchor="start" x="8" y="-7.5" font-family="Helvetica,sans-Serif" font-size="10.00">+ print()</text>
</a>
</g>
</g>
<!-- Node2 -->
<g id="node2" class="node">
<title>Node2</title>
<g id="a_node2"><a xlink:href="class_attribute_info.xhtml" target="_top" xlink:title="Classe base a ser herdada pelas classes das entradas do vetor Attributes, contendo membros gerais.">
<polygon fill="none" stroke="black" points="12,-116.5 12,-239.5 138,-239.5 138,-116.5 12,-116.5"/>
<text text-anchor="middle" x="75" y="-227.5" font-family="Helvetica,sans-Serif" font-size="10.00">AttributeInfo</text>
<polyline fill="none" stroke="black" points="12,-220.5 138,-220.5 "/>
<text text-anchor="start" x="20" y="-208.5" font-family="Helvetica,sans-Serif" font-size="10.00">+ attributeNameIndex</text>
<text text-anchor="start" x="20" y="-197.5" font-family="Helvetica,sans-Serif" font-size="10.00">+ attributeLength</text>
<text text-anchor="start" x="20" y="-186.5" font-family="Helvetica,sans-Serif" font-size="10.00">+ name</text>
<polyline fill="none" stroke="black" points="12,-179.5 138,-179.5 "/>
<text text-anchor="start" x="20" y="-167.5" font-family="Helvetica,sans-Serif" font-size="10.00">+ AttributeInfo()</text>
<text text-anchor="start" x="20" y="-156.5" font-family="Helvetica,sans-Serif" font-size="10.00">+ AttributeInfo()</text>
<text text-anchor="start" x="20" y="-145.5" font-family="Helvetica,sans-Serif" font-size="10.00">+ generalInfo()</text>
<text text-anchor="start" x="20" y="-134.5" font-family="Helvetica,sans-Serif" font-size="10.00">+ print()</text>
<text text-anchor="start" x="20" y="-123.5" font-family="Helvetica,sans-Serif" font-size="10.00">+ print()</text>
</a>
</g>
</g>
<!-- Node2&#45;&gt;Node1 -->
<g id="edge1" class="edge">
<title>Node2&#45;&gt;Node1</title>
<path fill="none" stroke="midnightblue" d="M75,-105.91C75,-96.83 75,-87.82 75,-79.54"/>
<polygon fill="none" stroke="midnightblue" points="71.5,-106.16 75,-116.16 78.5,-106.16 71.5,-106.16"/>
</g>
</g>
</svg>
