<?xml version="1.0" encoding="UTF-8" standalone="no"?>
<!DOCTYPE svg PUBLIC "-//W3C//DTD SVG 1.1//EN"
 "http://www.w3.org/Graphics/SVG/1.1/DTD/svg11.dtd">
<!-- Generated by graphviz version 2.43.0 (0)
 -->
<!-- Title: U2OperandOpcodeCPClass Pages: 1 -->
<svg width="174pt" height="259pt"
 viewBox="0.00 0.00 174.00 259.00" xmlns="http://www.w3.org/2000/svg" xmlns:xlink="http://www.w3.org/1999/xlink">
<g id="graph0" class="graph" transform="scale(1 1) rotate(0) translate(4 255)">
<title>U2OperandOpcodeCPClass</title>
<!-- Node1 -->
<g id="node1" class="node">
<title>Node1</title>
<g id="a_node1"><a xlink:title=" ">
<polygon fill="#bfbfbf" stroke="black" points="0,-0.5 0,-68.5 166,-68.5 166,-0.5 0,-0.5"/>
<text text-anchor="middle" x="83" y="-56.5" font-family="Helvetica,sans-Serif" font-size="10.00">U2OperandOpcodeCPClass</text>
<polyline fill="none" stroke="black" points="0,-49.5 166,-49.5 "/>
<text text-anchor="middle" x="83" y="-37.5" font-family="Helvetica,sans-Serif" font-size="10.00"> </text>
<polyline fill="none" stroke="black" points="0,-30.5 166,-30.5 "/>
<text text-anchor="start" x="8" y="-18.5" font-family="Helvetica,sans-Serif" font-size="10.00">+ getString()</text>
<text text-anchor="start" x="8" y="-7.5" font-family="Helvetica,sans-Serif" font-size="10.00">+ U2OperandOpcodeCPClass()</text>
</a>
</g>
</g>
<!-- Node2 -->
<g id="node2" class="node">
<title>Node2</title>
<g id="a_node2"><a xlink:href="class_opcode.xhtml" target="_top" xlink:title="Classe base para Opcodes. Ainda não está pronta para ser uma classe completa para instruções,...">
<polygon fill="none" stroke="black" points="39.5,-105.5 39.5,-250.5 126.5,-250.5 126.5,-105.5 39.5,-105.5"/>
<text text-anchor="middle" x="83" y="-238.5" font-family="Helvetica,sans-Serif" font-size="10.00">Opcode</text>
<polyline fill="none" stroke="black" points="39.5,-231.5 126.5,-231.5 "/>
<text text-anchor="start" x="47.5" y="-219.5" font-family="Helvetica,sans-Serif" font-size="10.00">+ knowsCode</text>
<text text-anchor="start" x="47.5" y="-208.5" font-family="Helvetica,sans-Serif" font-size="10.00">+ knowsCp</text>
<text text-anchor="start" x="47.5" y="-197.5" font-family="Helvetica,sans-Serif" font-size="10.00"># name</text>
<text text-anchor="start" x="47.5" y="-186.5" font-family="Helvetica,sans-Serif" font-size="10.00"># code</text>
<text text-anchor="start" x="47.5" y="-175.5" font-family="Helvetica,sans-Serif" font-size="10.00"># position</text>
<text text-anchor="start" x="47.5" y="-164.5" font-family="Helvetica,sans-Serif" font-size="10.00"># cp</text>
<polyline fill="none" stroke="black" points="39.5,-157.5 126.5,-157.5 "/>
<text text-anchor="start" x="47.5" y="-145.5" font-family="Helvetica,sans-Serif" font-size="10.00">+ Opcode()</text>
<text text-anchor="start" x="47.5" y="-134.5" font-family="Helvetica,sans-Serif" font-size="10.00">+ ~Opcode()</text>
<text text-anchor="start" x="47.5" y="-123.5" font-family="Helvetica,sans-Serif" font-size="10.00">+ getString()</text>
<text text-anchor="start" x="47.5" y="-112.5" font-family="Helvetica,sans-Serif" font-size="10.00">+ injectCode()</text>
</a>
</g>
</g>
<!-- Node2&#45;&gt;Node1 -->
<g id="edge1" class="edge">
<title>Node2&#45;&gt;Node1</title>
<path fill="none" stroke="midnightblue" d="M83,-95.19C83,-85.83 83,-76.73 83,-68.58"/>
<polygon fill="none" stroke="midnightblue" points="79.5,-95.42 83,-105.42 86.5,-95.42 79.5,-95.42"/>
</g>
</g>
</svg>
