<?xml version="1.0" encoding="UTF-8" standalone="no"?>
<!DOCTYPE svg PUBLIC "-//W3C//DTD SVG 1.1//EN"
 "http://www.w3.org/Graphics/SVG/1.1/DTD/svg11.dtd">
<!-- Generated by graphviz version 2.43.0 (0)
 -->
<!-- Title: ClassesInfo Pages: 1 -->
<svg width="280pt" height="342pt"
 viewBox="0.00 0.00 279.50 342.00" xmlns="http://www.w3.org/2000/svg" xmlns:xlink="http://www.w3.org/1999/xlink">
<g id="graph0" class="graph" transform="scale(1 1) rotate(0) translate(4 338)">
<title>ClassesInfo</title>
<!-- Node1 -->
<g id="node1" class="node">
<title>Node1</title>
<g id="a_node1"><a xlink:title=" ">
<polygon fill="#bfbfbf" stroke="black" points="77,-0.5 77,-57.5 150,-57.5 150,-0.5 77,-0.5"/>
<text text-anchor="middle" x="113.5" y="-45.5" font-family="Helvetica,sans-Serif" font-size="10.00">ClassesInfo</text>
<polyline fill="none" stroke="black" points="77,-38.5 150,-38.5 "/>
<text text-anchor="middle" x="113.5" y="-26.5" font-family="Helvetica,sans-Serif" font-size="10.00"> </text>
<polyline fill="none" stroke="black" points="77,-19.5 150,-19.5 "/>
<text text-anchor="middle" x="113.5" y="-7.5" font-family="Helvetica,sans-Serif" font-size="10.00"> </text>
</a>
</g>
</g>
<!-- Node2 -->
<g id="node2" class="node">
<title>Node2</title>
<g id="a_node2"><a xlink:href="class_acess_flags.xhtml" target="_top" xlink:title="Flags de acesso Delega para si o processamento das flags de acesso.">
<polygon fill="none" stroke="black" points="22.5,-138.5 22.5,-217.5 112.5,-217.5 112.5,-138.5 22.5,-138.5"/>
<text text-anchor="middle" x="67.5" y="-205.5" font-family="Helvetica,sans-Serif" font-size="10.00">AcessFlags</text>
<polyline fill="none" stroke="black" points="22.5,-198.5 112.5,-198.5 "/>
<text text-anchor="middle" x="67.5" y="-186.5" font-family="Helvetica,sans-Serif" font-size="10.00"> </text>
<polyline fill="none" stroke="black" points="22.5,-179.5 112.5,-179.5 "/>
<text text-anchor="start" x="30.5" y="-167.5" font-family="Helvetica,sans-Serif" font-size="10.00">+ AcessFlags()</text>
<text text-anchor="start" x="30.5" y="-156.5" font-family="Helvetica,sans-Serif" font-size="10.00">+ set()</text>
<text text-anchor="start" x="30.5" y="-145.5" font-family="Helvetica,sans-Serif" font-size="10.00">+ print()</text>
</a>
</g>
</g>
<!-- Node2&#45;&gt;Node1 -->
<g id="edge1" class="edge">
<title>Node2&#45;&gt;Node1</title>
<path fill="none" stroke="#404040" d="M60.05,-138.2C58.05,-118.8 58.34,-95.4 66.5,-76 67.76,-73 69.33,-70.09 71.12,-67.3"/>
<polygon fill="none" stroke="#404040" points="71.14,-67.27 71.58,-60.07 78.39,-57.71 77.95,-64.91 71.14,-67.27"/>
<text text-anchor="middle" x="99.5" y="-95.5" font-family="Helvetica,sans-Serif" font-size="10.00"> +acessFlags</text>
</g>
<!-- Node3 -->
<g id="node3" class="node">
<title>Node3</title>
<g id="a_node3"><a xlink:title=" ">
<polygon fill="none" stroke="#bfbfbf" points="0,-265.5 0,-333.5 135,-333.5 135,-265.5 0,-265.5"/>
<text text-anchor="start" x="8" y="-321.5" font-family="Helvetica,sans-Serif" font-size="10.00">map&lt; enumAcessFlags,</text>
<text text-anchor="middle" x="67.5" y="-310.5" font-family="Helvetica,sans-Serif" font-size="10.00"> bool &gt;</text>
<polyline fill="none" stroke="#bfbfbf" points="0,-303.5 135,-303.5 "/>
<text text-anchor="middle" x="67.5" y="-291.5" font-family="Helvetica,sans-Serif" font-size="10.00"> </text>
<polyline fill="none" stroke="#bfbfbf" points="0,-284.5 135,-284.5 "/>
<text text-anchor="middle" x="67.5" y="-272.5" font-family="Helvetica,sans-Serif" font-size="10.00"> </text>
</a>
</g>
</g>
<!-- Node3&#45;&gt;Node2 -->
<g id="edge2" class="edge">
<title>Node3&#45;&gt;Node2</title>
<path fill="none" stroke="#404040" d="M67.5,-265.21C67.5,-254.24 67.5,-241.78 67.5,-229.81"/>
<polygon fill="none" stroke="#404040" points="67.5,-229.6 63.5,-223.6 67.5,-217.6 71.5,-223.6 67.5,-229.6"/>
<text text-anchor="middle" x="111" y="-239" font-family="Helvetica,sans-Serif" font-size="10.00"> +acessFlagsMap</text>
</g>
<!-- Node4 -->
<g id="node4" class="node">
<title>Node4</title>
<g id="a_node4"><a xlink:title=" ">
<polygon fill="none" stroke="#bfbfbf" points="130.5,-149.5 130.5,-206.5 186.5,-206.5 186.5,-149.5 130.5,-149.5"/>
<text text-anchor="middle" x="158.5" y="-194.5" font-family="Helvetica,sans-Serif" font-size="10.00">uint16_t</text>
<polyline fill="none" stroke="#bfbfbf" points="130.5,-187.5 186.5,-187.5 "/>
<text text-anchor="middle" x="158.5" y="-175.5" font-family="Helvetica,sans-Serif" font-size="10.00"> </text>
<polyline fill="none" stroke="#bfbfbf" points="130.5,-168.5 186.5,-168.5 "/>
<text text-anchor="middle" x="158.5" y="-156.5" font-family="Helvetica,sans-Serif" font-size="10.00"> </text>
</a>
</g>
</g>
<!-- Node4&#45;&gt;Node1 -->
<g id="edge3" class="edge">
<title>Node4&#45;&gt;Node1</title>
<path fill="none" stroke="#404040" d="M154.41,-149.48C150.9,-128.88 145.04,-100.2 136.5,-76 135.66,-73.63 134.74,-71.23 133.74,-68.83"/>
<polygon fill="none" stroke="#404040" points="133.68,-68.68 127.57,-64.85 128.75,-57.73 134.86,-61.56 133.68,-68.68"/>
<text text-anchor="middle" x="210" y="-112" font-family="Helvetica,sans-Serif" font-size="10.00"> +innerClassAccessFlags</text>
<text text-anchor="middle" x="210" y="-101" font-family="Helvetica,sans-Serif" font-size="10.00">+innerClassInfoIndex</text>
<text text-anchor="middle" x="210" y="-90" font-family="Helvetica,sans-Serif" font-size="10.00">+innerNameIndex</text>
<text text-anchor="middle" x="210" y="-79" font-family="Helvetica,sans-Serif" font-size="10.00">+outerClassInfoIndex</text>
</g>
</g>
</svg>
