<?xml version="1.0" encoding="UTF-8" standalone="no"?>
<!DOCTYPE svg PUBLIC "-//W3C//DTD SVG 1.1//EN"
 "http://www.w3.org/Graphics/SVG/1.1/DTD/svg11.dtd">
<!-- Generated by graphviz version 2.43.0 (0)
 -->
<!-- Title: ThisClass Pages: 1 -->
<svg width="136pt" height="193pt"
 viewBox="0.00 0.00 136.00 193.00" xmlns="http://www.w3.org/2000/svg" xmlns:xlink="http://www.w3.org/1999/xlink">
<g id="graph0" class="graph" transform="scale(1 1) rotate(0) translate(4 189)">
<title>ThisClass</title>
<!-- Node1 -->
<g id="node1" class="node">
<title>Node1</title>
<g id="a_node1"><a xlink:title="Própria classe do arquivo. Delega a si processamentos da própria classe que o .class define.">
<polygon fill="#bfbfbf" stroke="black" points="25,-0.5 25,-79.5 107,-79.5 107,-0.5 25,-0.5"/>
<text text-anchor="middle" x="66" y="-67.5" font-family="Helvetica,sans-Serif" font-size="10.00">ThisClass</text>
<polyline fill="none" stroke="black" points="25,-60.5 107,-60.5 "/>
<text text-anchor="middle" x="66" y="-48.5" font-family="Helvetica,sans-Serif" font-size="10.00"> </text>
<polyline fill="none" stroke="black" points="25,-41.5 107,-41.5 "/>
<text text-anchor="start" x="33" y="-29.5" font-family="Helvetica,sans-Serif" font-size="10.00">+ ThisClass()</text>
<text text-anchor="start" x="33" y="-18.5" font-family="Helvetica,sans-Serif" font-size="10.00">+ set()</text>
<text text-anchor="start" x="33" y="-7.5" font-family="Helvetica,sans-Serif" font-size="10.00">+ print()</text>
</a>
</g>
</g>
<!-- Node2 -->
<g id="node2" class="node">
<title>Node2</title>
<g id="a_node2"><a xlink:title=" ">
<polygon fill="none" stroke="#bfbfbf" points="0,-127.5 0,-184.5 56,-184.5 56,-127.5 0,-127.5"/>
<text text-anchor="middle" x="28" y="-172.5" font-family="Helvetica,sans-Serif" font-size="10.00">uint16_t</text>
<polyline fill="none" stroke="#bfbfbf" points="0,-165.5 56,-165.5 "/>
<text text-anchor="middle" x="28" y="-153.5" font-family="Helvetica,sans-Serif" font-size="10.00"> </text>
<polyline fill="none" stroke="#bfbfbf" points="0,-146.5 56,-146.5 "/>
<text text-anchor="middle" x="28" y="-134.5" font-family="Helvetica,sans-Serif" font-size="10.00"> </text>
</a>
</g>
</g>
<!-- Node2&#45;&gt;Node1 -->
<g id="edge1" class="edge">
<title>Node2&#45;&gt;Node1</title>
<path fill="none" stroke="#404040" d="M25.43,-127.26C25.35,-117.8 26.16,-107.28 29,-98 29.74,-95.58 30.62,-93.16 31.6,-90.76"/>
<polygon fill="none" stroke="#404040" points="31.69,-90.57 30.69,-83.43 36.9,-79.76 37.9,-86.9 31.69,-90.57"/>
<text text-anchor="middle" x="55.5" y="-101" font-family="Helvetica,sans-Serif" font-size="10.00"> +idxClass</text>
</g>
<!-- Node3 -->
<g id="node3" class="node">
<title>Node3</title>
<g id="a_node3"><a xlink:title=" ">
<polygon fill="none" stroke="#bfbfbf" points="82,-127.5 82,-184.5 126,-184.5 126,-127.5 82,-127.5"/>
<text text-anchor="middle" x="104" y="-172.5" font-family="Helvetica,sans-Serif" font-size="10.00">string</text>
<polyline fill="none" stroke="#bfbfbf" points="82,-165.5 126,-165.5 "/>
<text text-anchor="middle" x="104" y="-153.5" font-family="Helvetica,sans-Serif" font-size="10.00"> </text>
<polyline fill="none" stroke="#bfbfbf" points="82,-146.5 126,-146.5 "/>
<text text-anchor="middle" x="104" y="-134.5" font-family="Helvetica,sans-Serif" font-size="10.00"> </text>
</a>
</g>
</g>
<!-- Node3&#45;&gt;Node1 -->
<g id="edge2" class="edge">
<title>Node3&#45;&gt;Node1</title>
<path fill="none" stroke="#404040" d="M94.8,-127.4C91.17,-116.52 86.89,-103.66 82.75,-91.24"/>
<polygon fill="none" stroke="#404040" points="82.64,-90.92 76.95,-86.5 78.85,-79.54 84.54,-83.97 82.64,-90.92"/>
<text text-anchor="middle" x="108" y="-101" font-family="Helvetica,sans-Serif" font-size="10.00"> +name</text>
</g>
</g>
</svg>
