<?xml version="1.0" encoding="UTF-8" standalone="no"?>
<!DOCTYPE svg PUBLIC "-//W3C//DTD SVG 1.1//EN"
 "http://www.w3.org/Graphics/SVG/1.1/DTD/svg11.dtd">
<!-- Generated by graphviz version 2.43.0 (0)
 -->
<!-- Title: ClassFile Pages: 1 -->
<svg width="1341pt" height="430pt"
 viewBox="0.00 0.00 1341.00 430.00" xmlns="http://www.w3.org/2000/svg" xmlns:xlink="http://www.w3.org/1999/xlink">
<g id="graph0" class="graph" transform="scale(1 1) rotate(0) translate(4 426)">
<title>ClassFile</title>
<!-- Node1 -->
<g id="node1" class="node">
<title>Node1</title>
<g id="a_node1"><a xlink:title="Classe que representa o arquivo .class.">
<polygon fill="#bfbfbf" stroke="black" points="574.5,-0.5 574.5,-90.5 660.5,-90.5 660.5,-0.5 574.5,-0.5"/>
<text text-anchor="middle" x="617.5" y="-78.5" font-family="Helvetica,sans-Serif" font-size="10.00">ClassFile</text>
<polyline fill="none" stroke="black" points="574.5,-71.5 660.5,-71.5 "/>
<text text-anchor="middle" x="617.5" y="-59.5" font-family="Helvetica,sans-Serif" font-size="10.00"> </text>
<polyline fill="none" stroke="black" points="574.5,-52.5 660.5,-52.5 "/>
<text text-anchor="start" x="582.5" y="-40.5" font-family="Helvetica,sans-Serif" font-size="10.00">+ ClassFile()</text>
<text text-anchor="start" x="582.5" y="-29.5" font-family="Helvetica,sans-Serif" font-size="10.00">+ print()</text>
<text text-anchor="start" x="582.5" y="-18.5" font-family="Helvetica,sans-Serif" font-size="10.00">+ printBuf()</text>
<text text-anchor="start" x="582.5" y="-7.5" font-family="Helvetica,sans-Serif" font-size="10.00">+ ~ClassFile()</text>
</a>
</g>
</g>
<!-- Node2 -->
<g id="node2" class="node">
<title>Node2</title>
<g id="a_node2"><a xlink:href="class_acess_flags.xhtml" target="_top" xlink:title="Flags de acesso Delega para si o processamento das flags de acesso.">
<polygon fill="none" stroke="black" points="28.5,-182.5 28.5,-261.5 118.5,-261.5 118.5,-182.5 28.5,-182.5"/>
<text text-anchor="middle" x="73.5" y="-249.5" font-family="Helvetica,sans-Serif" font-size="10.00">AcessFlags</text>
<polyline fill="none" stroke="black" points="28.5,-242.5 118.5,-242.5 "/>
<text text-anchor="middle" x="73.5" y="-230.5" font-family="Helvetica,sans-Serif" font-size="10.00"> </text>
<polyline fill="none" stroke="black" points="28.5,-223.5 118.5,-223.5 "/>
<text text-anchor="start" x="36.5" y="-211.5" font-family="Helvetica,sans-Serif" font-size="10.00">+ AcessFlags()</text>
<text text-anchor="start" x="36.5" y="-200.5" font-family="Helvetica,sans-Serif" font-size="10.00">+ set()</text>
<text text-anchor="start" x="36.5" y="-189.5" font-family="Helvetica,sans-Serif" font-size="10.00">+ print()</text>
</a>
</g>
</g>
<!-- Node2&#45;&gt;Node1 -->
<g id="edge1" class="edge">
<title>Node2&#45;&gt;Node1</title>
<path fill="none" stroke="#404040" d="M68.14,-182.27C67.09,-157.88 70.46,-127.59 89.5,-109 122.9,-76.39 433.13,-56.3 561.89,-49.3"/>
<polygon fill="none" stroke="#404040" points="562.15,-49.28 567.93,-44.97 574.13,-48.64 568.36,-52.95 562.15,-49.28"/>
<text text-anchor="middle" x="122.5" y="-112" font-family="Helvetica,sans-Serif" font-size="10.00"> +acessFlags</text>
</g>
<!-- Node3 -->
<g id="node3" class="node">
<title>Node3</title>
<g id="a_node3"><a xlink:title=" ">
<polygon fill="none" stroke="#bfbfbf" points="0,-353.5 0,-421.5 135,-421.5 135,-353.5 0,-353.5"/>
<text text-anchor="start" x="8" y="-409.5" font-family="Helvetica,sans-Serif" font-size="10.00">map&lt; enumAcessFlags,</text>
<text text-anchor="middle" x="67.5" y="-398.5" font-family="Helvetica,sans-Serif" font-size="10.00"> bool &gt;</text>
<polyline fill="none" stroke="#bfbfbf" points="0,-391.5 135,-391.5 "/>
<text text-anchor="middle" x="67.5" y="-379.5" font-family="Helvetica,sans-Serif" font-size="10.00"> </text>
<polyline fill="none" stroke="#bfbfbf" points="0,-372.5 135,-372.5 "/>
<text text-anchor="middle" x="67.5" y="-360.5" font-family="Helvetica,sans-Serif" font-size="10.00"> </text>
</a>
</g>
</g>
<!-- Node3&#45;&gt;Node2 -->
<g id="edge2" class="edge">
<title>Node3&#45;&gt;Node2</title>
<path fill="none" stroke="#404040" d="M67.82,-353.41C67.97,-343.91 68.19,-333.54 68.5,-324 69.03,-307.8 69.83,-290.15 70.63,-274.2"/>
<polygon fill="none" stroke="#404040" points="70.65,-273.82 66.97,-267.62 71.27,-261.84 74.96,-268.04 70.65,-273.82"/>
<text text-anchor="middle" x="112" y="-327" font-family="Helvetica,sans-Serif" font-size="10.00"> +acessFlagsMap</text>
</g>
<!-- Node4 -->
<g id="node4" class="node">
<title>Node4</title>
<g id="a_node4"><a xlink:title=" ">
<polygon fill="none" stroke="#bfbfbf" points="179.5,-359 179.5,-416 235.5,-416 235.5,-359 179.5,-359"/>
<text text-anchor="middle" x="207.5" y="-404" font-family="Helvetica,sans-Serif" font-size="10.00">uint16_t</text>
<polyline fill="none" stroke="#bfbfbf" points="179.5,-397 235.5,-397 "/>
<text text-anchor="middle" x="207.5" y="-385" font-family="Helvetica,sans-Serif" font-size="10.00"> </text>
<polyline fill="none" stroke="#bfbfbf" points="179.5,-378 235.5,-378 "/>
<text text-anchor="middle" x="207.5" y="-366" font-family="Helvetica,sans-Serif" font-size="10.00"> </text>
</a>
</g>
</g>
<!-- Node4&#45;&gt;Node1 -->
<g id="edge3" class="edge">
<title>Node4&#45;&gt;Node1</title>
<path fill="none" stroke="#404040" d="M192.52,-358.63C167.85,-308.46 126.3,-202.2 178.5,-138 226.28,-79.24 454.97,-56.95 562.01,-49.63"/>
<polygon fill="none" stroke="#404040" points="562.16,-49.62 567.89,-45.23 574.14,-48.83 568.41,-53.21 562.16,-49.62"/>
<text text-anchor="middle" x="228.5" y="-274.5" font-family="Helvetica,sans-Serif" font-size="10.00"> +acessFlagsMask</text>
<text text-anchor="middle" x="228.5" y="-263.5" font-family="Helvetica,sans-Serif" font-size="10.00">+attributesCount</text>
<text text-anchor="middle" x="228.5" y="-252.5" font-family="Helvetica,sans-Serif" font-size="10.00">+constantPoolCount</text>
<text text-anchor="middle" x="228.5" y="-241.5" font-family="Helvetica,sans-Serif" font-size="10.00">+fieldsCount</text>
<text text-anchor="middle" x="228.5" y="-230.5" font-family="Helvetica,sans-Serif" font-size="10.00">+interfacesCount</text>
<text text-anchor="middle" x="228.5" y="-219.5" font-family="Helvetica,sans-Serif" font-size="10.00">+majorVersion</text>
<text text-anchor="middle" x="228.5" y="-208.5" font-family="Helvetica,sans-Serif" font-size="10.00">+methodsCount</text>
<text text-anchor="middle" x="228.5" y="-197.5" font-family="Helvetica,sans-Serif" font-size="10.00">+minorVersion</text>
<text text-anchor="middle" x="228.5" y="-186.5" font-family="Helvetica,sans-Serif" font-size="10.00">+superClassIdx</text>
<text text-anchor="middle" x="228.5" y="-175.5" font-family="Helvetica,sans-Serif" font-size="10.00">+thisClassIdx</text>
<text text-anchor="middle" x="228.5" y="-164.5" font-family="Helvetica,sans-Serif" font-size="10.00">...</text>
</g>
<!-- Node5 -->
<g id="node5" class="node">
<title>Node5</title>
<g id="a_node5"><a xlink:href="class_super_class.xhtml" target="_top" xlink:title="Classe da qual o arquivo herda. Delega a si processamentos da super classe.">
<polygon fill="none" stroke="black" points="388,-182.5 388,-261.5 477,-261.5 477,-182.5 388,-182.5"/>
<text text-anchor="middle" x="432.5" y="-249.5" font-family="Helvetica,sans-Serif" font-size="10.00">SuperClass</text>
<polyline fill="none" stroke="black" points="388,-242.5 477,-242.5 "/>
<text text-anchor="middle" x="432.5" y="-230.5" font-family="Helvetica,sans-Serif" font-size="10.00"> </text>
<polyline fill="none" stroke="black" points="388,-223.5 477,-223.5 "/>
<text text-anchor="start" x="396" y="-211.5" font-family="Helvetica,sans-Serif" font-size="10.00">+ SuperClass()</text>
<text text-anchor="start" x="396" y="-200.5" font-family="Helvetica,sans-Serif" font-size="10.00">+ set()</text>
<text text-anchor="start" x="396" y="-189.5" font-family="Helvetica,sans-Serif" font-size="10.00">+ print()</text>
</a>
</g>
</g>
<!-- Node4&#45;&gt;Node5 -->
<g id="edge5" class="edge">
<title>Node4&#45;&gt;Node5</title>
<path fill="none" stroke="#404040" d="M235.52,-364.28C253.69,-350.86 278.39,-334.4 302.5,-324 334.37,-310.25 350.11,-325.98 378.5,-306 390.8,-297.34 401,-284.91 409.1,-272.29"/>
<polygon fill="none" stroke="#404040" points="409.26,-272.02 408.9,-264.82 415.41,-261.72 415.77,-268.92 409.26,-272.02"/>
<text text-anchor="middle" x="329" y="-327" font-family="Helvetica,sans-Serif" font-size="10.00"> +idxClass</text>
</g>
<!-- Node10 -->
<g id="node10" class="node">
<title>Node10</title>
<g id="a_node10"><a xlink:href="class_this_class.xhtml" target="_top" xlink:title="Própria classe do arquivo. Delega a si processamentos da própria classe que o .class define.">
<polygon fill="none" stroke="black" points="287.5,-182.5 287.5,-261.5 369.5,-261.5 369.5,-182.5 287.5,-182.5"/>
<text text-anchor="middle" x="328.5" y="-249.5" font-family="Helvetica,sans-Serif" font-size="10.00">ThisClass</text>
<polyline fill="none" stroke="black" points="287.5,-242.5 369.5,-242.5 "/>
<text text-anchor="middle" x="328.5" y="-230.5" font-family="Helvetica,sans-Serif" font-size="10.00"> </text>
<polyline fill="none" stroke="black" points="287.5,-223.5 369.5,-223.5 "/>
<text text-anchor="start" x="295.5" y="-211.5" font-family="Helvetica,sans-Serif" font-size="10.00">+ ThisClass()</text>
<text text-anchor="start" x="295.5" y="-200.5" font-family="Helvetica,sans-Serif" font-size="10.00">+ set()</text>
<text text-anchor="start" x="295.5" y="-189.5" font-family="Helvetica,sans-Serif" font-size="10.00">+ print()</text>
</a>
</g>
</g>
<!-- Node4&#45;&gt;Node10 -->
<g id="edge11" class="edge">
<title>Node4&#45;&gt;Node10</title>
<path fill="none" stroke="#404040" d="M201.06,-358.86C199.92,-347.01 201,-333.7 208.5,-324 226.84,-300.29 249.24,-323.61 273.5,-306 285.63,-297.19 295.86,-284.83 304.07,-272.33"/>
<polygon fill="none" stroke="#404040" points="304.22,-272.09 303.95,-264.89 310.5,-261.87 310.77,-269.08 304.22,-272.09"/>
<text text-anchor="middle" x="235" y="-327" font-family="Helvetica,sans-Serif" font-size="10.00"> +idxClass</text>
</g>
<!-- Node5&#45;&gt;Node1 -->
<g id="edge4" class="edge">
<title>Node5&#45;&gt;Node1</title>
<path fill="none" stroke="#404040" d="M446.18,-182.44C456.09,-158.88 471.46,-129.45 492.5,-109 512.31,-89.74 539.23,-75.25 563.01,-65.09"/>
<polygon fill="none" stroke="#404040" points="563.28,-64.99 567.32,-59.02 574.39,-60.46 570.34,-66.43 563.28,-64.99"/>
<text text-anchor="middle" x="525" y="-112" font-family="Helvetica,sans-Serif" font-size="10.00"> +superClass</text>
</g>
<!-- Node6 -->
<g id="node6" class="node">
<title>Node6</title>
<g id="a_node6"><a xlink:title=" ">
<polygon fill="none" stroke="#bfbfbf" points="371.5,-359 371.5,-416 415.5,-416 415.5,-359 371.5,-359"/>
<text text-anchor="middle" x="393.5" y="-404" font-family="Helvetica,sans-Serif" font-size="10.00">string</text>
<polyline fill="none" stroke="#bfbfbf" points="371.5,-397 415.5,-397 "/>
<text text-anchor="middle" x="393.5" y="-385" font-family="Helvetica,sans-Serif" font-size="10.00"> </text>
<polyline fill="none" stroke="#bfbfbf" points="371.5,-378 415.5,-378 "/>
<text text-anchor="middle" x="393.5" y="-366" font-family="Helvetica,sans-Serif" font-size="10.00"> </text>
</a>
</g>
</g>
<!-- Node6&#45;&gt;Node5 -->
<g id="edge6" class="edge">
<title>Node6&#45;&gt;Node5</title>
<path fill="none" stroke="#404040" d="M400.12,-358.76C405.66,-335.51 413.73,-301.7 420.42,-273.64"/>
<polygon fill="none" stroke="#404040" points="420.5,-273.29 418.01,-266.52 423.29,-261.62 425.79,-268.38 420.5,-273.29"/>
<text text-anchor="middle" x="428.5" y="-327" font-family="Helvetica,sans-Serif" font-size="10.00"> +name</text>
</g>
<!-- Node6&#45;&gt;Node10 -->
<g id="edge12" class="edge">
<title>Node6&#45;&gt;Node10</title>
<path fill="none" stroke="#404040" d="M375.14,-358.84C370.62,-351.31 366.06,-343.01 362.5,-335 353.82,-315.47 346.53,-293.08 340.96,-273.49"/>
<polygon fill="none" stroke="#404040" points="340.9,-273.26 335.45,-268.54 337.71,-261.69 343.16,-266.42 340.9,-273.26"/>
<text text-anchor="middle" x="382.5" y="-327" font-family="Helvetica,sans-Serif" font-size="10.00"> +name</text>
</g>
<!-- Node11 -->
<g id="node11" class="node">
<title>Node11</title>
<g id="a_node11"><a xlink:href="class_version.xhtml" target="_top" xlink:title="Versão Java do arquivo .class. Delega para si o processamento das versões Java.">
<polygon fill="none" stroke="black" points="495.5,-182.5 495.5,-261.5 567.5,-261.5 567.5,-182.5 495.5,-182.5"/>
<text text-anchor="middle" x="531.5" y="-249.5" font-family="Helvetica,sans-Serif" font-size="10.00">Version</text>
<polyline fill="none" stroke="black" points="495.5,-242.5 567.5,-242.5 "/>
<text text-anchor="middle" x="531.5" y="-230.5" font-family="Helvetica,sans-Serif" font-size="10.00"> </text>
<polyline fill="none" stroke="black" points="495.5,-223.5 567.5,-223.5 "/>
<text text-anchor="start" x="503.5" y="-211.5" font-family="Helvetica,sans-Serif" font-size="10.00">+ Version()</text>
<text text-anchor="start" x="503.5" y="-200.5" font-family="Helvetica,sans-Serif" font-size="10.00">+ put()</text>
<text text-anchor="start" x="503.5" y="-189.5" font-family="Helvetica,sans-Serif" font-size="10.00">+ get()</text>
</a>
</g>
</g>
<!-- Node6&#45;&gt;Node11 -->
<g id="edge15" class="edge">
<title>Node6&#45;&gt;Node11</title>
<path fill="none" stroke="#404040" d="M415.52,-361.28C418.43,-358.37 421.46,-355.55 424.5,-353 435.84,-343.5 440.69,-343.91 452.5,-335 468.09,-323.24 473.25,-321.21 485.5,-306 493.72,-295.79 501.28,-283.91 507.79,-272.38"/>
<polygon fill="none" stroke="#404040" points="507.97,-272.05 507.31,-264.87 513.69,-261.5 514.34,-268.68 507.97,-272.05"/>
<text text-anchor="middle" x="476.5" y="-327" font-family="Helvetica,sans-Serif" font-size="10.00"> +v</text>
</g>
<!-- Node7 -->
<g id="node7" class="node">
<title>Node7</title>
<g id="a_node7"><a xlink:href="class_fields.xhtml" target="_top" xlink:title="Vetor de fields da JVM.">
<polygon fill="none" stroke="black" points="586,-182.5 586,-261.5 649,-261.5 649,-182.5 586,-182.5"/>
<text text-anchor="middle" x="617.5" y="-249.5" font-family="Helvetica,sans-Serif" font-size="10.00">Fields</text>
<polyline fill="none" stroke="black" points="586,-242.5 649,-242.5 "/>
<text text-anchor="middle" x="617.5" y="-230.5" font-family="Helvetica,sans-Serif" font-size="10.00"> </text>
<polyline fill="none" stroke="black" points="586,-223.5 649,-223.5 "/>
<text text-anchor="start" x="594" y="-211.5" font-family="Helvetica,sans-Serif" font-size="10.00">+ Fields()</text>
<text text-anchor="start" x="594" y="-200.5" font-family="Helvetica,sans-Serif" font-size="10.00">+ Fields()</text>
<text text-anchor="start" x="594" y="-189.5" font-family="Helvetica,sans-Serif" font-size="10.00">+ print()</text>
</a>
</g>
</g>
<!-- Node7&#45;&gt;Node1 -->
<g id="edge7" class="edge">
<title>Node7&#45;&gt;Node1</title>
<path fill="none" stroke="#404040" d="M617.5,-182.27C617.5,-158.97 617.5,-128.91 617.5,-102.99"/>
<polygon fill="none" stroke="#404040" points="617.5,-102.65 613.5,-96.65 617.5,-90.65 621.5,-96.65 617.5,-102.65"/>
<text text-anchor="middle" x="637" y="-112" font-family="Helvetica,sans-Serif" font-size="10.00"> +fields</text>
</g>
<!-- Node8 -->
<g id="node8" class="node">
<title>Node8</title>
<g id="a_node8"><a xlink:title=" ">
<polygon fill="none" stroke="#bfbfbf" points="579.5,-359 579.5,-416 719.5,-416 719.5,-359 579.5,-359"/>
<text text-anchor="middle" x="649.5" y="-404" font-family="Helvetica,sans-Serif" font-size="10.00">std::vector&lt; FieldInfo * &gt;</text>
<polyline fill="none" stroke="#bfbfbf" points="579.5,-397 719.5,-397 "/>
<text text-anchor="middle" x="649.5" y="-385" font-family="Helvetica,sans-Serif" font-size="10.00"> </text>
<polyline fill="none" stroke="#bfbfbf" points="579.5,-378 719.5,-378 "/>
<text text-anchor="middle" x="649.5" y="-366" font-family="Helvetica,sans-Serif" font-size="10.00"> </text>
</a>
</g>
</g>
<!-- Node8&#45;&gt;Node7 -->
<g id="edge8" class="edge">
<title>Node8&#45;&gt;Node7</title>
<path fill="none" stroke="midnightblue" d="M642.13,-348.85C637.01,-322.7 630.22,-287.97 625.06,-261.62"/>
<polygon fill="none" stroke="midnightblue" points="638.72,-349.62 644.07,-358.76 645.59,-348.28 638.72,-349.62"/>
</g>
<!-- Node9 -->
<g id="node9" class="node">
<title>Node9</title>
<g id="a_node9"><a xlink:title=" ">
<polygon fill="none" stroke="#bfbfbf" points="667.5,-193.5 667.5,-250.5 723.5,-250.5 723.5,-193.5 667.5,-193.5"/>
<text text-anchor="middle" x="695.5" y="-238.5" font-family="Helvetica,sans-Serif" font-size="10.00">uint32_t</text>
<polyline fill="none" stroke="#bfbfbf" points="667.5,-231.5 723.5,-231.5 "/>
<text text-anchor="middle" x="695.5" y="-219.5" font-family="Helvetica,sans-Serif" font-size="10.00"> </text>
<polyline fill="none" stroke="#bfbfbf" points="667.5,-212.5 723.5,-212.5 "/>
<text text-anchor="middle" x="695.5" y="-200.5" font-family="Helvetica,sans-Serif" font-size="10.00"> </text>
</a>
</g>
</g>
<!-- Node9&#45;&gt;Node1 -->
<g id="edge9" class="edge">
<title>Node9&#45;&gt;Node1</title>
<path fill="none" stroke="#404040" d="M689.34,-193.43C683.59,-170.21 673.87,-136.48 660.5,-109 659.24,-106.4 657.87,-103.79 656.44,-101.19"/>
<polygon fill="none" stroke="#404040" points="656.28,-100.92 649.79,-97.78 650.19,-90.58 656.68,-93.72 656.28,-100.92"/>
<text text-anchor="middle" x="685.5" y="-112" font-family="Helvetica,sans-Serif" font-size="10.00"> +magic</text>
</g>
<!-- Node10&#45;&gt;Node1 -->
<g id="edge10" class="edge">
<title>Node10&#45;&gt;Node1</title>
<path fill="none" stroke="#404040" d="M347.09,-182.09C355.38,-167.23 366.08,-150.8 378.5,-138 427.87,-87.12 508.55,-64.12 562.33,-54.01"/>
<polygon fill="none" stroke="#404040" points="562.56,-53.97 567.77,-48.98 574.38,-51.87 569.17,-56.86 562.56,-53.97"/>
<text text-anchor="middle" x="438.5" y="-112" font-family="Helvetica,sans-Serif" font-size="10.00"> +thisClass</text>
</g>
<!-- Node11&#45;&gt;Node1 -->
<g id="edge13" class="edge">
<title>Node11&#45;&gt;Node1</title>
<path fill="none" stroke="#404040" d="M539.18,-182.43C544.59,-160.12 553.11,-131.99 565.5,-109 566.96,-106.28 568.56,-103.57 570.25,-100.89"/>
<polygon fill="none" stroke="#404040" points="570.43,-100.63 570.5,-93.42 577.18,-90.71 577.11,-97.92 570.43,-100.63"/>
<text text-anchor="middle" x="589.5" y="-112" font-family="Helvetica,sans-Serif" font-size="10.00"> +version</text>
</g>
<!-- Node12 -->
<g id="node12" class="node">
<title>Node12</title>
<g id="a_node12"><a xlink:title=" ">
<polygon fill="none" stroke="#bfbfbf" points="433.5,-359 433.5,-416 561.5,-416 561.5,-359 433.5,-359"/>
<text text-anchor="middle" x="497.5" y="-404" font-family="Helvetica,sans-Serif" font-size="10.00">map&lt; u2, std::string &gt;</text>
<polyline fill="none" stroke="#bfbfbf" points="433.5,-397 561.5,-397 "/>
<text text-anchor="middle" x="497.5" y="-385" font-family="Helvetica,sans-Serif" font-size="10.00"> </text>
<polyline fill="none" stroke="#bfbfbf" points="433.5,-378 561.5,-378 "/>
<text text-anchor="middle" x="497.5" y="-366" font-family="Helvetica,sans-Serif" font-size="10.00"> </text>
</a>
</g>
</g>
<!-- Node12&#45;&gt;Node11 -->
<g id="edge14" class="edge">
<title>Node12&#45;&gt;Node11</title>
<path fill="none" stroke="#404040" d="M503.27,-358.76C508.1,-335.51 515.13,-301.7 520.97,-273.64"/>
<polygon fill="none" stroke="#404040" points="521.03,-273.36 518.33,-266.68 523.47,-261.62 526.16,-268.3 521.03,-273.36"/>
<text text-anchor="middle" x="547.5" y="-327" font-family="Helvetica,sans-Serif" font-size="10.00"> +versionsMap</text>
</g>
<!-- Node13 -->
<g id="node13" class="node">
<title>Node13</title>
<g id="a_node13"><a xlink:href="class_constant_pool.xhtml" target="_top" xlink:title="Vetor (tabela) das constantes. Cada entrada é do tipo Cpinfo.">
<polygon fill="none" stroke="black" points="742,-138.5 742,-305.5 871,-305.5 871,-138.5 742,-138.5"/>
<text text-anchor="middle" x="806.5" y="-293.5" font-family="Helvetica,sans-Serif" font-size="10.00">ConstantPool</text>
<polyline fill="none" stroke="black" points="742,-286.5 871,-286.5 "/>
<text text-anchor="middle" x="806.5" y="-274.5" font-family="Helvetica,sans-Serif" font-size="10.00"> </text>
<polyline fill="none" stroke="black" points="742,-267.5 871,-267.5 "/>
<text text-anchor="start" x="750" y="-255.5" font-family="Helvetica,sans-Serif" font-size="10.00">+ ConstantPool()</text>
<text text-anchor="start" x="750" y="-244.5" font-family="Helvetica,sans-Serif" font-size="10.00">+ ConstantPool()</text>
<text text-anchor="start" x="750" y="-233.5" font-family="Helvetica,sans-Serif" font-size="10.00">+ print()</text>
<text text-anchor="start" x="750" y="-222.5" font-family="Helvetica,sans-Serif" font-size="10.00">+ Bytes2Str()</text>
<text text-anchor="start" x="750" y="-211.5" font-family="Helvetica,sans-Serif" font-size="10.00">+ getUtf8Str()</text>
<text text-anchor="start" x="750" y="-200.5" font-family="Helvetica,sans-Serif" font-size="10.00">+ getUtf8Class()</text>
<text text-anchor="start" x="750" y="-189.5" font-family="Helvetica,sans-Serif" font-size="10.00">+ getDescriptor()</text>
<text text-anchor="start" x="750" y="-178.5" font-family="Helvetica,sans-Serif" font-size="10.00">+ getNNameAndType()</text>
<text text-anchor="start" x="750" y="-167.5" font-family="Helvetica,sans-Serif" font-size="10.00">+ getFloat()</text>
<text text-anchor="start" x="750" y="-156.5" font-family="Helvetica,sans-Serif" font-size="10.00">+ getLong()</text>
<text text-anchor="start" x="750" y="-145.5" font-family="Helvetica,sans-Serif" font-size="10.00">+ getDouble()</text>
</a>
</g>
</g>
<!-- Node13&#45;&gt;Node1 -->
<g id="edge16" class="edge">
<title>Node13&#45;&gt;Node1</title>
<path fill="none" stroke="#404040" d="M741.89,-140.19C731.84,-129.25 721.22,-118.53 710.5,-109 698.45,-98.29 684.46,-87.96 671.04,-78.89"/>
<polygon fill="none" stroke="#404040" points="670.95,-78.83 663.74,-78.86 660.94,-72.22 668.15,-72.18 670.95,-78.83"/>
<text text-anchor="middle" x="760" y="-112" font-family="Helvetica,sans-Serif" font-size="10.00"> +constantPool</text>
</g>
<!-- Node14 -->
<g id="node14" class="node">
<title>Node14</title>
<g id="a_node14"><a xlink:title=" ">
<polygon fill="none" stroke="#bfbfbf" points="737.5,-359 737.5,-416 859.5,-416 859.5,-359 737.5,-359"/>
<text text-anchor="middle" x="798.5" y="-404" font-family="Helvetica,sans-Serif" font-size="10.00">std::vector&lt; Cpinfo &gt;</text>
<polyline fill="none" stroke="#bfbfbf" points="737.5,-397 859.5,-397 "/>
<text text-anchor="middle" x="798.5" y="-385" font-family="Helvetica,sans-Serif" font-size="10.00"> </text>
<polyline fill="none" stroke="#bfbfbf" points="737.5,-378 859.5,-378 "/>
<text text-anchor="middle" x="798.5" y="-366" font-family="Helvetica,sans-Serif" font-size="10.00"> </text>
</a>
</g>
</g>
<!-- Node14&#45;&gt;Node13 -->
<g id="edge17" class="edge">
<title>Node14&#45;&gt;Node13</title>
<path fill="none" stroke="midnightblue" d="M800.36,-348.45C800.99,-335.53 801.73,-320.56 802.46,-305.55"/>
<polygon fill="none" stroke="midnightblue" points="796.85,-348.61 799.86,-358.76 803.84,-348.95 796.85,-348.61"/>
</g>
<!-- Node15 -->
<g id="node15" class="node">
<title>Node15</title>
<g id="a_node15"><a xlink:href="class_methods.xhtml" target="_top" xlink:title="Vetor dos métodos da JVM.">
<polygon fill="none" stroke="black" points="904.5,-177 904.5,-267 990.5,-267 990.5,-177 904.5,-177"/>
<text text-anchor="middle" x="947.5" y="-255" font-family="Helvetica,sans-Serif" font-size="10.00">Methods</text>
<polyline fill="none" stroke="black" points="904.5,-248 990.5,-248 "/>
<text text-anchor="middle" x="947.5" y="-236" font-family="Helvetica,sans-Serif" font-size="10.00"> </text>
<polyline fill="none" stroke="black" points="904.5,-229 990.5,-229 "/>
<text text-anchor="start" x="912.5" y="-217" font-family="Helvetica,sans-Serif" font-size="10.00">+ Methods()</text>
<text text-anchor="start" x="912.5" y="-206" font-family="Helvetica,sans-Serif" font-size="10.00">+ Methods()</text>
<text text-anchor="start" x="912.5" y="-195" font-family="Helvetica,sans-Serif" font-size="10.00">+ ~Methods()</text>
<text text-anchor="start" x="912.5" y="-184" font-family="Helvetica,sans-Serif" font-size="10.00">+ print()</text>
</a>
</g>
</g>
<!-- Node15&#45;&gt;Node1 -->
<g id="edge18" class="edge">
<title>Node15&#45;&gt;Node1</title>
<path fill="none" stroke="#404040" d="M918.41,-176.87C907.53,-162.96 894.2,-148.5 879.5,-138 816.31,-92.87 728.83,-68.3 672.7,-56.29"/>
<polygon fill="none" stroke="#404040" points="672.63,-56.27 665.94,-58.97 660.87,-53.84 667.56,-51.14 672.63,-56.27"/>
<text text-anchor="middle" x="876" y="-112" font-family="Helvetica,sans-Serif" font-size="10.00"> +methods</text>
</g>
<!-- Node16 -->
<g id="node16" class="node">
<title>Node16</title>
<g id="a_node16"><a xlink:title=" ">
<polygon fill="none" stroke="#bfbfbf" points="878,-359 878,-416 1033,-416 1033,-359 878,-359"/>
<text text-anchor="middle" x="955.5" y="-404" font-family="Helvetica,sans-Serif" font-size="10.00">std::vector&lt; MethodInfo * &gt;</text>
<polyline fill="none" stroke="#bfbfbf" points="878,-397 1033,-397 "/>
<text text-anchor="middle" x="955.5" y="-385" font-family="Helvetica,sans-Serif" font-size="10.00"> </text>
<polyline fill="none" stroke="#bfbfbf" points="878,-378 1033,-378 "/>
<text text-anchor="middle" x="955.5" y="-366" font-family="Helvetica,sans-Serif" font-size="10.00"> </text>
</a>
</g>
</g>
<!-- Node16&#45;&gt;Node15 -->
<g id="edge19" class="edge">
<title>Node16&#45;&gt;Node15</title>
<path fill="none" stroke="midnightblue" d="M953.64,-348.51C952.45,-324.23 950.91,-292.64 949.66,-267.23"/>
<polygon fill="none" stroke="midnightblue" points="950.16,-348.95 954.14,-358.76 957.15,-348.61 950.16,-348.95"/>
</g>
<!-- Node17 -->
<g id="node17" class="node">
<title>Node17</title>
<g id="a_node17"><a xlink:href="class_interfaces.xhtml" target="_top" xlink:title="Métodos para extração e impressão das interfaces do arquivo.">
<polygon fill="none" stroke="black" points="1038.5,-182.5 1038.5,-261.5 1122.5,-261.5 1122.5,-182.5 1038.5,-182.5"/>
<text text-anchor="middle" x="1080.5" y="-249.5" font-family="Helvetica,sans-Serif" font-size="10.00">Interfaces</text>
<polyline fill="none" stroke="black" points="1038.5,-242.5 1122.5,-242.5 "/>
<text text-anchor="middle" x="1080.5" y="-230.5" font-family="Helvetica,sans-Serif" font-size="10.00"> </text>
<polyline fill="none" stroke="black" points="1038.5,-223.5 1122.5,-223.5 "/>
<text text-anchor="start" x="1046.5" y="-211.5" font-family="Helvetica,sans-Serif" font-size="10.00">+ Interfaces()</text>
<text text-anchor="start" x="1046.5" y="-200.5" font-family="Helvetica,sans-Serif" font-size="10.00">+ Interfaces()</text>
<text text-anchor="start" x="1046.5" y="-189.5" font-family="Helvetica,sans-Serif" font-size="10.00">+ print()</text>
</a>
</g>
</g>
<!-- Node17&#45;&gt;Node1 -->
<g id="edge20" class="edge">
<title>Node17&#45;&gt;Node1</title>
<path fill="none" stroke="#404040" d="M1049.92,-182.13C1035.97,-166.56 1018.36,-149.6 999.5,-138 895.92,-74.28 751.29,-54.94 673.06,-49.06"/>
<polygon fill="none" stroke="#404040" points="672.6,-49.03 666.34,-52.61 660.63,-48.2 666.89,-44.62 672.6,-49.03"/>
<text text-anchor="middle" x="993" y="-112" font-family="Helvetica,sans-Serif" font-size="10.00"> +interfaces</text>
</g>
<!-- Node18 -->
<g id="node18" class="node">
<title>Node18</title>
<g id="a_node18"><a xlink:title=" ">
<polygon fill="none" stroke="#bfbfbf" points="1051,-359 1051,-416 1154,-416 1154,-359 1051,-359"/>
<text text-anchor="middle" x="1102.5" y="-404" font-family="Helvetica,sans-Serif" font-size="10.00">std::vector&lt; u2 &gt;</text>
<polyline fill="none" stroke="#bfbfbf" points="1051,-397 1154,-397 "/>
<text text-anchor="middle" x="1102.5" y="-385" font-family="Helvetica,sans-Serif" font-size="10.00"> </text>
<polyline fill="none" stroke="#bfbfbf" points="1051,-378 1154,-378 "/>
<text text-anchor="middle" x="1102.5" y="-366" font-family="Helvetica,sans-Serif" font-size="10.00"> </text>
</a>
</g>
</g>
<!-- Node18&#45;&gt;Node17 -->
<g id="edge21" class="edge">
<title>Node18&#45;&gt;Node17</title>
<path fill="none" stroke="midnightblue" d="M1097.43,-348.85C1093.92,-322.7 1089.24,-287.97 1085.7,-261.62"/>
<polygon fill="none" stroke="midnightblue" points="1093.97,-349.32 1098.77,-358.76 1100.9,-348.39 1093.97,-349.32"/>
</g>
<!-- Node19 -->
<g id="node19" class="node">
<title>Node19</title>
<g id="a_node19"><a xlink:href="class_attributes.xhtml" target="_top" xlink:title="Vetor (tabela) dos atributos. Cada entrada é do tipo AttributeInfo.">
<polygon fill="none" stroke="black" points="1166.5,-177 1166.5,-267 1288.5,-267 1288.5,-177 1166.5,-177"/>
<text text-anchor="middle" x="1227.5" y="-255" font-family="Helvetica,sans-Serif" font-size="10.00">Attributes</text>
<polyline fill="none" stroke="black" points="1166.5,-248 1288.5,-248 "/>
<text text-anchor="middle" x="1227.5" y="-236" font-family="Helvetica,sans-Serif" font-size="10.00"> </text>
<polyline fill="none" stroke="black" points="1166.5,-229 1288.5,-229 "/>
<text text-anchor="start" x="1174.5" y="-217" font-family="Helvetica,sans-Serif" font-size="10.00">+ Attributes()</text>
<text text-anchor="start" x="1174.5" y="-206" font-family="Helvetica,sans-Serif" font-size="10.00">+ Attributes()</text>
<text text-anchor="start" x="1174.5" y="-195" font-family="Helvetica,sans-Serif" font-size="10.00">+ getConstantValue()</text>
<text text-anchor="start" x="1174.5" y="-184" font-family="Helvetica,sans-Serif" font-size="10.00">+ print()</text>
</a>
</g>
</g>
<!-- Node19&#45;&gt;Node1 -->
<g id="edge22" class="edge">
<title>Node19&#45;&gt;Node1</title>
<path fill="none" stroke="#404040" d="M1184.68,-176.84C1169.05,-162.76 1150.53,-148.21 1131.5,-138 1052.51,-95.62 788.75,-64.11 672.88,-51.97"/>
<polygon fill="none" stroke="#404040" points="672.76,-51.95 666.38,-55.32 660.82,-50.72 667.2,-47.36 672.76,-51.95"/>
<text text-anchor="middle" x="1113" y="-112" font-family="Helvetica,sans-Serif" font-size="10.00"> +attributes</text>
</g>
<!-- Node20 -->
<g id="node20" class="node">
<title>Node20</title>
<g id="a_node20"><a xlink:title=" ">
<polygon fill="none" stroke="#bfbfbf" points="1172,-359 1172,-416 1333,-416 1333,-359 1172,-359"/>
<text text-anchor="middle" x="1252.5" y="-404" font-family="Helvetica,sans-Serif" font-size="10.00">std::vector&lt; AttributeInfo * &gt;</text>
<polyline fill="none" stroke="#bfbfbf" points="1172,-397 1333,-397 "/>
<text text-anchor="middle" x="1252.5" y="-385" font-family="Helvetica,sans-Serif" font-size="10.00"> </text>
<polyline fill="none" stroke="#bfbfbf" points="1172,-378 1333,-378 "/>
<text text-anchor="middle" x="1252.5" y="-366" font-family="Helvetica,sans-Serif" font-size="10.00"> </text>
</a>
</g>
</g>
<!-- Node20&#45;&gt;Node19 -->
<g id="edge23" class="edge">
<title>Node20&#45;&gt;Node19</title>
<path fill="none" stroke="midnightblue" d="M1246.74,-348.83C1243.02,-324.51 1238.17,-292.76 1234.26,-267.23"/>
<polygon fill="none" stroke="midnightblue" points="1243.29,-349.41 1248.26,-358.76 1250.21,-348.35 1243.29,-349.41"/>
</g>
</g>
</svg>
