<?xml version="1.0" encoding="UTF-8" standalone="no"?>
<!DOCTYPE svg PUBLIC "-//W3C//DTD SVG 1.1//EN"
 "http://www.w3.org/Graphics/SVG/1.1/DTD/svg11.dtd">
<!-- Generated by graphviz version 2.43.0 (0)
 -->
<!-- Title: Representação gráfica da hiearquia da classe Pages: 1 -->
<svg width="252pt" height="484pt"
 viewBox="0.00 0.00 252.00 484.00" xmlns="http://www.w3.org/2000/svg" xmlns:xlink="http://www.w3.org/1999/xlink">
<g id="graph0" class="graph" transform="scale(1 1) rotate(0) translate(4 480)">
<title>Representação gráfica da hiearquia da classe</title>
<!-- Node0 -->
<g id="node1" class="node">
<title>Node0</title>
<g id="a_node1"><a xlink:href="class_opcode.xhtml" target="_top" xlink:title="Classe base para Opcodes. Ainda não está pronta para ser uma classe completa para instruções,...">
<polygon fill="none" stroke="black" points="0,-228.5 0,-247.5 53,-247.5 53,-228.5 0,-228.5"/>
<text text-anchor="middle" x="26.5" y="-235.5" font-family="Helvetica,sans-Serif" font-size="10.00">Opcode</text>
</a>
</g>
</g>
<!-- Node1 -->
<g id="node2" class="node">
<title>Node1</title>
<g id="a_node2"><a xlink:href="class_increment_opcode.xhtml" target="_top" xlink:title="Opcode de incremento.">
<polygon fill="none" stroke="black" points="115,-456.5 115,-475.5 218,-475.5 218,-456.5 115,-456.5"/>
<text text-anchor="middle" x="166.5" y="-463.5" font-family="Helvetica,sans-Serif" font-size="10.00">IncrementOpcode</text>
</a>
</g>
</g>
<!-- Node0&#45;&gt;Node1 -->
<g id="edge1" class="edge">
<title>Node0&#45;&gt;Node1</title>
<path fill="none" stroke="midnightblue" d="M27.22,-257.7C27.75,-299.05 35.08,-395.34 89,-447 96.11,-453.82 105.28,-458.3 114.78,-461.23"/>
<polygon fill="midnightblue" stroke="midnightblue" points="30.72,-257.57 27.21,-247.57 23.72,-257.57 30.72,-257.57"/>
</g>
<!-- Node2 -->
<g id="node3" class="node">
<title>Node2</title>
<g id="a_node3"><a xlink:href="class_lookupswitch_opcode.xhtml" target="_top" xlink:title=" ">
<polygon fill="none" stroke="black" points="106.5,-418.5 106.5,-437.5 226.5,-437.5 226.5,-418.5 106.5,-418.5"/>
<text text-anchor="middle" x="166.5" y="-425.5" font-family="Helvetica,sans-Serif" font-size="10.00">LookupswitchOpcode</text>
</a>
</g>
</g>
<!-- Node0&#45;&gt;Node2 -->
<g id="edge2" class="edge">
<title>Node0&#45;&gt;Node2</title>
<path fill="none" stroke="midnightblue" d="M28.76,-258C32.13,-293.78 44.42,-368.74 89,-409 94.08,-413.59 100.09,-417.11 106.48,-419.8"/>
<polygon fill="midnightblue" stroke="midnightblue" points="32.24,-257.55 27.95,-247.86 25.26,-258.1 32.24,-257.55"/>
</g>
<!-- Node3 -->
<g id="node4" class="node">
<title>Node3</title>
<g id="a_node4"><a xlink:href="class_modify_opcode.xhtml" target="_top" xlink:title=" ">
<polygon fill="none" stroke="black" points="123,-380.5 123,-399.5 210,-399.5 210,-380.5 123,-380.5"/>
<text text-anchor="middle" x="166.5" y="-387.5" font-family="Helvetica,sans-Serif" font-size="10.00">ModifyOpcode</text>
</a>
</g>
</g>
<!-- Node0&#45;&gt;Node3 -->
<g id="edge3" class="edge">
<title>Node0&#45;&gt;Node3</title>
<path fill="none" stroke="midnightblue" d="M31.02,-257.63C37.32,-286.86 53.35,-341.54 89,-371 98.49,-378.85 110.77,-383.52 122.69,-386.29"/>
<polygon fill="midnightblue" stroke="midnightblue" points="34.45,-256.9 29.06,-247.78 27.58,-258.27 34.45,-256.9"/>
</g>
<!-- Node4 -->
<g id="node5" class="node">
<title>Node4</title>
<g id="a_node5"><a xlink:href="class_multi_new_array_opcode.xhtml" target="_top" xlink:title=" ">
<polygon fill="none" stroke="black" points="103.5,-342.5 103.5,-361.5 229.5,-361.5 229.5,-342.5 103.5,-342.5"/>
<text text-anchor="middle" x="166.5" y="-349.5" font-family="Helvetica,sans-Serif" font-size="10.00">MultiNewArrayOpcode</text>
</a>
</g>
</g>
<!-- Node0&#45;&gt;Node4 -->
<g id="edge4" class="edge">
<title>Node0&#45;&gt;Node4</title>
<path fill="none" stroke="midnightblue" d="M34.71,-256.99C43.95,-278.72 62.06,-313.78 89,-333 94.46,-336.9 100.63,-340 107.04,-342.46"/>
<polygon fill="midnightblue" stroke="midnightblue" points="37.88,-255.49 30.89,-247.52 31.38,-258.11 37.88,-255.49"/>
</g>
<!-- Node5 -->
<g id="node6" class="node">
<title>Node5</title>
<g id="a_node6"><a xlink:href="class_s2_operand_opcode.xhtml" target="_top" xlink:title="Opcode com dois bytes de operandos com sinal. Os dois bytes são juntados para formarem um inteiro de ...">
<polygon fill="none" stroke="black" points="113,-304.5 113,-323.5 220,-323.5 220,-304.5 113,-304.5"/>
<text text-anchor="middle" x="166.5" y="-311.5" font-family="Helvetica,sans-Serif" font-size="10.00">S2OperandOpcode</text>
</a>
</g>
</g>
<!-- Node0&#45;&gt;Node5 -->
<g id="edge5" class="edge">
<title>Node0&#45;&gt;Node5</title>
<path fill="none" stroke="midnightblue" d="M41.83,-255.36C53.31,-268.16 70.51,-285.01 89,-295 96.34,-298.97 104.53,-302.12 112.74,-304.63"/>
<polygon fill="midnightblue" stroke="midnightblue" points="44.35,-252.92 35.16,-247.65 39.06,-257.5 44.35,-252.92"/>
</g>
<!-- Node6 -->
<g id="node7" class="node">
<title>Node6</title>
<g id="a_node7"><a xlink:href="class_s4_operand_opcode.xhtml" target="_top" xlink:title=" ">
<polygon fill="none" stroke="black" points="113,-266.5 113,-285.5 220,-285.5 220,-266.5 113,-266.5"/>
<text text-anchor="middle" x="166.5" y="-273.5" font-family="Helvetica,sans-Serif" font-size="10.00">S4OperandOpcode</text>
</a>
</g>
</g>
<!-- Node0&#45;&gt;Node6 -->
<g id="edge6" class="edge">
<title>Node0&#45;&gt;Node6</title>
<path fill="none" stroke="midnightblue" d="M62.83,-249.29C71.37,-251.91 80.49,-254.63 89,-257 100.73,-260.27 113.55,-263.56 125.29,-266.46"/>
<polygon fill="midnightblue" stroke="midnightblue" points="63.73,-245.9 53.14,-246.27 61.65,-252.59 63.73,-245.9"/>
</g>
<!-- Node7 -->
<g id="node8" class="node">
<title>Node7</title>
<g id="a_node8"><a xlink:href="class_tableswitch_opcode.xhtml" target="_top" xlink:title=" ">
<polygon fill="none" stroke="black" points="111.5,-228.5 111.5,-247.5 221.5,-247.5 221.5,-228.5 111.5,-228.5"/>
<text text-anchor="middle" x="166.5" y="-235.5" font-family="Helvetica,sans-Serif" font-size="10.00">TableswitchOpcode</text>
</a>
</g>
</g>
<!-- Node0&#45;&gt;Node7 -->
<g id="edge7" class="edge">
<title>Node0&#45;&gt;Node7</title>
<path fill="none" stroke="midnightblue" d="M63.3,-238C77.97,-238 95.27,-238 111.42,-238"/>
<polygon fill="midnightblue" stroke="midnightblue" points="63.13,-234.5 53.13,-238 63.13,-241.5 63.13,-234.5"/>
</g>
<!-- Node8 -->
<g id="node9" class="node">
<title>Node8</title>
<g id="a_node9"><a xlink:href="class_u1_operand_opcode.xhtml" target="_top" xlink:title="Opcode com um byte de operando.">
<polygon fill="none" stroke="black" points="112.5,-190.5 112.5,-209.5 220.5,-209.5 220.5,-190.5 112.5,-190.5"/>
<text text-anchor="middle" x="166.5" y="-197.5" font-family="Helvetica,sans-Serif" font-size="10.00">U1OperandOpcode</text>
</a>
</g>
</g>
<!-- Node0&#45;&gt;Node8 -->
<g id="edge8" class="edge">
<title>Node0&#45;&gt;Node8</title>
<path fill="none" stroke="midnightblue" d="M62.83,-226.71C71.37,-224.09 80.49,-221.37 89,-219 100.73,-215.73 113.55,-212.44 125.29,-209.54"/>
<polygon fill="midnightblue" stroke="midnightblue" points="61.65,-223.41 53.14,-229.73 63.73,-230.1 61.65,-223.41"/>
</g>
<!-- Node9 -->
<g id="node10" class="node">
<title>Node9</title>
<g id="a_node10"><a xlink:href="class_u1_operand_opcode_c_p.xhtml" target="_top" xlink:title=" ">
<polygon fill="none" stroke="black" points="106,-152.5 106,-171.5 227,-171.5 227,-152.5 106,-152.5"/>
<text text-anchor="middle" x="166.5" y="-159.5" font-family="Helvetica,sans-Serif" font-size="10.00">U1OperandOpcodeCP</text>
</a>
</g>
</g>
<!-- Node0&#45;&gt;Node9 -->
<g id="edge9" class="edge">
<title>Node0&#45;&gt;Node9</title>
<path fill="none" stroke="midnightblue" d="M41.83,-220.64C53.31,-207.84 70.51,-190.99 89,-181 96.1,-177.16 104,-174.08 111.94,-171.62"/>
<polygon fill="midnightblue" stroke="midnightblue" points="39.06,-218.5 35.16,-228.35 44.35,-223.08 39.06,-218.5"/>
</g>
<!-- Node10 -->
<g id="node11" class="node">
<title>Node10</title>
<g id="a_node11"><a xlink:href="class_u2_operand_opcode.xhtml" target="_top" xlink:title="Opcode com dois bytes de operandos. Os dois bytes são juntados para formarem um u2 por (byte1 &lt;&lt; 8) |...">
<polygon fill="none" stroke="black" points="112.5,-114.5 112.5,-133.5 220.5,-133.5 220.5,-114.5 112.5,-114.5"/>
<text text-anchor="middle" x="166.5" y="-121.5" font-family="Helvetica,sans-Serif" font-size="10.00">U2OperandOpcode</text>
</a>
</g>
</g>
<!-- Node0&#45;&gt;Node10 -->
<g id="edge10" class="edge">
<title>Node0&#45;&gt;Node10</title>
<path fill="none" stroke="midnightblue" d="M34.71,-219.01C43.95,-197.28 62.06,-162.22 89,-143 95.91,-138.07 103.95,-134.42 112.19,-131.7"/>
<polygon fill="midnightblue" stroke="midnightblue" points="31.38,-217.89 30.89,-228.48 37.88,-220.51 31.38,-217.89"/>
</g>
<!-- Node11 -->
<g id="node12" class="node">
<title>Node11</title>
<g id="a_node12"><a xlink:href="class_u2_operand_opcode_c_p.xhtml" target="_top" xlink:title=" ">
<polygon fill="none" stroke="black" points="106,-76.5 106,-95.5 227,-95.5 227,-76.5 106,-76.5"/>
<text text-anchor="middle" x="166.5" y="-83.5" font-family="Helvetica,sans-Serif" font-size="10.00">U2OperandOpcodeCP</text>
</a>
</g>
</g>
<!-- Node0&#45;&gt;Node11 -->
<g id="edge11" class="edge">
<title>Node0&#45;&gt;Node11</title>
<path fill="none" stroke="midnightblue" d="M31.02,-218.37C37.32,-189.14 53.35,-134.46 89,-105 93.96,-100.9 99.67,-97.67 105.7,-95.12"/>
<polygon fill="midnightblue" stroke="midnightblue" points="27.58,-217.73 29.06,-228.22 34.45,-219.1 27.58,-217.73"/>
</g>
<!-- Node12 -->
<g id="node13" class="node">
<title>Node12</title>
<g id="a_node13"><a xlink:href="class_u2_operand_opcode_c_p_class.xhtml" target="_top" xlink:title=" ">
<polygon fill="none" stroke="black" points="93,-38.5 93,-57.5 240,-57.5 240,-38.5 93,-38.5"/>
<text text-anchor="middle" x="166.5" y="-45.5" font-family="Helvetica,sans-Serif" font-size="10.00">U2OperandOpcodeCPClass</text>
</a>
</g>
</g>
<!-- Node0&#45;&gt;Node12 -->
<g id="edge12" class="edge">
<title>Node0&#45;&gt;Node12</title>
<path fill="none" stroke="midnightblue" d="M28.76,-218C32.13,-182.22 44.42,-107.26 89,-67 93.27,-63.15 98.19,-60.05 103.44,-57.56"/>
<polygon fill="midnightblue" stroke="midnightblue" points="25.26,-217.9 27.95,-228.14 32.24,-218.45 25.26,-217.9"/>
</g>
<!-- Node13 -->
<g id="node14" class="node">
<title>Node13</title>
<g id="a_node14"><a xlink:href="class_u2_operand_opcode_c_p_double.xhtml" target="_top" xlink:title=" ">
<polygon fill="none" stroke="black" points="89,-0.5 89,-19.5 244,-19.5 244,-0.5 89,-0.5"/>
<text text-anchor="middle" x="166.5" y="-7.5" font-family="Helvetica,sans-Serif" font-size="10.00">U2OperandOpcodeCPDouble</text>
</a>
</g>
</g>
<!-- Node0&#45;&gt;Node13 -->
<g id="edge13" class="edge">
<title>Node0&#45;&gt;Node13</title>
<path fill="none" stroke="midnightblue" d="M27.22,-218.3C27.75,-176.95 35.08,-80.66 89,-29 92.95,-25.21 97.54,-22.15 102.46,-19.67"/>
<polygon fill="midnightblue" stroke="midnightblue" points="23.72,-218.43 27.21,-228.43 30.72,-218.43 23.72,-218.43"/>
</g>
</g>
</svg>
