<?xml version="1.0" encoding="UTF-8" standalone="no"?>
<!DOCTYPE svg PUBLIC "-//W3C//DTD SVG 1.1//EN"
 "http://www.w3.org/Graphics/SVG/1.1/DTD/svg11.dtd">
<!-- Generated by graphviz version 2.43.0 (0)
 -->
<!-- Title: Representação gráfica da hiearquia da classe Pages: 1 -->
<svg width="213pt" height="332pt"
 viewBox="0.00 0.00 213.00 332.00" xmlns="http://www.w3.org/2000/svg" xmlns:xlink="http://www.w3.org/1999/xlink">
<g id="graph0" class="graph" transform="scale(1 1) rotate(0) translate(4 328)">
<title>Representação gráfica da hiearquia da classe</title>
<!-- Node2 -->
<g id="node1" class="node">
<title>Node2</title>
<g id="a_node1"><a xlink:title=" ">
<polygon fill="none" stroke="#bfbfbf" points="0,-152.5 0,-171.5 47,-171.5 47,-152.5 0,-152.5"/>
<text text-anchor="middle" x="23.5" y="-159.5" font-family="Helvetica,sans-Serif" font-size="10.00">vector</text>
</a>
</g>
</g>
<!-- Node0 -->
<g id="node2" class="node">
<title>Node0</title>
<g id="a_node2"><a xlink:href="class_attributes.xhtml" target="_top" xlink:title="Vetor (tabela) dos atributos. Cada entrada é do tipo AttributeInfo.">
<polygon fill="none" stroke="black" points="111.5,-304.5 111.5,-323.5 176.5,-323.5 176.5,-304.5 111.5,-304.5"/>
<text text-anchor="middle" x="144" y="-311.5" font-family="Helvetica,sans-Serif" font-size="10.00">Attributes</text>
</a>
</g>
</g>
<!-- Node2&#45;&gt;Node0 -->
<g id="edge1" class="edge">
<title>Node2&#45;&gt;Node0</title>
<path fill="none" stroke="midnightblue" d="M27.88,-181.72C33.85,-210.66 49.03,-264.5 83,-295 90.89,-302.08 101.41,-306.52 111.44,-309.31"/>
<polygon fill="midnightblue" stroke="midnightblue" points="31.26,-180.79 25.96,-171.62 24.39,-182.1 31.26,-180.79"/>
</g>
<!-- Node4 -->
<g id="node3" class="node">
<title>Node4</title>
<g id="a_node3"><a xlink:href="class_classes.xhtml" target="_top" xlink:title=" ">
<polygon fill="none" stroke="black" points="117,-266.5 117,-285.5 171,-285.5 171,-266.5 117,-266.5"/>
<text text-anchor="middle" x="144" y="-273.5" font-family="Helvetica,sans-Serif" font-size="10.00">Classes</text>
</a>
</g>
</g>
<!-- Node2&#45;&gt;Node4 -->
<g id="edge2" class="edge">
<title>Node2&#45;&gt;Node4</title>
<path fill="none" stroke="midnightblue" d="M31.46,-181.02C40.26,-202.5 57.41,-237.03 83,-257 92.73,-264.6 105.56,-269.19 116.86,-271.95"/>
<polygon fill="midnightblue" stroke="midnightblue" points="34.7,-179.7 27.81,-171.65 28.18,-182.24 34.7,-179.7"/>
</g>
<!-- Node5 -->
<g id="node4" class="node">
<title>Node5</title>
<g id="a_node4"><a xlink:href="class_constant_pool.xhtml" target="_top" xlink:title="Vetor (tabela) das constantes. Cada entrada é do tipo Cpinfo.">
<polygon fill="none" stroke="black" points="103.5,-228.5 103.5,-247.5 184.5,-247.5 184.5,-228.5 103.5,-228.5"/>
<text text-anchor="middle" x="144" y="-235.5" font-family="Helvetica,sans-Serif" font-size="10.00">ConstantPool</text>
</a>
</g>
</g>
<!-- Node2&#45;&gt;Node5 -->
<g id="edge3" class="edge">
<title>Node2&#45;&gt;Node5</title>
<path fill="none" stroke="midnightblue" d="M38.84,-179.85C49.76,-192.39 65.8,-208.7 83,-219 89.37,-222.82 96.6,-225.95 103.76,-228.49"/>
<polygon fill="midnightblue" stroke="midnightblue" points="41.26,-177.3 32.15,-171.9 35.9,-181.8 41.26,-177.3"/>
</g>
<!-- Node6 -->
<g id="node5" class="node">
<title>Node6</title>
<g id="a_node5"><a xlink:href="class_exception_table.xhtml" target="_top" xlink:title=" ">
<polygon fill="none" stroke="black" points="99,-190.5 99,-209.5 189,-209.5 189,-190.5 99,-190.5"/>
<text text-anchor="middle" x="144" y="-197.5" font-family="Helvetica,sans-Serif" font-size="10.00">ExceptionTable</text>
</a>
</g>
</g>
<!-- Node2&#45;&gt;Node6 -->
<g id="edge4" class="edge">
<title>Node2&#45;&gt;Node6</title>
<path fill="none" stroke="midnightblue" d="M56.86,-172.56C65.36,-175.32 74.52,-178.28 83,-181 92.68,-184.1 103.24,-187.46 112.77,-190.48"/>
<polygon fill="midnightblue" stroke="midnightblue" points="57.86,-169.2 47.27,-169.44 55.7,-175.86 57.86,-169.2"/>
</g>
<!-- Node7 -->
<g id="node6" class="node">
<title>Node7</title>
<g id="a_node6"><a xlink:href="class_fields.xhtml" target="_top" xlink:title="Vetor de fields da JVM.">
<polygon fill="none" stroke="black" points="122,-152.5 122,-171.5 166,-171.5 166,-152.5 122,-152.5"/>
<text text-anchor="middle" x="144" y="-159.5" font-family="Helvetica,sans-Serif" font-size="10.00">Fields</text>
</a>
</g>
</g>
<!-- Node2&#45;&gt;Node7 -->
<g id="edge5" class="edge">
<title>Node2&#45;&gt;Node7</title>
<path fill="none" stroke="midnightblue" d="M57.27,-162C77.84,-162 103.78,-162 121.71,-162"/>
<polygon fill="midnightblue" stroke="midnightblue" points="57.07,-158.5 47.07,-162 57.07,-165.5 57.07,-158.5"/>
</g>
<!-- Node8 -->
<g id="node7" class="node">
<title>Node8</title>
<g id="a_node7"><a xlink:href="class_interfaces.xhtml" target="_top" xlink:title="Métodos para extração e impressão das interfaces do arquivo.">
<polygon fill="none" stroke="black" points="111.5,-114.5 111.5,-133.5 176.5,-133.5 176.5,-114.5 111.5,-114.5"/>
<text text-anchor="middle" x="144" y="-121.5" font-family="Helvetica,sans-Serif" font-size="10.00">Interfaces</text>
</a>
</g>
</g>
<!-- Node2&#45;&gt;Node8 -->
<g id="edge6" class="edge">
<title>Node2&#45;&gt;Node8</title>
<path fill="none" stroke="midnightblue" d="M56.86,-151.44C65.36,-148.68 74.52,-145.72 83,-143 92.68,-139.9 103.24,-136.54 112.77,-133.52"/>
<polygon fill="midnightblue" stroke="midnightblue" points="55.7,-148.14 47.27,-154.56 57.86,-154.8 55.7,-148.14"/>
</g>
<!-- Node9 -->
<g id="node8" class="node">
<title>Node9</title>
<g id="a_node8"><a xlink:href="class_line_number_table_str.xhtml" target="_top" xlink:title=" ">
<polygon fill="none" stroke="black" points="86.5,-76.5 86.5,-95.5 201.5,-95.5 201.5,-76.5 86.5,-76.5"/>
<text text-anchor="middle" x="144" y="-83.5" font-family="Helvetica,sans-Serif" font-size="10.00">LineNumberTableStr</text>
</a>
</g>
</g>
<!-- Node2&#45;&gt;Node9 -->
<g id="edge7" class="edge">
<title>Node2&#45;&gt;Node9</title>
<path fill="none" stroke="midnightblue" d="M38.84,-144.15C49.76,-131.61 65.8,-115.3 83,-105 89.37,-101.18 96.6,-98.05 103.76,-95.51"/>
<polygon fill="midnightblue" stroke="midnightblue" points="35.9,-142.2 32.15,-152.1 41.26,-146.7 35.9,-142.2"/>
</g>
<!-- Node10 -->
<g id="node9" class="node">
<title>Node10</title>
<g id="a_node9"><a xlink:href="class_local_variable_table_str.xhtml" target="_top" xlink:title=" ">
<polygon fill="none" stroke="black" points="83,-38.5 83,-57.5 205,-57.5 205,-38.5 83,-38.5"/>
<text text-anchor="middle" x="144" y="-45.5" font-family="Helvetica,sans-Serif" font-size="10.00">LocalVariableTableStr</text>
</a>
</g>
</g>
<!-- Node2&#45;&gt;Node10 -->
<g id="edge8" class="edge">
<title>Node2&#45;&gt;Node10</title>
<path fill="none" stroke="midnightblue" d="M31.46,-142.98C40.26,-121.5 57.41,-86.97 83,-67 88,-63.1 93.81,-59.99 99.81,-57.52"/>
<polygon fill="midnightblue" stroke="midnightblue" points="28.18,-141.76 27.81,-152.35 34.7,-144.3 28.18,-141.76"/>
</g>
<!-- Node11 -->
<g id="node10" class="node">
<title>Node11</title>
<g id="a_node10"><a xlink:href="class_methods.xhtml" target="_top" xlink:title="Vetor dos métodos da JVM.">
<polygon fill="none" stroke="black" points="114.5,-0.5 114.5,-19.5 173.5,-19.5 173.5,-0.5 114.5,-0.5"/>
<text text-anchor="middle" x="144" y="-7.5" font-family="Helvetica,sans-Serif" font-size="10.00">Methods</text>
</a>
</g>
</g>
<!-- Node2&#45;&gt;Node11 -->
<g id="edge9" class="edge">
<title>Node2&#45;&gt;Node11</title>
<path fill="none" stroke="midnightblue" d="M27.88,-142.28C33.85,-113.34 49.03,-59.5 83,-29 91.62,-21.26 103.39,-16.68 114.22,-13.96"/>
<polygon fill="midnightblue" stroke="midnightblue" points="24.39,-141.9 25.96,-152.38 31.26,-143.21 24.39,-141.9"/>
</g>
</g>
</svg>
