<?xml version="1.0" encoding="UTF-8" standalone="no"?>
<!DOCTYPE svg PUBLIC "-//W3C//DTD SVG 1.1//EN"
 "http://www.w3.org/Graphics/SVG/1.1/DTD/svg11.dtd">
<!-- Generated by graphviz version 2.43.0 (0)
 -->
<!-- Title: Representação gráfica da hiearquia da classe Pages: 1 -->
<svg width="213pt" height="294pt"
 viewBox="0.00 0.00 213.00 294.00" xmlns="http://www.w3.org/2000/svg" xmlns:xlink="http://www.w3.org/1999/xlink">
<g id="graph0" class="graph" transform="scale(1 1) rotate(0) translate(4 290)">
<title>Representação gráfica da hiearquia da classe</title>
<!-- Node2 -->
<g id="node1" class="node">
<title>Node2</title>
<g id="a_node1"><a xlink:title=" ">
<polygon fill="none" stroke="#bfbfbf" points="0,-133.5 0,-152.5 47,-152.5 47,-133.5 0,-133.5"/>
<text text-anchor="middle" x="23.5" y="-140.5" font-family="Helvetica,sans-Serif" font-size="10.00">vector</text>
</a>
</g>
</g>
<!-- Node0 -->
<g id="node2" class="node">
<title>Node0</title>
<g id="a_node2"><a xlink:href="class_attributes.xhtml" target="_top" xlink:title="Vetor (tabela) dos atributos. Cada entrada é do tipo AttributeInfo.">
<polygon fill="none" stroke="black" points="111.5,-266.5 111.5,-285.5 176.5,-285.5 176.5,-266.5 111.5,-266.5"/>
<text text-anchor="middle" x="144" y="-273.5" font-family="Helvetica,sans-Serif" font-size="10.00">Attributes</text>
</a>
</g>
</g>
<!-- Node2&#45;&gt;Node0 -->
<g id="edge1" class="edge">
<title>Node2&#45;&gt;Node0</title>
<path fill="none" stroke="midnightblue" d="M29.42,-162.43C36.83,-187.78 53.25,-231.86 83,-257 91.01,-263.77 101.45,-268.14 111.37,-270.95"/>
<polygon fill="midnightblue" stroke="midnightblue" points="32.73,-161.25 26.71,-152.53 25.98,-163.1 32.73,-161.25"/>
</g>
<!-- Node4 -->
<g id="node3" class="node">
<title>Node4</title>
<g id="a_node3"><a xlink:href="class_classes.xhtml" target="_top" xlink:title=" ">
<polygon fill="none" stroke="black" points="117,-228.5 117,-247.5 171,-247.5 171,-228.5 117,-228.5"/>
<text text-anchor="middle" x="144" y="-235.5" font-family="Helvetica,sans-Serif" font-size="10.00">Classes</text>
</a>
</g>
</g>
<!-- Node2&#45;&gt;Node4 -->
<g id="edge2" class="edge">
<title>Node2&#45;&gt;Node4</title>
<path fill="none" stroke="midnightblue" d="M34.5,-161.81C44.58,-179.04 61.68,-204.07 83,-219 93.03,-226.02 105.76,-230.53 116.92,-233.39"/>
<polygon fill="midnightblue" stroke="midnightblue" points="37.34,-159.71 29.4,-152.7 31.23,-163.13 37.34,-159.71"/>
</g>
<!-- Node5 -->
<g id="node4" class="node">
<title>Node5</title>
<g id="a_node4"><a xlink:href="class_constant_pool.xhtml" target="_top" xlink:title="Vetor (tabela) das constantes. Cada entrada é do tipo Cpinfo.">
<polygon fill="none" stroke="black" points="103.5,-190.5 103.5,-209.5 184.5,-209.5 184.5,-190.5 103.5,-190.5"/>
<text text-anchor="middle" x="144" y="-197.5" font-family="Helvetica,sans-Serif" font-size="10.00">ConstantPool</text>
</a>
</g>
</g>
<!-- Node2&#45;&gt;Node5 -->
<g id="edge3" class="edge">
<title>Node2&#45;&gt;Node5</title>
<path fill="none" stroke="midnightblue" d="M45.7,-158.76C56.47,-166.24 70,-174.86 83,-181 90.71,-184.64 99.29,-187.83 107.49,-190.5"/>
<polygon fill="midnightblue" stroke="midnightblue" points="47.55,-155.78 37.38,-152.83 43.49,-161.48 47.55,-155.78"/>
</g>
<!-- Node6 -->
<g id="node5" class="node">
<title>Node6</title>
<g id="a_node5"><a xlink:href="class_exception_table.xhtml" target="_top" xlink:title=" ">
<polygon fill="none" stroke="black" points="99,-152.5 99,-171.5 189,-171.5 189,-152.5 99,-152.5"/>
<text text-anchor="middle" x="144" y="-159.5" font-family="Helvetica,sans-Serif" font-size="10.00">ExceptionTable</text>
</a>
</g>
</g>
<!-- Node2&#45;&gt;Node6 -->
<g id="edge4" class="edge">
<title>Node2&#45;&gt;Node6</title>
<path fill="none" stroke="midnightblue" d="M57.31,-148.26C70.17,-150.32 85.13,-152.72 98.91,-154.93"/>
<polygon fill="midnightblue" stroke="midnightblue" points="57.5,-144.75 47.07,-146.62 56.39,-151.66 57.5,-144.75"/>
</g>
<!-- Node7 -->
<g id="node6" class="node">
<title>Node7</title>
<g id="a_node6"><a xlink:href="class_fields.xhtml" target="_top" xlink:title="Vetor de fields da JVM.">
<polygon fill="none" stroke="black" points="122,-114.5 122,-133.5 166,-133.5 166,-114.5 122,-114.5"/>
<text text-anchor="middle" x="144" y="-121.5" font-family="Helvetica,sans-Serif" font-size="10.00">Fields</text>
</a>
</g>
</g>
<!-- Node2&#45;&gt;Node7 -->
<g id="edge5" class="edge">
<title>Node2&#45;&gt;Node7</title>
<path fill="none" stroke="midnightblue" d="M56.98,-137.79C77.6,-134.49 103.7,-130.3 121.71,-127.41"/>
<polygon fill="midnightblue" stroke="midnightblue" points="56.39,-134.34 47.07,-139.38 57.5,-141.25 56.39,-134.34"/>
</g>
<!-- Node8 -->
<g id="node7" class="node">
<title>Node8</title>
<g id="a_node7"><a xlink:href="class_line_number_table_str.xhtml" target="_top" xlink:title=" ">
<polygon fill="none" stroke="black" points="86.5,-76.5 86.5,-95.5 201.5,-95.5 201.5,-76.5 86.5,-76.5"/>
<text text-anchor="middle" x="144" y="-83.5" font-family="Helvetica,sans-Serif" font-size="10.00">LineNumberTableStr</text>
</a>
</g>
</g>
<!-- Node2&#45;&gt;Node8 -->
<g id="edge6" class="edge">
<title>Node2&#45;&gt;Node8</title>
<path fill="none" stroke="midnightblue" d="M45.7,-127.24C56.47,-119.76 70,-111.14 83,-105 90.71,-101.36 99.29,-98.17 107.49,-95.5"/>
<polygon fill="midnightblue" stroke="midnightblue" points="43.49,-124.52 37.38,-133.17 47.55,-130.22 43.49,-124.52"/>
</g>
<!-- Node9 -->
<g id="node8" class="node">
<title>Node9</title>
<g id="a_node8"><a xlink:href="class_local_variable_table_str.xhtml" target="_top" xlink:title=" ">
<polygon fill="none" stroke="black" points="83,-38.5 83,-57.5 205,-57.5 205,-38.5 83,-38.5"/>
<text text-anchor="middle" x="144" y="-45.5" font-family="Helvetica,sans-Serif" font-size="10.00">LocalVariableTableStr</text>
</a>
</g>
</g>
<!-- Node2&#45;&gt;Node9 -->
<g id="edge7" class="edge">
<title>Node2&#45;&gt;Node9</title>
<path fill="none" stroke="midnightblue" d="M34.5,-124.19C44.58,-106.96 61.68,-81.93 83,-67 88.55,-63.12 94.93,-60 101.41,-57.5"/>
<polygon fill="midnightblue" stroke="midnightblue" points="31.23,-122.87 29.4,-133.3 37.34,-126.29 31.23,-122.87"/>
</g>
<!-- Node10 -->
<g id="node9" class="node">
<title>Node10</title>
<g id="a_node9"><a xlink:href="class_methods.xhtml" target="_top" xlink:title="Vetor dos métodos da JVM.">
<polygon fill="none" stroke="black" points="114.5,-0.5 114.5,-19.5 173.5,-19.5 173.5,-0.5 114.5,-0.5"/>
<text text-anchor="middle" x="144" y="-7.5" font-family="Helvetica,sans-Serif" font-size="10.00">Methods</text>
</a>
</g>
</g>
<!-- Node2&#45;&gt;Node10 -->
<g id="edge8" class="edge">
<title>Node2&#45;&gt;Node10</title>
<path fill="none" stroke="midnightblue" d="M29.42,-123.57C36.83,-98.22 53.25,-54.14 83,-29 91.85,-21.52 103.65,-16.98 114.45,-14.22"/>
<polygon fill="midnightblue" stroke="midnightblue" points="25.98,-122.9 26.71,-133.47 32.73,-124.75 25.98,-122.9"/>
</g>
</g>
</svg>
