<?xml version="1.0" encoding="UTF-8" standalone="no"?>
<!DOCTYPE svg PUBLIC "-//W3C//DTD SVG 1.1//EN"
 "http://www.w3.org/Graphics/SVG/1.1/DTD/svg11.dtd">
<!-- Generated by graphviz version 2.43.0 (0)
 -->
<!-- Title: Representação gráfica da hiearquia da classe Pages: 1 -->
<svg width="238pt" height="256pt"
 viewBox="0.00 0.00 238.00 256.00" xmlns="http://www.w3.org/2000/svg" xmlns:xlink="http://www.w3.org/1999/xlink">
<g id="graph0" class="graph" transform="scale(1 1) rotate(0) translate(4 252)">
<title>Representação gráfica da hiearquia da classe</title>
<!-- Node0 -->
<g id="node1" class="node">
<title>Node0</title>
<g id="a_node1"><a xlink:href="class_attribute_info.xhtml" target="_top" xlink:title="Classe base a ser herdada pelas classes das entradas do vetor Attributes, contendo membros gerais.">
<polygon fill="none" stroke="black" points="0,-114.5 0,-133.5 78,-133.5 78,-114.5 0,-114.5"/>
<text text-anchor="middle" x="39" y="-121.5" font-family="Helvetica,sans-Serif" font-size="10.00">AttributeInfo</text>
</a>
</g>
</g>
<!-- Node1 -->
<g id="node2" class="node">
<title>Node1</title>
<g id="a_node2"><a xlink:href="class_code.xhtml" target="_top" xlink:title=" ">
<polygon fill="none" stroke="black" points="151.5,-228.5 151.5,-247.5 192.5,-247.5 192.5,-228.5 151.5,-228.5"/>
<text text-anchor="middle" x="172" y="-235.5" font-family="Helvetica,sans-Serif" font-size="10.00">Code</text>
</a>
</g>
</g>
<!-- Node0&#45;&gt;Node1 -->
<g id="edge1" class="edge">
<title>Node0&#45;&gt;Node1</title>
<path fill="none" stroke="midnightblue" d="M49.81,-142.35C62.11,-163.69 85.13,-198.59 114,-219 125.16,-226.89 139.82,-231.68 151.48,-234.48"/>
<polygon fill="midnightblue" stroke="midnightblue" points="52.86,-140.63 44.93,-133.6 46.75,-144.04 52.86,-140.63"/>
</g>
<!-- Node2 -->
<g id="node3" class="node">
<title>Node2</title>
<g id="a_node3"><a xlink:href="class_constant_value.xhtml" target="_top" xlink:title="Atributo para uma estrutura de campo (Field) e representa o valor de uma expressão constante....">
<polygon fill="none" stroke="black" points="114,-190.5 114,-209.5 230,-209.5 230,-190.5 114,-190.5"/>
<text text-anchor="middle" x="172" y="-197.5" font-family="Helvetica,sans-Serif" font-size="10.00">ConstantValue&lt; T &gt;</text>
</a>
</g>
</g>
<!-- Node0&#45;&gt;Node2 -->
<g id="edge2" class="edge">
<title>Node0&#45;&gt;Node2</title>
<path fill="none" stroke="midnightblue" d="M57.83,-140.51C72.13,-153.03 93.18,-169.92 114,-181 120.91,-184.68 128.66,-187.83 136.17,-190.45"/>
<polygon fill="midnightblue" stroke="midnightblue" points="60.03,-137.78 50.25,-133.72 55.36,-143 60.03,-137.78"/>
</g>
<!-- Node3 -->
<g id="node4" class="node">
<title>Node3</title>
<g id="a_node4"><a xlink:href="class_exceptions.xhtml" target="_top" xlink:title=" ">
<polygon fill="none" stroke="black" points="137,-152.5 137,-171.5 207,-171.5 207,-152.5 137,-152.5"/>
<text text-anchor="middle" x="172" y="-159.5" font-family="Helvetica,sans-Serif" font-size="10.00">Exceptions</text>
</a>
</g>
</g>
<!-- Node0&#45;&gt;Node3 -->
<g id="edge3" class="edge">
<title>Node0&#45;&gt;Node3</title>
<path fill="none" stroke="midnightblue" d="M82.71,-136.39C100.65,-141.59 121.2,-147.55 137.95,-152.41"/>
<polygon fill="midnightblue" stroke="midnightblue" points="83.64,-133.01 73.06,-133.59 81.69,-139.74 83.64,-133.01"/>
</g>
<!-- Node4 -->
<g id="node5" class="node">
<title>Node4</title>
<g id="a_node5"><a xlink:href="class_inner_classes.xhtml" target="_top" xlink:title=" ">
<polygon fill="none" stroke="black" points="132.5,-114.5 132.5,-133.5 211.5,-133.5 211.5,-114.5 132.5,-114.5"/>
<text text-anchor="middle" x="172" y="-121.5" font-family="Helvetica,sans-Serif" font-size="10.00">InnerClasses</text>
</a>
</g>
</g>
<!-- Node0&#45;&gt;Node4 -->
<g id="edge4" class="edge">
<title>Node0&#45;&gt;Node4</title>
<path fill="none" stroke="midnightblue" d="M88.54,-124C103.04,-124 118.72,-124 132.48,-124"/>
<polygon fill="midnightblue" stroke="midnightblue" points="88.24,-120.5 78.24,-124 88.24,-127.5 88.24,-120.5"/>
</g>
<!-- Node5 -->
<g id="node6" class="node">
<title>Node5</title>
<g id="a_node6"><a xlink:href="class_line_number_table.xhtml" target="_top" xlink:title=" ">
<polygon fill="none" stroke="black" points="121.5,-76.5 121.5,-95.5 222.5,-95.5 222.5,-76.5 121.5,-76.5"/>
<text text-anchor="middle" x="172" y="-83.5" font-family="Helvetica,sans-Serif" font-size="10.00">LineNumberTable</text>
</a>
</g>
</g>
<!-- Node0&#45;&gt;Node5 -->
<g id="edge5" class="edge">
<title>Node0&#45;&gt;Node5</title>
<path fill="none" stroke="midnightblue" d="M82.71,-111.61C100.65,-106.41 121.2,-100.45 137.95,-95.59"/>
<polygon fill="midnightblue" stroke="midnightblue" points="81.69,-108.26 73.06,-114.41 83.64,-114.99 81.69,-108.26"/>
</g>
<!-- Node6 -->
<g id="node7" class="node">
<title>Node6</title>
<g id="a_node7"><a xlink:href="class_local_variable_table.xhtml" target="_top" xlink:title=" ">
<polygon fill="none" stroke="black" points="118,-38.5 118,-57.5 226,-57.5 226,-38.5 118,-38.5"/>
<text text-anchor="middle" x="172" y="-45.5" font-family="Helvetica,sans-Serif" font-size="10.00">LocalVariableTable</text>
</a>
</g>
</g>
<!-- Node0&#45;&gt;Node6 -->
<g id="edge6" class="edge">
<title>Node0&#45;&gt;Node6</title>
<path fill="none" stroke="midnightblue" d="M57.83,-107.49C72.13,-94.97 93.18,-78.08 114,-67 120.91,-63.32 128.66,-60.17 136.17,-57.55"/>
<polygon fill="midnightblue" stroke="midnightblue" points="55.36,-105 50.25,-114.28 60.03,-110.22 55.36,-105"/>
</g>
<!-- Node7 -->
<g id="node8" class="node">
<title>Node7</title>
<g id="a_node8"><a xlink:href="class_source_file.xhtml" target="_top" xlink:title=" ">
<polygon fill="none" stroke="black" points="139,-0.5 139,-19.5 205,-19.5 205,-0.5 139,-0.5"/>
<text text-anchor="middle" x="172" y="-7.5" font-family="Helvetica,sans-Serif" font-size="10.00">SourceFile</text>
</a>
</g>
</g>
<!-- Node0&#45;&gt;Node7 -->
<g id="edge7" class="edge">
<title>Node0&#45;&gt;Node7</title>
<path fill="none" stroke="midnightblue" d="M49.81,-105.65C62.11,-84.31 85.13,-49.41 114,-29 121.41,-23.76 130.37,-19.89 138.96,-17.06"/>
<polygon fill="midnightblue" stroke="midnightblue" points="46.75,-103.96 44.93,-114.4 52.86,-107.37 46.75,-103.96"/>
</g>
</g>
</svg>
