<?xml version="1.0" encoding="UTF-8" standalone="no"?>
<!DOCTYPE svg PUBLIC "-//W3C//DTD SVG 1.1//EN"
 "http://www.w3.org/Graphics/SVG/1.1/DTD/svg11.dtd">
<!-- Generated by graphviz version 2.43.0 (0)
 -->
<!-- Title: Representação gráfica da hiearquia da classe Pages: 1 -->
<svg width="205pt" height="142pt"
 viewBox="0.00 0.00 205.00 142.00" xmlns="http://www.w3.org/2000/svg" xmlns:xlink="http://www.w3.org/1999/xlink">
<g id="graph0" class="graph" transform="scale(1 1) rotate(0) translate(4 138)">
<title>Representação gráfica da hiearquia da classe</title>
<!-- Node0 -->
<g id="node1" class="node">
<title>Node0</title>
<g id="a_node1"><a xlink:href="class_opcode.xhtml" target="_top" xlink:title="Classe base para Opcodes. Ainda não está pronta para ser uma classe completa para instruções,...">
<polygon fill="none" stroke="black" points="0,-57.5 0,-76.5 53,-76.5 53,-57.5 0,-57.5"/>
<text text-anchor="middle" x="26.5" y="-64.5" font-family="Helvetica,sans-Serif" font-size="10.00">Opcode</text>
</a>
</g>
</g>
<!-- Node1 -->
<g id="node2" class="node">
<title>Node1</title>
<g id="a_node2"><a xlink:href="class_increment_opcode.xhtml" target="_top" xlink:title="Opcode de incremento.">
<polygon fill="none" stroke="black" points="91.5,-114.5 91.5,-133.5 194.5,-133.5 194.5,-114.5 91.5,-114.5"/>
<text text-anchor="middle" x="143" y="-121.5" font-family="Helvetica,sans-Serif" font-size="10.00">IncrementOpcode</text>
</a>
</g>
</g>
<!-- Node0&#45;&gt;Node1 -->
<g id="edge1" class="edge">
<title>Node0&#45;&gt;Node1</title>
<path fill="none" stroke="midnightblue" d="M49.66,-82.26C61.08,-89.72 75.44,-98.47 89,-105 96.22,-108.48 104.25,-111.68 111.84,-114.42"/>
<polygon fill="midnightblue" stroke="midnightblue" points="51.46,-79.25 41.19,-76.62 47.58,-85.08 51.46,-79.25"/>
</g>
<!-- Node2 -->
<g id="node3" class="node">
<title>Node2</title>
<g id="a_node3"><a xlink:href="class_s2_operand_opcode.xhtml" target="_top" xlink:title="Opcode com dois bytes de operandos com sinal. Os dois bytes são juntados para formarem um inteiro de ...">
<polygon fill="none" stroke="black" points="89.5,-76.5 89.5,-95.5 196.5,-95.5 196.5,-76.5 89.5,-76.5"/>
<text text-anchor="middle" x="143" y="-83.5" font-family="Helvetica,sans-Serif" font-size="10.00">S2OperandOpcode</text>
</a>
</g>
</g>
<!-- Node0&#45;&gt;Node2 -->
<g id="edge2" class="edge">
<title>Node0&#45;&gt;Node2</title>
<path fill="none" stroke="midnightblue" d="M63.21,-72.93C71.46,-74.29 80.41,-75.78 89.22,-77.24"/>
<polygon fill="midnightblue" stroke="midnightblue" points="63.63,-69.45 53.2,-71.26 62.49,-76.35 63.63,-69.45"/>
</g>
<!-- Node3 -->
<g id="node4" class="node">
<title>Node3</title>
<g id="a_node4"><a xlink:href="class_u1_operand_opcode.xhtml" target="_top" xlink:title="Opcode com um byte de operando.">
<polygon fill="none" stroke="black" points="89,-38.5 89,-57.5 197,-57.5 197,-38.5 89,-38.5"/>
<text text-anchor="middle" x="143" y="-45.5" font-family="Helvetica,sans-Serif" font-size="10.00">U1OperandOpcode</text>
</a>
</g>
</g>
<!-- Node0&#45;&gt;Node3 -->
<g id="edge3" class="edge">
<title>Node0&#45;&gt;Node3</title>
<path fill="none" stroke="midnightblue" d="M63.08,-61.1C71.22,-59.74 80.05,-58.28 88.75,-56.84"/>
<polygon fill="midnightblue" stroke="midnightblue" points="62.49,-57.65 53.2,-62.74 63.63,-64.55 62.49,-57.65"/>
</g>
<!-- Node4 -->
<g id="node5" class="node">
<title>Node4</title>
<g id="a_node5"><a xlink:href="class_u2_operand_opcode.xhtml" target="_top" xlink:title="Opcode com dois bytes de operandos. Os dois bytes são juntados para formarem um u2 por (byte1 &lt;&lt; 8) |...">
<polygon fill="none" stroke="black" points="89,-0.5 89,-19.5 197,-19.5 197,-0.5 89,-0.5"/>
<text text-anchor="middle" x="143" y="-7.5" font-family="Helvetica,sans-Serif" font-size="10.00">U2OperandOpcode</text>
</a>
</g>
</g>
<!-- Node0&#45;&gt;Node4 -->
<g id="edge4" class="edge">
<title>Node0&#45;&gt;Node4</title>
<path fill="none" stroke="midnightblue" d="M49.66,-51.74C61.08,-44.28 75.44,-35.53 89,-29 96.22,-25.52 104.25,-22.32 111.84,-19.58"/>
<polygon fill="midnightblue" stroke="midnightblue" points="47.58,-48.92 41.19,-57.38 51.46,-54.75 47.58,-48.92"/>
</g>
</g>
</svg>
